<svg width="452" height="486" viewBox="0 0 452 486" fill="none" xmlns="http://www.w3.org/2000/svg">
<g clip-path="url(#clip0_82_2732)">
<path d="M138.551 464.702C165.244 441.624 168.005 403.734 163.403 370.322C162.597 364.696 162.597 358.841 159.491 354.133C156.269 349.54 149.711 346.785 144.994 349.655C141.082 352.066 139.701 357.004 137.861 361.252C135.329 366.878 131.187 371.815 126.01 375.145C122.673 377.326 118.301 378.934 114.62 377.326C109.557 375.145 108.292 368.6 107.716 362.974C106.681 352.64 105.645 342.192 104.725 331.859C104.15 326.347 103.574 320.606 101.388 315.554C99.0872 310.502 94.7151 305.91 89.3075 304.991C83.9 304.073 77.572 307.747 76.9967 313.373C76.7666 315.669 77.4569 317.966 77.572 320.262C77.687 322.558 76.8816 325.199 74.6956 326.118C72.5096 327.036 70.0934 325.658 68.3676 324.166C62.0396 319.114 57.4374 312.34 52.9503 305.451C48.5782 298.676 44.2061 291.672 38.4534 286.046C32.5856 280.42 24.877 276.402 16.8232 276.746C8.76933 277.091 0.830568 282.946 -0.435032 290.984C-1.70063 299.021 3.70693 306.484 9.45966 312.34C17.8586 320.951 27.4082 328.414 37.8781 334.27C39.719 335.303 41.79 336.451 42.7104 338.518C44.3212 342.077 41.2147 346.096 37.648 347.703C33.6211 349.54 29.134 349.54 24.7619 350.459C20.5049 351.377 15.9027 353.789 14.7522 358.037C13.0263 364.007 18.4339 369.404 23.4963 372.848C33.7362 379.737 45.0115 384.789 56.8621 387.775C61.1192 388.808 65.6063 389.727 69.173 392.253C72.7397 394.779 75.2709 399.601 73.6601 403.734C72.0493 407.868 67.102 409.59 62.7299 409.245C58.3578 408.901 54.2159 406.949 50.0739 405.801C42.1352 403.734 32.2405 405.227 28.0985 412.346C25.3372 417.053 25.6824 423.138 27.8684 428.076C30.0544 433.128 33.8512 437.146 37.7631 440.935C51.5696 454.024 68.4826 464.013 86.8914 468.262C104.955 472.969 121.638 472.969 138.551 464.702Z" fill="#F5F5F5"/>
<path d="M141.657 489.503C139.126 476.414 134.524 461.028 127.851 444.609C121.177 428.19 112.318 410.853 102.424 392.941C99.8924 388.464 97.4762 384.1 95.0601 379.737C92.644 375.374 90.2278 371.126 87.5816 367.107C82.4041 358.955 76.7664 351.607 71.2438 344.718C65.7212 337.829 60.1986 331.514 55.0211 325.658C49.8437 319.803 44.8963 314.406 40.1791 309.699C30.7446 300.284 22.2306 293.509 16.2478 289.146C13.2563 286.965 10.8402 285.357 9.22944 284.209C8.42406 283.75 7.84879 283.291 7.38857 282.946C6.92835 282.717 6.69824 282.602 6.69824 282.602C6.69824 282.602 6.92835 282.831 7.27351 283.061C7.73373 283.406 8.30901 283.865 9.11439 284.324C10.7252 285.472 13.0262 287.194 16.0177 289.376C22.0005 293.854 30.3995 300.628 39.7189 310.158C44.4361 314.866 49.2684 320.262 54.4459 326.118C59.6233 331.973 65.0309 338.403 70.5535 345.177C76.0761 352.066 81.5987 359.415 86.7762 367.567C89.3074 371.585 91.7235 375.834 94.1397 380.197C96.5558 384.56 98.972 388.923 101.503 393.401C111.398 411.197 120.142 428.535 126.93 444.839C133.718 461.143 138.321 476.414 140.967 489.503" fill="#E0E0E0"/>
<path d="M87.3516 367.107C87.4667 367.107 87.4667 366.304 87.6968 364.696C87.8118 363.089 87.9269 360.907 88.0419 358.037C88.272 352.411 88.2721 344.603 88.2721 336.107C88.2721 327.495 88.3871 319.803 88.7323 314.177C88.8473 311.421 88.9624 309.125 89.0774 307.517C89.1925 305.91 89.1925 305.106 89.1925 305.106C89.0774 305.106 88.9624 305.91 88.7323 307.517C88.5022 309.125 88.272 311.306 88.0419 314.177C87.5817 319.803 87.2366 327.61 87.2366 336.107C87.2366 344.603 87.2366 352.181 87.2366 358.037C87.2366 360.678 87.2366 362.859 87.2366 364.696C87.2366 366.304 87.2366 367.107 87.3516 367.107Z" fill="#E0E0E0"/>
<path d="M14.292 361.137C14.292 361.252 15.3275 361.252 17.1684 361.137C19.0092 361.137 21.6555 361.022 24.9921 361.137C31.6652 361.137 40.7545 361.481 50.8793 362.4C61.0041 363.204 70.0935 364.467 76.6516 365.5C79.9882 365.959 82.6344 366.419 84.3602 366.763C86.2011 367.107 87.2366 367.222 87.2366 367.107C87.2366 366.993 86.2011 366.763 84.4753 366.304C82.6344 365.844 79.9882 365.27 76.7666 364.696C70.2085 363.433 61.1192 362.17 50.9944 361.367C40.8696 360.563 31.6652 360.218 24.9921 360.448C21.6555 360.448 19.0092 360.678 17.1684 360.792C15.3275 361.022 14.292 361.137 14.292 361.137Z" fill="#E0E0E0"/>
<path d="M126.7 443.346C126.7 443.346 126.815 443.002 127.045 442.428C127.275 441.739 127.621 440.82 127.966 439.672C128.771 437.261 129.922 433.816 131.187 429.568C133.834 421.072 137.055 409.131 140.392 395.927C143.728 382.723 146.95 370.782 149.366 362.17C150.516 358.037 151.552 354.592 152.242 351.952C152.587 350.803 152.818 349.885 153.048 349.196C153.163 348.507 153.278 348.277 153.278 348.163C153.278 348.163 153.163 348.507 152.933 349.081C152.703 349.77 152.357 350.689 152.012 351.837C151.207 354.248 150.056 357.692 148.791 361.941C146.144 370.437 142.923 382.378 139.586 395.582C136.25 408.786 133.028 420.727 130.612 429.339C129.461 433.472 128.426 436.917 127.736 439.557C127.391 440.705 127.16 441.624 126.93 442.313C126.815 443.002 126.7 443.346 126.7 443.346Z" fill="#E0E0E0"/>
<path d="M28.3286 422.564C28.3286 422.564 28.6738 422.679 29.3641 422.909C30.1695 423.024 31.0899 423.253 32.2405 423.598C34.8867 424.172 38.4534 424.976 42.8255 425.894C51.6847 427.846 63.9955 430.602 77.572 433.587C91.1484 436.687 103.459 439.328 112.318 441.05C116.806 441.854 120.372 442.543 122.903 443.002C124.054 443.232 124.974 443.346 125.78 443.461C126.47 443.576 126.815 443.576 126.815 443.576C126.815 443.576 126.47 443.461 125.78 443.232C124.974 443.117 124.054 442.887 122.903 442.543C120.257 441.969 116.691 441.165 112.318 440.246C103.459 438.294 91.1484 435.539 77.572 432.554C63.9955 429.453 51.6847 426.813 42.8255 425.09C38.3384 424.287 34.7717 423.598 32.2405 423.139C31.0899 422.909 30.1695 422.794 29.3641 422.679C28.6738 422.564 28.3286 422.564 28.3286 422.564Z" fill="#E0E0E0"/>
<path d="M111.283 210.956C110.478 210.956 109.557 210.497 109.212 209.693L104.265 199.359C103.92 198.67 103.92 197.981 104.265 197.293C104.61 196.604 105.185 196.144 105.875 196.03C107.716 195.685 109.442 194.537 110.593 192.815C111.628 191.207 111.973 189.37 111.628 187.763C111.283 186.155 110.017 184.663 108.407 183.744C106.681 182.711 104.495 182.481 102.769 182.94C99.2023 183.974 96.556 188.222 97.1313 192.126C97.3614 193.389 96.441 194.537 95.1754 194.767C93.9098 194.996 92.7592 194.078 92.5291 192.815C91.6087 186.614 95.6356 180.3 101.388 178.577C104.38 177.659 107.716 178.118 110.708 179.725C113.469 181.333 115.425 183.859 116.115 186.615C116.806 189.485 116.23 192.585 114.505 195.226C113.239 197.178 111.513 198.67 109.557 199.589L113.354 207.626C113.929 208.774 113.469 210.152 112.318 210.726C111.973 210.956 111.628 210.956 111.283 210.956Z" fill="#E0E0E0"/>
<path d="M116.23 213.941C116.69 214.86 116.345 216.008 115.425 216.467C114.504 216.926 113.354 216.582 112.894 215.663C112.433 214.745 112.779 213.597 113.699 213.137C114.619 212.678 115.77 213.023 116.23 213.941Z" fill="#E0E0E0"/>
<path d="M48.003 176.281C47.4278 176.281 46.8525 175.936 46.5073 175.362L43.0557 168.129C42.8256 167.669 42.8256 167.095 43.0557 166.636C43.2858 166.177 43.746 165.832 44.2062 165.832C45.4718 165.603 46.7374 164.799 47.5428 163.536C48.2331 162.388 48.4633 161.125 48.2331 159.977C48.003 158.828 47.0826 157.795 45.9321 157.221C44.6665 156.532 43.1707 156.303 42.0202 156.647C39.489 157.451 37.6481 160.321 38.1083 163.077C38.2234 163.995 37.6481 164.799 36.7277 164.914C35.8073 165.029 35.0019 164.455 34.8868 163.536C34.3115 159.288 37.0728 154.81 41.0998 153.547C43.1707 152.973 45.5869 153.202 47.5428 154.351C49.4987 155.499 50.8794 157.221 51.3396 159.173C51.7998 161.125 51.4547 163.421 50.1891 165.258C49.2686 166.636 48.1181 167.669 46.7374 168.244L49.3837 173.87C49.7289 174.673 49.3837 175.592 48.5783 176.051C48.4632 176.166 48.2331 176.281 48.003 176.281Z" fill="#F5F5F5"/>
<path d="M51.4547 178.348C51.7999 179.036 51.5697 179.84 50.8794 180.07C50.1891 180.414 49.3837 180.185 49.1536 179.496C48.9235 178.807 49.0385 178.003 49.7289 177.773C50.3041 177.429 51.1095 177.659 51.4547 178.348Z" fill="#F5F5F5"/>
<path d="M335.064 180.185C335.294 180.759 335.294 181.448 334.834 181.907L329.772 188.107C329.426 188.452 328.966 188.681 328.506 188.681C328.046 188.681 327.586 188.452 327.24 187.992C326.435 186.959 325.169 186.155 323.789 186.04C322.523 185.811 321.258 186.155 320.337 186.959C319.417 187.648 318.841 188.911 318.726 190.174C318.611 191.552 319.071 193.044 319.877 193.963C321.603 195.915 325.054 196.259 327.355 194.766C328.046 194.307 329.081 194.537 329.541 195.226C330.002 196.029 329.772 196.948 329.081 197.407C325.399 199.818 320.222 199.13 317.461 196.029C315.965 194.422 315.275 192.126 315.505 189.829C315.62 187.648 316.655 185.581 318.266 184.318C319.877 183.055 322.063 182.481 324.249 182.711C325.86 182.94 327.355 183.514 328.506 184.548L332.418 179.725C332.993 179.036 334.029 178.922 334.719 179.496C334.834 179.725 334.949 179.955 335.064 180.185Z" fill="#F5F5F5"/>
<path d="M335.524 176.166C335.984 175.592 336.79 175.477 337.365 175.936C337.94 176.396 338.055 177.199 337.595 177.774C337.135 178.348 336.33 178.462 335.754 178.003C335.179 177.544 335.064 176.74 335.524 176.166Z" fill="#F5F5F5"/>
<path d="M318.266 30.3477C318.496 30.9218 318.496 31.6107 318.036 32.07L312.974 38.2701C312.628 38.6146 312.168 38.8442 311.708 38.8442C311.248 38.8442 310.788 38.6146 310.442 38.1553C309.637 37.122 308.372 36.3182 306.991 36.2034C305.725 35.9738 304.46 36.3183 303.539 37.122C302.619 37.8109 302.044 39.0739 301.928 40.3369C301.813 41.7147 302.274 43.2073 303.079 44.1258C304.805 46.0777 308.256 46.4222 310.558 44.9296C311.248 44.4703 312.283 44.6999 312.744 45.3888C313.204 46.1926 312.974 47.1111 312.283 47.5704C308.602 49.9815 303.424 49.2926 300.663 46.1926C299.167 44.5851 298.477 42.2888 298.707 39.9924C298.822 37.8109 299.857 35.7442 301.468 34.4812C303.079 33.2182 305.265 32.6441 307.451 32.8737C309.062 33.1034 310.558 33.6774 311.708 34.7108L315.62 29.8885C316.195 29.1996 317.231 29.0847 317.921 29.6588C318.036 30.0033 318.151 30.1181 318.266 30.3477Z" fill="#F5F5F5"/>
<path d="M318.611 26.3292C319.071 25.7551 319.877 25.6403 320.452 26.0996C321.027 26.5588 321.142 27.3625 320.682 27.9366C320.222 28.5107 319.417 28.6255 318.841 28.1663C318.266 27.8218 318.151 26.9033 318.611 26.3292Z" fill="#F5F5F5"/>
<path d="M190.556 53.4263C191.361 53.4263 192.051 53.8855 192.397 54.5744L196.884 63.9895C197.114 64.5636 197.114 65.2525 196.884 65.8266C196.539 66.4006 196.078 66.8599 195.388 66.9747C193.662 67.3192 192.166 68.3525 191.131 69.8452C190.211 71.223 189.865 72.9452 190.211 74.4379C190.556 75.9305 191.591 77.1935 193.202 78.112C194.813 79.0306 196.769 79.2602 198.379 78.8009C201.601 77.8824 204.017 73.9786 203.442 70.4193C203.327 69.2711 204.132 68.2377 205.283 68.0081C206.433 67.8933 207.469 68.697 207.699 69.8452C208.504 75.4712 204.822 81.2121 199.645 82.8195C196.884 83.6233 193.892 83.2788 191.246 81.7862C188.715 80.4084 186.989 78.112 186.299 75.4712C185.608 72.8304 186.184 70.0748 187.794 67.6636C188.945 65.9414 190.556 64.5636 192.282 63.7598L188.83 56.5263C188.37 55.493 188.715 54.23 189.865 53.7707C189.865 53.4263 190.211 53.4263 190.556 53.4263Z" fill="#E0E0E0"/>
<path d="M185.953 50.6705C185.493 49.8668 185.838 48.8334 186.644 48.3742C187.449 47.9149 188.485 48.2594 188.945 49.0631C189.405 49.8668 189.06 50.9002 188.255 51.3594C187.449 51.9335 186.414 51.5891 185.953 50.6705Z" fill="#E0E0E0"/>
<path d="M346.569 239.201C347.375 239.201 348.065 239.66 348.41 240.349L352.897 249.764C353.127 250.338 353.127 251.027 352.897 251.601C352.552 252.175 352.092 252.635 351.402 252.749C349.676 253.094 348.18 254.127 347.145 255.62C346.224 256.998 345.879 258.72 346.224 260.213C346.569 261.705 347.605 262.968 349.216 263.887C350.826 264.805 352.782 265.035 354.393 264.576C357.615 263.657 360.031 259.753 359.455 256.194C359.34 255.046 360.146 254.012 361.296 253.783C362.447 253.668 363.482 254.472 363.712 255.62C364.518 261.246 360.836 266.987 355.659 268.594C352.897 269.398 349.906 269.053 347.26 267.561C344.729 266.183 343.003 263.887 342.312 261.246C341.622 258.605 342.197 255.849 343.808 253.438C344.959 251.716 346.569 250.338 348.295 249.534L344.844 242.301C344.383 241.268 344.729 240.005 345.879 239.545C345.994 239.201 346.224 239.201 346.569 239.201Z" fill="#E0E0E0"/>
<path d="M342.082 236.445C341.622 235.641 341.967 234.608 342.773 234.149C343.578 233.69 344.614 234.034 345.074 234.838C345.534 235.641 345.189 236.675 344.383 237.134C343.578 237.708 342.543 237.364 342.082 236.445Z" fill="#E0E0E0"/>
<path d="M377.979 299.939C377.979 299.939 369.12 293.165 356.234 314.521C343.348 335.877 338.17 348.392 338.17 348.392C338.17 348.392 334.834 352.87 331.842 349.541C328.851 346.326 325.054 337.37 319.532 338.518C313.779 339.781 311.478 345.866 311.938 355.167C312.398 364.467 312.513 384.904 312.513 386.741C312.513 388.578 311.248 391.104 308.947 389.267C306.53 387.315 293.299 370.322 285.59 377.097C277.882 383.871 283.289 409.59 283.865 412.46C284.44 415.331 283.75 416.479 282.369 417.053C280.988 417.627 277.076 411.542 273.05 406.834C269.023 402.127 263.615 397.419 259.473 401.668C255.331 405.916 252.8 424.746 268.562 456.78L276.846 471.132L293.529 471.362C329.196 469.754 344.498 458.387 346.224 452.761C347.95 447.135 341.162 444.609 335.179 443.461C329.081 442.198 321.833 441.854 321.718 440.361C321.603 438.868 322.293 437.835 325.054 436.917C327.815 435.998 353.012 428.305 355.198 418.316C357.384 408.327 335.984 404.883 333.223 403.734C330.462 402.586 332.072 400.29 333.683 399.371C335.294 398.453 353.243 388.808 361.642 384.675C370.041 380.541 374.298 375.604 372.572 369.978C370.961 364.582 361.296 365.615 356.924 364.582C352.667 363.548 354.853 358.496 354.853 358.496C354.853 358.496 363.252 347.933 375.793 326.347C388.334 304.762 377.749 300.284 377.749 300.284" fill="#EBEBEB"/>
<path d="M366.359 319.114C366.359 319.114 366.244 319.229 366.129 319.573C365.899 319.917 365.668 320.377 365.323 320.951C364.633 322.099 363.712 323.821 362.447 326.118C359.916 330.596 356.234 337.025 351.517 344.833C342.312 360.678 329.311 382.378 314.929 406.375C300.548 430.372 287.546 452.072 278.227 467.802C273.625 475.725 269.828 482.04 267.182 486.518C265.916 488.699 264.881 490.422 264.19 491.57C263.845 492.144 263.615 492.603 263.385 492.833C263.155 493.177 263.155 493.292 263.155 493.292C263.155 493.292 263.27 493.177 263.385 492.833C263.615 492.488 263.845 492.029 264.075 491.455C264.766 490.307 265.686 488.584 266.952 486.288C269.483 481.81 273.165 475.38 277.882 467.573C287.086 451.728 300.087 430.028 314.469 406.031C328.851 382.034 341.852 360.333 351.172 344.603C355.774 336.681 359.571 330.366 362.217 325.888C363.482 323.706 364.518 321.984 365.208 320.836C365.553 320.262 365.783 319.803 366.014 319.573C366.244 319.229 366.359 319.114 366.359 319.114Z" fill="#E0E0E0"/>
<path d="M324.364 351.148C324.364 351.148 324.479 351.607 324.709 352.296C324.939 353.1 325.169 354.133 325.399 355.511C325.975 358.152 326.665 361.941 327.355 366.074C328.046 370.208 328.621 373.882 329.081 376.637C329.311 377.9 329.426 378.934 329.656 379.852C329.771 380.656 329.886 381 329.771 381C329.771 381 329.656 380.656 329.426 379.852C329.196 379.049 328.966 378.015 328.736 376.637C328.161 373.882 327.585 370.208 326.895 366.074C326.205 361.941 325.629 358.267 325.169 355.511C324.939 354.248 324.824 353.215 324.594 352.296C324.364 351.607 324.249 351.148 324.364 351.148Z" fill="#E0E0E0"/>
<path d="M331.152 381.575C331.152 381.46 338.746 379.737 348.295 377.671C357.845 375.719 365.553 374.111 365.553 374.341C365.553 374.456 357.96 376.178 348.41 378.245C338.861 380.197 331.152 381.689 331.152 381.575Z" fill="#E0E0E0"/>
<path d="M307.336 417.283C307.336 417.283 307.796 417.283 308.601 417.283C309.522 417.398 310.557 417.398 311.938 417.513C314.699 417.742 318.611 417.972 322.868 418.087C327.125 418.202 331.037 418.202 333.798 418.202C335.179 418.202 336.214 418.202 337.135 418.202C337.94 418.202 338.4 418.202 338.4 418.202C338.4 418.202 337.94 418.316 337.135 418.316C336.329 418.431 335.179 418.431 333.798 418.546C331.037 418.661 327.125 418.776 322.753 418.546C318.496 418.431 314.584 418.087 311.823 417.742C310.442 417.627 309.292 417.398 308.486 417.283C307.796 417.398 307.336 417.398 307.336 417.283Z" fill="#E0E0E0"/>
<path d="M295.14 391.219C295.14 391.219 295.37 391.564 295.715 392.138C296.061 392.827 296.521 393.745 297.096 394.893C298.247 397.19 299.857 400.405 301.583 403.964C303.309 407.523 304.805 410.738 305.955 413.149C306.415 414.298 306.876 415.216 307.221 415.905C307.566 416.594 307.681 416.938 307.566 416.938C307.566 416.938 307.336 416.594 306.991 416.02C306.646 415.331 306.185 414.412 305.61 413.264C304.46 410.968 302.849 407.753 301.123 404.194C299.397 400.634 297.901 397.419 296.751 395.008C296.291 393.86 295.83 392.942 295.485 392.253C295.255 391.679 295.14 391.334 295.14 391.219Z" fill="#E0E0E0"/>
<path d="M270.173 420.268C270.173 420.268 270.518 420.727 270.863 421.531C271.324 422.45 271.899 423.598 272.704 424.976C274.2 427.961 276.271 432.094 278.572 436.572C280.873 441.165 282.829 445.298 284.325 448.284C285.015 449.776 285.59 450.924 286.051 451.843C286.396 452.647 286.626 453.221 286.626 453.221C286.626 453.221 286.281 452.761 285.936 451.958C285.475 451.039 284.9 449.891 284.095 448.513C282.599 445.528 280.528 441.395 278.227 436.917C275.926 432.324 273.97 428.19 272.474 425.205C271.784 423.713 271.209 422.564 270.748 421.646C270.288 420.727 270.058 420.268 270.173 420.268Z" fill="#E0E0E0"/>
<path d="M286.281 452.302C286.281 452.302 286.856 452.302 287.892 452.302C288.927 452.302 290.423 452.417 292.149 452.417C295.715 452.532 300.663 452.762 306.07 452.762C311.478 452.762 316.425 452.762 319.992 452.647C321.718 452.647 323.098 452.532 324.249 452.532C325.284 452.532 325.744 452.532 325.859 452.532C325.859 452.532 325.284 452.647 324.364 452.762C323.328 452.876 321.948 452.991 320.107 452.991C316.54 453.221 311.593 453.336 306.185 453.336C300.778 453.336 295.83 453.106 292.264 452.876C290.538 452.762 289.042 452.647 288.007 452.532C286.856 452.302 286.281 452.302 286.281 452.302Z" fill="#E0E0E0"/>
<path d="M331.382 418.431L313.894 335.073C313.894 335.073 303.654 294.887 268.217 280.994L265.801 280.19C265.801 280.19 262.464 279.157 262.349 279.157C260.969 278.583 255.101 276.746 253.605 276.287C205.973 259.753 193.317 264.116 143.613 280.994C143.613 280.994 121.523 286.965 110.823 315.669C100.123 344.373 79.6428 389.382 79.6428 389.382L129.231 406.834L138.781 392.712V444.724V489.043H197.574H275.12L271.324 444.724L270.633 390.071" fill="#E8505B"/>
<path d="M192.626 286.161C192.626 286.161 192.281 286.62 191.476 287.194C191.131 287.539 190.67 287.883 190.095 288.342C189.52 288.802 188.83 289.261 188.139 289.72C186.644 290.639 184.688 291.672 182.502 292.591C180.316 293.509 177.784 294.313 175.138 294.772C172.492 295.231 169.846 295.461 167.429 295.461C165.013 295.461 162.942 295.231 161.217 294.887C160.296 294.772 159.606 294.543 158.8 294.428C158.11 294.313 157.535 294.083 157.075 293.969C156.154 293.624 155.579 293.509 155.579 293.394C155.579 293.28 157.65 293.969 161.217 294.543C162.942 294.772 165.128 295.002 167.429 295.002C169.731 295.002 172.377 294.772 175.023 294.198C177.669 293.624 180.085 292.935 182.271 292.017C184.458 291.098 186.298 290.18 187.794 289.261C190.901 287.539 192.511 286.161 192.626 286.161Z" fill="#FAFAFA"/>
<g opacity="0.3">
<path opacity="0.3" d="M138.666 429.453L149.826 442.313H160.871V456.435L274.43 482.614L273.51 471.706L166.624 435.079H148.791L140.161 428.19L138.666 429.453Z" fill="black"/>
</g>
<path d="M172.147 417.971L162.712 416.249C162.712 416.249 140.277 391.678 136.02 391.334C132.568 390.989 113.469 391.219 106.796 391.334C105.53 391.334 104.495 392.367 104.495 393.63C104.495 394.893 105.53 395.926 106.681 395.926L129.231 396.845L129.346 398.682L106.681 399.027C104.38 399.256 102.884 402.816 110.247 403.504L129.116 404.193V405.342L109.902 407.982C108.982 408.097 106.336 408.556 106.336 409.59C106.336 409.59 105.185 412.001 110.593 412.69C112.433 412.919 129.116 412.345 129.116 412.345L128.426 413.838L111.168 417.512C109.902 417.742 109.097 419.005 109.212 420.268C109.442 421.531 110.593 422.449 111.858 422.335L130.267 420.612L148.33 434.964H172.492L172.147 417.971Z" fill="#FFBE9D"/>
<path d="M331.382 418.431L276.156 429.338L270.633 390.186" fill="#E8505B"/>
<path d="M268.908 420.038L166.74 416.708V451.957L234.507 465.391L282.139 472.969C311.709 472.969 335.41 445.872 330.808 416.708H330.693L268.908 420.038Z" fill="#E8505B"/>
<path d="M296.981 419.349C296.981 419.349 296.521 419.464 295.6 419.464C294.68 419.464 293.414 419.579 291.803 419.579C288.467 419.694 283.634 419.694 277.882 419.809C266.031 419.923 249.808 420.153 231.745 420.038C213.681 419.809 197.459 419.234 185.608 418.431C179.74 418.086 174.908 417.627 171.686 417.283C170.076 417.168 168.81 416.938 167.89 416.938C166.969 416.823 166.624 416.823 166.624 416.708C166.624 416.708 167.084 416.708 168.005 416.708C168.925 416.823 170.191 416.823 171.801 416.938C175.138 417.168 179.855 417.512 185.723 417.742C197.459 418.431 213.796 419.005 231.745 419.12C249.693 419.234 266.031 419.234 277.882 419.12C283.75 419.12 288.467 419.12 291.803 419.12C293.414 419.12 294.68 419.12 295.6 419.12C296.521 419.234 296.981 419.349 296.981 419.349Z" fill="#263238"/>
<path d="M166.624 417.053C166.624 417.053 166.624 417.282 166.624 417.627C166.624 418.086 166.624 418.66 166.624 419.464C166.624 421.071 166.624 423.483 166.739 426.468C166.739 432.553 166.854 441.05 166.854 451.383L166.624 451.154C178.129 453.68 192.051 456.665 206.893 459.765C227.258 464.128 245.897 467.458 259.358 469.524C266.146 470.558 271.554 471.361 275.351 471.821C277.192 472.05 278.687 472.28 279.723 472.395C280.183 472.51 280.528 472.51 280.873 472.51C281.103 472.51 281.218 472.624 281.218 472.624C281.218 472.624 281.103 472.624 280.873 472.624C280.528 472.624 280.183 472.51 279.723 472.51C278.687 472.395 277.192 472.28 275.351 472.05C271.554 471.591 266.031 470.902 259.243 469.984C245.667 468.032 227.143 464.702 206.663 460.339C191.821 457.239 177.899 454.139 166.394 451.613H166.164V451.383C166.164 441.05 166.279 432.553 166.279 426.468C166.279 423.483 166.279 421.186 166.394 419.464C166.394 418.66 166.394 418.086 166.394 417.627C166.624 417.168 166.624 417.053 166.624 417.053Z" fill="#263238"/>
<path d="M157.88 320.606C157.88 320.606 157.88 320.032 157.995 318.884C158.11 317.736 158.225 316.128 158.225 314.176C158.34 310.273 158.11 304.761 157.19 298.791C156.154 292.935 154.773 287.539 152.818 284.094C151.782 282.372 150.631 281.339 149.711 280.65C148.791 279.961 148.215 279.731 148.215 279.731C148.215 279.731 148.33 279.731 148.676 279.846C148.906 279.961 149.366 280.19 149.826 280.42C150.747 280.994 152.012 282.142 153.163 283.865C154.313 285.587 155.234 287.768 155.924 290.294C156.614 292.82 157.305 295.691 157.88 298.676C158.915 304.647 159.03 310.158 158.8 314.176C158.685 316.128 158.57 317.736 158.34 318.884C158.11 320.032 157.995 320.606 157.88 320.606Z" fill="#263238"/>
<path d="M270.288 289.605C270.403 289.605 270.634 313.028 270.634 341.962C270.634 370.896 270.518 394.319 270.288 394.319C270.058 394.319 269.943 370.896 269.943 341.962C270.058 313.028 270.173 289.605 270.288 289.605Z" fill="#263238"/>
<path d="M305.61 407.293C305.61 407.408 303.884 407.293 301.123 407.638C299.742 407.753 298.131 408.097 296.291 408.556C294.565 409.016 292.609 409.705 290.653 410.508C288.697 411.427 286.971 412.345 285.475 413.379C283.98 414.412 282.599 415.445 281.564 416.364C279.493 418.201 278.342 419.579 278.342 419.464C278.342 419.464 278.572 419.12 279.032 418.431C279.493 417.857 280.298 416.938 281.333 416.019C282.369 414.986 283.635 413.953 285.13 412.919C286.626 411.886 288.467 410.853 290.423 409.934C292.379 409.016 294.335 408.442 296.175 407.982C298.016 407.523 299.627 407.293 301.008 407.179C302.388 407.064 303.539 407.064 304.344 407.064C305.15 407.293 305.61 407.293 305.61 407.293Z" fill="#263238"/>
<g opacity="0.3">
<g opacity="0.3">
<path opacity="0.3" d="M158.915 412.23C176.174 402.012 186.874 385.019 197.344 367.911C207.814 350.803 217.593 333.006 232.205 319.228C238.878 312.913 246.702 307.632 249.233 298.676L223.001 319.458L150.056 403.16L158.915 412.23Z" fill="black"/>
</g>
</g>
<path d="M111.628 367.337C111.628 367.567 107.486 367.452 102.769 369.059C100.468 369.863 98.3967 370.896 96.901 371.585C95.4053 372.389 94.5999 372.848 94.4849 372.733C94.4849 372.619 95.2902 372.044 96.6709 371.241C98.0515 370.437 100.123 369.289 102.539 368.485C104.955 367.681 107.256 367.337 108.867 367.337C110.592 367.107 111.628 367.222 111.628 367.337Z" fill="#263238"/>
<path d="M111.628 367.337C111.628 367.567 107.486 367.452 102.769 369.059C100.468 369.863 98.3967 370.896 96.901 371.585C95.4053 372.389 94.5999 372.848 94.4849 372.733C94.4849 372.619 95.2902 372.044 96.6709 371.241C98.0515 370.437 100.123 369.289 102.539 368.485C104.955 367.681 107.256 367.337 108.867 367.337C110.592 367.107 111.628 367.222 111.628 367.337Z" fill="#263238"/>
<path d="M269.943 404.767C269.943 404.882 268.677 403.734 265.916 402.93C263.27 402.127 259.013 402.127 254.181 403.619C249.348 405.112 244.286 408.556 237.958 411.082C234.851 412.345 231.285 413.264 227.603 413.034C223.921 412.805 220.239 411.427 216.788 409.705C213.336 407.982 210 406.03 206.778 404.423C203.441 402.93 200.105 401.897 196.768 401.553C190.095 400.978 184.112 402.471 179.51 404.653C174.908 406.834 171.801 409.59 169.961 411.657C169.5 412.231 169.04 412.69 168.695 413.034C168.35 413.494 168.12 413.838 167.89 414.182C167.659 414.412 167.544 414.642 167.314 414.871C167.199 414.986 167.084 415.101 167.084 415.101C167.084 415.101 167.084 414.986 167.199 414.871C167.314 414.642 167.429 414.412 167.66 414.182C167.89 413.838 168.12 413.494 168.465 413.034C168.81 412.575 169.27 412.116 169.73 411.542C171.571 409.475 174.678 406.49 179.28 404.308C181.581 403.16 184.227 402.241 187.219 401.553C190.21 400.978 193.432 400.634 196.768 400.978C200.105 401.323 203.672 402.241 207.008 403.849C210.345 405.342 213.566 407.293 217.018 409.016C220.47 410.738 224.036 412.116 227.603 412.345C231.17 412.575 234.621 411.657 237.728 410.394C243.941 407.868 249.003 404.423 253.95 403.045C258.898 401.553 263.155 401.553 265.916 402.471C267.297 402.93 268.217 403.39 268.908 403.849C269.138 404.079 269.368 404.193 269.598 404.308C269.828 404.767 269.943 404.767 269.943 404.767Z" fill="#FAFAFA"/>
<path d="M319.877 362.4C319.877 362.515 319.186 362.055 317.806 362.055C316.425 361.94 314.469 362.4 312.398 363.663C310.327 364.811 308.256 366.992 305.38 368.6C303.884 369.404 302.158 369.978 300.317 369.863C298.477 369.748 296.751 369.059 295.025 368.141C293.299 367.337 291.803 366.304 290.193 365.729C288.582 365.041 286.971 364.581 285.36 364.352C283.75 364.122 282.254 364.007 280.758 364.122C279.378 364.122 277.997 364.352 276.846 364.696C274.43 365.27 272.589 365.959 271.439 366.648C270.173 367.222 269.598 367.681 269.598 367.681C269.598 367.681 269.713 367.567 270.058 367.337C270.403 367.107 270.748 366.763 271.439 366.533C272.589 365.844 274.43 364.926 276.846 364.352C277.997 364.007 279.378 363.778 280.873 363.778C282.369 363.663 283.865 363.778 285.59 364.007C287.201 364.237 288.927 364.696 290.538 365.385C292.264 366.074 293.759 366.992 295.485 367.796C297.096 368.6 298.822 369.289 300.548 369.404C302.273 369.518 303.884 368.944 305.265 368.255C308.026 366.763 310.212 364.581 312.398 363.433C314.584 362.17 316.655 361.711 318.036 361.94C318.726 362.055 319.301 362.17 319.647 362.285C319.762 362.285 319.877 362.285 319.877 362.4Z" fill="#FAFAFA"/>
<path d="M269.253 346.67C269.253 346.67 269.023 346.67 268.447 346.555C268.217 346.555 267.872 346.44 267.527 346.325C267.182 346.325 266.722 346.21 266.261 346.21C264.305 345.981 261.429 346.096 258.092 347.014C254.756 347.933 250.844 349.77 246.932 352.066C242.905 354.362 238.648 357.233 233.586 359.3C231.055 360.333 228.523 361.137 225.992 361.366C223.461 361.711 220.93 361.481 218.629 360.907C216.328 360.333 214.257 359.3 212.416 358.496C210.575 357.577 208.849 356.659 207.238 355.97C204.132 354.477 201.256 353.674 199.3 353.559C198.379 353.559 197.574 353.559 196.999 353.674C196.538 353.674 196.193 353.788 196.193 353.674C196.193 353.674 196.423 353.559 196.999 353.559C197.459 353.444 198.264 353.444 199.3 353.329C201.256 353.329 204.132 354.018 207.353 355.511C208.964 356.2 210.69 357.118 212.531 358.037C214.372 358.955 216.443 359.874 218.629 360.448C220.815 361.022 223.346 361.251 225.762 360.907C228.293 360.677 230.709 359.874 233.241 358.84C238.188 356.774 242.445 354.018 246.587 351.722C250.614 349.425 254.526 347.703 257.977 346.785C261.429 345.866 264.305 345.866 266.261 346.096C266.722 346.21 267.182 346.21 267.527 346.325C267.872 346.44 268.217 346.555 268.447 346.555C269.023 346.555 269.253 346.67 269.253 346.67Z" fill="#FAFAFA"/>
<path d="M304.92 311.306C304.92 311.306 304.459 311.65 303.654 311.995C302.849 312.454 301.698 313.028 300.202 313.717C298.707 314.406 296.866 315.095 294.795 315.554C292.724 316.128 290.193 316.358 287.777 316.013C285.245 315.784 282.944 315.21 280.873 314.98C278.802 314.636 276.846 314.636 275.236 314.865C272.014 315.324 270.403 316.817 270.403 316.702C270.403 316.702 270.518 316.588 270.633 316.473C270.864 316.358 271.094 316.128 271.439 315.899C272.244 315.439 273.51 314.865 275.121 314.636C276.731 314.291 278.802 314.291 280.873 314.636C283.059 314.865 285.36 315.439 287.777 315.669C292.724 316.243 297.096 314.636 300.087 313.487C301.583 312.913 302.849 312.339 303.654 311.995C304.459 311.421 304.92 311.306 304.92 311.306Z" fill="#FAFAFA"/>
<path d="M156.154 330.481C156.154 330.595 155.464 330.021 154.083 330.021C152.703 329.907 150.747 330.481 148.791 331.973C147.755 332.662 146.72 333.581 145.569 334.384C144.304 335.188 142.808 335.762 141.197 336.107C137.86 336.681 134.179 336.107 130.612 334.844C127.045 333.581 123.824 331.973 120.832 330.825C119.337 330.251 117.841 329.907 116.46 329.677C115.08 329.447 113.699 329.332 112.548 329.447C110.132 329.562 108.176 330.251 107.026 330.94C105.875 331.629 105.3 332.203 105.3 332.088C105.3 332.088 105.415 331.973 105.645 331.629C105.875 331.399 106.336 331.055 106.911 330.71C108.061 329.907 110.017 329.218 112.548 328.988C113.814 328.873 115.195 328.988 116.575 329.103C118.071 329.332 119.567 329.792 121.063 330.251C124.169 331.284 127.391 332.892 130.842 334.155C134.294 335.418 137.976 335.992 141.082 335.418C142.693 335.073 144.073 334.614 145.224 333.81C146.375 333.007 147.525 332.203 148.561 331.514C150.632 330.021 152.703 329.562 154.083 329.677C154.773 329.677 155.349 329.907 155.694 330.136C156.039 330.251 156.154 330.366 156.154 330.481Z" fill="#FAFAFA"/>
<path d="M220.93 418.316C220.93 418.316 221.045 418.431 221.275 418.66C221.505 418.89 221.85 419.234 222.195 419.694C222.886 420.727 223.806 422.335 224.036 424.401C224.381 426.583 224.151 429.338 222.541 431.75C221.045 434.276 218.399 436.227 216.903 438.983C216.213 440.361 215.982 441.968 216.328 443.461C216.558 444.954 217.248 446.331 217.823 447.594C219.089 450.12 220.239 452.532 220.239 454.828C220.239 457.124 219.089 458.732 218.053 459.421C217.593 459.765 217.133 459.995 216.788 459.995C216.443 460.109 216.328 460.109 216.328 459.995C216.328 459.88 217.018 459.88 217.938 459.191C218.859 458.502 219.779 456.895 219.779 454.828C219.779 452.761 218.629 450.35 217.363 447.824C216.788 446.561 216.097 445.183 215.752 443.576C215.407 441.968 215.637 440.246 216.328 438.753C217.133 437.261 218.168 435.998 219.204 434.85C220.239 433.701 221.275 432.668 221.965 431.405C223.461 429.109 223.806 426.468 223.576 424.401C223.346 422.335 222.541 420.727 221.965 419.694C221.39 418.89 220.93 418.431 220.93 418.316Z" fill="#FAFAFA"/>
<path d="M269.138 468.721C269.138 468.721 269.023 468.606 268.678 468.376C268.447 468.147 268.102 467.687 267.757 466.998C267.182 465.735 267.067 463.439 268.102 461.028C268.562 459.88 269.368 458.617 270.288 457.469C271.324 456.32 272.474 455.287 273.625 454.024C274.775 452.876 275.926 451.613 276.846 450.005C277.652 448.513 278.227 446.676 278.342 444.724C278.687 440.935 277.997 437.261 277.882 433.931C277.652 430.601 277.882 427.501 279.032 425.09C280.068 422.679 281.564 421.186 282.829 420.497C283.404 420.153 283.98 419.923 284.325 419.808C284.67 419.694 284.9 419.694 284.9 419.694C284.9 419.808 284.095 419.923 282.944 420.727C281.794 421.531 280.413 423.023 279.378 425.32C278.342 427.616 278.112 430.601 278.457 433.931C278.687 437.261 279.378 440.82 279.032 444.724C278.802 446.676 278.342 448.513 277.422 450.12C276.501 451.728 275.236 453.106 274.085 454.254C271.669 456.55 269.483 458.617 268.562 460.913C267.527 463.209 267.527 465.276 268.102 466.539C268.562 468.261 269.253 468.721 269.138 468.721Z" fill="#FAFAFA"/>
<path d="M275.12 483.992C275.12 483.992 274.775 484.336 273.855 484.795C272.934 485.254 271.554 485.829 269.713 485.943C267.872 486.173 265.456 485.943 262.925 485.14C260.278 484.451 257.517 483.073 254.641 481.351C251.764 479.743 248.543 477.677 244.861 476.414C241.179 475.151 236.807 475.036 232.55 475.954C228.178 476.873 223.921 478.595 219.434 480.432C214.947 482.269 210.345 484.336 205.167 485.369C202.636 485.943 199.99 486.058 197.459 485.829C194.927 485.599 192.511 484.795 190.325 483.762C185.953 481.58 182.386 478.365 178.82 475.839C176.979 474.576 175.253 473.313 173.297 472.395C172.837 472.165 172.377 471.936 171.916 471.706C171.456 471.476 170.996 471.362 170.536 471.132C169.615 470.787 168.58 470.558 167.659 470.328C163.863 469.41 160.066 469.41 156.844 469.869C153.508 470.328 150.631 471.247 148.215 472.395C147.64 472.625 147.065 472.969 146.489 473.313C145.914 473.543 145.454 473.888 144.994 474.232C144.533 474.576 144.073 474.806 143.613 475.151C143.153 475.495 142.808 475.725 142.463 476.069C141.657 476.643 141.082 477.217 140.622 477.677C140.046 478.136 139.701 478.595 139.356 478.94C139.011 479.284 138.781 479.514 138.551 479.743C138.321 479.973 138.321 479.973 138.321 479.973C138.321 479.973 138.436 479.858 138.551 479.628C138.781 479.399 139.011 479.169 139.241 478.71C139.586 478.365 139.931 477.791 140.507 477.332C141.082 476.873 141.542 476.184 142.347 475.61C142.693 475.265 143.153 475.036 143.498 474.691C143.958 474.347 144.418 474.117 144.879 473.773C145.339 473.428 145.799 473.084 146.374 472.854C146.95 472.51 147.525 472.165 148.1 471.936C150.516 470.788 153.508 469.754 156.844 469.295C160.181 468.836 163.978 468.721 167.89 469.639C168.81 469.869 169.846 470.099 170.766 470.443C171.226 470.673 171.801 470.787 172.262 471.017C172.722 471.247 173.182 471.476 173.642 471.706C175.598 472.625 177.439 473.888 179.165 475.151C182.732 477.791 186.298 480.891 190.555 483.073C192.741 484.106 195.042 484.91 197.459 485.14C199.875 485.369 202.406 485.255 204.937 484.68C209.884 483.647 214.602 481.695 219.089 479.858C223.576 478.021 227.948 476.184 232.32 475.38C236.692 474.462 241.179 474.576 244.976 475.839C248.773 477.102 251.879 479.169 254.871 480.777C257.747 482.499 260.509 483.877 263.04 484.68C265.571 485.484 267.872 485.714 269.713 485.484C271.554 485.369 272.934 484.795 273.855 484.451C274.66 484.336 275.12 483.992 275.12 483.992Z" fill="#FAFAFA"/>
<path d="M211.035 292.476C223.921 293.165 234.966 283.52 236.002 270.775C236.692 263.197 237.153 256.768 237.153 256.768C237.153 256.768 256.712 256.308 259.473 237.134C262.234 217.959 264.651 173.525 264.651 173.525C243.596 161.124 217.593 161.01 196.423 173.295L193.317 175.132L188.254 267.446C187.679 280.535 197.804 291.787 211.035 292.476Z" fill="#FFBE9D"/>
<path d="M240.029 223.815C240.029 223.585 241.755 223.471 244.401 223.471C245.091 223.471 245.666 223.356 245.782 223.011C246.012 222.667 245.782 221.863 245.551 220.945C245.091 219.107 244.631 217.27 244.171 215.319C242.33 207.281 241.064 200.737 241.524 200.622C241.985 200.507 243.826 206.937 245.666 214.974C246.127 216.926 246.472 218.763 246.932 220.6C247.047 221.404 247.392 222.437 246.932 223.471C246.702 224.045 246.012 224.389 245.551 224.389C245.091 224.504 244.631 224.389 244.401 224.389C241.64 224.274 240.029 224.045 240.029 223.815Z" fill="#263238"/>
<path d="M237.383 256.423C237.383 256.423 225.072 255.849 213.221 246.09C213.221 246.09 217.363 260.671 236.692 261.36L237.383 256.423Z" fill="#EB996E"/>
<path d="M264.535 178.347C264.535 178.347 252.455 183.399 237.498 174.903C227.718 169.392 216.097 166.292 213.451 168.129C210.805 169.966 209.654 180.299 199.53 182.825C199.53 182.825 199.069 202.574 191.246 201.426C183.422 200.278 189.98 169.966 189.98 169.966L209.769 161.584L231.055 158.828L250.729 162.732L265.801 167.784L264.535 178.347Z" fill="#263238"/>
<path d="M193.202 195.111C192.856 194.881 180.546 189.484 179.28 202.689C178.014 215.893 191.476 214.4 191.591 214.055C191.591 213.711 193.202 195.111 193.202 195.111Z" fill="#FFBE9D"/>
<path d="M188.024 208.659C188.024 208.659 187.794 208.774 187.334 208.889C186.989 209.004 186.298 209.118 185.608 208.774C184.227 208.085 183.307 205.789 183.422 203.377C183.537 202.229 183.882 201.081 184.343 200.163C184.803 199.244 185.493 198.67 186.298 198.555C186.989 198.44 187.449 198.9 187.564 199.359C187.679 199.703 187.564 200.048 187.679 200.048C187.679 200.048 188.024 199.818 187.909 199.244C187.909 199.014 187.794 198.67 187.449 198.325C187.104 197.981 186.759 197.866 186.183 197.866C185.148 197.866 184.112 198.67 183.537 199.703C182.962 200.737 182.502 202 182.387 203.263C182.156 205.903 183.307 208.544 185.148 209.233C186.068 209.578 186.874 209.348 187.334 209.118C187.909 209.004 188.024 208.774 188.024 208.659Z" fill="#EB996E"/>
<path d="M208.274 170.195C205.627 173.066 202.866 175.936 199.53 178.003C196.193 180.069 192.051 181.218 188.254 180.414C184.457 179.495 181.006 176.166 180.891 172.262C180.776 168.358 184.572 164.454 188.484 165.373C185.838 165.373 183.652 162.502 184.457 159.976C185.263 157.45 188.829 156.417 190.9 158.025C187.564 157.45 187.219 152.054 189.865 149.987C192.511 147.921 196.423 148.38 199.53 149.643C202.636 150.906 205.627 152.858 208.849 153.661C214.026 154.81 219.434 152.628 224.036 149.987C228.638 147.346 233.01 144.017 238.188 142.639C244.516 140.917 251.304 142.18 257.402 144.706C262.464 146.772 267.182 149.872 270.403 154.236C273.625 158.599 275.235 164.339 273.855 169.621C272.359 174.903 267.527 179.151 262.119 179.151C262.119 179.151 249.923 180.414 239.914 173.066C230.019 165.717 209.079 166.636 209.079 166.636L208.274 170.195Z" fill="#263238"/>
<path d="M189.98 154.924C189.98 154.924 190.21 155.154 190.785 155.499C191.246 155.843 192.051 156.302 193.202 156.991C195.272 158.139 198.494 159.632 202.751 160.78C206.893 161.928 212.185 162.617 217.938 162.273C223.691 161.928 229.789 160.091 236.117 158.484C242.445 156.991 248.658 156.187 254.065 157.45C259.473 158.713 263.73 161.928 265.571 165.603C267.412 169.277 267.297 172.951 266.606 175.132C265.916 177.429 264.995 178.347 265.111 178.462C265.111 178.462 265.341 178.232 265.801 177.773C266.146 177.199 266.721 176.51 267.182 175.362C268.102 173.066 268.447 169.277 266.606 165.143C264.65 161.125 260.163 157.565 254.526 156.187C248.773 154.695 242.33 155.499 235.887 157.106C229.444 158.713 223.576 160.551 217.938 161.01C212.301 161.469 207.238 160.895 203.096 159.862C194.467 157.795 190.095 154.58 189.98 154.924Z" fill="#455A64"/>
<path d="M183.997 175.247C183.882 175.362 184.227 176.625 185.723 178.232C187.104 179.84 189.635 181.677 192.971 182.481C196.308 183.17 199.299 182.481 201.255 181.677C203.211 180.758 204.132 179.725 204.017 179.61C203.902 179.381 202.751 180.07 200.91 180.758C198.954 181.333 196.193 181.792 193.202 181.218C190.21 180.529 187.909 179.036 186.413 177.658C184.918 176.166 184.227 175.132 183.997 175.247Z" fill="#455A64"/>
<path d="M188.139 168.702C187.794 168.817 188.83 171.228 191.361 172.951C193.892 174.673 196.538 174.788 196.538 174.443C196.653 174.099 194.467 173.41 192.166 171.802C189.865 170.31 188.484 168.473 188.139 168.702Z" fill="#455A64"/>
<path d="M270.978 187.073C271.209 187.073 271.554 186.499 271.669 185.236C271.784 184.088 271.554 182.366 270.518 180.758C269.483 179.151 268.102 178.232 266.952 177.888C265.801 177.543 265.111 177.543 265.111 177.773C264.996 178.118 267.757 178.921 269.368 181.562C270.978 184.318 270.633 187.073 270.978 187.073Z" fill="#263238"/>
<path d="M277.882 168.243C277.537 168.128 276.041 171.573 272.589 174.443C269.138 177.429 265.456 178.232 265.571 178.692C265.571 179.036 269.713 178.806 273.51 175.592C277.191 172.262 278.227 168.243 277.882 168.243Z" fill="#455A64"/>
<path d="M257.862 202.574C257.747 204.181 256.251 205.329 254.641 205.215C253.03 205.1 251.764 203.722 251.994 202.115C252.109 200.507 253.605 199.359 255.216 199.474C256.827 199.703 257.977 201.081 257.862 202.574Z" fill="#263238"/>
<path d="M260.163 202.344C259.703 202.689 257.747 200.737 254.526 200.392C251.419 199.933 248.773 201.311 248.543 200.852C248.428 200.622 248.888 200.048 249.923 199.359C250.959 198.785 252.8 198.211 254.756 198.555C256.712 198.785 258.322 199.818 259.128 200.622C260.163 201.426 260.393 202.229 260.163 202.344Z" fill="#263238"/>
<path d="M228.984 198.67C228.868 200.278 227.373 201.426 225.762 201.311C224.151 201.196 222.886 199.818 223.116 198.211C223.231 196.603 224.726 195.455 226.337 195.57C227.948 195.685 229.214 197.063 228.984 198.67Z" fill="#263238"/>
<path d="M231.055 198.555C230.594 198.9 228.638 196.948 225.417 196.603C222.31 196.144 219.664 197.522 219.434 197.062C219.319 196.833 219.779 196.259 220.815 195.57C221.85 194.996 223.691 194.422 225.647 194.766C227.603 194.996 229.214 196.029 230.019 196.833C231.054 197.637 231.285 198.44 231.055 198.555Z" fill="#263238"/>
<path d="M229.904 189.829C229.329 190.403 226.913 188.681 223.691 188.336C220.47 187.992 217.823 189.14 217.363 188.451C217.133 188.107 217.593 187.303 218.744 186.499C219.894 185.696 221.85 185.121 224.036 185.351C226.222 185.581 228.063 186.614 228.984 187.647C229.904 188.681 230.134 189.599 229.904 189.829Z" fill="#263238"/>
<path d="M259.933 195.111C260.048 195.455 259.473 196.144 258.323 196.603C257.172 197.062 255.446 197.407 253.49 197.062C251.649 196.718 250.039 195.914 249.118 195.111C248.198 194.307 247.853 193.503 248.083 193.159C248.658 192.47 250.959 193.618 253.95 194.077C257.057 194.651 259.588 194.307 259.933 195.111Z" fill="#263238"/>
<path d="M237.613 229.097C237.958 229.097 238.188 229.671 238.188 230.474C238.188 231.163 237.843 231.737 237.498 231.737C237.152 231.737 236.922 231.163 236.922 230.36C236.922 229.556 237.268 229.097 237.613 229.097Z" fill="#263238"/>
<path d="M190.9 219.107C190.9 219.107 190.9 219.452 190.67 219.911C190.44 220.37 189.865 220.944 188.945 221.404C188.139 221.863 186.874 222.093 185.608 221.633C184.342 221.174 183.192 220.141 182.732 218.648C182.271 217.155 182.502 215.663 183.192 214.515C183.767 213.366 184.803 212.678 185.723 212.218C186.643 211.874 187.449 211.759 187.909 211.759C188.484 211.759 188.714 211.874 188.714 211.874C188.714 211.989 187.564 211.759 185.838 212.563C185.033 212.907 184.227 213.596 183.652 214.744C183.077 215.778 182.847 217.155 183.307 218.418C183.767 219.681 184.803 220.6 185.838 221.059C186.874 221.519 188.024 221.404 188.83 220.944C190.325 220.256 190.785 218.993 190.9 219.107Z" fill="#455A64"/>
<path d="M203.557 297.758C203.557 297.758 210 288.687 214.027 283.635C218.859 277.435 221.851 272.153 221.851 269.283C221.851 266.412 221.851 254.012 221.851 254.012C221.851 254.012 227.949 252.52 228.754 259.523C229.675 266.412 228.754 268.135 228.754 268.135C228.754 268.135 254.296 250.912 256.022 252.175C259.013 254.357 253.261 258.949 253.261 258.949L237.728 272.957L246.588 270.201C248.774 269.513 251.075 270.661 251.765 272.842C252.34 274.565 251.765 276.516 250.154 277.55L244.862 282.142L247.508 281.109C249.464 280.305 251.65 281.109 252.685 283.061C253.491 284.554 253.146 286.391 251.995 287.654L247.163 292.706L249.349 291.558C250.845 290.754 252.57 291.328 253.376 292.821C253.951 294.084 253.606 295.576 252.57 296.38L223.922 318.999L203.557 297.758Z" fill="#FFBE9D"/>
<path d="M224.151 318.769C224.151 318.769 224.036 318.654 223.806 318.425C223.576 318.195 223.231 317.85 222.771 317.391C221.85 316.473 220.469 315.095 218.744 313.258C215.177 309.698 210 304.417 203.556 297.872L203.441 297.757L203.556 297.643C205.397 295.002 207.468 292.131 209.654 289.146C210.805 287.653 211.955 286.161 213.106 284.553C214.372 282.946 215.522 281.453 216.788 279.731C217.938 278.009 219.089 276.287 220.124 274.335C221.045 272.383 221.965 270.316 221.735 268.135C221.735 263.657 221.735 258.949 221.735 254.012V253.782H221.965C223.461 253.438 225.187 253.667 226.567 254.586C227.258 255.045 227.833 255.619 228.293 256.308C228.638 256.997 228.983 257.801 229.099 258.605C229.444 260.212 229.559 261.705 229.674 263.427C229.674 264.231 229.674 265.034 229.674 265.838C229.674 266.642 229.559 267.446 229.329 268.364L228.868 268.02C232.78 265.379 236.922 262.738 241.179 260.097C243.25 258.719 245.436 257.456 247.622 256.193C249.808 254.931 251.994 253.553 254.411 252.519C254.756 252.405 255.101 252.29 255.446 252.175C255.676 252.175 255.791 252.06 256.021 252.06C256.136 252.06 256.251 252.06 256.366 252.06C256.597 252.175 256.597 252.175 256.712 252.29C257.287 252.749 257.632 253.553 257.632 254.356C257.402 255.849 256.481 256.882 255.561 257.916C254.641 258.949 253.605 259.753 252.57 260.671C251.649 261.59 250.614 262.394 249.693 263.312C245.781 266.757 241.985 270.201 238.303 273.531L238.073 273.072C239.799 272.498 241.524 271.923 243.25 271.464C244.056 271.235 244.976 270.89 245.781 270.66C246.242 270.546 246.587 270.431 247.047 270.316C247.507 270.201 247.967 270.086 248.428 270.201C250.269 270.316 251.994 271.694 252.455 273.416C252.915 275.253 252.224 277.205 250.729 278.238C248.888 279.731 247.162 281.338 245.436 282.716L245.206 282.257C246.127 281.913 246.932 281.568 247.737 281.224C248.658 280.879 249.693 280.764 250.614 280.994C252.455 281.453 253.835 283.29 253.72 285.127C253.72 286.046 253.375 286.965 252.8 287.653C252.224 288.342 251.649 288.916 251.074 289.491C249.923 290.754 248.773 291.902 247.737 293.05L247.507 292.705C248.313 292.246 249.118 291.902 249.923 291.442C250.844 290.983 251.879 291.098 252.685 291.557C253.49 292.017 254.18 292.82 254.295 293.624C254.526 294.543 254.295 295.461 253.72 296.15C253.49 296.494 253.03 296.724 252.8 296.954C252.455 297.183 252.109 297.413 251.879 297.757C251.304 298.217 250.614 298.791 250.038 299.25C248.773 300.169 247.622 301.087 246.472 302.006C241.87 305.565 237.958 308.665 234.621 311.191C231.4 313.717 228.868 315.669 227.143 317.047C226.337 317.736 225.647 318.195 225.187 318.539C224.381 318.539 224.151 318.769 224.151 318.769C224.151 318.769 224.381 318.539 224.842 318.195C225.302 317.85 225.992 317.276 226.797 316.587C228.523 315.21 231.054 313.258 234.276 310.617C237.498 308.091 241.409 304.876 246.012 301.317C247.162 300.398 248.313 299.48 249.578 298.561C250.153 298.102 250.844 297.643 251.419 297.068C251.764 296.839 251.994 296.609 252.34 296.265C252.685 296.035 253.03 295.806 253.26 295.461C253.72 294.887 253.95 294.083 253.72 293.28C253.605 292.476 253.03 291.787 252.34 291.442C251.649 291.098 250.729 291.098 250.038 291.442C249.233 291.902 248.428 292.246 247.622 292.705L246.357 293.394L247.277 292.361C248.313 291.213 249.463 290.065 250.614 288.802C251.189 288.228 251.764 287.539 252.34 286.965C252.8 286.276 253.145 285.587 253.145 284.783C253.145 283.176 251.994 281.568 250.384 281.109C249.578 280.879 248.658 280.994 247.852 281.224C247.047 281.568 246.127 281.913 245.321 282.257L243.825 282.831L244.976 281.798C246.702 280.305 248.428 278.813 250.269 277.205C251.534 276.287 252.224 274.564 251.764 273.072C251.419 271.464 249.923 270.316 248.198 270.201C247.392 270.086 246.587 270.431 245.666 270.775C244.861 271.005 243.941 271.349 243.135 271.579C241.409 272.153 239.684 272.612 237.958 273.186L236.692 273.646L237.728 272.727C241.409 269.397 245.206 265.953 249.118 262.508C250.038 261.59 251.074 260.786 251.994 259.868C252.915 258.949 253.95 258.145 254.871 257.227C255.676 256.308 256.597 255.16 256.712 254.012C256.827 253.438 256.597 252.864 256.021 252.519C255.906 252.405 255.676 252.405 255.331 252.519C254.986 252.634 254.756 252.749 254.411 252.864C252.109 253.897 249.808 255.16 247.622 256.423C245.436 257.686 243.25 259.064 241.179 260.327C236.922 262.968 232.895 265.609 228.983 268.249L228.293 268.709L228.638 267.905C228.868 267.216 228.983 266.412 228.983 265.609C228.983 264.805 228.983 264.001 228.983 263.197C228.868 261.59 228.753 259.982 228.523 258.49C228.408 257.686 228.063 256.997 227.718 256.423C227.373 255.849 226.797 255.275 226.222 254.816C224.957 254.012 223.461 253.897 222.08 254.127L222.31 253.897C222.31 258.719 222.31 263.427 222.31 268.02C222.31 268.594 222.31 269.168 222.31 269.742C222.195 270.316 222.08 270.89 221.965 271.464C221.62 272.498 221.16 273.531 220.7 274.564C219.664 276.516 218.514 278.353 217.363 279.961C216.212 281.683 214.947 283.29 213.681 284.783C212.531 286.39 211.265 287.883 210.23 289.376C208.044 292.361 205.973 295.231 204.132 297.757V297.528C210.575 304.072 215.637 309.354 219.204 313.028C220.93 314.865 222.31 316.243 223.231 317.162C223.691 317.621 224.036 317.965 224.266 318.31C224.036 318.539 224.151 318.769 224.151 318.769Z" fill="#EB996E"/>
<path d="M224.151 318.769L145.799 422.105C133.948 437.835 112.433 443.461 94.5998 434.964C81.5986 428.764 72.0491 415.675 79.9879 388.808L155.118 337.484L200.795 293.509L224.151 318.769Z" fill="#E8505B"/>
<path d="M94.5998 434.849C94.5998 434.849 94.945 434.964 95.4052 435.309C95.9805 435.653 96.7858 435.998 97.8213 436.572C100.007 437.49 103.459 438.868 108.061 439.327C110.362 439.557 112.893 439.557 115.77 439.213C117.15 439.098 118.646 438.753 120.142 438.409C120.832 438.294 121.638 437.95 122.443 437.835C123.248 437.605 123.939 437.376 124.744 437.031C127.851 435.883 131.072 434.39 134.179 432.438C137.285 430.486 140.391 427.96 143.038 424.746C148.445 418.431 153.968 411.197 159.951 403.504C165.934 395.812 172.262 387.545 178.82 378.819C192.051 361.366 206.548 342.077 221.62 321.754C222.425 320.721 223.231 319.573 224.036 318.539V318.884C215.982 310.272 208.159 301.776 200.68 293.624H201.025C185.033 306.828 170.306 319.343 156.844 330.595C143.498 341.847 131.417 351.607 121.292 359.644C111.168 367.681 102.884 373.881 97.131 378.13C94.2546 380.196 92.0686 381.804 90.4578 382.952C89.6524 383.526 89.0772 383.871 88.732 384.215C88.3868 384.445 88.1567 384.559 88.1567 384.559C88.1567 384.559 88.3868 384.445 88.732 384.1C89.0772 383.756 89.6524 383.411 90.4578 382.837C91.9535 381.689 94.1396 380.082 97.0159 378.015C102.769 373.767 110.938 367.452 121.062 359.414C131.187 351.377 143.153 341.503 156.499 330.251C169.845 318.999 184.688 306.483 200.68 293.279L200.91 293.05L201.14 293.279C208.734 301.432 216.558 309.813 224.496 318.539L224.611 318.769L224.496 318.999C223.691 320.032 222.886 321.18 222.08 322.213C207.008 342.536 192.511 361.826 179.28 379.278C172.607 388.004 166.279 396.271 160.296 403.964C154.313 411.656 148.79 418.89 143.383 425.205C140.737 428.42 137.63 430.946 134.409 432.898C131.302 434.964 127.966 436.457 124.859 437.49C124.054 437.835 123.363 438.064 122.558 438.294C121.753 438.524 121.062 438.753 120.257 438.868C118.761 439.213 117.266 439.557 115.885 439.557C113.124 439.901 110.477 439.787 108.176 439.672C103.574 439.213 100.122 437.72 97.9364 436.801C96.9009 436.227 96.0955 435.768 95.5202 435.424C94.8299 435.079 94.5998 434.849 94.5998 434.849Z" fill="#263238"/>
<path d="M154.083 407.982C154.083 408.097 153.163 407.293 151.322 406.375C149.481 405.571 146.489 404.882 142.923 405.341C141.082 405.571 139.126 405.915 137.055 406.604C134.984 407.178 132.913 408.097 130.612 409.015C128.311 409.934 126.01 410.853 123.363 411.541C120.832 412.23 118.071 412.575 115.195 412.345C112.318 412.001 109.672 411.197 107.256 410.164C104.84 409.13 102.539 407.982 100.352 406.949C95.9804 404.882 91.7234 403.619 88.1567 403.849C84.475 403.963 81.7137 405.456 80.2179 406.719C78.6072 407.982 78.147 409.13 78.147 409.015C78.147 409.015 78.262 408.786 78.4921 408.327C78.8373 407.867 79.2975 407.178 79.9878 406.489C81.4836 405.112 84.2449 403.619 88.0416 403.389C91.8384 403.16 96.0955 404.423 100.583 406.489C102.769 407.523 105.07 408.671 107.486 409.59C109.902 410.623 112.548 411.427 115.195 411.771C117.956 412.001 120.602 411.656 123.133 410.967C125.664 410.278 128.081 409.36 130.267 408.556C132.568 407.638 134.639 406.834 136.71 406.26C138.781 405.686 140.737 405.226 142.577 405.112C146.259 404.767 149.251 405.456 151.092 406.375C153.278 407.178 154.083 407.982 154.083 407.982Z" fill="#FAFAFA"/>
<path d="M181.696 373.307C181.581 373.307 182.156 372.618 182.041 371.241C181.811 369.978 180.776 368.026 178.59 366.992C177.439 366.533 176.173 366.189 174.793 365.844C173.412 365.5 171.801 365.155 170.306 364.466C167.314 363.089 164.553 360.677 161.907 357.922C159.375 355.166 156.959 352.411 154.543 350.344C152.127 348.162 149.481 346.784 147.18 346.096C144.879 345.407 142.808 345.407 141.427 345.751C140.046 345.981 139.356 346.325 139.356 346.21C139.356 346.21 139.471 346.096 139.816 345.981C140.161 345.866 140.622 345.636 141.312 345.521C142.693 345.177 144.764 345.062 147.18 345.751C149.596 346.325 152.357 347.818 154.773 349.999C157.304 352.066 159.606 354.822 162.252 357.577C164.783 360.333 167.544 362.629 170.421 364.007C173.297 365.385 176.404 365.5 178.59 366.763C180.891 367.911 182.041 369.978 182.041 371.355C182.041 372.044 181.926 372.618 181.811 372.963C181.926 373.192 181.811 373.422 181.696 373.307Z" fill="#FAFAFA"/>
<path d="M401.911 101.305L398.459 101.535L391.671 112.442L392.131 119.217C392.131 119.217 386.838 119.905 386.838 110.95C386.838 101.994 386.378 104.29 386.378 104.29C386.378 104.29 375.103 104.979 374.182 104.061C373.492 103.372 372.457 92.2344 371.881 86.2639C371.651 83.2786 373.262 80.2934 376.138 79.3748C376.484 79.26 376.944 79.1452 377.289 79.1452C380.05 78.9156 394.547 80.2934 394.547 80.2934L400.415 79.9489L401.911 101.305Z" fill="#9EC8FF"/>
<path d="M411.805 102.568L408.239 79.26L402.371 79.7193L403.867 102.568H411.805Z" fill="#9EC8FF"/>
<path d="M321.602 122.202C321.602 122.202 321.833 122.202 322.063 122.317C322.178 122.317 322.408 122.432 322.638 122.546C322.868 122.661 323.098 122.776 323.328 122.891C324.364 123.465 325.859 124.843 326.78 126.91C327.24 127.943 327.47 129.206 327.355 130.584C327.24 131.962 326.78 133.339 325.859 134.602C324.939 135.865 323.673 136.899 322.063 137.473C320.567 138.162 318.726 138.276 317 137.817C315.274 137.358 313.779 136.325 312.743 134.947C311.708 133.684 311.017 132.076 310.902 130.584C310.672 129.091 311.017 127.598 311.593 126.335C312.168 125.072 313.088 124.154 313.894 123.465C315.735 122.087 317.576 121.628 318.841 121.628C319.186 121.628 319.416 121.628 319.647 121.628C319.877 121.628 320.107 121.628 320.222 121.743C320.567 121.858 320.682 121.858 320.682 121.858C320.682 121.972 319.992 121.743 318.726 121.858C317.46 121.972 315.735 122.432 314.009 123.809C313.203 124.498 312.398 125.417 311.823 126.565C311.248 127.713 311.017 129.091 311.248 130.469C311.593 133.224 313.779 136.21 316.885 137.128C320.107 137.932 323.443 136.325 325.169 134.143C326.09 132.995 326.55 131.732 326.665 130.469C326.78 129.206 326.55 128.058 326.09 127.024C325.284 124.958 323.904 123.695 322.983 123.006C322.293 122.432 321.602 122.317 321.602 122.202Z" fill="white"/>
<path d="M297.671 142.639C297.671 142.639 298.131 142.639 298.822 143.099C299.512 143.443 300.432 144.362 301.008 145.625C301.238 146.314 301.468 147.117 301.468 147.921C301.353 148.84 301.123 149.758 300.547 150.447C299.397 152.054 297.096 153.088 294.91 152.514C292.609 151.94 291.228 149.873 290.998 147.921C290.883 147.003 290.998 145.969 291.458 145.165C291.803 144.362 292.378 143.788 292.954 143.328C294.104 142.41 295.37 142.18 296.175 142.18C296.981 142.18 297.441 142.41 297.441 142.41C297.441 142.41 296.981 142.41 296.175 142.41C295.37 142.525 294.334 142.754 293.299 143.673C292.263 144.477 291.343 146.084 291.573 147.806C291.803 149.528 293.069 151.366 295.025 151.94C296.981 152.399 299.052 151.48 300.087 150.103C301.238 148.725 301.123 146.888 300.662 145.625C300.202 144.362 299.397 143.558 298.706 143.099C298.131 142.869 297.671 142.754 297.671 142.639Z" fill="#263238"/>
<path d="M332.533 87.1825C332.533 87.1825 332.533 86.8381 332.648 86.264C332.763 85.5751 332.878 84.6565 333.108 83.5084C333.223 82.9343 333.338 82.2454 333.453 81.4417C333.568 80.6379 333.913 79.8342 334.143 79.0305C334.373 78.1119 334.604 77.1934 334.949 76.16C335.064 75.7008 335.294 75.1267 335.524 74.6674C335.754 74.0933 335.984 73.6341 336.099 73.06C337.71 68.5821 340.471 63.4153 344.498 58.0189C348.64 52.6225 354.278 47.2261 361.641 42.9778C362.562 42.4037 363.482 41.9444 364.403 41.3704C365.323 40.9111 366.359 40.4518 367.394 39.9926C368.43 39.5333 369.465 38.9592 370.501 38.6147C371.536 38.2703 372.687 37.9258 373.722 37.4666C374.297 37.2369 374.873 37.1221 375.333 36.8925C375.908 36.7777 376.483 36.6628 377.059 36.4332C378.209 36.2036 379.36 35.8591 380.51 35.6295C381.661 35.3999 382.926 35.285 384.077 35.0554C385.343 34.9406 386.493 34.5961 387.759 34.7109C390.29 34.7109 392.821 34.4813 395.352 34.7109C396.618 34.8258 397.999 34.8258 399.264 35.0554C400.53 35.285 401.91 35.5147 403.176 35.7443C403.866 35.8591 404.557 35.9739 405.132 36.0888C405.822 36.3184 406.398 36.4332 407.088 36.6628C408.354 37.0073 409.734 37.3517 411 37.811C413.531 38.8444 416.177 39.6481 418.708 41.1407C419.284 41.4852 419.974 41.8296 420.549 42.0593C420.894 42.1741 421.24 42.4037 421.47 42.5185L422.39 43.0926C423.541 43.8963 424.806 44.5852 426.072 45.389C427.223 46.1927 428.373 47.1112 429.524 48.0298C430.099 48.489 430.674 48.9483 431.249 49.4076L432.86 50.9002C435.046 52.8521 437.002 55.1485 438.958 57.4448C439.879 58.7078 440.684 59.856 441.604 61.119L442.295 62.0375L442.87 63.0709L444.02 65.0228L445.171 66.9747L446.091 69.0414L447.012 71.1081L447.702 72.2563C447.817 72.6007 447.932 72.9452 448.047 73.4044C448.508 74.8971 449.083 76.3897 449.543 77.8823C449.888 79.3749 450.233 80.9824 450.579 82.475C451.844 88.6752 452.074 95.1049 451.384 101.65C450.464 108.079 448.738 114.279 445.976 120.02C445.286 121.398 444.481 122.776 443.79 124.269C442.985 125.646 442.065 126.909 441.259 128.172L440.569 129.206L439.879 130.124L438.383 131.961L436.887 133.798L435.276 135.406L433.666 137.013L432.86 137.817L431.94 138.506C430.789 139.539 429.639 140.458 428.488 141.491C426.072 143.213 423.656 145.051 421.01 146.428L419.054 147.577C418.363 147.921 417.673 148.151 417.098 148.495C415.717 149.069 414.451 149.758 413.071 150.217C411.69 150.677 410.309 151.136 409.044 151.595L408.008 151.94C407.663 152.054 407.318 152.054 406.973 152.169C406.283 152.284 405.592 152.514 404.902 152.628C402.141 153.432 399.379 153.547 396.618 154.006C395.237 154.121 393.857 154.121 392.476 154.121C391.786 154.121 391.095 154.121 390.405 154.236C389.715 154.236 389.024 154.121 388.449 154.121C387.068 154.006 385.803 153.891 384.537 153.891C383.272 153.777 382.006 153.432 380.625 153.317C378.094 152.973 375.678 152.169 373.262 151.48C371.996 151.251 370.961 150.677 369.81 150.217C368.66 149.758 367.509 149.414 366.474 148.839C365.438 148.265 364.288 147.691 363.252 147.232C362.677 147.002 362.217 146.658 361.641 146.428C361.181 146.084 360.606 145.854 360.146 145.51C359.225 144.936 358.19 144.247 357.269 143.673C356.349 143.099 355.428 142.295 354.623 141.606C353.703 140.917 352.897 140.228 352.092 139.539C351.286 138.736 350.481 138.047 349.791 137.358C343.693 131.387 339.551 124.843 336.79 118.642C334.143 112.442 332.648 106.701 332.187 101.994C332.072 101.42 332.072 100.846 331.957 100.272C331.842 99.6976 331.842 99.1235 331.842 98.6643C331.842 97.6309 331.842 96.5976 331.727 95.679C331.727 94.7605 331.612 93.9567 331.727 93.153C331.842 92.3493 331.842 91.6604 331.842 91.0863C331.957 89.8233 332.072 88.9048 332.072 88.2159C332.533 87.527 332.533 87.1825 332.533 87.1825C332.533 87.1825 332.533 87.527 332.533 88.1011C332.533 88.79 332.417 89.7085 332.417 90.9715C332.417 91.5456 332.302 92.2345 332.302 93.0382C332.302 93.8419 332.302 94.6457 332.417 95.5642C332.417 96.4827 332.533 97.4013 332.533 98.5495C332.533 99.1235 332.648 99.5828 332.648 100.157C332.763 100.731 332.763 101.305 332.878 101.879C333.338 106.587 334.834 112.213 337.48 118.413C340.241 124.498 344.383 131.043 350.481 137.013C351.286 137.702 351.977 138.506 352.782 139.195C353.588 139.884 354.508 140.573 355.313 141.262C356.234 141.95 357.039 142.639 357.96 143.328C358.88 143.902 359.916 144.591 360.836 145.165C361.296 145.51 361.756 145.739 362.332 146.084C362.907 146.314 363.367 146.658 363.942 146.888C364.978 147.462 366.013 147.921 367.164 148.495C368.199 148.954 369.35 149.414 370.501 149.873C371.651 150.332 372.802 150.791 373.952 151.136C376.368 151.825 378.784 152.628 381.316 152.858C382.581 153.088 383.847 153.317 385.113 153.432C386.378 153.547 387.759 153.662 389.024 153.662C389.715 153.662 390.29 153.777 390.98 153.777C391.671 153.777 392.361 153.777 392.936 153.662C394.317 153.547 395.582 153.662 396.963 153.547C399.609 153.203 402.371 152.973 405.132 152.169C405.822 152.054 406.513 151.825 407.203 151.71C407.548 151.595 407.893 151.595 408.239 151.48L409.274 151.136C410.655 150.677 411.92 150.217 413.301 149.758C414.682 149.184 415.947 148.61 417.213 148.036C417.903 147.691 418.593 147.462 419.169 147.117L421.01 146.084C423.656 144.706 425.957 142.984 428.373 141.262C429.524 140.343 430.674 139.31 431.825 138.276L432.63 137.587L433.435 136.784L435.046 135.176L436.657 133.569L438.038 131.732L439.418 129.895L440.109 128.976L440.684 128.058C441.489 126.795 442.41 125.417 443.215 124.154C443.905 122.776 444.596 121.398 445.401 120.02C448.047 114.394 449.888 108.194 450.694 101.764C451.384 95.3346 451.154 89.0196 449.888 82.8195C449.543 81.3268 449.198 79.8342 448.853 78.2268C448.393 76.7341 447.817 75.2415 447.357 73.8637C447.242 73.5192 447.127 73.1748 447.012 72.7155L446.552 71.6822L445.631 69.6154L444.711 67.5487L443.56 65.5968L442.41 63.6449L441.834 62.6116L441.144 61.6931C440.224 60.4301 439.418 59.2819 438.498 58.0189C436.542 55.7225 434.701 53.4262 432.515 51.4743L430.904 49.9817C430.329 49.5224 429.754 49.0631 429.178 48.6039C428.028 47.6853 426.992 46.7668 425.727 45.9631C424.576 45.1593 423.311 44.4704 422.16 43.6667L421.24 43.0926C420.895 42.863 420.664 42.7482 420.319 42.6333C419.744 42.2889 419.054 41.9444 418.478 41.7148C416.062 40.337 413.416 39.5333 410.885 38.4999C409.619 38.0407 408.238 37.6962 406.973 37.3517C406.283 37.1221 405.707 37.0073 405.017 36.7777C404.327 36.6628 403.751 36.548 403.061 36.4332C401.795 36.2036 400.415 35.9739 399.149 35.7443C397.884 35.5147 396.618 35.5147 395.237 35.3999C392.706 35.0554 390.175 35.285 387.644 35.3999C386.378 35.3999 385.228 35.6295 383.962 35.7443C382.811 35.9739 381.546 35.9739 380.395 36.2036C379.245 36.4332 378.094 36.7777 376.944 37.0073C376.368 37.1221 375.793 37.2369 375.218 37.3517C374.643 37.4666 374.067 37.6962 373.607 37.9258C372.572 38.2703 371.421 38.6147 370.385 39.074C369.35 39.4185 368.315 39.9925 367.279 40.337C366.244 40.7963 365.208 41.2555 364.288 41.7148C363.367 42.2889 362.447 42.7482 361.526 43.3223C354.163 47.5705 348.525 52.9669 344.498 58.2485C340.471 63.5301 337.595 68.6969 335.984 73.1748C335.754 73.7489 335.524 74.2081 335.294 74.7822C335.064 75.2415 334.834 75.8156 334.719 76.2749C334.488 77.3082 334.143 78.2268 333.913 79.1453C333.683 80.0638 333.453 80.8676 333.223 81.5565C333.108 82.3602 332.993 83.0491 332.878 83.6232C332.648 84.8862 332.533 85.8047 332.417 86.3788C332.648 86.8381 332.533 87.1825 332.533 87.1825Z" fill="white"/>
<path d="M151.897 106.816C151.897 106.931 151.207 106.931 150.056 107.505C149.02 108.079 147.525 109.227 146.489 111.065C146.029 111.983 145.569 113.131 145.569 114.509C145.569 115.772 145.799 117.15 146.604 118.413C147.985 120.824 151.091 122.776 154.428 122.431C157.765 121.972 160.181 119.217 160.871 116.461C161.216 115.083 161.216 113.705 160.756 112.442C160.411 111.179 159.721 110.261 158.915 109.457C157.419 107.85 155.694 107.161 154.428 106.931C153.162 106.701 152.472 106.816 152.472 106.701C152.472 106.701 152.587 106.701 152.932 106.587C153.047 106.587 153.277 106.587 153.508 106.587C153.738 106.587 154.083 106.587 154.313 106.701C155.579 106.816 157.419 107.505 159.03 109.113C159.836 109.916 160.526 110.95 160.986 112.213C161.446 113.476 161.561 114.968 161.101 116.461C160.756 117.954 159.951 119.446 158.685 120.594C157.535 121.743 155.924 122.661 154.198 122.891C152.472 123.12 150.631 122.661 149.251 121.857C147.755 121.054 146.604 119.905 145.799 118.528C144.994 117.265 144.763 115.772 144.763 114.394C144.878 113.016 145.224 111.868 145.799 110.835C146.949 108.883 148.56 107.735 149.711 107.161C149.941 107.046 150.286 106.931 150.516 106.816C150.746 106.701 150.976 106.701 151.091 106.701C151.667 106.816 151.897 106.816 151.897 106.816Z" fill="#263238"/>
<path d="M173.757 125.302C173.757 125.302 173.297 125.417 172.607 125.761C171.916 126.106 170.996 126.795 170.421 128.058C169.73 129.206 169.5 131.043 170.536 132.535C171.456 134.028 173.297 135.291 175.368 134.947C177.439 134.602 178.935 132.995 179.395 131.272C179.855 129.55 179.165 127.943 178.244 126.909C177.324 125.876 176.289 125.532 175.483 125.302C174.678 125.187 174.333 125.187 174.333 125.187C174.333 125.187 174.793 125.072 175.598 125.072C176.404 125.187 177.554 125.532 178.59 126.565C179.05 127.024 179.625 127.713 179.855 128.517C180.085 129.321 180.2 130.354 179.97 131.272C179.51 133.109 177.899 135.061 175.483 135.406C173.182 135.75 171.111 134.373 170.076 132.65C169.615 131.847 169.385 130.813 169.385 130.009C169.385 129.091 169.73 128.402 170.076 127.713C170.766 126.45 171.801 125.761 172.607 125.417C173.297 125.302 173.757 125.302 173.757 125.302Z" fill="#263238"/>
<path d="M88.8469 62.267H85.1652L77.1114 51.0149V43.6666C77.1114 43.6666 71.3586 43.3221 72.049 52.9668C72.7393 62.6115 72.049 60.2003 72.049 60.2003C72.049 60.2003 59.8532 60.2003 58.8177 61.3485C58.1274 62.1522 57.7822 74.208 57.6672 80.7526C57.5521 84.0823 59.6231 87.0676 62.7296 87.8713C63.1898 87.9861 63.65 88.101 63.9952 88.101C66.9866 88.101 82.634 85.6898 82.634 85.6898H89.077V62.267H88.8469Z" fill="#E8505B"/>
<path d="M99.432 60.3152L97.131 85.6898H90.803V60.7745L99.432 60.3152Z" fill="#E8505B"/>
<path d="M145.339 65.8264C145.339 65.8264 145.339 65.4819 145.224 64.793C145.224 64.1041 145.109 63.0708 144.994 61.693C144.994 61.0041 144.879 60.3151 144.879 59.3966C144.764 58.5929 144.648 57.6743 144.418 56.7558C144.303 55.8373 144.073 54.6891 143.958 53.6557C143.843 53.0816 143.728 52.5076 143.613 51.9335C143.498 51.3594 143.268 50.7853 143.153 50.0964C142.002 45.1592 139.701 39.1887 136.019 32.9886C132.338 26.7884 126.93 20.2438 119.682 14.7326C118.761 14.0437 117.841 13.3548 116.92 12.6659C116 11.977 114.964 11.4029 113.929 10.8288C113.469 10.4843 112.893 10.2547 112.433 9.91025C111.973 9.5658 111.398 9.22135 110.822 8.99172C109.672 8.41763 108.636 7.95836 107.486 7.38427C106.911 7.15463 106.335 6.81018 105.76 6.58054C105.185 6.35091 104.61 6.12128 103.919 5.89164C102.769 5.43237 101.503 4.9731 100.353 4.62865C99.0869 4.16938 97.8213 3.93974 96.5557 3.59529C95.8654 3.48047 95.2901 3.25084 94.5998 3.13602C94.2546 3.0212 93.9094 2.90638 93.6793 2.90638L92.6438 2.79157C89.9976 2.44712 87.3513 1.87303 84.475 1.87303C83.0943 1.87303 81.7137 1.64339 80.333 1.75821C78.9523 1.87303 77.4566 1.87303 76.076 1.98784C75.3857 1.98784 74.6953 1.98785 73.8899 2.10266C73.1996 2.21748 72.5093 2.3323 71.7039 2.44712C70.3233 2.67675 68.8276 2.90638 67.3318 3.13602C64.4555 3.93974 61.5791 4.51383 58.7028 5.66201C58.0124 5.89164 57.3221 6.23609 56.5167 6.46573C56.1716 6.58055 55.8264 6.69536 55.4812 6.81018L54.4457 7.26945C53.0651 7.95836 51.6844 8.64726 50.3038 9.22135C48.9231 9.91025 47.6575 10.8288 46.2769 11.6325C45.5865 12.0918 44.8962 12.4362 44.3209 12.8955L42.4801 14.2733C39.8338 16.1104 37.5327 18.2919 35.2316 20.4735C34.1961 21.6216 33.0456 22.8846 32.0101 24.0328L31.2047 24.9513C30.9746 25.2958 30.7445 25.6403 30.5144 25.8699L28.9036 27.9366L27.4079 29.8885L26.1423 31.9552L24.8767 34.1367L24.1864 35.1701C23.9563 35.5146 23.8412 35.9738 23.6111 36.3183C22.9208 37.8109 22.1154 39.3035 21.4251 40.7962C20.8498 42.4036 20.2745 44.0111 19.6993 45.5037C17.6283 51.9335 16.4777 58.8225 16.3627 65.7116C16.4777 72.7154 17.6283 79.4897 19.6993 85.9194C20.2745 87.5269 20.8498 89.1343 21.4251 90.627C22.1154 92.1196 22.9208 93.6122 23.6111 95.1048L24.1864 96.253L24.8767 97.2864L26.1423 99.4679L27.4079 101.535L28.9036 103.487L30.3993 105.438L31.0897 106.472L31.895 107.39C33.0456 108.538 34.0811 109.801 35.1166 110.95C37.5327 113.131 39.8338 115.313 42.365 117.15L44.2059 118.528C44.7812 118.987 45.5865 119.331 46.1618 119.791C47.5425 120.594 48.8081 121.398 50.1887 122.202C51.5694 122.891 52.95 123.58 54.3307 124.154L55.3662 124.613C55.7113 124.728 56.0565 124.843 56.4017 124.957C57.092 125.187 57.7823 125.532 58.5877 125.761C61.349 126.909 64.3404 127.483 67.2168 128.287C68.7125 128.632 70.0931 128.746 71.5889 128.976C72.2792 129.091 72.9695 129.206 73.7749 129.32C74.4652 129.435 75.1556 129.435 75.9609 129.435C77.3416 129.55 78.8373 129.55 80.2179 129.665C81.5986 129.665 82.9793 129.55 84.3599 129.55C87.1212 129.55 89.8825 128.976 92.5288 128.632L93.5643 128.517C93.9094 128.402 94.2546 128.402 94.4847 128.287C95.175 128.172 95.7503 127.943 96.4406 127.828C97.7062 127.483 98.9718 127.254 100.237 126.794C101.503 126.335 102.654 125.876 103.804 125.531C104.379 125.302 104.955 125.072 105.645 124.843C106.22 124.613 106.796 124.269 107.371 124.039C108.521 123.465 109.557 123.006 110.707 122.431C111.283 122.202 111.743 121.857 112.318 121.513C112.778 121.168 113.354 120.939 113.814 120.594C114.849 120.02 115.885 119.331 116.805 118.757C117.726 118.068 118.646 117.379 119.567 116.691C126.815 111.179 132.223 104.635 135.904 98.4346C136.365 97.6308 136.825 96.9419 137.285 96.1382C137.63 95.3345 138.09 94.5308 138.436 93.8419C138.781 93.0381 139.126 92.3492 139.471 91.6603C139.586 91.3159 139.816 90.9714 139.931 90.627C140.046 90.2825 140.161 89.9381 140.391 89.4788C140.967 87.9862 141.427 86.6084 141.887 85.3454C142.347 83.9675 142.578 82.7046 142.923 81.4416C143.038 80.8675 143.268 80.1786 143.383 79.6045C143.498 79.0304 143.728 78.4563 143.728 77.8822C143.958 76.734 144.073 75.7007 144.188 74.7822C144.303 73.8636 144.533 72.9451 144.648 72.1413C144.648 71.3376 144.764 70.5339 144.764 69.845C144.879 68.4672 144.879 67.4338 144.994 66.7449C145.224 66.1708 145.339 65.8264 145.339 65.8264C145.339 65.8264 145.339 66.1708 145.339 66.8597C145.339 67.5486 145.224 68.582 145.224 69.9598C145.224 70.6487 145.109 71.3376 145.109 72.2562C144.994 73.0599 144.879 73.9784 144.764 75.0118C144.648 76.0451 144.418 77.0785 144.303 78.1118C144.188 78.6859 144.073 79.26 143.958 79.8341C143.843 80.4082 143.613 80.9823 143.498 81.6712C143.153 82.9342 142.923 84.1972 142.462 85.575C142.002 86.9528 141.427 88.3306 140.967 89.8232C140.852 90.1677 140.737 90.5122 140.507 90.9714C140.391 91.3159 140.161 91.6603 140.046 92.1196C139.701 92.8085 139.356 93.6122 139.011 94.4159C138.666 95.2197 138.32 95.9086 137.86 96.7123C137.4 97.516 136.94 98.2049 136.48 99.0087C132.798 105.324 127.39 111.868 120.027 117.379C119.106 118.068 118.186 118.757 117.266 119.446C116.23 120.135 115.195 120.709 114.274 121.283C113.814 121.628 113.239 121.857 112.778 122.202C112.203 122.546 111.743 122.891 111.168 123.12C110.017 123.694 108.982 124.154 107.831 124.728C107.256 124.957 106.681 125.302 106.105 125.531C105.53 125.761 104.955 125.991 104.264 126.22C103.114 126.68 101.848 127.139 100.583 127.598C99.317 128.057 98.0514 128.287 96.7858 128.632C96.0955 128.746 95.5202 128.976 94.8299 129.091C94.4847 129.206 94.1395 129.32 93.7944 129.32L92.7589 129.435C90.1126 129.78 87.3513 130.354 84.59 130.354C83.2094 130.354 81.8287 130.583 80.333 130.469C78.9523 130.354 77.4566 130.354 76.076 130.239C75.3857 130.239 74.5803 130.239 73.8899 130.124C73.1996 130.009 72.3942 129.895 71.7039 129.78C70.2082 129.55 68.8276 129.32 67.3318 129.091C64.4555 128.287 61.4641 127.713 58.7028 126.565C58.0124 126.335 57.3221 125.991 56.5167 125.761C56.1716 125.646 55.8264 125.531 55.4812 125.302L54.4457 124.843C53.0651 124.154 51.6844 123.465 50.3038 122.776C48.9231 122.087 47.6575 121.168 46.2769 120.365C45.5865 119.905 44.8962 119.561 44.3209 119.102L42.365 117.724C39.7187 115.887 37.4177 113.705 35.0015 111.524C33.851 110.376 32.8155 109.113 31.6649 107.85L30.8595 106.931L30.1692 105.898L28.6735 103.946L27.1778 101.994L25.9122 99.8124L24.6466 97.6308L23.9563 96.5975L23.381 95.4493C22.6907 93.9567 21.8853 92.464 21.195 90.8566C20.6197 89.2492 20.0444 87.6417 19.4692 86.0343C17.3982 79.4897 16.2476 72.6006 16.1326 65.5967C16.2476 58.5929 17.3982 51.7038 19.4692 45.1592C20.0444 43.5518 20.6197 41.9443 21.195 40.3369C21.8853 38.8443 22.6907 37.2368 23.381 35.7442C23.6111 35.3997 23.7262 34.9405 23.9563 34.596L24.6466 33.5627L25.9122 31.3811L27.1778 29.1996L28.6735 27.2477L30.1692 25.2958C30.3993 24.9513 30.6294 24.6069 30.8595 24.2624L31.6649 23.3439C32.8155 22.0809 33.851 20.9327 35.0015 19.6697C37.4177 17.4882 39.7187 15.1919 42.365 13.4696L44.3209 12.0918C45.0113 11.6325 45.7016 11.2881 46.2769 10.8288C47.6575 10.0251 48.9231 9.22135 50.3038 8.41763C51.6844 7.72872 53.0651 7.03981 54.4457 6.35091L55.4812 5.89164C55.8264 5.77682 56.1716 5.662 56.5167 5.43237C57.207 5.20273 57.8974 4.85828 58.7028 4.62865C61.5791 3.48047 64.4555 2.90639 67.3318 2.10266C68.8276 1.75821 70.2082 1.64339 71.7039 1.41376C72.3942 1.29894 73.1996 1.18412 73.8899 1.06931C74.5803 0.954488 75.3857 0.954489 76.076 0.954489C77.5717 0.839672 78.9523 0.839671 80.333 0.724854C81.7137 0.724854 83.2094 0.839669 84.59 0.839669C87.3513 0.839669 90.1126 1.41376 92.7589 1.75821L93.7944 1.87303C94.1395 1.98785 94.4847 1.98785 94.8299 2.10266C95.5202 2.21748 96.0955 2.44711 96.7858 2.56193C98.0514 2.90638 99.317 3.13602 100.583 3.59529C101.848 4.05456 102.999 4.51383 104.264 4.9731C104.84 5.20274 105.415 5.43237 106.105 5.66201C106.681 5.89164 107.256 6.23609 107.831 6.46573C108.982 7.03982 110.132 7.49908 111.168 8.07317C111.743 8.30281 112.203 8.64726 112.778 8.99172C113.354 9.33617 113.814 9.5658 114.274 9.91025C115.31 10.5992 116.345 11.1732 117.266 11.7473C118.186 12.4362 119.106 13.1251 120.027 13.814C127.39 19.4401 132.683 25.9847 136.48 32.1848C140.161 38.4998 142.462 44.3555 143.613 49.4075C143.728 49.9816 143.958 50.6705 144.073 51.2446C144.188 51.8186 144.418 52.3927 144.418 52.9668C144.533 54.115 144.764 55.1484 144.879 56.0669C144.994 57.1003 145.224 57.904 145.224 58.8225C145.224 59.6262 145.339 60.43 145.339 61.1189C145.339 62.4967 145.454 63.53 145.454 64.2189C145.339 65.4819 145.339 65.8264 145.339 65.8264Z" fill="white"/>
<path d="M248.543 88.2155C247.507 88.2155 246.817 87.4117 246.817 86.4932L247.162 71.1077C247.162 70.5336 247.392 70.0743 247.853 69.7299C248.313 69.3854 248.888 69.2706 249.348 69.5002C252.11 70.3039 255.216 69.9595 257.977 68.4669C260.509 67.089 262.234 64.7927 262.81 62.2667C263.385 59.7407 262.81 56.8703 261.199 54.4591C259.473 51.8183 256.942 49.9812 254.066 49.522C248.428 48.4886 242.215 52.2776 240.259 57.9037C239.914 58.8222 238.993 59.2815 238.073 58.937C237.152 58.5926 236.692 57.674 237.037 56.7555C239.569 49.522 247.507 44.8145 254.756 46.0775C258.438 46.7664 261.889 49.0627 264.19 52.5072C266.261 55.7221 267.067 59.5111 266.261 62.9556C265.456 66.4002 263.04 69.5002 259.703 71.3373C256.827 72.9447 253.605 73.6337 250.499 73.1744L250.154 86.3784C250.269 87.5266 249.463 88.2155 248.543 88.2155Z" fill="white"/>
<path d="M251.304 95.7933C251.304 97.1711 250.154 98.3193 248.773 98.3193C247.392 98.3193 246.242 97.1711 246.242 95.7933C246.242 94.4155 247.392 93.2673 248.773 93.2673C250.154 93.2673 251.304 94.4155 251.304 95.7933Z" fill="white"/>
<path d="M59.7384 264.92C57.0921 264.92 54.5609 264.116 52.4899 262.623C50.0738 260.786 48.463 257.916 48.1178 254.701C47.7727 251.716 48.5781 248.73 50.4189 246.549C52.2598 244.367 55.0211 242.99 58.1276 242.875C60.5437 242.76 62.9599 243.334 64.9158 244.597L69.518 235.986C69.9782 235.182 71.0137 234.837 71.8191 235.297C72.6245 235.756 72.9696 236.789 72.5094 237.593L66.9868 248.042C66.7567 248.501 66.2965 248.845 65.7212 248.96C65.1459 249.075 64.6857 248.845 64.2255 248.501C62.7298 247.008 60.5437 246.319 58.2427 246.434C56.1717 246.549 54.2157 247.467 53.0652 248.96C51.9147 250.453 51.3394 252.405 51.5695 254.586C51.7996 256.882 52.9501 258.834 54.676 260.097C58.0125 262.623 63.4201 262.049 66.5266 259.064C67.2169 258.375 68.2524 258.375 68.9427 259.064C69.6331 259.753 69.6331 260.786 68.9427 261.475C66.4115 263.772 63.0749 264.92 59.7384 264.92Z" fill="white"/>
<path d="M72.2794 229.441C72.7396 228.522 73.8901 228.063 74.9256 228.522C75.8461 228.982 76.3063 230.13 75.8461 231.163C75.3858 232.082 74.2353 232.541 73.1998 232.082C72.1643 231.508 71.8191 230.36 72.2794 229.441Z" fill="white"/>
<path d="M408.008 235.986C407.433 235.986 406.973 235.756 406.628 235.297L399.724 225.767C399.379 225.308 399.264 224.734 399.494 224.274C399.609 223.815 400.07 223.356 400.53 223.126C402.486 222.437 404.212 220.83 405.017 218.648C405.822 216.696 405.822 214.63 405.132 212.907C404.327 211.185 402.831 209.807 400.76 209.118C398.574 208.315 396.273 208.43 394.432 209.348C390.75 211.185 388.794 216.237 390.06 220.371C390.405 221.289 389.83 222.208 388.909 222.552C387.989 222.897 387.068 222.322 386.723 221.404C384.882 215.663 387.529 208.889 392.821 206.248C395.467 204.87 398.804 204.755 401.91 205.789C404.787 206.822 407.088 208.889 408.238 211.415C409.389 214.056 409.389 217.041 408.238 219.911C407.318 222.208 405.707 224.045 403.751 225.308L409.504 233.23C410.079 234.034 409.849 235.067 409.159 235.641C408.699 235.871 408.353 235.986 408.008 235.986Z" fill="white"/>
<path d="M413.991 238.627C414.681 239.43 414.451 240.693 413.646 241.382C412.841 242.071 411.575 241.841 410.885 241.038C410.194 240.234 410.424 238.971 411.23 238.282C412.15 237.708 413.416 237.823 413.991 238.627Z" fill="white"/>
</g>
<defs>
<clipPath id="clip0_82_2732">
<rect width="452" height="486" fill="white"/>
</clipPath>
</defs>
</svg>
