<svg width="226" height="226" viewBox="0 0 226 226" fill="none" xmlns="http://www.w3.org/2000/svg">
<path d="M61.2538 60.5701L67.5363 78.0214C47.6419 101.581 40.4868 134.738 51.6556 165.801C68.2343 212.222 119.367 236.479 165.961 219.726C212.382 203.147 236.639 152.015 219.886 105.42C203.307 58.9995 152.175 34.7422 105.58 51.4955C95.6329 54.9857 86.7327 60.2211 79.0541 66.5036L61.2538 60.5701Z" fill="#FAFAFA"/>
<path d="M61.254 60.57C62.3011 60.919 67.5365 62.6642 79.2289 66.5034H79.0543C82.8936 63.3622 87.9545 59.6974 94.0625 56.5562C97.2037 54.9856 100.519 53.415 104.359 52.0189C106.278 51.3208 108.198 50.7973 110.118 50.0992C112.212 49.5757 114.131 48.7031 116.4 48.3541C118.494 48.0051 120.763 47.4816 123.032 46.958C125.3 46.7835 127.743 46.4345 130.012 46.2599C130.536 46.2599 131.234 46.0854 131.757 46.0854C132.281 46.0854 132.979 46.0854 133.677 46.0854C134.898 46.0854 136.12 46.0854 137.342 46.0854C138.563 46.0854 139.959 46.0854 141.181 46.0854C142.402 46.26 143.798 46.4345 145.02 46.4345C155.491 47.4815 166.485 50.4483 176.956 56.0327C187.427 61.4426 197.548 69.4701 205.751 79.7664L207.321 81.686L208.717 83.7802C209.59 85.1763 210.637 86.5724 211.509 87.9685L212.207 89.0156L212.731 90.0626L213.953 92.3313C214.825 93.9019 215.523 95.298 216.396 96.8686C217.094 98.4392 217.792 100.01 218.315 101.58L219.363 104.024C219.712 104.896 220.061 105.594 220.235 106.467C220.759 108.212 221.282 109.783 221.806 111.528L222.504 114.145C222.678 115.018 222.853 115.891 223.027 116.763C223.376 118.508 223.725 120.253 224.074 121.998C224.249 122.871 224.423 123.744 224.423 124.616L224.598 127.234C224.772 128.979 224.947 130.899 224.947 132.644C224.947 134.389 224.947 136.309 224.947 138.054C224.947 138.926 224.947 139.973 224.947 140.846L224.598 143.638C224.423 145.558 224.249 147.303 224.074 149.222C223.725 150.968 223.376 152.887 223.027 154.632L222.504 157.425C222.329 158.297 221.98 159.17 221.806 160.217C221.282 161.962 220.759 163.882 220.061 165.627C219.363 167.372 218.665 169.117 217.966 170.862C216.57 174.527 214.651 177.668 212.906 181.158C212.033 182.903 210.811 184.474 209.764 186.045L208.194 188.488C207.67 189.36 206.972 190.058 206.449 190.756C205.227 192.327 204.005 193.723 202.784 195.294C201.388 196.69 199.992 198.086 198.596 199.482L196.501 201.576C195.803 202.274 194.931 202.798 194.233 203.496C192.662 204.717 191.266 205.939 189.695 207.335C188.125 208.557 186.554 209.604 184.809 210.651L182.366 212.222C181.493 212.745 180.621 213.094 179.748 213.618C178.003 214.49 176.432 215.537 174.687 216.41C172.942 217.282 171.197 217.98 169.452 218.679C165.962 220.249 162.297 221.296 158.632 222.343C156.887 223.041 154.967 223.216 153.048 223.565C151.128 223.914 149.383 224.263 147.463 224.612C145.544 224.786 143.799 224.961 141.879 225.135L139.087 225.31C138.214 225.31 137.167 225.31 136.294 225.31C134.375 225.31 132.63 225.31 130.885 225.31C129.139 225.31 127.22 224.961 125.475 224.786L122.857 224.437L121.461 224.263L120.065 223.914C118.32 223.565 116.575 223.216 114.829 222.867C113.084 222.518 111.339 221.994 109.769 221.471C108.023 220.947 106.453 220.424 104.708 219.9C103.137 219.202 101.566 218.504 99.8214 217.98C98.2507 217.282 96.6801 216.759 95.1095 215.886C92.1428 214.316 89.0016 212.745 86.2094 210.825C84.8133 209.953 83.4171 208.906 82.021 208.033C80.6249 206.986 79.4033 205.939 78.1817 204.892C68.06 196.515 60.207 186.394 54.7971 175.748C52.1794 170.338 50.0852 164.929 48.5146 159.519C47.8165 156.727 47.1185 154.109 46.7694 151.491C46.5949 150.095 46.246 148.873 46.0715 147.477C45.8969 146.081 45.7224 144.86 45.7224 143.464C44.6753 132.993 45.8969 123.22 47.8166 114.669C49.9107 106.118 53.0519 98.6138 56.3676 92.5058C59.6834 86.3979 63.3481 81.5115 66.4894 77.6722V77.8468C63.3481 66.6779 61.603 61.6171 61.254 60.57C61.603 61.6171 63.5227 66.6779 67.711 78.0213C64.5697 81.8605 61.0795 86.7469 57.5893 92.8548C54.2735 98.9628 51.1323 106.292 49.2127 114.843C47.293 123.395 46.2459 132.993 47.1185 143.464C47.293 144.685 47.4675 146.081 47.4675 147.303C47.642 148.699 47.991 149.92 48.1655 151.317C48.5145 153.934 49.3871 156.552 49.9106 159.344C51.4813 164.754 53.5755 169.989 56.1932 175.399C61.4286 186.045 69.2816 195.992 79.4033 204.368C80.6249 205.416 82.0211 206.463 83.2426 207.51C84.6387 208.382 86.0348 209.255 87.4309 210.302C90.2231 212.222 93.1898 213.618 96.1565 215.363C97.5526 216.235 99.2978 216.759 100.868 217.457C102.439 218.155 104.01 218.853 105.58 219.377C107.151 219.9 108.896 220.424 110.641 220.947C112.386 221.471 113.957 221.994 115.702 222.343C117.447 222.692 119.192 223.041 120.937 223.39L122.159 223.739L123.555 223.914L126.173 224.263C127.918 224.437 129.663 224.786 131.583 224.786C133.328 224.786 135.247 224.786 136.993 224.786C137.865 224.786 138.738 224.786 139.785 224.786L142.577 224.612C144.322 224.437 146.242 224.263 147.987 224.088C149.732 223.739 151.652 223.39 153.397 223.041C155.142 222.692 157.062 222.343 158.807 221.82C162.297 220.773 165.962 219.726 169.452 218.155C171.197 217.457 172.942 216.759 174.687 215.886C176.432 215.014 178.003 214.141 179.748 213.094C180.621 212.571 181.493 212.222 182.191 211.698L184.634 210.127C186.205 209.08 187.776 208.033 189.346 206.812C190.917 205.59 192.313 204.368 193.884 203.147C194.582 202.449 195.454 201.925 196.152 201.227L198.246 199.133C199.643 197.737 201.039 196.341 202.26 194.945C203.482 193.374 204.703 191.978 205.925 190.407C206.449 189.709 207.147 189.011 207.67 188.139L209.241 185.696C210.288 184.125 211.335 182.554 212.382 180.809C214.127 177.494 216.221 174.178 217.443 170.688C218.141 168.942 219.013 167.197 219.537 165.452C220.061 163.707 220.584 161.787 221.108 160.042C221.282 159.17 221.631 158.297 221.806 157.425L222.329 154.632C222.678 152.887 223.027 150.968 223.376 149.222C223.551 147.477 223.725 145.558 223.9 143.813L224.249 141.02C224.249 140.148 224.249 139.275 224.249 138.228C224.249 136.483 224.249 134.563 224.249 132.818C224.249 131.073 223.9 129.153 223.9 127.408L223.725 124.791C223.725 123.918 223.551 123.046 223.376 122.173C223.027 120.428 222.678 118.683 222.329 116.938C222.155 116.065 221.98 115.192 221.806 114.32L221.108 111.877C220.584 110.132 220.061 108.561 219.537 106.816C219.363 105.943 219.013 105.245 218.664 104.373L217.617 101.93C216.919 100.359 216.221 98.7883 215.698 97.2177C214.825 95.647 214.127 94.2509 213.255 92.6803L212.033 90.4117L211.509 89.3646L210.811 88.3175C209.939 86.9214 208.892 85.5253 208.019 84.1292L206.623 82.035L205.053 80.1154C196.85 69.9937 186.903 61.9661 176.432 56.5562C165.962 51.1463 155.142 48.0051 144.671 46.958C143.45 46.7835 142.053 46.609 140.832 46.609C139.61 46.4345 138.214 46.609 136.993 46.609C135.771 46.609 134.549 46.609 133.328 46.609C132.63 46.609 132.106 46.609 131.583 46.609C131.059 46.609 130.361 46.7835 129.838 46.7835C127.394 46.958 125.126 47.307 122.857 47.4815C120.588 47.8306 118.32 48.3541 116.225 48.7031C114.131 49.0522 112.037 49.7502 109.943 50.2737C108.023 50.9718 105.929 51.3208 104.184 52.0189C100.519 53.415 97.0292 54.9856 94.0625 56.5562C87.78 59.872 82.8936 63.3622 79.0543 66.5034C67.5365 62.8387 62.3011 60.919 61.254 60.57Z" fill="#263238"/>
<path d="M145.718 88.6663L109.943 91.982L95.4585 96.1703C89.176 97.9154 83.5916 101.231 78.8798 105.594L31.9358 150.618L23.3847 80.6387L0 82.7328L3.8393 172.781C7.32956 183.776 17.4513 191.454 29.3181 191.454C36.2986 191.454 43.1046 188.488 48.1655 183.601L81.4975 152.189L78.1817 193.548L75.0405 200.529C97.0291 221.994 130.71 229.149 157.236 221.819C157.236 221.819 158.283 217.98 163.518 184.997C167.707 158.297 169.801 100.184 169.801 100.184L145.718 88.6663Z" fill="#E8505B"/>
<path d="M204.878 191.628C204.878 191.628 194.232 132.992 190.393 120.427C186.03 106.292 167.881 99.4856 167.881 99.4856L162.122 152.014L178.352 214.14C178.352 214.315 197.025 203.146 204.878 191.628Z" fill="#E8505B"/>
<path d="M78.5309 194.421C78.3564 194.421 79.0545 179.587 80.2761 161.089C81.4976 142.765 82.7192 127.757 82.8937 127.931C83.0683 127.931 82.3702 142.765 81.1486 161.263C79.927 179.587 78.7054 194.421 78.5309 194.421Z" fill="#263238"/>
<path d="M137.342 156.726C137.342 156.726 137.342 156.901 137.167 157.424C136.993 157.948 136.644 158.646 136.294 159.344C135.945 160.217 135.422 161.264 134.898 162.311C134.2 163.532 133.677 164.754 132.804 166.15C132.455 166.848 131.932 167.546 131.408 168.419C130.885 169.117 130.361 169.989 129.838 170.687C128.791 172.258 127.394 173.829 125.998 175.574C123.206 178.889 119.716 182.205 115.877 185.346C111.863 188.488 107.849 190.931 104.01 193.025C102.09 193.898 100.17 194.945 98.4253 195.643C97.5528 195.992 96.6802 196.341 95.8076 196.69C94.9351 197.039 94.0625 197.213 93.3644 197.562C91.7938 198.086 90.3976 198.435 89.1761 198.784C87.9545 199.133 86.7329 199.307 85.8604 199.482C84.9878 199.656 84.2897 199.656 83.7662 199.831C83.2427 199.831 83.0681 200.005 83.0681 199.831C83.0681 199.831 83.2427 199.656 83.7662 199.656C84.2897 199.482 84.9878 199.307 85.8604 199.133C86.7329 198.958 87.78 198.609 89.0016 198.26C90.2232 197.911 91.6193 197.562 93.1899 196.864C93.888 196.515 94.7605 196.341 95.6331 195.992C96.5056 195.643 97.3782 195.294 98.2507 194.945C99.9959 194.247 101.916 193.199 103.835 192.327C107.674 190.233 111.688 187.79 115.528 184.648C119.367 181.507 122.857 178.191 125.649 174.876C127.045 173.131 128.441 171.734 129.489 170.164C130.012 169.466 130.71 168.593 131.059 167.895C131.583 167.197 131.932 166.499 132.455 165.801C133.328 164.405 134.026 163.183 134.724 161.962C135.422 160.915 135.945 159.868 136.294 158.995C136.644 158.297 136.993 157.599 137.167 157.075C137.167 156.901 137.342 156.726 137.342 156.726Z" fill="#263238"/>
<g opacity="0.2">
<g opacity="0.2">
<g opacity="0.2">
<path opacity="0.2" d="M87.0817 199.307C84.464 198.609 83.0679 195.293 83.7659 192.675C84.464 190.058 86.7326 187.964 89.1758 186.917C91.619 185.695 94.4112 185.171 97.0289 184.648C108.547 181.856 119.192 175.922 127.569 167.546C128.267 166.848 129.488 165.975 130.361 166.499C131.582 167.197 130.71 169.116 129.837 170.338C118.494 184.997 103.311 195.119 86.3836 199.481" fill="black"/>
</g>
</g>
</g>
<path d="M169.975 182.379C169.975 182.379 169.801 181.856 169.452 180.809C169.103 179.762 168.754 178.366 168.23 176.62C167.183 172.956 165.962 168.069 164.74 162.485C163.518 156.901 162.471 151.84 161.773 148.349C161.424 146.604 161.25 145.034 161.075 143.987C160.901 142.94 160.901 142.416 160.901 142.416C160.901 142.416 161.075 142.94 161.424 143.987C161.773 145.208 161.948 146.604 162.471 148.349C163.344 152.189 164.391 157.075 165.612 162.485C166.834 167.895 168.056 172.781 168.928 176.62C169.277 178.366 169.626 179.762 169.801 180.983C169.975 181.681 169.975 182.379 169.975 182.379Z" fill="#263238"/>
<path d="M4.01369 89.5388C3.83917 89.5388 3.49021 87.9682 3.3157 86.0486C3.14119 84.1289 3.14119 82.3838 3.3157 82.3838C3.49021 82.3838 3.83917 83.9544 4.01369 85.874C4.36271 87.9682 4.1882 89.5388 4.01369 89.5388Z" fill="#263238"/>
<path d="M10.9942 89.8875C10.8197 89.8875 10.4707 88.1424 10.4707 86.0483C10.2962 83.9541 10.4707 82.209 10.6452 82.209C10.8197 82.209 11.1688 83.9541 11.1688 86.0483C11.1688 88.1424 11.1688 89.713 10.9942 89.8875Z" fill="#263238"/>
<path d="M17.8002 89.3646C17.6256 89.3646 17.2766 87.445 17.1021 85.1763C16.9275 82.9077 17.1021 80.988 17.2766 80.988C17.4511 80.988 17.8001 82.9077 17.9746 85.1763C17.9746 87.445 17.9747 89.3646 17.8002 89.3646Z" fill="#263238"/>
<path d="M30.8888 163.009C30.7143 163.009 30.7143 160.217 31.0633 156.726C31.4123 153.411 31.9359 150.618 32.1104 150.618C32.2849 150.618 32.2849 153.411 31.9358 156.901C31.5868 160.217 31.0633 163.009 30.8888 163.009Z" fill="#263238"/>
<path d="M182.366 108.386C182.366 108.561 180.446 108.386 177.479 109.084C174.512 109.608 170.673 111.179 167.183 114.145C163.693 117.112 161.773 120.777 160.726 123.569C159.679 126.361 159.504 128.281 159.504 128.281C159.504 128.281 159.504 127.757 159.504 126.885C159.504 126.012 159.853 124.791 160.202 123.395C161.075 120.428 163.169 116.589 166.659 113.447C170.15 110.306 174.338 108.91 177.305 108.386C178.875 108.212 180.097 108.037 180.969 108.212C181.842 108.212 182.366 108.386 182.366 108.386Z" fill="#263238"/>
<path d="M193.36 138.751C193.36 138.925 191.615 139.624 188.823 140.671C186.03 141.718 182.191 143.114 177.828 144.51C173.466 145.906 169.452 146.953 166.485 147.651C163.518 148.349 161.773 148.698 161.773 148.698C161.773 148.524 163.518 148 166.31 147.128C169.452 146.255 173.291 145.033 177.479 143.812C181.668 142.416 185.507 141.194 188.648 140.322C191.615 139.275 193.36 138.751 193.36 138.751Z" fill="#FAFAFA"/>
<path d="M204.878 190.407C204.878 190.581 203.133 190.93 200.166 191.628C197.199 192.326 193.36 193.199 188.823 194.071C184.46 194.944 180.446 195.817 177.479 196.34C174.513 196.864 172.768 197.213 172.768 197.038C172.768 196.864 174.513 196.515 177.479 195.817C180.446 195.119 184.46 194.246 188.823 193.373C193.186 192.501 197.199 191.628 200.166 191.105C202.958 190.581 204.878 190.407 204.878 190.407Z" fill="#FAFAFA"/>
<path d="M98.9489 194.421C98.9489 194.595 97.7274 194.071 95.8077 193.024C93.7136 191.977 91.2704 190.756 88.4782 189.534C85.8605 188.313 83.2428 187.091 81.1486 186.044C79.229 185.171 78.1819 184.648 78.1819 184.473C78.1819 184.299 79.4035 184.822 81.3231 185.52C83.2427 186.218 85.8604 187.44 88.6526 188.836C91.4449 190.232 94.0626 191.454 95.8077 192.501C97.9019 193.548 98.9489 194.246 98.9489 194.421Z" fill="#FAFAFA"/>
<path d="M158.632 204.542C158.632 204.542 157.934 204.368 156.887 203.844C155.666 203.321 154.095 202.623 152.175 201.75C148.161 200.005 142.752 197.736 136.644 195.293C130.536 192.85 124.951 190.756 120.937 189.36C119.018 188.662 117.447 188.138 116.226 187.615C115.179 187.266 114.48 186.917 114.48 186.917C114.48 186.917 115.179 187.091 116.226 187.44C117.447 187.789 119.018 188.313 121.112 189.011C125.126 190.407 130.885 192.326 136.993 194.77C143.101 197.213 148.51 199.656 152.35 201.576C154.269 202.448 155.84 203.321 156.887 203.844C158.109 204.193 158.632 204.368 158.632 204.542Z" fill="#FAFAFA"/>
<path d="M163.344 162.31C163.344 162.31 162.995 162.31 162.471 162.31C161.773 162.136 161.075 162.136 160.028 161.961C157.934 161.612 154.967 161.089 151.303 160.565C143.973 159.344 133.851 157.773 122.508 156.028C111.339 154.457 101.043 153.061 93.7135 152.014C90.0488 151.491 87.0821 151.142 84.9879 150.793C83.9408 150.618 83.2427 150.618 82.5447 150.444C82.0211 150.444 81.6721 150.269 81.6721 150.269C81.6721 150.269 82.0211 150.269 82.5447 150.269C83.2427 150.269 83.9408 150.444 84.9879 150.444C87.0821 150.618 90.0488 150.967 93.7135 151.316C101.043 152.189 111.339 153.41 122.508 155.155C133.677 156.726 143.973 158.471 151.303 159.867C154.967 160.565 157.934 161.089 160.028 161.438C160.901 161.612 161.773 161.787 162.297 161.961C162.995 162.136 163.344 162.31 163.344 162.31Z" fill="#FAFAFA"/>
<path d="M159.854 117.81C159.854 117.985 143.798 115.716 123.904 112.924C104.184 109.957 88.1289 107.339 88.1289 107.165C88.1289 106.99 104.184 109.259 124.078 112.051C143.973 115.018 159.854 117.636 159.854 117.81Z" fill="#FAFAFA"/>
<path d="M75.7385 156.726C75.564 156.726 74.8659 154.981 73.4698 151.84C72.0737 148.699 70.3286 144.51 68.2344 140.148C66.1403 135.61 64.3952 131.596 62.8246 128.455C61.4285 125.488 60.5559 123.569 60.7304 123.569C60.7304 123.569 61.0794 123.918 61.4285 124.79C61.952 125.663 62.4755 126.71 63.1736 128.281C64.7442 131.247 66.6639 135.261 68.758 139.973C70.8522 144.51 72.5972 148.699 73.8188 151.84C74.3424 153.411 74.8659 154.632 75.2149 155.505C75.7385 156.203 75.913 156.726 75.7385 156.726Z" fill="#FAFAFA"/>
<path d="M43.8024 187.964C43.6279 187.964 41.5338 179.064 39.2652 167.895C36.9965 156.726 35.2513 147.826 35.4259 147.651C35.6004 147.651 37.6946 156.552 39.9632 167.72C42.2319 178.889 43.977 187.964 43.8024 187.964Z" fill="#FAFAFA"/>
<path d="M30.5396 139.275C30.5396 139.449 24.4317 141.02 16.5786 142.59C8.90004 144.161 2.61763 145.383 2.44312 145.208C2.44312 145.034 8.55106 143.463 16.4041 141.892C24.2572 140.322 30.5396 139.1 30.5396 139.275Z" fill="#FAFAFA"/>
<path d="M26.0023 98.7879C26.0023 98.9625 24.6062 99.137 22.3375 99.6605C20.0688 100.01 16.9277 100.533 13.4374 100.882C9.94715 101.231 6.8059 101.58 4.36272 101.755C2.09406 101.929 0.697998 101.929 0.697998 101.755C0.697998 101.58 2.09406 101.406 4.36272 101.231C6.98041 100.882 9.94709 100.533 13.2628 100.184C16.5786 99.835 19.7199 99.486 22.163 99.137C24.4317 98.7879 26.0023 98.6134 26.0023 98.7879Z" fill="#FAFAFA"/>
<path d="M38.0437 28.2849C38.3927 29.1575 49.5616 86.3976 49.5616 86.3976L23.2101 87.6192L13.0884 38.4066L38.0437 28.2849Z" fill="#455A64"/>
<path d="M49.5618 86.3979L52.5284 85.1763L41.1851 28.6342L37.6948 28.4597L49.5618 86.3979Z" fill="#263238"/>
<path d="M27.3985 40.6752C27.573 41.3732 26.8749 42.0713 26.1769 42.2458C25.4788 42.4203 24.7807 41.7223 24.6062 41.0242C24.4317 40.3262 25.1298 39.6281 25.8278 39.4536C26.7004 39.4536 27.3985 39.9771 27.3985 40.6752Z" fill="#263238"/>
<path d="M21.9884 80.9882L21.6395 73.4842L32.8082 68.9468L28.4454 58.4761C26.3512 53.5897 20.4178 51.6701 15.8805 54.1132C14.3098 54.9858 12.7393 55.8584 11.3432 56.5564C8.20194 58.3016 5.75874 61.2683 4.88618 64.933C3.49007 71.041 2.09397 83.7804 2.26849 83.2569" fill="#EB996E"/>
<path d="M152.175 14.3237C156.538 16.9414 157.41 22.7003 157.759 27.5867C158.108 32.6476 158.806 38.232 162.82 41.1987C166.136 43.6419 171.371 44.1654 172.767 48.0047C173.466 49.7498 172.767 52.0185 171.197 53.2401C169.626 54.4616 167.358 54.6362 165.787 53.5891C167.358 56.5558 167.358 60.7441 164.914 63.0128C162.471 65.456 157.585 64.9324 156.189 61.9657C157.061 64.0598 155.84 66.6775 153.746 67.5501C151.651 68.2481 149.034 67.0266 148.336 64.7579" fill="#263238"/>
<path d="M99.6465 57.2536C99.123 59.8713 96.1563 61.7909 93.7132 61.0929C91.0955 60.5693 89.3503 57.6026 90.0483 54.9849C90.5719 52.8908 92.3171 51.3202 92.3171 49.226C92.1426 46.7828 89.3503 45.3867 86.9071 44.6887C84.4639 43.9906 81.6718 42.9436 80.9738 40.5004C80.2757 38.0572 82.1953 35.963 83.7659 34.0434C85.3365 32.1238 86.5581 29.3316 85.162 27.4119C84.4639 26.3648 83.0678 26.0158 82.1953 25.1433C80.1011 23.2236 80.4502 19.7334 82.3698 17.6392C84.2895 15.5451 87.2562 14.847 89.8739 14.847C92.6661 14.847 95.2838 15.5451 98.076 15.8941C107.151 16.9412 116.574 14.149 123.555 8.04102" fill="#263238"/>
<path d="M130.012 109.608C140.308 110.306 149.208 102.278 149.557 91.982L151.826 33.8693C152.698 19.0357 141.355 6.29624 126.521 5.77271H125.125C111.339 6.12173 99.9953 16.9415 99.1228 30.728C98.4247 43.642 97.7266 57.7775 97.9011 64.5835C98.4247 78.8935 112.735 80.8132 112.735 80.8132L112.909 91.4585C112.909 101.057 120.413 108.91 130.012 109.608Z" fill="#EB996E"/>
<path d="M112.735 80.6388C112.735 80.6388 121.81 81.1623 131.233 74.8799C131.233 74.8799 127.045 85.1761 112.909 84.3036L112.735 80.6388Z" fill="#AA6550"/>
<path d="M104.358 39.8034C104.358 40.8505 105.231 41.7231 106.278 41.8976C107.325 41.8976 108.372 41.025 108.372 39.9779C108.372 38.9309 107.499 38.0583 106.452 37.8838C105.23 37.8838 104.358 38.7563 104.358 39.8034Z" fill="#263238"/>
<path d="M102.264 37.709C102.438 37.8835 104.009 36.8364 106.278 36.8364C108.546 36.8364 110.117 37.8835 110.291 37.5344C110.466 37.3599 110.117 37.0109 109.419 36.4874C108.721 35.9638 107.499 35.4403 106.103 35.6148C104.707 35.6148 103.66 36.1383 102.962 36.6619C102.438 37.0109 102.264 37.5344 102.264 37.709Z" fill="#263238"/>
<path d="M125.998 39.8034C125.998 40.8505 126.87 41.7231 127.917 41.8976C128.964 41.8976 130.011 41.025 130.011 39.9779C130.011 38.9309 129.139 38.0583 128.092 37.8838C127.045 37.8838 125.998 38.7563 125.998 39.8034Z" fill="#263238"/>
<path d="M123.904 37.709C124.078 37.8835 125.649 36.8364 127.917 36.8364C130.186 36.8364 131.757 37.8835 131.931 37.5344C132.106 37.3599 131.757 37.0109 131.058 36.4874C130.36 35.9638 129.139 35.4403 127.743 35.6148C126.347 35.6148 125.3 36.1383 124.602 36.6619C123.904 37.0109 123.729 37.5344 123.904 37.709Z" fill="#263238"/>
<path d="M116.225 54.1131C116.225 53.9386 114.829 53.7641 112.734 53.5896C112.211 53.5896 111.687 53.4151 111.513 53.0661C111.338 52.7171 111.513 52.019 111.862 51.321C112.385 49.9249 112.909 48.5288 113.433 46.9581C115.527 40.8502 117.097 35.7893 116.923 35.7893C116.748 35.7893 114.654 40.5011 112.56 46.6091C112.036 48.1797 111.513 49.5758 110.989 50.9719C110.815 51.67 110.466 52.368 110.815 53.2406C110.989 53.5896 111.338 53.9386 111.687 54.1131C112.036 54.2877 112.385 54.2877 112.56 54.2877C114.829 54.1132 116.225 54.1131 116.225 54.1131Z" fill="#263238"/>
<path d="M122.682 55.3352C122.333 55.3352 122.333 57.7784 120.413 59.349C118.493 61.0941 115.876 60.9196 115.876 61.2687C115.876 61.4432 116.399 61.7922 117.446 61.7922C118.493 61.7922 120.064 61.4432 121.286 60.3961C122.507 59.349 123.031 57.9529 123.031 56.9058C123.205 56.0333 122.856 55.3352 122.682 55.3352Z" fill="#263238"/>
<path d="M123.031 29.1578C123.205 29.6813 125.474 29.3323 128.091 29.6813C130.709 29.8558 132.803 30.5539 133.152 30.0303C133.327 29.8558 132.978 29.1578 132.105 28.6342C131.233 28.1107 130.011 27.5871 128.44 27.4126C126.87 27.2381 125.474 27.5871 124.601 27.9362C123.38 28.2852 123.031 28.8087 123.031 29.1578Z" fill="#263238"/>
<path d="M102.962 31.4261C103.311 31.9496 104.881 31.4261 106.627 31.2516C108.372 31.077 109.942 31.4261 110.291 30.9025C110.466 30.728 110.117 30.2045 109.593 29.6809C108.895 29.1574 107.848 28.8084 106.627 28.9829C105.405 28.9829 104.358 29.5064 103.66 30.03C102.962 30.5535 102.787 31.077 102.962 31.4261Z" fill="#263238"/>
<path d="M135.945 18.5121C138.388 20.2572 139.959 22.8749 140.308 25.6671C140.308 25.8416 140.308 25.8416 140.308 26.0162C141.006 30.0299 141.006 34.2183 141.704 38.232C142.402 42.2458 143.798 46.4341 146.94 49.0518C148.161 50.0989 150.43 50.9715 151.302 49.5754C151.651 49.0518 151.651 48.3538 151.826 47.6557C152.349 37.883 154.793 29.1574 154.618 18.8611C154.618 16.0689 153.222 13.4512 150.953 11.8806C148.859 10.31 146.067 8.91391 143.798 9.96099C141.355 11.1826 138.388 15.7199 136.643 17.6395" fill="#263238"/>
<path d="M147.113 40.3265C147.288 40.152 156.886 37.1853 156.712 46.958C156.537 56.7307 146.764 54.6365 146.764 54.2875C146.764 54.113 147.113 40.3265 147.113 40.3265Z" fill="#EB996E"/>
<path d="M149.906 50.6232C149.906 50.6232 150.08 50.7977 150.429 50.7977C150.778 50.9722 151.128 50.9722 151.651 50.7977C152.698 50.4487 153.571 48.8781 153.571 47.133C153.571 46.2604 153.396 45.3878 153.047 44.6898C152.698 43.9917 152.349 43.4682 151.826 43.2937C151.302 43.1192 150.953 43.4682 150.778 43.8172C150.604 44.1663 150.778 44.3408 150.604 44.3408C150.604 44.3408 150.429 44.1663 150.429 43.8172C150.429 43.6427 150.604 43.4682 150.778 43.2937C150.953 43.1192 151.302 42.9446 151.651 43.1192C152.349 43.1192 153.047 43.8172 153.396 44.6898C153.745 45.3878 153.92 46.4349 153.92 47.482C153.92 49.4016 152.873 51.3213 151.476 51.6703C150.778 51.8448 150.255 51.6703 149.906 51.3213C149.906 50.9723 149.731 50.7977 149.906 50.6232Z" fill="#AA6550"/>
<path d="M144.147 11.7061C146.416 7.69236 139.784 2.28245 134.898 0.886352C130.012 -0.50975 123.729 1.93344 119.017 3.67857C116.051 4.72564 113.084 6.12173 109.943 6.12173C107.849 6.12173 105.754 5.42369 103.66 4.72564C101.566 4.02759 99.4719 3.50405 97.3777 3.67857C95.2836 3.85308 93.015 5.07466 92.3169 6.9943C91.6189 8.91394 92.8404 11.7061 94.9346 11.8807C92.1424 10.4846 88.3031 12.4042 87.9541 15.5454C87.6051 18.5121 90.9207 21.4789 93.8875 20.7808C92.4914 19.7337 90.3973 21.4789 90.5718 23.224C90.7463 24.9691 92.3169 26.1907 94.062 26.8888C98.0758 28.6339 102.962 27.9358 106.976 26.3652C110.99 24.7946 115.004 22.5259 119.192 20.9553C123.38 19.3847 130.186 16.418 134.374 17.8141C137.516 18.8612 139.784 22.5259 141.355 21.6534C143.1 20.7808 143.973 19.0357 144.322 17.2906C144.671 15.3709 144.322 13.4513 144.147 11.7061Z" fill="#263238"/>
<path d="M99.9958 10.1354C99.9958 10.1354 99.1233 9.61181 97.5527 10.4844C96.8547 10.8334 96.1566 11.706 95.633 12.753C95.1095 13.8001 94.935 15.1962 95.633 16.5923C96.8546 19.3845 100.519 21.1297 104.359 20.7806C108.198 20.6061 112.037 18.512 115.528 16.0688C119.018 13.6256 122.333 11.1824 125.649 9.78634C127.394 9.08828 128.965 8.73925 130.536 8.56474C132.106 8.56474 133.677 8.73925 134.898 9.26279C137.516 10.1354 139.087 11.8805 139.959 13.1021C140.657 14.4982 140.832 15.3707 140.832 15.3707C140.832 15.3707 140.832 15.1962 140.832 14.6727C140.832 14.3237 140.657 13.6256 140.308 12.9276C139.61 11.5315 137.865 9.61181 135.247 8.56474C133.851 8.0412 132.281 7.69217 130.536 7.86668C128.79 7.86668 127.045 8.39023 125.3 9.08828C121.81 10.4844 118.494 12.9276 114.829 15.3707C111.339 17.8139 107.674 19.559 104.01 19.9081C100.519 20.2571 97.0291 18.6865 95.9821 16.2433C95.4585 15.0217 95.4586 13.8001 95.8076 12.753C96.1566 11.706 96.8546 11.0079 97.3781 10.6589C98.9488 9.96085 99.9958 10.3099 99.9958 10.1354Z" fill="#455A64"/>
<path d="M126.522 4.72578C126.522 4.9003 127.743 4.37675 129.837 4.37675C131.932 4.20224 134.724 4.55126 137.516 6.12188C140.308 7.69249 142.053 9.96116 142.926 11.8808C143.973 13.6259 144.147 15.022 144.322 15.022C144.496 15.022 144.322 13.6259 143.449 11.7063C142.577 9.78665 140.832 7.16896 137.865 5.59835C134.898 4.02773 131.757 3.6787 129.663 4.02773C127.569 4.02773 126.347 4.55127 126.522 4.72578Z" fill="#455A64"/>
<path d="M152.873 29.3318C153.047 29.3318 153.571 28.4593 153.571 26.7141C153.745 24.969 153.396 22.5258 151.826 20.2572C150.255 17.9885 147.986 16.7669 146.416 16.4179C144.671 15.8943 143.624 16.0688 143.624 16.2434C143.624 16.4179 144.671 16.4179 146.241 17.1159C147.812 17.6395 149.731 18.861 151.128 20.9552C152.524 23.0494 152.873 25.318 152.873 26.8886C153.047 28.2847 152.698 29.3318 152.873 29.3318Z" fill="#455A64"/>
</svg>
