<svg width="417" height="415" viewBox="0 0 417 415" fill="none" xmlns="http://www.w3.org/2000/svg">
<g clip-path="url(#clip0_82_11192)">
<path d="M48.3999 228.427C42.7999 225.827 34.9999 227.327 31.5999 222.327C29.9999 220.027 29.9999 216.927 29.1999 214.227C27.4999 208.527 21.7999 204.327 15.8999 204.427C9.99994 204.427 2.99993 208.927 1.29993 214.627C-1.30007 220.827 -0.200066 229.627 2.89993 235.527C5.99993 241.527 10.9999 246.327 16.4999 250.227C22.3999 254.327 29.2999 257.327 36.4999 257.227C43.6999 257.127 50.9999 253.427 54.1999 247.027C57.1999 240.327 54.8999 231.427 48.3999 228.427Z" fill="white"/>
<path d="M371.9 227.027C370.6 222.927 373 218.527 375.9 215.427C378.8 212.327 382.5 209.827 384.8 206.227C389.6 198.927 387.7 189.127 384.1 181.127C381.3 174.927 377.7 167.827 380.6 161.727C383.8 154.927 393.4 153.827 400.2 156.927C410.6 161.527 416.9 173.327 416.6 184.727C416.3 196.127 411.5 209.227 403 216.827C394.6 224.427 376.8 235.627 371.9 227.027Z" fill="white"/>
<path d="M251 354.427C247.1 348.727 249.8 339.727 256.2 337.127C260.8 335.327 266.2 336.627 270.9 335.027C275.4 333.427 278.6 329.427 282 326.027C285.4 322.627 289.9 320.727 294.7 320.727C299.8 320.727 304.9 324.027 305.5 328.827C306.3 335.927 304.9 340.727 300.8 344.727C297.7 347.827 291.9 350.627 288.1 352.627C282.3 355.727 274.1 357.627 267.6 358.627C261.2 359.727 255.8 358.827 251 354.427Z" fill="white"/>
<path d="M12.6 176.627C19.6693 176.627 25.4001 170.896 25.4001 163.827C25.4001 156.758 19.6693 151.027 12.6 151.027C5.5308 151.027 -0.199951 156.758 -0.199951 163.827C-0.199951 170.896 5.5308 176.627 12.6 176.627Z" fill="white" stroke="#EBEBEB" stroke-miterlimit="10"/>
<path d="M243.2 58.7271C258.3 60.4271 279.2 61.5271 292.6 54.1271C306 46.8271 314.4 29.5271 308.2 15.5271C305.2 8.72709 299 3.5271 291.9 1.5271C284.8 -0.372905 276.8 1.02709 270.8 5.32709C264.5 9.82709 260.4 17.2271 253.4 20.6271C248.7 22.9271 243.3 23.0271 238.1 23.3271C232.9 23.6271 227.4 24.2271 223.1 27.1271C218.8 30.0271 216.1 36.0271 218.5 40.7271C218.4 40.9271 221.3 56.3271 243.2 58.7271Z" fill="white"/>
<path d="M160.7 31.8271C123.6 34.5271 83.1 39.4271 53.5 50.8271L62.9 114.227C62.9 114.227 120.4 93.6271 167.2 95.0271L160.7 31.8271Z" fill="#E8505B"/>
<g opacity="0.8">
<g opacity="0.8">
<g opacity="0.8">
<path opacity="0.8" d="M160.7 31.8271C123.6 34.5271 83.1 39.4271 53.5 50.8271L62.9 114.227C62.9 114.227 120.4 93.6271 167.2 95.0271L160.7 31.8271Z" fill="white"/>
</g>
</g>
</g>
<path d="M158 86.7271C158 86.7271 157.9 86.7271 157.6 86.8271C157.3 86.8271 157 86.9271 156.5 86.9271C155.5 87.0271 154.2 87.2271 152.5 87.4271C150.7 87.6271 148.6 87.9271 146.1 88.2271C143.6 88.6271 140.8 88.9271 137.6 89.4271C125.1 91.3271 107.9 94.5271 89.2001 99.4271C82.7001 101.127 76.4001 102.827 70.7001 104.627L70.4001 104.727V104.427C68.4001 89.9271 66.5001 77.3271 65.0001 68.4271C64.2001 64.0271 63.6001 60.4271 63.2001 58.0271C63.0001 56.8271 62.8001 55.9271 62.7001 55.2271C62.7001 54.9271 62.6001 54.7271 62.6001 54.5271C62.6001 54.3271 62.6001 54.3271 62.6001 54.3271C62.6001 54.3271 62.6001 54.4271 62.7001 54.5271C62.7001 54.7271 62.8001 54.9271 62.9001 55.2271C63.0001 55.9271 63.2001 56.8271 63.5001 58.0271C64.0001 60.4271 64.6001 63.9271 65.4001 68.4271C67.0001 77.3271 69.0001 89.8271 71.0001 104.427L70.7001 104.227C76.5001 102.427 82.7001 100.627 89.2001 99.0271C107.9 94.2271 125.2 91.0271 137.7 89.2271C140.8 88.7271 143.7 88.4271 146.2 88.0271C148.7 87.7271 150.8 87.4271 152.6 87.3271C154.3 87.1271 155.7 87.0271 156.7 86.9271C157.1 86.9271 157.5 86.8271 157.8 86.8271C157.9 86.7271 158 86.7271 158 86.7271Z" fill="#E8505B"/>
<path d="M159.3 71.3271C159.3 71.3271 159.2 70.9271 158.9 70.0271C158.6 69.2271 158 68.0271 157 66.7271C156 65.4271 154.5 64.0271 152.5 62.8271C152 62.5271 151.4 62.2271 150.9 61.9271C150.3 61.7271 149.7 61.4271 149.1 61.2271C147.8 60.8271 146.4 60.6271 145 60.8271C143.6 61.0271 142.1 61.5271 140.8 62.5271C139.5 63.4271 138.4 64.7271 137.4 66.2271C135.4 69.1271 134.2 72.6271 132.7 76.3271C131.9 78.1271 130.9 80.0271 129.2 81.3271C128.4 82.0271 127.4 82.5271 126.3 82.7271C125.2 82.9271 124.1 82.7271 123 82.3271C118.8 80.6271 116.9 75.8271 112.6 74.3271C110.5 73.6271 108.2 73.9271 106.3 74.8271C105.3 75.3271 104.5 75.9271 103.8 76.7271C103.1 77.5271 102.6 78.4271 102.1 79.4271C101.1 81.3271 100.4 83.4271 98.8001 84.8271C98.0001 85.5271 97.0001 86.0271 95.9001 86.1271C94.8001 86.2271 93.8001 85.9271 92.9001 85.5271C91.1001 84.6271 89.7001 83.0271 88.8001 81.4271C87.8001 79.8271 87.3001 78.0271 86.6001 76.4271C86.0001 74.8271 85.3001 73.2271 84.4001 71.9271C83.5001 70.6271 82.4001 69.5271 81.1001 68.8271C78.5001 67.4271 75.6001 67.6271 73.5001 68.6271C71.3001 69.5271 69.7001 70.8271 68.7001 72.1271C67.6001 73.4271 67.1001 74.6271 66.9001 75.4271C66.6001 76.2271 66.6001 76.7271 66.6001 76.7271C66.6001 76.7271 66.6001 76.2271 66.8001 75.4271C67.0001 74.6271 67.5001 73.3271 68.6001 72.0271C69.6001 70.7271 71.3001 69.3271 73.5001 68.4271C75.6001 67.4271 78.7001 67.1271 81.4001 68.6271C82.8001 69.3271 84.0001 70.4271 84.9001 71.8271C85.8001 73.2271 86.5001 74.8271 87.1001 76.4271C87.8001 78.0271 88.4001 79.7271 89.3001 81.3271C90.3001 82.8271 91.6001 84.3271 93.3001 85.2271C94.1001 85.6271 95.1001 85.9271 96.0001 85.8271C97.0001 85.7271 97.9001 85.3271 98.6001 84.6271C100.1 83.3271 100.8 81.2271 101.8 79.3271C102.3 78.3271 102.8 77.4271 103.5 76.5271C104.2 75.6271 105.1 74.9271 106.2 74.4271C108.2 73.4271 110.7 73.1271 112.9 73.9271C115.2 74.6271 116.8 76.4271 118.3 78.0271C119.8 79.6271 121.3 81.2271 123.3 82.0271C124.3 82.4271 125.3 82.5271 126.3 82.4271C127.3 82.2271 128.2 81.7271 129 81.1271C130.6 79.9271 131.6 78.1271 132.4 76.3271C133.9 72.7271 135.2 69.1271 137.2 66.2271C138.2 64.7271 139.3 63.4271 140.7 62.5271C142 61.5271 143.6 61.0271 145.1 60.8271C146.6 60.6271 148.1 60.8271 149.4 61.2271C150.1 61.4271 150.7 61.7271 151.2 61.9271C151.8 62.2271 152.3 62.4271 152.8 62.8271C154.8 64.1271 156.3 65.5271 157.3 66.9271C158.3 68.2271 158.9 69.4271 159.1 70.3271C159.2 70.7271 159.3 71.0271 159.4 71.3271C159.3 71.2271 159.3 71.3271 159.3 71.3271Z" fill="#E8505B"/>
<path d="M61 63.0271C61 63.1271 60.5 63.4271 59.9 63.5271C59.3 63.6271 58.8 63.6271 58.7 63.5271C58.7 63.4271 59.2 63.1271 59.8 63.0271C60.5 62.8271 61 62.8271 61 63.0271Z" fill="#E8505B"/>
<path d="M62.6999 74.5271C62.7999 74.6271 62.3999 74.9271 61.8999 75.2271C61.3999 75.4271 60.8999 75.5271 60.8999 75.4271C60.7999 75.3271 61.1999 75.0271 61.6999 74.7271C62.1999 74.5271 62.5999 74.4271 62.6999 74.5271Z" fill="#E8505B"/>
<path d="M64.6999 87.2271C64.6999 87.3271 64.3999 87.6271 63.8999 87.8271C63.3999 88.0271 62.8999 88.0271 62.8999 87.9271C62.8999 87.8271 63.1999 87.5271 63.6999 87.3271C64.1999 87.1271 64.6999 87.1271 64.6999 87.2271Z" fill="#E8505B"/>
<path d="M67.2 99.6271C67.2 99.7271 66.8 100.027 66.3 100.227C65.7 100.427 65.2 100.427 65.2 100.327C65.2 100.227 65.6 99.9271 66.1 99.7271C66.7 99.5271 67.2 99.5271 67.2 99.6271Z" fill="#E8505B"/>
<path d="M137.1 39.9271C137.1 39.9271 137.5 39.7271 138.3 39.6271C139.1 39.5271 140.3 39.3271 141.7 39.1271C144.7 38.7271 148.9 38.1271 154 37.5271H154.2V37.7271C154.6 42.0271 155 46.9271 155.5 52.1271V52.3271V52.6271H155.3C149.2 53.3271 143.5 54.0271 138.7 54.6271H138.5V54.4271C138 50.1271 137.6 46.4271 137.4 43.8271C137.3 42.6271 137.2 41.6271 137.1 40.9271C137.1 40.2271 137.1 39.8271 137.1 39.9271C137.1 39.9271 137.2 40.3271 137.3 41.0271C137.4 41.7271 137.5 42.7271 137.7 43.9271C138 46.5271 138.5 50.1271 139 54.4271L138.8 54.2271C143.6 53.6271 149.3 52.9271 155.4 52.1271L155.2 52.4271V52.2271C154.7 47.0271 154.3 42.1271 153.9 37.8271L154.2 38.0271C144.6 39.0271 139 39.6271 137.1 39.9271Z" fill="#E8505B"/>
<path d="M152.5 42.4271C152.5 42.6271 149.6 42.6271 146.2 42.9271C142.7 43.3271 139.9 43.9271 139.9 43.7271C139.9 43.6271 142.6 42.7271 146.1 42.4271C149.6 42.0271 152.5 42.2271 152.5 42.4271Z" fill="#E8505B"/>
<path d="M152.7 46.1271C152.7 46.3271 150 46.4271 146.8 46.7271C143.5 47.0271 140.9 47.4271 140.9 47.3271C140.9 47.2271 143.5 46.5271 146.8 46.2271C150 45.8271 152.7 46.0271 152.7 46.1271Z" fill="#E8505B"/>
<path d="M148.7 49.3271C148.7 49.4271 147.2 49.8271 145.3 50.0271C143.4 50.2271 141.9 50.3271 141.9 50.2271C141.9 50.1271 143.4 49.7271 145.3 49.5271C147.2 49.3271 148.7 49.2271 148.7 49.3271Z" fill="#E8505B"/>
<path d="M341.4 50.5271C305.1 39.4271 274.5 30.0271 233.4 30.3271L227.1 94.9271C269.8 98.7271 284.1 101.527 323.5 115.727L341.4 50.5271Z" fill="#E8505B"/>
<g opacity="0.8">
<g opacity="0.8">
<g opacity="0.8">
<path opacity="0.8" d="M341.4 50.5271C305.1 39.4271 274.5 30.0271 233.4 30.3271L227.1 94.9271C269.8 98.7271 284.1 101.527 323.5 115.727L341.4 50.5271Z" fill="white"/>
</g>
</g>
</g>
<path d="M259.2 61.6271L260.8 47.9271C257 47.5271 252.9 48.6271 249.6 51.0271C245.7 53.9271 242.8 58.5271 242.7 64.6271C242.7 65.3271 242.7 65.9271 242.8 66.6271L258.8 64.8271L259.2 61.6271Z" fill="#E8505B"/>
<path d="M275.8 59.3271C274.2 54.2271 270.4 49.8271 264.4 48.4271C264.2 48.4271 264.1 48.3271 263.9 48.3271C263.8 48.3271 263.7 48.3271 263.6 48.2271C263.3 48.1271 263 48.1271 262.7 48.1271L261.1 61.8271L260.7 65.0271L275.8 70.5271C276.2 69.4271 276.4 68.2271 276.6 67.0271C276.8 64.5271 276.6 61.8271 275.8 59.3271Z" fill="#E8505B"/>
<g opacity="0.3">
<g opacity="0.3">
<g opacity="0.3">
<g opacity="0.3">
<path opacity="0.3" d="M275.8 59.3271C274.2 54.2271 270.4 49.8271 264.4 48.4271C264.2 48.4271 264.1 48.3271 263.9 48.3271C263.8 48.3271 263.7 48.3271 263.6 48.2271C263.3 48.1271 263 48.1271 262.7 48.1271L261.1 61.8271L260.7 65.0271L275.8 70.5271C276.2 69.4271 276.4 68.2271 276.6 67.0271C276.8 64.5271 276.6 61.8271 275.8 59.3271Z" fill="black"/>
</g>
</g>
</g>
</g>
<path d="M259.5 66.6271L243.5 68.4271C244.2 76.2271 249.8 82.6271 257.4 83.5271C265 84.4271 272.1 79.5271 274.6 72.1271L259.5 66.6271Z" fill="#E8505B"/>
<path d="M327.4 62.8271C327.4 62.8271 326.9 62.6271 326 62.2271C325.1 61.8271 323.8 61.2271 322.2 60.6271C319 59.2271 314.4 57.5271 309.3 56.1271C304.2 54.6271 299.4 53.7271 296 53.1271C294.3 52.8271 292.9 52.6271 291.9 52.5271C290.9 52.4271 290.4 52.3271 290.4 52.2271C290.4 52.2271 290.9 52.2271 291.9 52.3271C292.9 52.4271 294.3 52.5271 296 52.7271C299.5 53.2271 304.3 54.0271 309.4 55.5271C314.6 57.0271 319.1 58.7271 322.3 60.2271C323.9 60.9271 325.2 61.5271 326 62.0271C326.9 62.5271 327.4 62.7271 327.4 62.8271Z" fill="#E8505B"/>
<path d="M326.3 69.5271C326.3 69.5271 325.8 69.3271 324.9 68.9271C324 68.5271 322.7 67.9271 321.1 67.3271C317.9 65.9271 313.3 64.2271 308.2 62.8271C303.1 61.3271 298.3 60.4271 294.9 59.8271C293.2 59.5271 291.8 59.3271 290.8 59.2271C289.8 59.1271 289.3 59.0271 289.3 58.9271C289.3 58.9271 289.8 58.9271 290.8 59.0271C291.8 59.1271 293.2 59.2271 294.9 59.4271C298.4 59.9271 303.2 60.7271 308.3 62.2271C313.5 63.7271 318 65.4271 321.2 66.9271C322.8 67.6271 324.1 68.2271 324.9 68.7271C325.8 69.2271 326.3 69.5271 326.3 69.5271Z" fill="#E8505B"/>
<path d="M325.2 76.3271C325.2 76.3271 324.7 76.1271 323.8 75.7271C322.9 75.3271 321.6 74.7271 320 74.1271C316.8 72.7271 312.2 71.0271 307.1 69.6271C302 68.1271 297.2 67.2271 293.8 66.6271C292.1 66.3271 290.7 66.1271 289.7 66.0271C288.7 65.9271 288.2 65.8271 288.2 65.7271C288.2 65.7271 288.7 65.7271 289.7 65.8271C290.7 65.9271 292.1 66.0271 293.8 66.2271C297.3 66.7271 302.1 67.5271 307.2 69.0271C312.4 70.5271 316.9 72.2271 320.1 73.7271C321.7 74.4271 323 75.0271 323.8 75.5271C324.7 76.0271 325.2 76.2271 325.2 76.3271Z" fill="#E8505B"/>
<path d="M323 83.0271C323 83.0271 322.5 82.8271 321.6 82.4271C320.7 82.0271 319.5 81.4271 317.9 80.8271C314.8 79.4271 310.4 77.7271 305.4 76.3271C300.4 74.8271 295.8 73.9271 292.4 73.3271C290.7 73.0271 289.4 72.8271 288.4 72.7271C287.5 72.6271 286.9 72.5271 286.9 72.4271C286.9 72.4271 287.4 72.4271 288.4 72.5271C289.4 72.6271 290.7 72.7271 292.4 72.9271C295.8 73.4271 300.4 74.3271 305.4 75.7271C310.4 77.2271 314.8 78.9271 317.9 80.4271C319.4 81.1271 320.7 81.7271 321.5 82.2271C322.6 82.7271 323 83.0271 323 83.0271Z" fill="#E8505B"/>
<path d="M318.2 88.4271C318.2 88.4271 317.7 88.3271 317 87.9271C316.1 87.5271 315 87.0271 313.7 86.4271C310.9 85.2271 307 83.6271 302.5 82.3271C298 81.0271 293.9 80.3271 290.8 79.9271C289.4 79.7271 288.2 79.5271 287.2 79.4271C286.4 79.3271 285.9 79.2271 285.9 79.2271C285.9 79.2271 286.4 79.2271 287.2 79.2271C288.1 79.2271 289.3 79.4271 290.8 79.5271C293.8 79.9271 298 80.5271 302.6 81.8271C307.1 83.1271 311 84.8271 313.8 86.1271C315.2 86.8271 316.3 87.3271 317 87.7271C317.8 88.1271 318.2 88.4271 318.2 88.4271Z" fill="#E8505B"/>
<path d="M302.1 89.2271C302.1 89.3271 301.1 89.0271 299.5 88.7271C297.9 88.3271 295.7 87.9271 293.3 87.4271C290.9 87.0271 288.6 86.7271 287 86.4271C285.4 86.2271 284.4 86.0271 284.4 85.9271C284.4 85.8271 285.4 85.9271 287 86.0271C288.6 86.1271 290.9 86.4271 293.3 86.8271C295.8 87.2271 298 87.8271 299.5 88.2271C301.2 88.7271 302.1 89.1271 302.1 89.2271Z" fill="#E8505B"/>
<path d="M239.7 37.9271C239.7 37.9271 240 37.9271 240.5 37.9271C241.1 37.9271 241.9 37.9271 243 37.8271C245.2 37.7271 248.4 37.8271 252.5 38.0271C260.6 38.5271 272.3 39.9271 285.8 44.0271L286 44.1271V44.3271C283.5 58.6271 280.5 75.7271 277.3 93.9271C277.2 94.6271 277 95.4271 276.9 96.1271V96.4271L276.6 96.3271C269 94.3271 261.5 92.8271 254.4 91.7271C247.2 90.6271 240.4 89.8271 234 89.4271H233.8V89.2271C235.6 73.9271 237 61.1271 238 52.1271C238.5 47.6271 238.9 44.1271 239.2 41.7271C239.3 40.5271 239.5 39.6271 239.5 39.0271C239.5 38.7271 239.6 38.5271 239.6 38.3271C239.7 37.9271 239.7 37.9271 239.7 37.9271C239.7 37.9271 239.7 38.0271 239.7 38.2271C239.7 38.4271 239.7 38.6271 239.6 38.9271C239.5 39.6271 239.4 40.5271 239.3 41.7271C239 44.1271 238.7 47.7271 238.2 52.2271C237.2 61.2271 235.8 74.0271 234.2 89.2271L234 88.9271C240.4 89.3271 247.2 90.1271 254.4 91.1271C261.6 92.2271 269.1 93.7271 276.7 95.7271L276.4 95.9271C276.5 95.2271 276.7 94.4271 276.8 93.7271C280 75.5271 283 58.5271 285.5 44.1271L285.6 44.3271C272.2 40.2271 260.5 38.8271 252.4 38.2271C248.3 37.9271 245.1 37.9271 243 37.9271C241.9 37.9271 241.1 37.9271 240.5 37.9271C240 37.9271 239.7 37.9271 239.7 37.9271Z" fill="#E8505B"/>
<path d="M200 169.927L235.4 177.827L240.9 169.927L240 159.827L234.6 154.927H216.1L198.7 170.527" fill="#E8505B"/>
<g opacity="0.3">
<g opacity="0.3">
<path opacity="0.3" d="M200 169.927L235.4 177.827L240.9 169.927L240 159.827L234.6 154.927H216.1L198.7 170.527" fill="black"/>
</g>
</g>
<path d="M254 97.0271L298.7 91.0271L305.7 89.0271C305.7 89.0271 321.8 85.5271 323.3 84.9271C325 84.3271 325.8 85.0271 325.9 85.6271C326.2 86.6271 325.2 87.8271 323.7 88.3271C323.2 88.5271 315 91.3271 315 91.3271C315 91.3271 315.8 91.4271 317.8 92.1271C319.8 92.8271 321.6 95.3271 322.6 98.2271C323.5 101.127 323.5 102.027 322.4 102.527C321.9 102.727 321.5 102.527 321.1 102.327C320.5 101.927 320 101.327 319.8 100.627C318.2 95.9271 315.3 95.5271 315.3 95.5271L314.4 95.8271C314.4 95.8271 317.4 97.9271 317.4 100.527C317.4 100.927 317.3 101.327 317.2 101.627C317.6 102.827 317.4 104.327 316.6 105.327C315.7 106.427 314.3 106.927 312.9 106.727C312.3 106.627 311.6 106.227 311.5 105.627C311.5 105.327 311.6 104.927 311.7 104.627C311.8 104.427 311.8 104.327 311.9 104.127L309.2 104.527C309.2 104.527 303.1 105.027 300.5 105.527L258.7 118.127C252.9 119.827 246.8 116.527 245.1 110.727C243.3 104.427 247.5 97.9271 254 97.0271Z" fill="#FFBE9D"/>
<path d="M299.7 92.2271C299.8 93.1271 300.7 93.8271 301.6 94.0271C302.5 94.2271 303.5 94.1271 304.4 94.2271C307.2 94.6271 309.3 97.1271 312.1 97.3271C312.5 97.3271 313 97.3271 313.1 96.9271C313.2 96.6271 312.9 96.2271 312.6 96.0271C310.3 93.9271 308 91.9271 305.6 89.8271" fill="#FFBE9D"/>
<path d="M305.8 89.8271C305.8 89.8271 306.1 90.0271 306.6 90.4271C307.1 90.8271 307.8 91.4271 308.7 92.2271C309.6 93.0271 310.7 93.9271 311.8 94.9271C312.1 95.2271 312.4 95.4271 312.7 95.7271C313 96.0271 313.4 96.2271 313.5 96.8271C313.5 97.1271 313.3 97.4271 313 97.5271C312.7 97.6271 312.5 97.6272 312.2 97.6272C311.7 97.6272 311.3 97.5271 310.9 97.3271C309.1 96.7271 307.8 95.7271 306.4 95.0271C305.7 94.7271 305.1 94.4271 304.4 94.3271C303.8 94.2271 303.1 94.2271 302.5 94.2271C301.3 94.2271 300.3 93.7272 300 93.1272C299.6 92.5272 299.7 92.1272 299.7 92.1272C299.8 92.1272 299.7 92.5271 300.2 92.9271C300.6 93.4271 301.5 93.8271 302.6 93.8271C303.2 93.8271 303.8 93.8271 304.5 93.9271C305.2 94.0271 305.9 94.2272 306.6 94.6272C308 95.2272 309.4 96.3271 311 96.8271C311.4 96.9271 311.8 97.0271 312.2 97.0271C312.6 97.0271 312.9 96.9271 312.9 96.7271C312.9 96.5271 312.6 96.2271 312.3 95.9271C312 95.6271 311.7 95.4272 311.4 95.1272C310.3 94.1272 309.3 93.2271 308.4 92.4271C307.5 91.6271 306.9 91.0271 306.4 90.5271C306 90.1271 305.8 89.8271 305.8 89.8271Z" fill="#EB996E"/>
<path d="M314.4 95.9271C314.4 96.0271 315.1 95.6271 316.2 95.9271C316.7 96.0271 317.3 96.4271 317.7 97.0271C318.2 97.6271 318.5 98.3271 318.8 99.1271C319.1 99.9271 319.4 100.727 319.8 101.327C320.2 101.927 320.7 102.427 321.3 102.727C321.8 103.027 322.4 102.927 322.7 102.727C323 102.527 323.1 102.427 323.1 102.427C323.1 102.427 322.9 102.527 322.7 102.627C322.4 102.727 322 102.727 321.5 102.527C321 102.227 320.6 101.827 320.2 101.127C319.8 100.527 319.5 99.7271 319.2 98.9271C318.9 98.1271 318.5 97.3271 318 96.7271C317.5 96.1271 316.9 95.7271 316.3 95.6271C315.7 95.5271 315.2 95.6271 314.9 95.6271C314.5 95.8271 314.3 95.9271 314.4 95.9271Z" fill="#EB996E"/>
<path d="M324.4 88.2271C324.4 88.2271 323.8 88.4271 322.8 88.8271C321.7 89.2271 320.4 89.7271 318.9 90.2271C317.4 90.7271 316.1 91.2271 315 91.6271C314 91.9271 313.4 92.2271 313.4 92.2271C313.4 92.2271 314.1 92.1271 315.1 91.8271C316.1 91.5271 317.5 91.1271 319 90.5271C320.5 90.0271 321.9 89.4271 322.9 89.0271C323.8 88.5271 324.4 88.2271 324.4 88.2271Z" fill="#EB996E"/>
<path d="M313.2 98.4271C313.2 98.4271 313.3 98.6271 313.6 98.8271C313.8 99.0271 314.2 99.5271 314.1 100.027C314.1 100.327 313.9 100.527 313.6 100.727C313.3 100.927 312.9 100.927 312.5 101.027C312.1 101.127 311.6 101.227 311.3 101.627C311 102.027 310.9 102.627 311.1 103.127C311.3 103.627 311.7 104.027 312.1 104.227C312.5 104.427 313 104.527 313.4 104.427C314.2 104.227 314.9 103.927 315.5 103.627C316.1 103.327 316.5 103.027 316.7 102.727C316.9 102.427 317 102.227 317 102.227C317 102.227 316.9 102.427 316.6 102.627C316.4 102.827 315.9 103.127 315.4 103.427C314.9 103.727 314.2 103.927 313.4 104.127C312.7 104.227 311.7 103.827 311.4 103.027C311.3 102.627 311.3 102.127 311.5 101.827C311.7 101.527 312.1 101.427 312.5 101.327C312.9 101.227 313.3 101.127 313.6 100.927C314 100.727 314.2 100.427 314.2 100.027C314.2 99.3271 313.8 98.9271 313.5 98.6271C313.3 98.5271 313.2 98.4271 313.2 98.4271Z" fill="#EB996E"/>
<path d="M312.2 104.027C312.2 104.027 312 104.027 311.8 104.227C311.6 104.427 311.3 104.827 311.3 105.427C311.3 106.027 311.8 106.727 312.5 107.027C313.2 107.327 314.1 107.327 314.9 107.027C315.7 106.727 316.4 106.227 316.8 105.527C317.2 104.927 317.4 104.227 317.4 103.627C317.4 103.027 317.3 102.627 317.3 102.327C317.2 102.027 317.1 101.927 317.1 101.927C317 101.927 317.3 102.627 317.2 103.627C317.1 104.127 316.9 104.727 316.5 105.327C316.1 105.927 315.5 106.427 314.7 106.627C313.9 106.927 313.1 106.927 312.5 106.627C311.9 106.327 311.5 105.827 311.4 105.327C311.3 104.827 311.6 104.427 311.8 104.227C312.1 104.027 312.2 104.027 312.2 104.027Z" fill="#EB996E"/>
<path d="M304.8 100.327C304.8 100.327 304.8 100.027 304.5 99.5271C304.2 99.1271 303.7 98.5271 302.9 98.2271V98.5271C303.2 98.3271 303.6 98.2271 303.9 97.9271C305.8 96.7271 306.8 95.0271 306.7 95.0271C306.6 94.9271 305.6 96.4272 303.7 97.6272C303.4 97.8272 303 98.0271 302.7 98.2271L302.4 98.4271L302.8 98.5271C303.5 98.8271 304.1 99.3272 304.4 99.6272C304.6 100.027 304.7 100.327 304.8 100.327Z" fill="#EB996E"/>
<path d="M318.7 95.5271C318.6 95.4271 318.2 96.0271 318.1 96.8271C318 97.6271 318.4 98.2271 318.5 98.2271C318.6 98.2271 318.4 97.6271 318.4 96.9271C318.5 96.1271 318.8 95.6271 318.7 95.5271Z" fill="#EB996E"/>
<path d="M110.2 111.127C110.2 111.127 103.7 100.527 102.5 99.6271C101.3 98.7271 91 94.9271 90.1 95.2271C89.2 95.5271 76.7 97.6271 78.1 99.1271C79.5 100.627 88.3 99.0271 88.3 99.0271L89.5 99.6271C89.5 99.6271 82 100.827 80.4 101.727C78.9 102.527 79.4 104.327 80.8 104.227C82.2 104.127 88.7 102.827 89.1 103.127C89.5 103.427 82 104.927 81.2 105.327C80.1 105.927 80 107.927 81.4 107.827C82.2 107.727 89.3 105.927 89.3 105.927C89.3 105.927 83.7 108.127 83.2 108.627C82.4 109.427 83 110.627 84.2 110.427C85 110.227 89 108.327 90.1 108.127C90.1 108.127 91.1 108.427 92.1 110.527C92.5 111.527 94.6 117.727 98.3 117.627C101.6 117.527 104.8 120.227 104.8 120.227L110.2 111.127Z" fill="#FFBE9D"/>
<path d="M78.2 99.1271C78.2 99.2271 79 99.5271 80.5 99.7271C81.2 99.8271 82.1 99.9271 83.1 99.8271C84.1 99.7271 85.1 99.5271 86.2 99.4271C87 99.3271 87.8 99.2271 88.5 99.1271H88.3999C91.4999 100.227 93.8 100.927 93.8 100.827C93.8 100.727 91.7 99.7271 88.6 98.6271H88.5H88.3999C87.6999 98.7271 86.9 98.8271 86.1 98.9271C85 99.1271 84 99.2271 83 99.3271C82.1 99.4271 81.2 99.4271 80.5 99.3271C79.1 99.2271 78.2 99.0271 78.2 99.1271Z" fill="#EB996E"/>
<path d="M105.3 109.827C104.5 110.527 103.3 110.327 102.4 109.827C101.5 109.327 100.8 108.427 100 107.827C97.5002 106.027 93.8002 106.427 91.3002 104.527C91.0002 104.227 90.6002 103.827 90.8002 103.427C91.0002 103.027 91.5002 103.027 91.9002 103.027C95.3002 103.127 98.8002 103.227 102.2 103.227" fill="#FFBE9D"/>
<path d="M102.2 103.327C102.2 103.327 101.8 103.227 101.1 103.227C100.4 103.127 99.3001 103.127 98.1001 103.027C96.8001 102.927 95.2001 102.927 93.6001 102.827C93.2001 102.827 92.7001 102.827 92.3001 102.827C91.9001 102.827 91.3001 102.727 90.8001 103.127C90.5001 103.327 90.5001 103.827 90.6001 104.127C90.7001 104.427 90.9001 104.627 91.1001 104.827C91.5001 105.127 91.9001 105.427 92.4001 105.627C94.3001 106.527 96.2001 106.627 97.7001 107.127C98.5001 107.327 99.2001 107.727 99.8001 108.127C100.4 108.527 100.9 109.027 101.4 109.427C102.4 110.327 103.6 110.627 104.3 110.427C105.1 110.327 105.3 109.827 105.3 109.827C105.3 109.727 105 110.127 104.3 110.127C103.6 110.227 102.6 109.927 101.7 109.027C101.2 108.627 100.7 108.127 100.1 107.627C99.5001 107.127 98.7001 106.827 97.9001 106.527C96.3001 105.927 94.4001 105.827 92.6001 105.027C92.2001 104.827 91.8001 104.527 91.4001 104.327C91.1001 104.027 90.9001 103.727 91.1001 103.527C91.3001 103.327 91.7001 103.327 92.2001 103.327C92.6001 103.327 93.1001 103.327 93.5001 103.327C95.2001 103.327 96.7001 103.327 98.0001 103.327C99.3001 103.327 100.3 103.327 101 103.327C101.8 103.427 102.2 103.427 102.2 103.327Z" fill="#EB996E"/>
<path d="M161 345.327L158.6 371.527L150.7 391.727C150.1 393.227 150.9 394.827 152.4 395.327C153.2 395.627 154.1 395.427 154.8 394.927C159.2 391.527 175.5 379.027 175.5 377.127C175.6 374.927 179.9 349.627 179.9 349.627L161 345.327Z" fill="#E8505B"/>
<g opacity="0.6">
<g opacity="0.6">
<g opacity="0.6">
<g opacity="0.6">
<path opacity="0.6" d="M152.5 395.327L175.9 375.327L175.8 376.427C175.7 377.427 175.2 378.227 174.5 378.927C172.6 380.727 167.3 385.427 155 394.927C154.3 395.427 153.3 395.627 152.5 395.327Z" fill="white"/>
</g>
</g>
</g>
</g>
<g opacity="0.6">
<g opacity="0.6">
<g opacity="0.6">
<g opacity="0.6">
<g opacity="0.6">
<path opacity="0.6" d="M171.4 366.227C170.7 366.627 170.4 367.527 170.7 368.327C171 369.027 172 369.427 172.7 369.027C173.4 368.627 173.8 367.527 173.4 366.827C173 366.127 171.8 365.827 171.2 366.327" fill="white"/>
</g>
</g>
</g>
</g>
</g>
<path d="M159.8 384.527C159.6 384.627 159.2 383.127 157.7 382.227C156.3 381.227 154.8 381.427 154.8 381.327C154.8 381.227 155.1 381.127 155.8 381.127C156.4 381.127 157.3 381.327 158.1 381.827C158.9 382.327 159.4 383.027 159.7 383.627C159.8 384.127 159.8 384.527 159.8 384.527Z" fill="#263238"/>
<path d="M157.5 387.827C157.4 387.927 156.6 387.027 155.3 386.427C154 385.827 152.8 385.927 152.8 385.827C152.7 385.727 154.1 385.227 155.5 385.927C157 386.527 157.6 387.827 157.5 387.827Z" fill="#263238"/>
<path d="M163.7 380.427C163.6 380.527 162.4 379.027 160.5 378.027C158.6 376.927 156.7 376.827 156.7 376.727C156.7 376.627 158.7 376.427 160.8 377.527C162.9 378.627 163.9 380.427 163.7 380.427Z" fill="#263238"/>
<path d="M165.1 372.527C165 372.627 163.6 371.927 161.8 371.627C159.9 371.327 158.4 371.627 158.3 371.427C158.2 371.327 159.8 370.727 161.8 371.027C163.9 371.327 165.2 372.427 165.1 372.527Z" fill="#263238"/>
<path d="M166 364.827C165.9 364.927 164.5 363.927 162.5 363.827C160.5 363.627 159 364.427 158.9 364.327C158.9 364.227 159.2 363.927 159.8 363.727C160.4 363.427 161.4 363.227 162.5 363.327C163.6 363.427 164.5 363.827 165.1 364.127C165.8 364.427 166.1 364.827 166 364.827Z" fill="#263238"/>
<path d="M162.8 362.327C162.8 362.327 162.7 361.927 162.9 361.327C163 360.727 163.3 359.827 164 358.827C164.3 358.327 164.7 357.827 165.5 357.527C165.9 357.427 166.4 357.527 166.7 357.927C167 358.327 167 358.727 167 359.127C166.8 360.827 165.2 362.227 163.3 362.227C161.4 362.227 159.8 360.927 159.2 359.427C159.1 359.027 159 358.527 159.3 358.127C159.6 357.727 160.1 357.627 160.5 357.727C161.3 357.927 161.7 358.427 162.1 358.827C162.9 359.627 163.4 360.527 163.7 361.027C164 361.627 164 361.927 164 362.027C163.9 362.127 163.5 360.627 161.9 359.127C161.5 358.727 161 358.327 160.5 358.227C160.2 358.127 160 358.227 159.9 358.427C159.8 358.627 159.8 358.927 159.9 359.227C160.4 360.427 161.8 361.627 163.4 361.627C165 361.627 166.4 360.327 166.6 359.027C166.6 358.727 166.6 358.327 166.4 358.127C166.3 357.927 166 357.827 165.7 357.927C165.2 358.027 164.8 358.627 164.4 359.027C163 360.927 162.9 362.427 162.8 362.327Z" fill="#263238"/>
<path d="M185.1 360.727L204.7 205.227L198.4 169.127L161.4 171.127L156.8 357.927C156.8 359.327 157.7 360.527 159.1 360.827L180.7 364.127C182.9 364.327 184.9 362.827 185.1 360.727Z" fill="#263238"/>
<path d="M204.2 210.427L239.9 245.727L188.5 258.227L192.2 284.127L261.7 274.627C267.6 273.827 273 270.627 276.5 265.727C281.9 258.227 282 248.227 276.8 240.627L222.6 161.127L198.4 169.027L204.2 210.427Z" fill="#263238"/>
<path d="M202.2 201.427C202.3 201.427 202.9 203.427 203.4 205.827C203.9 208.327 204.3 210.327 204.1 210.427C204 210.427 203.4 208.427 202.9 206.027C202.4 203.527 202.1 201.527 202.2 201.427Z" fill="#455A64"/>
<path d="M197 261.527C197 261.527 197.3 261.427 197.8 261.227C198.4 261.027 199.2 260.827 200.3 260.427C202.5 259.727 205.7 258.727 209.9 257.527C218.2 255.027 230.2 251.427 244.8 247.027L244.7 247.327C232.6 234.427 217.9 218.827 201.8 201.727L202.2 201.627C201.4 208.827 200.5 216.327 199.6 223.927C195.2 260.927 191 294.427 187.8 318.627C186.2 330.727 184.8 340.527 183.8 347.327C183.2 350.727 182.9 353.327 182.5 355.127C182.3 356.027 182.2 356.627 182.1 357.127C182 357.627 181.9 357.827 181.9 357.827C181.9 357.827 181.9 357.627 182 357.127C182.1 356.627 182.2 356.027 182.4 355.127C182.8 353.327 183.1 350.727 183.6 347.327C184.6 340.527 185.9 330.727 187.5 318.627C190.6 294.427 194.7 260.927 199.1 223.827C200 216.227 200.9 208.727 201.7 201.527L201.8 201.027L202.2 201.427C218.3 218.627 232.9 234.227 245 247.127L245.2 247.327L244.9 247.427C230.3 251.727 218.3 255.327 210 257.727C205.9 258.927 202.6 259.927 200.4 260.527C199.3 260.827 198.5 261.127 197.9 261.227C197.3 261.527 197 261.527 197 261.527Z" fill="#455A64"/>
<path d="M185.5 357.727C185.4 357.727 189.4 324.727 194.6 284.027C199.8 243.327 204.1 210.427 204.2 210.427C204.3 210.427 200.3 243.427 195.1 284.127C189.9 324.827 185.6 357.827 185.5 357.727Z" fill="#455A64"/>
<path d="M198.4 185.027C198.5 185.027 198.8 185.927 199.2 187.427C199.6 188.927 200.2 191.027 200.7 193.427C201.2 195.727 201.6 197.927 201.8 199.427C202 201.027 202.1 201.927 202.1 201.927C202 201.927 201.8 201.027 201.5 199.427C201.1 197.727 200.7 195.727 200.2 193.427C199.7 191.227 199.2 189.127 198.9 187.427C198.5 186.027 198.3 185.027 198.4 185.027Z" fill="#455A64"/>
<path d="M200.7 181.927C200.6 181.927 201.2 181.427 202.2 181.727C202.6 181.927 203.2 182.327 203.3 183.027C203.4 183.627 203.2 184.527 202.5 184.927C201.8 185.327 201 185.127 200.4 184.727C199.9 184.327 199.8 183.527 199.9 183.127C200 182.627 200.3 182.327 200.6 182.227C200.8 182.127 201 182.127 201 182.127C201 182.227 200.5 182.427 200.3 183.227C200.2 183.627 200.3 184.127 200.7 184.427C201.1 184.727 201.7 184.827 202.2 184.527C202.7 184.227 202.9 183.627 202.8 183.127C202.7 182.627 202.4 182.327 202 182.127C201.3 181.827 200.7 182.027 200.7 181.927Z" fill="#455A64"/>
<path d="M250.4 251.827C250.3 251.927 248.3 250.127 245.4 248.427C242.5 246.727 239.9 245.927 240 245.727C240 245.627 242.7 246.227 245.7 247.927C248.6 249.727 250.5 251.727 250.4 251.827Z" fill="#455A64"/>
<path d="M173.3 63.1271L152.8 73.0271L161.6 134.727L158.1 162.427C157.7 166.027 159 169.527 161.7 171.927L194.8 171.227L218 158.527L228.6 156.727L224.2 135.627L226.2 105.727L250.4 118.627C252.3 119.627 254.4 119.927 256.5 119.327L300.9 107.827L298.6 90.7271L258.4 95.2271L227.8 68.1271L205 63.0271L200.9 56.3271H177.6L176 57.5271C175.2 58.1271 174.6 58.9271 174.3 59.8271L173.3 63.1271Z" fill="#E8505B"/>
<path d="M152.8 73.0271C152.8 73.0271 146.1 77.3271 143.6 85.0271C141.3 92.3271 136 121.727 136 121.727L112.7 107.227L99.3 121.327L130.4 148.727C135.2 152.927 142 153.827 147.7 151.127C152.5 148.827 155.8 144.327 156.5 139.027L160.3 111.127L152.8 73.0271Z" fill="#E8505B"/>
<path d="M222.7 161.227L221.3 159.127L205.9 161.927L203.1 168.427L222.7 161.227Z" fill="#FFBE9D"/>
<path d="M161.7 171.927C175.4 177.427 190 175.427 203.1 168.527C207 166.427 210.7 163.827 214.6 161.827C218.6 159.727 222.9 158.227 227.4 158.527C231.8 158.827 236.3 161.327 238.1 165.427C239.9 169.527 238.1 175.127 233.9 176.627C234.4 177.027 234.9 177.527 235.4 177.927C241.5 175.027 244.5 166.827 241.5 160.727C239.2 156.027 234.4 153.327 230.8 149.427C225.6 143.827 225 133.027 225 124.527" fill="#E8505B"/>
<path d="M191.8 75.0271C191.8 75.0271 191.4 75.0271 190.8 75.1271C190.2 75.2271 189.2 75.3271 188.4 76.2271C187.6 77.1271 187.2 78.5271 187.2 80.1271C187.2 81.7271 187.5 83.6271 188.3 85.3271L188.7 86.2271L187.9 85.6271C186.2 84.3271 184.4 82.8271 182.7 81.0271C178.7 76.9271 176.1 72.3271 174.8 68.8271C174.1 67.1271 173.7 65.6271 173.5 64.6271C173.3 63.6271 173.2 63.0271 173.3 63.0271C173.4 63.0271 173.7 65.3271 175.2 68.7271C176.6 72.1271 179.3 76.6271 183.2 80.6271C184.9 82.3271 186.6 83.9271 188.3 85.1271L187.9 85.4271C187.5 84.5271 187.2 83.5271 187 82.6271C186.8 81.7271 186.7 80.8271 186.8 79.9271C186.8 78.2271 187.3 76.7271 188.2 75.8271C189.1 74.9271 190.2 74.8271 190.8 74.7271C191.4 75.0271 191.8 75.0271 191.8 75.0271Z" fill="#263238"/>
<path d="M193 75.0271C194.7 74.3271 197.2 75.3271 198.4 76.7271C199.2 77.6271 199.7 78.9271 200.7 79.5271C201.8 80.1271 205.1 80.6271 206.1 79.8271C206.1 79.8271 206.7 77.0271 207 75.8271C208.2 71.1271 208.8 66.9271 209.3 62.1271C206.1 60.5271 207 58.5271 201.2 58.9271C201.2 58.9271 202.7 63.2271 201.4 67.1271" fill="#E8505B"/>
<path d="M201.3 67.1271C201.2 67.1271 201.5 66.3271 201.6 64.9271C201.7 63.5271 201.6 61.4271 200.9 59.0271L200.8 58.8271H201C202.3 58.7271 203.8 58.6271 205.3 59.2271C206.1 59.5271 206.7 60.1271 207.3 60.6271C207.9 61.1271 208.5 61.6271 209.3 62.0271L209.5 62.1271V62.3271C209.2 64.7271 208.9 67.4271 208.5 70.1271C208.2 71.9271 207.8 73.6271 207.4 75.3271C207 77.0271 206.7 78.5271 206.3 80.0271V80.1271H206.2C205.6 80.5271 205 80.5271 204.5 80.5271C203.9 80.5271 203.4 80.5271 202.9 80.4271C202.4 80.3271 201.9 80.2271 201.4 80.1271C200.9 80.0271 200.4 79.7271 200.1 79.4271C199.4 78.7271 199 77.9271 198.6 77.3271C198.1 76.7271 197.6 76.2271 197 75.9271C195.9 75.2271 194.8 75.0271 194.1 75.0271C193.4 75.0271 193 75.2271 193 75.2271C193 75.2271 193.3 75.0271 194.1 74.9271C194.8 74.8271 195.9 75.0271 197.1 75.7271C197.7 76.0271 198.3 76.5271 198.8 77.2271C199.3 77.8271 199.7 78.6271 200.3 79.2271C200.9 79.8271 201.9 79.9271 202.9 80.1271C203.4 80.2271 203.9 80.2271 204.4 80.2271C204.9 80.2271 205.5 80.1271 205.8 79.9271L205.7 80.0271C206 78.5271 206.4 76.9271 206.8 75.2271C207.2 73.6271 207.6 71.8271 207.9 70.1271C208.4 67.4271 208.7 64.7271 208.9 62.3271L209 62.5271C208.2 62.1271 207.5 61.6271 206.9 61.0271C206.3 60.4271 205.7 59.9271 205.1 59.6271C203.7 59.1271 202.3 59.1271 201 59.2271L201.2 58.9271C201.9 61.4271 201.9 63.5271 201.8 65.0271C201.7 65.7271 201.6 66.3271 201.5 66.6271C201.4 66.9271 201.3 67.1271 201.3 67.1271Z" fill="#263238"/>
<path d="M235.5 161.527C235.5 161.527 235.5 161.127 235.5 160.427C235.4 159.727 235.2 158.527 234.5 157.327C233.8 156.127 232.6 154.827 230.8 153.727C229.1 152.727 226.8 152.127 224.2 151.927C221.7 151.727 218.8 151.827 215.8 151.627C212.8 151.427 209.5 150.927 206.3 149.627C203.1 148.327 200 146.227 197.8 143.227C196.7 141.727 195.8 139.927 195.3 138.127C194.8 136.227 194.7 134.227 194.7 132.327C194.9 128.327 195.8 124.627 196.3 121.027C196.9 117.427 197.2 113.827 197.3 110.427C197.5 103.627 196.9 97.5271 196 92.5271C195.1 87.5271 193.9 83.5271 193.1 80.7271C192.7 79.3271 192.3 78.3271 192 77.6271C191.9 77.3271 191.8 77.0271 191.7 76.8271C191.6 76.6271 191.6 76.5271 191.6 76.5271C191.6 76.5271 191.7 76.6271 191.7 76.8271C191.8 77.0271 191.9 77.3271 192 77.6271C192.3 78.3271 192.7 79.3271 193.2 80.7271C194.1 83.4271 195.4 87.4271 196.3 92.5271C197.3 97.6271 197.9 103.727 197.7 110.527C197.6 113.927 197.3 117.527 196.7 121.127C196.2 124.827 195.3 128.527 195.1 132.427C194.9 136.327 195.8 140.127 198 143.027C200.2 145.927 203.2 148.027 206.3 149.227C209.4 150.527 212.6 151.027 215.6 151.227C218.6 151.427 221.4 151.327 224 151.627C226.6 151.827 228.9 152.427 230.7 153.527C232.5 154.627 233.7 155.927 234.4 157.227C235.1 158.527 235.3 159.627 235.3 160.427C235.3 160.827 235.3 161.127 235.3 161.327C235.5 161.427 235.5 161.527 235.5 161.527Z" fill="#263238"/>
<path d="M220.5 143.327C220.5 143.327 220.1 143.727 219.3 144.527C218.9 144.927 218.4 145.327 217.9 145.827C217.3 146.327 216.7 146.927 215.9 147.427C214.4 148.627 212.5 149.927 210.4 151.227C208.2 152.527 205.7 153.827 203.1 154.927C200.4 156.027 197.7 156.927 195.3 157.527C192.8 158.127 190.6 158.527 188.7 158.827C187.8 158.927 186.9 159.027 186.1 159.127C185.3 159.227 184.7 159.227 184.2 159.227C183.1 159.227 182.5 159.227 182.5 159.227C182.5 159.227 183.1 159.127 184.1 159.027C184.6 159.027 185.3 158.927 186 158.827C186.8 158.727 187.6 158.627 188.5 158.527C190.4 158.227 192.6 157.827 195 157.127C197.4 156.427 200.1 155.627 202.7 154.527C205.4 153.427 207.8 152.127 210 150.827C212.2 149.527 214 148.227 215.6 147.127C216.4 146.627 217 146.027 217.6 145.527C218.2 145.027 218.7 144.627 219.1 144.327C220 143.627 220.5 143.327 220.5 143.327Z" fill="#263238"/>
<path d="M214.1 110.427C214.1 110.427 214.1 110.627 214 111.027C213.9 111.427 213.8 111.927 213.7 112.627C213.6 113.327 213.3 114.127 213 115.027C212.7 115.927 212.4 117.027 211.9 118.227C211.7 118.827 211.4 119.427 211.2 120.027C211 120.627 210.6 121.327 210.3 121.927C209.7 123.227 209 124.627 208.2 126.127C206.6 129.027 204.5 132.027 202.1 134.927C199.6 137.827 197 140.327 194.5 142.427C193.2 143.427 192 144.427 190.8 145.227C190.2 145.627 189.6 146.027 189 146.427C188.4 146.727 187.9 147.127 187.3 147.427C186.2 148.127 185.2 148.527 184.4 149.027C183.5 149.527 182.8 149.827 182.1 150.127C181.5 150.327 181 150.627 180.6 150.727C180.3 150.827 180.1 150.927 180.1 150.927C180.1 150.927 180.3 150.827 180.6 150.627C181 150.427 181.5 150.227 182 149.927C182.6 149.627 183.4 149.227 184.2 148.727C185.1 148.227 186.1 147.727 187.1 147.027C187.6 146.727 188.2 146.327 188.7 146.027C189.3 145.627 189.8 145.227 190.4 144.827C191.6 144.027 192.8 143.027 194.1 142.027C196.6 139.927 199.2 137.427 201.6 134.527C204 131.627 206 128.627 207.7 125.827C208.5 124.427 209.2 123.027 209.8 121.727C210.1 121.027 210.4 120.427 210.7 119.827C211 119.227 211.2 118.627 211.4 118.027C211.9 116.927 212.2 115.827 212.5 114.927C212.8 114.027 213.1 113.227 213.2 112.527C213.4 111.927 213.5 111.427 213.6 111.027C214 110.627 214.1 110.427 214.1 110.427Z" fill="#263238"/>
<path d="M171.9 176.927C171.9 176.927 171.1 176.527 170.1 175.527C169.1 174.527 167.9 173.027 167 171.027C166.2 169.027 165.9 167.027 165.9 165.627C165.9 164.227 166.2 163.327 166.2 163.327C166.3 163.327 166.2 164.227 166.3 165.527C166.4 166.927 166.7 168.827 167.5 170.727C168.3 172.627 169.4 174.227 170.4 175.227C171.3 176.327 172 176.827 171.9 176.927Z" fill="#263238"/>
<path d="M171.2 169.127C171.3 169.127 171.1 170.427 171.2 172.027C171.3 173.627 171.8 174.827 171.7 174.927C171.6 175.027 170.8 173.827 170.7 172.127C170.5 170.327 171.1 169.027 171.2 169.127Z" fill="#263238"/>
<path d="M161.3 133.327C161.3 133.327 161.2 133.127 161.2 132.827C161.1 132.427 161.1 132.027 161 131.427C160.8 130.127 160.5 128.427 160.2 126.427C159.5 122.227 158.5 116.327 157.3 109.927C156.1 103.527 154.9 97.7271 154.1 93.5271C153.7 91.5271 153.3 89.8271 153.1 88.5271C153 88.0271 152.9 87.5271 152.8 87.1271C152.7 86.8271 152.7 86.6271 152.7 86.6271C152.7 86.6271 152.8 86.8271 152.9 87.1271C153 87.5271 153.1 87.9271 153.3 88.4271C153.6 89.6271 154 91.3271 154.5 93.3271C155.5 97.5271 156.7 103.327 157.9 109.727C159.1 116.127 160 122.027 160.6 126.227C160.9 128.327 161.1 130.027 161.3 131.227C161.4 131.727 161.4 132.227 161.5 132.627C161.3 133.127 161.3 133.327 161.3 133.327Z" fill="#263238"/>
<path d="M225.3 133.327C225.3 133.327 225.3 133.127 225.2 132.827C225.2 132.427 225.2 131.927 225.2 131.427C225.2 130.227 225.2 128.427 225.2 126.227C225.2 121.827 225.4 115.727 225.9 109.027C226.4 102.327 227.1 96.2271 227.6 91.9271C227.9 89.8271 228.1 88.0271 228.3 86.7271C228.4 86.1271 228.5 85.7271 228.5 85.3271C228.6 85.0271 228.6 84.8271 228.6 84.8271C228.6 84.8271 228.6 85.0271 228.6 85.3271C228.6 85.7271 228.5 86.2271 228.5 86.7271C228.4 88.0271 228.2 89.8271 228 91.9271C227.6 96.3271 227 102.327 226.4 109.027C225.9 115.727 225.6 121.827 225.5 126.227C225.4 128.327 225.4 130.127 225.4 131.427C225.4 132.027 225.4 132.427 225.3 132.827C225.4 133.127 225.3 133.327 225.3 133.327Z" fill="#263238"/>
<path d="M145.4 135.927C145.2 136.027 143.9 132.327 141.4 128.427C138.8 124.427 135.9 121.927 136 121.827C136 121.827 136.8 122.327 138 123.427C139.1 124.527 140.6 126.127 141.9 128.127C143.2 130.127 144.1 132.127 144.7 133.527C145.1 134.927 145.4 135.827 145.4 135.927Z" fill="#263238"/>
<path d="M147.1 131.527C147 131.527 146.7 130.727 146 129.627C145.3 128.427 144.2 126.927 142.5 125.627C140.9 124.327 139.2 123.427 137.9 122.827C136.6 122.227 135.8 121.927 135.9 121.827C135.9 121.727 136.8 121.927 138.1 122.427C139.4 122.927 141.2 123.827 142.9 125.127C144.6 126.527 145.7 128.127 146.3 129.427C146.9 130.727 147.1 131.527 147.1 131.527Z" fill="#263238"/>
<path d="M157.4 107.527C157.4 107.527 157.4 107.727 157.2 107.927C157 108.227 156.7 108.627 156.3 109.027C155.4 109.827 153.6 110.727 151.4 110.327C149.2 110.027 146.8 108.427 145.2 105.927C144.4 104.727 143.7 103.327 143.2 101.927C142.9 101.227 142.6 100.427 142.4 99.6271C142.2 98.8271 142 98.0271 142.1 97.1271C142.2 96.2271 142.6 95.4271 143.3 94.8271C144 94.2271 145 94.2271 145.8 94.4271C147.4 94.8271 148.6 96.1271 149.1 97.5271C149.6 98.9271 149.4 100.527 148.7 101.627C148 102.727 146.9 103.527 145.8 103.827C144.7 104.127 143.7 104.027 142.8 103.727C142 103.427 141.4 102.927 141 102.427C140.6 101.927 140.3 101.527 140.2 101.227C140.1 100.927 140 100.727 140.1 100.727C140.2 100.727 140.3 101.427 141.2 102.227C141.6 102.627 142.2 103.027 143 103.327C143.8 103.627 144.8 103.727 145.8 103.427C146.8 103.127 147.8 102.427 148.4 101.327C149 100.327 149.2 98.9271 148.7 97.6271C148.2 96.3271 147.2 95.2271 145.7 94.8271C145 94.6271 144.2 94.7271 143.7 95.2271C143.1 95.6271 142.8 96.4271 142.7 97.1271C142.5 98.6271 143.2 100.227 143.7 101.627C144.3 103.027 144.9 104.427 145.7 105.627C147.2 108.027 149.4 109.527 151.5 109.927C153.6 110.327 155.3 109.527 156.2 108.827C157.1 108.127 157.3 107.427 157.4 107.527Z" fill="#FAFAFA"/>
<path d="M196.7 122.827C196.7 122.827 196.6 122.927 196.4 123.027C196.2 123.227 195.9 123.427 195.6 123.627C194.9 124.127 193.7 125.027 192.2 125.827C191.4 126.227 190.5 126.527 189.4 126.727C188.3 126.927 187.1 126.927 185.9 126.527C183.4 125.727 181.2 123.627 179.6 120.927C177.9 118.227 176.8 114.827 176.7 111.027C176.6 107.327 177.5 103.227 179.8 99.6271C180.9 97.8271 182.4 96.1271 184.5 95.2271C185.5 94.8271 186.7 94.6271 187.9 94.8271C189 95.0271 190.2 95.5271 190.9 96.5271C191.6 97.5271 191.9 98.7271 191.8 99.9271C191.7 101.127 191.3 102.327 190.7 103.327C189.5 105.427 187.4 106.927 185.1 107.827C182.8 108.727 180.3 108.927 178 108.527C175.6 108.227 173.4 107.227 171.6 105.827C167.8 103.127 165.4 99.1271 164 95.2271C163.3 93.2271 162.8 91.2271 163.1 89.1271C163.3 88.1271 163.6 87.1271 164.3 86.3271C164.9 85.5271 165.8 84.9271 166.7 84.7271C168.6 84.3271 170.6 85.1271 171.7 86.4271C172.9 87.8271 173.2 89.6271 172.9 91.2271C172.6 92.8271 171.9 94.2271 170.8 95.2271C169.8 96.2271 168.6 96.9271 167.4 97.4271C165 98.3271 162.8 98.4271 161 98.4271C159.2 98.3271 157.9 98.1271 157 98.0271C156.6 97.9271 156.2 97.9271 156 97.8271C155.8 97.8271 155.6 97.7271 155.6 97.7271C155.6 97.7271 155.7 97.7271 156 97.7271C156.3 97.7271 156.6 97.8271 157 97.8271C157.9 97.9271 159.3 98.1271 161 98.1271C162.7 98.1271 164.9 98.0271 167.2 97.1271C168.3 96.6271 169.5 95.9271 170.5 94.9271C171.5 93.9271 172.2 92.5271 172.4 91.0271C172.6 89.5271 172.4 87.8271 171.2 86.5271C170.1 85.3271 168.3 84.5271 166.6 84.9271C164.8 85.3271 163.6 87.0271 163.3 88.9271C163 90.8271 163.5 92.8271 164.2 94.7271C165.6 98.6271 168 102.427 171.6 105.027C173.4 106.327 175.5 107.327 177.8 107.627C180.1 108.027 182.5 107.727 184.7 106.927C186.9 106.127 188.8 104.627 190 102.627C190.6 101.627 190.9 100.527 191 99.4271C191.1 98.3271 190.8 97.2271 190.2 96.3271C189.6 95.4271 188.5 94.9271 187.5 94.8271C186.5 94.6271 185.4 94.8271 184.4 95.2271C182.5 96.0271 181 97.7271 179.9 99.4271C177.7 102.927 176.8 106.827 176.9 110.527C177 114.227 178.1 117.527 179.7 120.227C181.3 122.927 183.5 124.927 185.8 125.727C188.2 126.527 190.4 125.827 191.9 125.127C193.5 124.427 194.6 123.627 195.4 123.027C195.8 122.727 196 122.527 196.3 122.427C196.6 122.927 196.7 122.827 196.7 122.827Z" fill="#FAFAFA"/>
<path d="M169.1 66.7271C169.1 66.7271 169 67.0271 168.8 67.6271C168.6 68.2271 168.1 68.9271 167.5 69.8271C166.3 71.6271 164.1 73.9271 161 75.3271C157.9 76.8271 154.8 77.0271 152.6 76.9271C151.5 76.8271 150.6 76.6271 150 76.5271C149.4 76.3271 149.1 76.2271 149.1 76.2271C149.1 76.1271 150.4 76.5271 152.6 76.6271C154.7 76.7271 157.8 76.3271 160.7 74.9271C163.7 73.5271 165.8 71.4271 167.1 69.6271C168.5 67.9271 169 66.7271 169.1 66.7271Z" fill="#FAFAFA"/>
<path d="M183.9 71.0271C183.9 71.2271 182.4 71.2271 181.1 72.4271C179.7 73.5271 179.4 75.0271 179.3 75.0271C179.2 75.0271 179.2 74.6271 179.4 74.0271C179.6 73.4271 180 72.6271 180.8 72.0271C181.5 71.4271 182.4 71.1271 183 71.0271C183.5 70.8271 183.9 70.9271 183.9 71.0271Z" fill="#FAFAFA"/>
<path d="M205 76.9271C205 76.9271 204.7 76.8271 204.2 76.5271C203.7 76.2271 203 75.6271 202.3 74.8271C201.7 73.9271 201 72.7271 200.9 71.3271C200.9 70.6271 201 69.7271 201.5 69.1271C202 68.4271 202.9 67.9271 203.8 68.1271C204.7 68.3271 205.4 69.1271 205.6 69.8271C205.9 70.6271 205.6 71.5271 205.1 72.1271C204.1 73.3271 202.5 73.5271 201.5 73.1271C200.4 72.7271 199.8 72.0271 199.5 71.5271C199.2 71.0271 199.1 70.6271 199.1 70.6271C199.1 70.6271 199.3 70.9271 199.6 71.3271C200 71.7271 200.6 72.4271 201.5 72.7271C202.4 73.0271 203.8 72.8271 204.6 71.8271C205 71.3271 205.2 70.6271 204.9 70.0271C204.7 69.4271 204.1 68.8271 203.5 68.6271C202.8 68.4271 202.1 68.8271 201.7 69.4271C201.3 70.0271 201.1 70.7271 201.2 71.3271C201.3 72.6271 201.8 73.8271 202.4 74.7271C203.8 76.2271 205.1 76.8271 205 76.9271Z" fill="#FAFAFA"/>
<path d="M209 65.2271C208.9 65.3271 207.8 63.7271 205.7 62.9271C203.6 62.0271 201.7 62.4271 201.7 62.2271C201.7 62.1271 202.1 62.0271 202.9 61.9271C203.7 61.8271 204.8 61.9271 205.9 62.4271C207 62.9271 207.9 63.5271 208.4 64.1271C208.9 64.7271 209.1 65.1271 209 65.2271Z" fill="#FAFAFA"/>
<path d="M236.5 76.8271C236.5 76.8271 236.4 76.8271 236.3 76.9271C236.1 77.0271 235.9 77.1271 235.7 77.2271C235.2 77.5271 234.4 77.8271 233.3 78.2271C231.2 79.0271 228 79.9271 223.9 80.0271C222.9 80.0271 221.8 79.9271 220.7 79.7271C219.6 79.5271 218.5 79.0271 217.5 78.2271C216.6 77.4271 216 76.1271 216 74.8271C216 73.5271 216.4 72.1271 217.3 71.0271C219.1 68.8271 222.4 68.1271 225.3 69.0271C228.2 69.8271 230.8 72.1271 231.7 75.2271C232.6 78.2271 231.8 81.7271 229.8 83.9271C227.8 86.2271 225 87.3271 222.4 87.9271C219.8 88.5271 217.2 88.6271 214.8 88.7271C212.4 88.8271 210.2 88.9271 208.3 89.3271C204.4 90.1271 201.6 92.1271 200.2 93.9271C198.8 95.7271 198.7 97.0271 198.7 97.0271C198.7 97.0271 198.7 96.9271 198.7 96.8271C198.7 96.7271 198.8 96.4271 198.9 96.1271C199.1 95.5271 199.4 94.7271 200.1 93.8271C201.4 91.9271 204.2 89.8271 208.2 89.0271C210.2 88.6271 212.4 88.4271 214.8 88.3271C217.2 88.2271 219.7 88.1271 222.3 87.5271C224.8 86.9271 227.5 85.8271 229.4 83.6271C231.3 81.5271 232 78.3271 231.2 75.4271C230.4 72.5271 227.9 70.3271 225.2 69.6271C222.5 68.8271 219.4 69.5271 217.7 71.5271C216.9 72.5271 216.4 73.7271 216.5 74.9271C216.5 76.1271 217 77.2271 217.9 78.0271C218.7 78.8271 219.8 79.2271 220.9 79.5271C222 79.8271 223 79.8271 224 79.8271C228 79.8271 231.2 78.9271 233.4 78.2271C234.5 77.8271 235.3 77.5271 235.8 77.3271C236.2 76.9271 236.5 76.8271 236.5 76.8271Z" fill="#FAFAFA"/>
<path d="M211.6 116.127C211.5 116.127 211.2 115.327 210.3 114.127C209.4 112.927 207.8 111.527 205.7 110.727C203.6 109.927 201.5 110.027 200 110.227C198.5 110.527 197.7 110.927 197.7 110.827C197.7 110.827 198.5 110.227 200 109.827C201.5 109.427 203.7 109.327 205.9 110.127C208.1 110.927 209.7 112.527 210.6 113.827C211.4 115.127 211.6 116.127 211.6 116.127Z" fill="#FAFAFA"/>
<path d="M223.2 123.627C223.2 123.627 222.9 124.527 221.8 125.627C220.8 126.727 218.9 127.927 216.5 128.127C214.1 128.327 212.1 127.427 210.9 126.527C209.7 125.627 209.2 124.727 209.2 124.727C209.3 124.627 209.8 125.427 211.1 126.227C212.3 127.027 214.3 127.827 216.5 127.627C218.7 127.427 220.5 126.327 221.6 125.427C222.7 124.427 223.2 123.627 223.2 123.627Z" fill="#FAFAFA"/>
<path d="M226.3 103.827C226.3 103.927 225.7 103.527 224.6 103.227C223.5 102.927 222 102.827 220.4 103.327C218.8 103.827 217.6 104.827 216.9 105.727C216.2 106.527 215.9 107.227 215.8 107.227C215.7 107.227 215.9 106.527 216.6 105.527C217.2 104.627 218.5 103.427 220.2 102.927C221.9 102.427 223.6 102.627 224.7 103.027C225.8 103.227 226.3 103.727 226.3 103.827Z" fill="#FAFAFA"/>
<path d="M263.5 94.6271C263.5 94.6271 263.6 94.9271 263.7 95.3271C263.8 95.5271 263.8 95.9271 263.8 96.2271C263.8 96.6271 263.9 97.0271 263.8 97.5271C263.8 99.4271 263.1 102.227 260.9 105.027C259.8 106.327 258.4 107.627 256.6 108.627C254.8 109.527 252.6 110.027 250.4 110.027C245.9 110.027 240.8 107.827 237.6 103.627C236.8 102.627 236.1 101.427 235.8 100.127C235.5 98.8271 235.5 97.5271 235.9 96.3271C236.3 95.1271 237.1 94.0271 238.2 93.4271C239.3 92.8271 240.6 92.8271 241.7 93.0271C242.8 93.2271 243.9 93.8271 244.7 94.6271C245.5 95.4271 246 96.3271 246.3 97.3271C246.9 99.3271 246.8 101.227 246.3 102.927C245.8 104.527 244.9 105.927 243.9 106.927C243 107.927 242 108.627 241.1 109.027C240.3 109.527 239.5 109.727 239.1 109.827C238.6 109.927 238.4 110.027 238.3 109.927C238.3 109.827 239.3 109.727 241 108.827C242.6 107.927 244.8 106.027 245.9 102.827C246.4 101.227 246.5 99.3271 245.9 97.5271C245.6 96.6271 245.1 95.7271 244.4 95.0271C243.7 94.3271 242.7 93.8271 241.7 93.6271C240.6 93.4271 239.5 93.5271 238.5 94.0271C237.5 94.5271 236.8 95.5271 236.4 96.6271C236 97.7271 236 98.9271 236.4 100.127C236.7 101.327 237.3 102.427 238.1 103.427C241.3 107.427 246.1 109.627 250.5 109.627C252.7 109.627 254.8 109.227 256.5 108.327C258.3 107.427 259.7 106.227 260.7 104.927C262.8 102.327 263.6 99.5271 263.6 97.7271C263.8 95.6271 263.5 94.6271 263.5 94.6271Z" fill="#FAFAFA"/>
<path d="M271.3 115.327C271.3 115.327 271 115.127 270.7 114.627C270.4 114.127 269.9 113.427 269.6 112.327C269.3 111.327 269.2 110.027 269.4 108.627C269.6 107.227 270 105.727 270.4 104.227C271.4 101.127 272.9 98.6271 274 96.8271C274.6 95.9271 275 95.2271 275.4 94.7271C275.7 94.2271 275.9 94.0271 276 94.0271C276.1 94.0271 275.4 95.2271 274.4 97.0271C273.4 98.8271 271.9 101.327 271 104.327C270.6 105.827 270.2 107.327 270 108.627C269.8 109.927 269.8 111.227 270 112.227C270.4 114.227 271.4 115.227 271.3 115.327Z" fill="#FAFAFA"/>
<path d="M290.2 92.3271C290.2 92.3271 290.3 92.5271 290.5 93.0271C290.7 93.5271 290.8 94.2271 291 95.1271C291.3 96.9271 291.4 99.4271 290.8 102.127C290.2 104.827 289.1 107.027 288 108.527C287.5 109.227 287 109.827 286.7 110.227C286.4 110.627 286.2 110.727 286.1 110.727C286 110.627 286.8 109.827 287.7 108.327C288.6 106.827 289.7 104.627 290.3 102.027C290.9 99.4271 290.8 96.9271 290.6 95.2271C290.4 93.3271 290.1 92.3271 290.2 92.3271Z" fill="#FAFAFA"/>
<path d="M224.8 139.027C224.8 139.027 224.6 138.927 224.4 138.827C224.1 138.627 223.7 138.427 223.2 138.127C222.1 137.627 220.5 136.927 218.3 136.727C216.2 136.527 213.5 136.727 211 137.927C209.7 138.527 208.4 139.327 207.3 140.327C206.7 140.827 206.2 141.427 205.9 142.127C205.5 142.827 205.3 143.527 205.4 144.327C205.5 145.127 205.9 145.827 206.5 146.227C207.1 146.627 207.9 146.627 208.5 146.327C209.9 145.727 210.4 144.127 210.4 142.827C210.3 140.027 208.5 137.727 206.7 136.827C204.8 135.827 203 135.927 201.8 136.227C200.6 136.527 200 136.827 200 136.827C200 136.827 200.1 136.727 200.4 136.527C200.7 136.427 201.1 136.227 201.7 136.027C202.9 135.727 204.8 135.527 206.8 136.527C208.8 137.527 210.7 139.827 210.8 142.827C210.8 143.527 210.7 144.327 210.4 145.127C210.1 145.827 209.5 146.527 208.7 146.827C207.9 147.227 206.9 147.227 206.2 146.727C205.4 146.227 205 145.327 204.9 144.527C204.8 143.627 205.1 142.727 205.5 142.027C205.9 141.327 206.5 140.627 207 140.127C208.2 139.027 209.5 138.227 210.8 137.627C213.5 136.427 216.2 136.227 218.4 136.527C220.6 136.827 222.3 137.527 223.3 138.127C223.8 138.427 224.2 138.727 224.5 138.927C224.6 138.927 224.8 139.027 224.8 139.027Z" fill="#FAFAFA"/>
<path d="M228.4 147.327C228.5 147.427 228 148.427 227.2 149.627C226.4 150.827 225.7 151.727 225.6 151.627C225.5 151.527 226 150.527 226.8 149.327C227.5 148.127 228.3 147.227 228.4 147.327Z" fill="#FAFAFA"/>
<path d="M241.1 161.627C241 161.627 240.9 161.227 240.5 160.727C240.2 160.227 239.6 159.527 238.7 159.127C237.9 158.627 237 158.527 236.4 158.427C235.8 158.427 235.4 158.527 235.4 158.427C235.4 158.327 235.8 158.127 236.4 158.127C237.1 158.027 238 158.227 239 158.727C239.9 159.227 240.5 160.027 240.8 160.627C241.1 161.227 241.1 161.627 241.1 161.627Z" fill="#FAFAFA"/>
<path d="M199.8 156.527C199.8 156.627 198.6 157.227 196.7 158.327C194.8 159.427 192.1 161.027 189.9 163.627C187.7 166.127 186.5 169.127 186.3 171.227C186 173.427 186.5 174.727 186.4 174.827C186.4 174.827 186.2 174.527 186.1 173.927C186 173.327 185.9 172.427 186 171.227C186.1 168.927 187.3 165.827 189.6 163.327C191.9 160.727 194.6 159.127 196.6 158.127C197.6 157.627 198.4 157.227 199 157.027C199.4 156.627 199.7 156.527 199.8 156.527Z" fill="#FAFAFA"/>
<path d="M214.5 161.427C214.5 161.427 213.9 161.127 213.4 160.227C212.9 159.327 212.4 157.927 212.6 156.427C212.7 154.827 213.4 153.527 214.1 152.827C214.8 152.027 215.3 151.827 215.4 151.827C215.5 151.927 215 152.227 214.4 153.027C213.8 153.827 213.3 155.027 213.2 156.527C213.1 158.027 213.4 159.327 213.8 160.127C214.1 160.927 214.5 161.327 214.5 161.427Z" fill="#FAFAFA"/>
<path d="M191.5 143.327C191.5 143.327 191.3 143.127 190.9 142.727C190.5 142.427 189.8 141.927 188.8 141.827C187.8 141.727 186.5 141.827 185.3 142.527C184.1 143.227 183 144.527 182 146.027C181 147.527 180.2 149.327 178.9 151.127C177.7 152.927 175.7 154.527 173.4 155.227C171.1 156.027 168.3 155.927 165.8 154.827C163.4 153.727 161.2 151.627 160.2 148.927C159.7 147.627 159.6 146.027 160 144.727C160.4 143.327 161.4 142.227 162.6 141.527C163.8 140.827 165.1 140.527 166.5 140.627C167.8 140.827 169 141.427 169.9 142.227C171.8 143.927 172.7 146.327 172.6 148.527C172.6 150.727 171.8 152.727 170.7 154.227C169.7 155.727 168.3 156.827 167.1 157.627C165.8 158.427 164.7 158.827 163.7 159.127C162.7 159.427 161.9 159.527 161.4 159.627C161.1 159.627 160.9 159.727 160.8 159.727C160.7 159.727 160.6 159.727 160.6 159.727C160.6 159.727 160.9 159.627 161.4 159.527C161.9 159.427 162.7 159.227 163.7 158.927C164.7 158.627 165.8 158.127 167 157.427C168.2 156.627 169.5 155.527 170.5 154.027C171.5 152.527 172.2 150.627 172.2 148.527C172.2 146.427 171.4 144.127 169.6 142.627C168.7 141.827 167.6 141.327 166.4 141.127C165.2 141.027 163.9 141.327 162.9 141.927C161.8 142.627 160.9 143.627 160.5 144.827C160.1 146.027 160.2 147.427 160.7 148.727C161.6 151.327 163.7 153.327 166 154.327C168.3 155.427 171 155.527 173.2 154.727C175.5 154.027 177.3 152.527 178.5 150.827C179.7 149.127 180.6 147.327 181.6 145.727C182.6 144.227 183.8 142.927 185.1 142.227C186.4 141.427 187.8 141.327 188.8 141.527C189.8 141.727 190.5 142.227 190.9 142.527C191.4 143.027 191.5 143.327 191.5 143.327Z" fill="#FAFAFA"/>
<path d="M191.8 158.927C191.8 158.927 191.1 158.627 190.2 157.627C189.3 156.727 188.3 155.227 187.7 153.327C187.1 151.427 187.2 149.627 187.4 148.327C187.6 147.027 188 146.327 188.1 146.327C188.2 146.327 187.9 147.127 187.8 148.327C187.7 149.527 187.7 151.327 188.2 153.127C188.7 154.927 189.6 156.427 190.4 157.327C191.3 158.327 191.9 158.827 191.8 158.927Z" fill="#FAFAFA"/>
<path d="M195.5 135.827C195.5 135.927 194.8 135.527 193.5 135.027C192.2 134.527 190.3 133.827 187.8 133.527C185.3 133.227 182.3 133.227 179.1 133.927C177.5 134.327 175.8 134.827 174.3 135.727C173.6 136.127 172.9 136.827 172.7 137.627C172.5 138.427 173 139.427 173.7 139.627C174.1 139.727 174.5 139.627 174.8 139.327C175.1 139.027 175.3 138.627 175.4 138.227C175.6 137.427 175.7 136.427 175.6 135.527C175.5 133.727 175.1 132.027 174.3 130.627C173.6 129.127 172.6 127.927 171.5 127.027C170.4 126.127 169.2 125.427 168 125.027C165.7 124.227 163.6 124.227 162.2 124.427C160.8 124.627 160.1 124.927 160.1 124.927C160.1 124.927 160.3 124.827 160.6 124.727C160.9 124.627 161.5 124.427 162.2 124.327C163.6 124.027 165.7 123.927 168.2 124.727C169.4 125.127 170.7 125.827 171.8 126.727C173 127.727 174 128.927 174.8 130.427C175.6 131.927 176.1 133.727 176.2 135.527C176.2 136.427 176.2 137.427 176 138.327C175.9 138.827 175.7 139.327 175.3 139.627C174.9 140.027 174.3 140.227 173.7 140.027C173.1 139.827 172.7 139.427 172.5 138.927C172.3 138.427 172.2 137.927 172.3 137.427C172.5 136.327 173.3 135.627 174.1 135.227C175.7 134.327 177.4 133.827 179.1 133.427C182.4 132.627 185.5 132.727 188 133.127C190.5 133.527 192.4 134.227 193.7 134.827C194.3 135.127 194.8 135.327 195.2 135.527C195.3 135.727 195.5 135.827 195.5 135.827Z" fill="#FAFAFA"/>
<path d="M117.6 138.727C117.6 138.727 118.2 138.227 119.2 137.227C120.2 136.227 121.5 134.627 122.3 132.227C123.2 129.927 123.5 126.727 122 123.727C121.3 122.227 120.2 120.827 118.8 119.827C117.4 118.727 115.6 118.027 113.8 117.927C112.9 117.927 112 118.127 111.2 118.527C110.4 118.927 109.7 119.527 109.4 120.327C109.1 121.127 109.3 122.027 109.8 122.627C110.3 123.327 111 123.827 111.7 124.027C113.2 124.527 114.8 124.027 116 123.327C117.2 122.527 118.1 121.427 118.6 120.327C119.7 118.027 119.7 115.927 119.9 114.627C119.9 113.927 120 113.427 120 113.027C120 112.627 120 112.427 120 112.427C120 112.427 120 112.627 120.1 113.027C120.1 113.427 120.1 113.927 120.1 114.627C120.1 116.027 120 118.127 119 120.527C118.5 121.727 117.6 122.827 116.3 123.727C115 124.527 113.3 125.127 111.6 124.527C110.8 124.227 110 123.727 109.4 122.927C108.9 122.127 108.6 121.127 109 120.127C109.3 119.127 110.1 118.427 111 118.027C111.9 117.627 112.9 117.427 113.9 117.427C115.9 117.527 117.8 118.327 119.2 119.427C120.7 120.527 121.8 122.027 122.5 123.527C123.2 125.027 123.5 126.727 123.5 128.227C123.5 129.727 123.1 131.127 122.7 132.327C121.8 134.727 120.4 136.327 119.4 137.327C118.9 137.827 118.4 138.127 118.1 138.327C117.7 138.627 117.6 138.727 117.6 138.727Z" fill="#FAFAFA"/>
<path d="M138.3 153.627C138.3 153.627 138 153.327 137.5 152.827C137 152.227 136.4 151.427 135.8 150.227C134.5 147.927 133.4 144.327 133.6 140.227C133.9 136.127 135.5 132.727 137.1 130.627C137.9 129.527 138.6 128.727 139.1 128.227C139.6 127.727 140 127.527 140 127.527C140.1 127.627 138.8 128.627 137.4 130.827C136 132.927 134.4 136.327 134.2 140.227C133.9 144.127 135 147.727 136.2 150.027C137.3 152.327 138.4 153.527 138.3 153.627Z" fill="#FAFAFA"/>
<path d="M157.8 131.827C157.7 131.827 157.3 130.327 156.1 128.127C154.9 125.927 152.7 123.127 149.5 120.927C146.3 118.827 142.8 117.927 140.3 117.627C137.8 117.327 136.2 117.527 136.2 117.427C136.2 117.427 136.6 117.327 137.3 117.227C138 117.127 139.1 117.127 140.3 117.227C142.9 117.427 146.4 118.227 149.7 120.427C153 122.627 155.2 125.527 156.4 127.827C157 128.927 157.4 129.927 157.6 130.627C157.8 131.427 157.9 131.827 157.8 131.827Z" fill="#FAFAFA"/>
<g opacity="0.3">
<g opacity="0.3">
<g opacity="0.3">
<path opacity="0.3" d="M185.2 159.827C184.2 160.227 184.3 161.727 185.1 162.427C185.9 163.127 187 163.127 188.1 163.027C199.8 162.427 211.1 156.127 217.7 146.427C208.7 153.827 196.8 156.627 185.4 159.227" fill="black"/>
</g>
</g>
</g>
<g opacity="0.3">
<g opacity="0.3">
<g opacity="0.3">
<path opacity="0.3" d="M183.4 149.627C182.4 148.127 183.1 146.027 184.3 144.727C185.6 143.427 187.3 142.727 188.9 141.927C194.8 139.027 199.6 134.027 202.4 128.127C204.2 124.227 205.6 119.327 209.6 117.727C207.5 131.627 197.2 143.927 183.9 148.427" fill="black"/>
</g>
</g>
</g>
<g opacity="0.3">
<g opacity="0.3">
<g opacity="0.3">
<path opacity="0.3" d="M155 97.7271C156 108.627 155.2 119.727 152.7 130.427C152.2 132.727 151.5 135.027 151.6 137.327C151.6 139.627 153.1 142.327 154.9 143.827C156.6 140.027 156.6 136.327 157.3 132.227C157.9 128.527 159 119.827 159 119.727C159.1 112.127 157.4 105.627 154.4 98.8271" fill="black"/>
</g>
</g>
</g>
<g opacity="0.3">
<g opacity="0.3">
<g opacity="0.3">
<path opacity="0.3" d="M173.8 64.9271C175.3 72.9271 179.3 80.4271 185.1 86.1271C187.3 88.3271 190.1 90.2271 193.1 90.1271C191.3 86.5271 190.8 82.3271 191.6 78.3271C194.2 80.0271 196.9 81.6271 199.8 82.8271C202.7 83.9271 205.9 84.5271 209 83.8271C209.6 78.3271 210.3 72.7271 210.9 67.2271C211 66.6271 211 65.9271 210.7 65.3271C210.4 64.7271 209.5 64.5271 209.1 64.9271C208.9 65.1271 208.8 65.4271 208.8 65.6271C207.7 70.5271 207 74.8271 205.9 79.7271C205.1 80.5271 202.6 80.2271 201 79.6271C199.6 79.1271 199 77.9271 198.1 76.7271C197.2 75.5271 197.3 75.7271 195.9 75.1271C193.3 74.0271 188.4 74.9271 187.3 77.2271C186.2 79.5271 187 82.6271 187.8 84.8271C180.7 80.2271 175.3 72.8271 173.2 64.6271" fill="black"/>
</g>
</g>
</g>
<g opacity="0.3">
<g opacity="0.3">
<path opacity="0.3" d="M228.4 88.4271C228.2 88.8271 234.6 110.527 234.6 110.527L226.3 105.827L228.4 88.4271Z" fill="black"/>
</g>
</g>
<path d="M176.6 25.5271V60.0271C176.6 62.0271 177.3 63.9271 178.6 65.4271C180.5 67.7271 182.9 69.7271 185.5 71.1271L192.5 75.0271L198.3 69.9271C200 68.4271 201 66.3271 201.1 64.0271C201.2 61.5271 201.2 59.0271 201.2 59.0271C201.2 59.0271 211 58.3271 211.9 48.7271C212.3 44.2271 212.5 34.9271 212.5 26.3271C212.5 16.5271 205 8.42712 195.3 7.62712H195C184.9 7.32712 176.6 15.4271 176.6 25.5271Z" fill="#FFBE9D"/>
<path d="M201.1 58.9271C201.1 58.9271 195 58.8271 188.9 54.2271C188.9 54.2271 191.4 61.5271 201.1 61.4271V58.9271Z" fill="#EB996E"/>
<path d="M209.5 32.4271C209.5 33.1271 208.8 33.7271 208.1 33.7271C207.3 33.7271 206.8 33.1271 206.8 32.3271C206.8 31.6271 207.5 31.0271 208.2 31.0271C209 31.1271 209.6 31.7271 209.5 32.4271Z" fill="#263238"/>
<path d="M209.9 30.1271C209.7 30.3271 208.7 29.4271 207.3 29.3271C205.8 29.2271 204.7 29.8271 204.5 29.6271C204.4 29.5271 204.6 29.2271 205.1 28.9271C205.6 28.6271 206.4 28.3271 207.3 28.4271C208.2 28.5271 209 28.9271 209.4 29.3271C209.9 29.7271 210 30.1271 209.9 30.1271Z" fill="#263238"/>
<path d="M195.6 31.7271C195.6 32.4271 194.9 33.0271 194.2 33.0271C193.4 33.0271 192.9 32.4271 192.9 31.6271C192.9 30.9271 193.6 30.3271 194.3 30.3271C195 30.4271 195.6 31.0271 195.6 31.7271Z" fill="#263238"/>
<path d="M195.3 29.2271C195.1 29.4271 194.1 28.5271 192.7 28.4271C191.2 28.3271 190.1 28.9271 189.9 28.7271C189.8 28.6271 190 28.3271 190.5 28.0271C191 27.7271 191.8 27.4271 192.7 27.5271C193.6 27.6271 194.4 28.0271 194.8 28.4271C195.3 28.8271 195.4 29.1271 195.3 29.2271Z" fill="#263238"/>
<path d="M199.8 40.6271C199.8 40.5271 200.7 40.4271 202.2 40.4271C202.6 40.4271 202.9 40.3271 203 40.1271C203.1 39.8271 203 39.4271 202.8 39.0271C202.5 38.1271 202.2 37.1271 201.9 36.0271C200.7 31.8271 199.8 28.3271 200 28.3271C200.2 28.3271 201.3 31.6271 202.5 35.9271C202.8 36.9271 203.1 37.9271 203.3 38.9271C203.4 39.3271 203.6 39.8271 203.4 40.4271C203.3 40.7271 203 40.9271 202.7 40.9271C202.5 41.0271 202.2 40.9271 202.1 40.9271C200.7 40.8271 199.8 40.7271 199.8 40.6271Z" fill="#263238"/>
<path d="M195.4 41.3271C195.6 41.3271 195.5 42.9271 196.8 44.2271C198.1 45.5271 199.8 45.4271 199.8 45.6271C199.8 45.7271 199.4 45.9271 198.7 45.8271C198 45.8271 197 45.5271 196.2 44.7271C195.4 43.9271 195.1 43.0271 195.1 42.3271C195.1 41.6271 195.3 41.3271 195.4 41.3271Z" fill="#263238"/>
<path d="M196.2 23.4271C196 23.8271 194.6 23.5271 192.8 23.5271C191 23.5271 189.6 23.9271 189.4 23.5271C189.3 23.3271 189.6 23.0271 190.2 22.6271C190.8 22.3271 191.7 22.0271 192.8 21.9271C193.9 21.9271 194.8 22.1271 195.4 22.4271C196 22.9271 196.3 23.2271 196.2 23.4271Z" fill="#263238"/>
<path d="M209.7 25.8271C209.4 26.1271 208.4 25.7271 207.2 25.6271C206 25.4271 204.9 25.6271 204.7 25.3271C204.6 25.1271 204.8 24.8271 205.3 24.5271C205.8 24.2271 206.5 24.0271 207.4 24.1271C208.2 24.2271 208.9 24.6271 209.3 24.9271C209.7 25.3271 209.9 25.6271 209.7 25.8271Z" fill="#263238"/>
<path d="M187.9 15.8271C186.2 16.9271 185.1 18.6271 184.6 20.5271C184.6 20.6271 184.6 20.6271 184.6 20.7271C184 23.4271 183.8 26.2271 183.2 28.9271C182.6 31.6271 182.7 33.7271 180 34.3271C178.3 34.7271 176.8 33.7271 176.2 32.8271C176 32.4271 176 32.0271 176 31.5271C176 24.8271 174.7 22.2271 175.3 15.3271C175.5 13.4271 176.5 11.7271 178.1 10.7271C179.6 9.82711 181.5 8.82711 183.1 9.72711C184.7 10.6271 186.5 13.8271 187.6 15.2271" fill="#263238"/>
<path d="M179.5 30.1271C179.3 30.0271 173 27.6271 172.7 34.2271C172.4 40.8271 179.1 39.8271 179.1 39.6271C179.1 39.4271 179.5 30.1271 179.5 30.1271Z" fill="#FFBE9D"/>
<path d="M177.2 37.0271C177.2 37.0271 177.1 37.1271 176.9 37.2271C176.7 37.3271 176.4 37.3271 176 37.2271C175.3 36.9271 174.8 35.8271 174.8 34.6271C174.8 34.0271 175 33.4271 175.2 33.0271C175.4 32.5271 175.8 32.2271 176.1 32.2271C176.5 32.1271 176.7 32.4271 176.8 32.5271C176.9 32.7271 176.8 32.8271 176.9 32.8271C176.9 32.8271 177 32.7271 177 32.4271C177 32.3271 176.9 32.1271 176.8 32.0271C176.6 31.9271 176.4 31.8271 176.2 31.8271C175.7 31.8271 175.2 32.3271 174.9 32.8271C174.6 33.3271 174.4 33.9271 174.4 34.6271C174.4 35.9271 175 37.2271 175.9 37.5271C176.4 37.6271 176.8 37.5271 177 37.4271C177.2 37.1271 177.2 37.0271 177.2 37.0271Z" fill="#EB996E"/>
<path d="M182.7 10.7271C181.3 7.92711 186.1 4.52711 189.4 3.82711C192.7 3.02711 196.9 5.02711 200 6.32711C202 7.12711 203.9 8.32711 206.1 8.32711C207.5 8.42711 209 7.92711 210.4 7.62711C211.8 7.22711 213.3 6.92711 214.7 7.12711C216.1 7.32711 217.5 8.22711 218 9.62711C218.4 11.0271 217.5 12.7271 216.1 12.8271C218 11.9271 220.5 13.5271 220.7 15.6271C220.8 17.7271 218.5 19.5271 216.5 18.9271C217.5 18.3271 218.8 19.6271 218.6 20.7271C218.4 21.9271 217.3 22.6271 216.1 23.0271C213.3 24.0271 210.1 23.3271 207.3 22.1271C204.5 20.9271 202 19.2271 199.3 17.9271C196.6 16.6271 192 14.4271 189.1 15.2271C187 15.8271 185.3 18.2271 184.2 17.5271C183.1 16.9271 182.5 15.6271 182.4 14.4271C182.2 13.2271 182.4 12.0271 182.7 10.7271Z" fill="#263238"/>
<path d="M216.8 12.8271C216.7 12.8271 216.4 13.3271 215.6 14.0271C214.8 14.7271 213.6 15.6271 211.7 16.1271C209.9 16.6271 207.6 16.6271 205.4 15.3271C203.2 14.1271 201.5 11.9271 199.4 9.9271C197.4 7.8271 194.9 6.22709 192.3 5.72709C189.7 5.22709 187.3 6.0271 185.8 7.4271C184.3 8.8271 183.9 10.5271 184 11.5271C184 12.0271 184.1 12.5271 184.2 12.7271C184.3 13.0271 184.4 13.1271 184.4 13.1271C184.5 13.1271 184.2 12.5271 184.3 11.5271C184.4 10.5271 184.8 8.92709 186.2 7.72709C187.6 6.52709 189.9 5.82709 192.3 6.32709C194.7 6.82709 197.1 8.32709 199.1 10.3271C201.1 12.3271 202.9 14.6271 205.2 15.8271C207.5 17.1271 210 17.0271 211.9 16.5271C213.8 16.0271 215.1 15.0271 215.8 14.2271C216.2 13.8271 216.4 13.5271 216.6 13.2271C216.8 12.9271 216.8 12.8271 216.8 12.8271Z" fill="#455A64"/>
<path d="M177.8 29.7271C177.8 29.7271 178.1 29.5271 178.4 29.0271C178.7 28.5271 179 27.7271 178.9 26.6271C178.9 24.5271 177.2 22.0271 177.2 19.1271C177.2 17.6271 177.5 16.2271 178.3 15.2271C179 14.2271 180 13.6271 180.9 13.3271C181.8 13.0271 182.6 13.1271 183.1 13.2271C183.6 13.3271 183.9 13.5271 183.9 13.4271C183.9 13.4271 183.7 13.1271 183.1 12.9271C182.6 12.7271 181.7 12.6271 180.7 12.8271C179.7 13.0271 178.5 13.7271 177.7 14.8271C176.9 15.9271 176.5 17.5271 176.5 19.0271C176.5 20.6271 177 22.0271 177.4 23.3271C177.9 24.5271 178.2 25.6271 178.3 26.6271C178.7 28.6271 177.7 29.6271 177.8 29.7271Z" fill="#455A64"/>
<path d="M205 220.427C205 220.427 204.5 220.427 203.5 220.427C202.5 220.427 201 220.427 199.1 220.527C195.3 220.627 189.6 220.727 182.3 221.127C175 221.527 166.1 222.127 155.8 223.327C150.7 223.927 145.2 224.627 139.4 225.627C133.6 226.527 127.5 227.727 121.2 229.127C114.8 230.527 108.2 232.327 101.5 234.527C94.8 236.727 87.8 239.427 81.1 242.927C77.7 244.727 74.4 246.727 71.3 249.227C68.2 251.627 65.3 254.527 63.3 258.027C63.1 258.427 62.8 258.927 62.6 259.327L62 260.727L61.7 261.427C61.6 261.627 61.6 261.927 61.5 262.127L61.1 263.627C60.9 265.627 60.8 267.727 61.4 269.727C62.4 273.827 65.1 277.227 68.1 280.227C74.4 286.127 82.4 290.227 90.6 293.627C98.9 297.027 107.8 299.727 116.9 301.927C135.1 306.327 154.4 308.927 174.2 310.327C194 311.727 213.5 311.627 232.2 310.527C250.9 309.427 268.9 307.127 285.8 303.527C294.2 301.727 302.3 299.527 310.1 297.027C317.8 294.427 325.2 291.327 331.8 287.527C335.1 285.627 338.2 283.427 341 281.027C343.7 278.627 346.1 275.827 347.6 272.627L348.1 271.427C348.3 271.027 348.4 270.627 348.5 270.227L348.8 268.927C348.8 268.727 348.9 268.527 348.9 268.327L349 267.727C349.2 266.027 349.1 264.327 348.6 262.727C348.1 261.127 347.3 259.627 346.5 258.227C345.6 256.827 344.5 255.527 343.4 254.427C341.1 252.127 338.6 250.127 336.1 248.427C333.5 246.727 330.9 245.127 328.3 243.827C323.1 241.027 318 238.927 313.2 237.127C303.5 233.427 294.9 231.127 287.8 229.327C280.7 227.527 275.2 226.427 271.4 225.727C269.5 225.327 268.1 225.127 267.1 224.927C266.1 224.727 265.6 224.627 265.6 224.627C265.6 224.627 267.6 224.927 271.4 225.627C275.2 226.327 280.7 227.427 287.8 229.127C294.9 230.827 303.5 233.227 313.2 236.827C318 238.627 323.2 240.827 328.4 243.527C331 244.927 333.6 246.427 336.2 248.127C338.8 249.827 341.3 251.827 343.6 254.227C344.8 255.427 345.8 256.727 346.7 258.127C347.6 259.527 348.4 261.027 348.9 262.727C349.4 264.427 349.5 266.127 349.3 267.927L349.2 268.627C349.2 268.827 349.1 269.027 349.1 269.227L348.8 270.527C348.7 270.927 348.5 271.327 348.4 271.827L347.9 273.027C346.4 276.327 344 279.127 341.2 281.627C338.4 284.127 335.3 286.227 332 288.227C325.3 292.027 318 295.127 310.2 297.727C302.4 300.327 294.3 302.527 285.9 304.327C269 307.927 251 310.227 232.3 311.327C213.6 312.427 194.1 312.427 174.2 311.127C154.4 309.727 135 307.127 116.8 302.627C107.7 300.427 98.8 297.727 90.5 294.327C82.2 290.827 74.2 286.727 67.8 280.827C64.7 277.827 62 274.327 61 270.127C60.4 268.027 60.5 265.927 60.7 263.827L61.1 262.327C61.2 262.027 61.2 261.827 61.3 261.527L61.6 260.827L62.2 259.427C62.4 258.927 62.7 258.527 63 258.027C65.1 254.427 68 251.527 71.2 249.127C74.3 246.727 77.7 244.627 81.1 242.827C87.9 239.227 94.9 236.627 101.6 234.427C108.4 232.227 115 230.527 121.4 229.027C127.8 227.627 133.9 226.427 139.7 225.527C145.5 224.527 151 223.927 156.1 223.327C166.4 222.227 175.3 221.527 182.6 221.227C189.9 220.927 195.5 220.827 199.4 220.727C201.3 220.727 202.8 220.727 203.8 220.727C204.5 220.427 205 220.427 205 220.427Z" fill="#E8505B"/>
<path d="M123.3 144.627C123.3 144.627 122.7 144.727 121.6 144.927C120.5 145.127 118.8 145.427 116.7 145.927C112.4 146.827 106 148.227 97.9 150.427C89.8 152.727 79.9 155.727 69 160.627C66.3 161.827 63.5 163.227 60.7 164.827C57.9 166.427 55.1 168.127 52.4 170.127C49.7 172.127 47 174.427 44.7 177.127C42.4 179.827 40.4 183.027 39.5 186.627C38.5 190.227 38.8 194.227 40.3 197.827C41.8 201.427 44.3 204.727 47.2 207.527C53.1 213.227 60.6 217.527 68.6 221.227C84.7 228.527 103.1 233.427 122.6 237.127C142.2 240.727 163 243.027 184.6 243.927C206.2 244.927 228.7 244.627 251.5 242.727C274.4 240.827 296.6 237.427 317.6 231.927C328.1 229.127 338.2 225.827 347.7 221.627C352.4 219.527 357 217.127 361.3 214.327C365.6 211.527 369.5 208.427 372.8 204.627C376 200.927 378.3 196.327 378.5 191.527C378.6 190.927 378.5 190.327 378.4 189.727C378.3 189.127 378.4 188.527 378.2 187.927L377.8 186.227C377.7 185.627 377.4 185.127 377.2 184.527C376.4 182.327 375.1 180.327 373.8 178.427C370.9 174.727 367.4 171.727 363.7 169.027C360 166.427 356 164.227 352.1 162.227C344.2 158.327 336.1 155.327 328.3 152.927C320.5 150.427 312.8 148.527 305.5 146.927C276.1 140.627 251.7 138.827 234.9 137.927C226.5 137.527 220 137.427 215.5 137.327C213.3 137.327 211.6 137.227 210.5 137.227C209.4 137.227 208.8 137.127 208.8 137.127C208.8 137.127 209.4 137.127 210.5 137.127C211.6 137.127 213.3 137.127 215.5 137.227C219.9 137.327 226.5 137.327 234.9 137.727C251.7 138.627 276.1 140.227 305.6 146.527C313 148.127 320.6 150.027 328.5 152.527C336.3 154.927 344.4 157.927 352.4 161.827C356.4 163.827 360.3 166.027 364.1 168.627C367.8 171.227 371.4 174.327 374.4 178.127C375.8 180.027 377.1 182.127 377.9 184.327C378.1 184.927 378.4 185.427 378.5 186.027L378.9 187.827C379.1 188.427 379 189.027 379.1 189.627C379.1 190.227 379.2 190.827 379.2 191.427C379.1 193.927 378.5 196.327 377.5 198.627C376.5 200.927 375.1 203.027 373.5 204.927C370.3 208.727 366.2 211.927 361.9 214.727C357.6 217.527 353 219.827 348.2 222.027C338.7 226.327 328.5 229.627 318 232.427C297 237.927 274.8 241.327 251.9 243.227C229 245.127 206.5 245.327 184.9 244.427C163.3 243.427 142.4 241.227 122.9 237.527C103.4 233.827 84.9 228.927 68.8 221.527C60.8 217.827 53.2 213.527 47.3 207.727C44.3 204.827 41.8 201.627 40.3 197.927C38.8 194.227 38.5 190.127 39.5 186.527C40.4 182.827 42.5 179.627 44.8 176.927C47.1 174.127 49.8 171.927 52.5 169.827C55.2 167.827 58 166.027 60.8 164.527C63.6 162.927 66.4 161.627 69.1 160.327C80 155.427 89.9 152.427 98 150.227C106.1 148.027 112.5 146.727 116.9 145.827C121 145.027 123.3 144.627 123.3 144.627Z" fill="#E8505B"/>
<path d="M158.3 295.527C158 295.627 156.5 295.827 153.3 296.327C150 296.827 145.2 297.727 139.1 299.027C133 300.427 125.5 302.227 117.1 305.227C112.9 306.727 108.5 308.527 104 310.927C101.8 312.127 99.5001 313.427 97.4001 315.027C95.2001 316.627 93.1001 318.327 91.3001 320.427C90.4001 321.527 89.6001 322.627 88.9001 323.927C88.2001 325.127 87.7001 326.527 87.4001 327.927C87.3001 328.327 87.3001 328.627 87.2001 329.027L87.1001 330.127C87.1001 330.827 87.2001 331.627 87.3001 332.327C87.5001 333.027 87.6001 333.827 87.9001 334.527L88.3001 335.627L88.5001 336.127L88.8001 336.627C90.2001 339.327 92.4001 341.627 94.8001 343.727C97.2001 345.827 100 347.527 102.9 349.127C108.7 352.327 115.1 354.827 121.8 357.027C128.5 359.227 135.5 360.927 142.8 362.427C157.4 365.327 172.9 367.127 189.1 367.927C205.3 368.727 222 368.527 239.1 367.027C256.2 365.527 272.8 362.927 288.4 358.527C296.2 356.327 303.7 353.627 310.6 350.027C314 348.227 317.3 346.227 320.3 343.827C321.1 343.227 321.7 342.527 322.4 341.927C323.1 341.327 323.7 340.527 324.3 339.827C325.4 338.327 326.5 336.827 327.1 335.027C328.6 331.627 328.2 327.727 326.7 324.527C325.1 321.327 322.5 318.727 319.8 316.527C314.3 312.127 308 309.227 301.9 306.727C295.8 304.327 289.6 302.427 283.7 300.927C277.8 299.427 272 298.227 266.5 297.227C244.3 293.327 226.1 292.627 213.5 292.427C201 292.327 194.7 292.327 194 292.327C194 292.327 201 292.227 213.5 292.327C226.1 292.527 244.3 293.227 266.5 297.127C272 298.127 277.8 299.327 283.8 300.827C289.7 302.327 295.9 304.227 302 306.627C308.1 309.127 314.4 312.027 320 316.427C322.7 318.627 325.3 321.227 327 324.527C328.6 327.827 329 331.827 327.5 335.327C326.9 337.127 325.8 338.627 324.6 340.127C324 340.827 323.4 341.527 322.7 342.227C322 342.827 321.3 343.527 320.6 344.127C317.7 346.527 314.3 348.627 310.9 350.427C304 354.027 296.4 356.627 288.7 358.927C273.1 363.327 256.5 365.927 239.4 367.427C222.3 368.927 205.5 369.027 189.3 368.327C173.1 367.527 157.6 365.727 143 362.727C135.7 361.227 128.7 359.527 122 357.327C115.3 355.127 108.9 352.627 103.1 349.427C100.2 347.827 97.4001 346.027 95.0001 344.027C92.6001 341.927 90.4001 339.627 88.9001 336.827L88.6001 336.327L88.4001 335.827L88.0001 334.727C87.7001 334.027 87.6001 333.227 87.4001 332.527C87.3001 331.727 87.2001 331.027 87.2001 330.227L87.3001 329.127C87.3001 328.727 87.4001 328.427 87.5001 328.027C87.8001 326.527 88.3001 325.227 89.0001 323.927C89.7001 322.627 90.5001 321.527 91.4001 320.427C93.3001 318.327 95.4001 316.527 97.6001 314.927C99.8001 313.327 102 312.027 104.3 310.827C108.8 308.427 113.2 306.627 117.4 305.127C125.8 302.127 133.3 300.327 139.5 298.927C145.6 297.627 150.5 296.827 153.7 296.327C156.6 295.727 158.3 295.527 158.3 295.527Z" fill="#E8505B"/>
<path d="M288.9 387.027C288.8 387.027 289 385.627 288.1 383.427C287.2 381.127 284.7 378.327 280.8 375.727C272.9 370.527 259.8 366.227 243.3 363.527C235 362.227 225.9 361.227 216 360.827C206.1 360.427 195.6 360.527 184.5 361.427C179 361.827 173.3 362.527 167.6 363.427C161.9 364.327 156 365.527 150.2 367.127C147.3 367.927 144.4 368.827 141.5 369.827C138.6 370.927 135.8 372.127 133 373.527C130.3 375.027 127.6 376.727 125.3 378.827C123 380.927 121.2 383.827 121.1 387.027C121.1 390.227 123 393.127 125.3 395.227C127.6 397.427 130.2 399.127 133 400.527C135.8 401.927 138.6 403.127 141.5 404.227C144.4 405.327 147.3 406.227 150.2 406.927C156 408.527 161.8 409.627 167.6 410.627C173.3 411.527 179 412.127 184.5 412.627C195.6 413.527 206.1 413.627 216 413.227C225.9 412.827 235 411.927 243.3 410.527C259.8 407.827 273 403.527 280.8 398.327C284.7 395.727 287.2 392.927 288.1 390.627C289 388.327 288.8 386.927 288.9 387.027C288.9 387.227 288.9 387.427 288.8 388.027C288.8 388.327 288.7 388.727 288.6 389.227C288.5 389.727 288.3 390.227 288.1 390.727C287.2 393.027 284.7 395.927 280.8 398.527C272.9 403.727 259.8 408.127 243.3 410.727C235 412.127 225.9 413.027 216 413.427C206.1 413.827 195.6 413.727 184.5 412.827C179 412.427 173.3 411.727 167.6 410.827C161.9 409.927 156 408.727 150.2 407.127C147.3 406.327 144.4 405.427 141.5 404.327C138.6 403.227 135.8 402.027 133 400.627C130.2 399.127 127.6 397.427 125.3 395.227C124.2 394.127 123.1 392.927 122.4 391.527C121.6 390.127 121.1 388.527 121.1 386.927C121.1 385.327 121.6 383.727 122.4 382.327C123.2 380.927 124.2 379.727 125.4 378.627C127.7 376.427 130.4 374.727 133.1 373.227C135.9 371.727 138.7 370.527 141.6 369.527C144.5 368.427 147.4 367.527 150.3 366.727C156.1 365.127 162 364.027 167.7 363.027C173.4 362.127 179.1 361.527 184.6 361.027C195.7 360.127 206.2 360.027 216.1 360.427C226 360.827 235.1 361.727 243.4 363.127C259.9 365.827 273.1 370.127 280.9 375.327C284.8 377.927 287.3 380.827 288.2 383.127C288.4 383.727 288.6 384.227 288.7 384.627C288.8 385.127 288.9 385.427 288.9 385.827C288.9 386.627 288.9 386.827 288.9 387.027Z" fill="#E8505B"/>
<path d="M68.0001 231.927C68.0001 233.727 66.6001 235.127 64.8001 235.127C63.0001 235.127 61.6001 233.727 61.6001 231.927C61.6001 230.127 63.0001 228.727 64.8001 228.727C66.6001 228.727 68.0001 230.127 68.0001 231.927Z" fill="#E8505B"/>
<path d="M353.5 237.227C355.267 237.227 356.7 235.794 356.7 234.027C356.7 232.26 355.267 230.827 353.5 230.827C351.733 230.827 350.3 232.26 350.3 234.027C350.3 235.794 351.733 237.227 353.5 237.227Z" fill="#E8505B"/>
<path d="M226.5 351.727C226.5 353.527 225.1 354.927 223.3 354.927C221.5 354.927 220.1 353.527 220.1 351.727C220.1 349.927 221.5 348.527 223.3 348.527C225.1 348.527 226.5 349.927 226.5 351.727Z" fill="#E8505B"/>
<path d="M129.5 269.627C129.5 270.527 128.8 271.227 127.9 271.227C127 271.227 126.3 270.527 126.3 269.627C126.3 268.727 127 268.027 127.9 268.027C128.8 268.027 129.5 268.727 129.5 269.627Z" fill="#E8505B"/>
<path d="M328.1 308.327C328.1 309.227 327.4 309.927 326.5 309.927C325.6 309.927 324.9 309.227 324.9 308.327C324.9 307.427 325.6 306.727 326.5 306.727C327.4 306.727 328.1 307.427 328.1 308.327Z" fill="#E8505B"/>
<path d="M202 382.127C202 383.027 201.3 383.727 200.4 383.727C199.5 383.727 198.8 383.027 198.8 382.127C198.8 381.227 199.5 380.527 200.4 380.527C201.3 380.527 202 381.327 202 382.127Z" fill="#E8505B"/>
<path d="M118.7 103.527C119.142 103.527 119.5 103.169 119.5 102.727C119.5 102.285 119.142 101.927 118.7 101.927C118.258 101.927 117.9 102.285 117.9 102.727C117.9 103.169 118.258 103.527 118.7 103.527Z" fill="#E8505B"/>
<path d="M262.6 225.527C223.8 235.827 186.5 235.027 145.7 225.527L140.9 151.027C183 159.227 225.2 158.227 262.5 149.227V225.527H262.6Z" fill="#E8505B"/>
<g opacity="0.8">
<g opacity="0.8">
<path opacity="0.8" d="M262.6 225.527C223.8 235.827 186.5 235.027 145.7 225.527L140.9 151.027C183 159.227 225.2 158.227 262.5 149.227V225.527H262.6Z" fill="white"/>
</g>
</g>
<path d="M256.6 214.127C256.6 214.127 256.5 214.127 256.4 214.227C256.2 214.327 256 214.427 255.7 214.527C255.1 214.827 254.1 215.227 252.9 215.627C250.4 216.527 246.8 217.827 242.2 219.027C233 221.427 219.9 223.427 205.4 223.227C190.9 223.027 177.9 221.027 168.5 219.327C163.8 218.427 160.1 217.627 157.5 217.027C156.2 216.727 155.2 216.527 154.5 216.327C154.2 216.227 153.9 216.227 153.7 216.127C153.5 216.127 153.4 216.027 153.4 216.027C153.4 216.027 153.5 216.027 153.7 216.027C153.9 216.027 154.2 216.127 154.5 216.127C155.2 216.227 156.2 216.527 157.5 216.727C160.1 217.227 163.9 218.027 168.5 218.827C177.8 220.527 190.8 222.427 205.3 222.627C219.8 222.827 232.8 220.927 242 218.627C246.6 217.427 250.3 216.327 252.8 215.427C254.1 215.027 255 214.627 255.7 214.427C256 214.327 256.3 214.227 256.5 214.127C256.5 214.227 256.6 214.127 256.6 214.127Z" fill="#E8505B"/>
<path d="M199.7 217.227C194.8 218.627 189.8 218.327 184.8 216.727V190.227C189.8 189.227 194.8 189.227 199.7 190.227V217.227Z" fill="#E8505B"/>
<path d="M223.8 215.627C223.8 215.627 223.8 215.527 223.8 215.427C223.8 215.227 223.8 215.127 223.8 214.827C223.8 214.327 223.8 213.527 223.7 212.627C223.7 210.627 223.6 207.927 223.5 204.427C223.4 197.427 223.2 187.527 223.1 176.127L223.3 176.327C218.5 175.327 213.2 175.327 207.9 176.327L208.1 176.027C208.1 176.227 208.1 176.327 208.1 176.527C208.3 192.227 208.4 206.327 208.5 216.427L208.4 216.227C210.8 216.727 213 217.027 214.9 217.027C216.8 217.027 218.5 216.827 219.8 216.627C221.1 216.327 222.1 216.027 222.8 215.827C223.1 215.727 223.4 215.627 223.6 215.527C223.7 215.627 223.8 215.627 223.8 215.627C223.8 215.627 223.7 215.627 223.6 215.727C223.4 215.827 223.2 215.927 222.8 216.027C222.1 216.227 221.1 216.627 219.8 216.927C218.5 217.227 216.8 217.427 214.8 217.427C212.9 217.427 210.6 217.227 208.2 216.727H208.1V216.627C208 206.527 207.8 192.427 207.5 176.727C207.5 176.527 207.5 176.327 207.5 176.227V176.027H207.7C213.1 175.027 218.5 175.027 223.3 176.027H223.5V176.227C223.6 187.727 223.7 197.527 223.7 204.627C223.7 208.127 223.7 210.827 223.7 212.827C223.7 213.727 223.7 214.427 223.7 215.027C223.7 215.227 223.7 215.427 223.7 215.627C223.8 215.527 223.8 215.627 223.8 215.627Z" fill="#E8505B"/>
<path d="M246.7 212.527C242.7 214.727 237.4 215.027 231.8 214.627V170.827C236.9 169.727 241.9 169.527 246.7 170.827V212.527Z" fill="#E8505B"/>
<path d="M176 215.027C176 215.027 176 214.627 175.9 213.927C175.9 213.127 175.9 212.127 175.8 210.827C175.8 208.127 175.7 204.427 175.7 200.127L175.8 200.327C171.8 198.827 166.8 197.427 161.4 197.927L161.6 197.627C161.6 203.127 161.6 208.227 161.6 212.527L161.5 212.327C163.5 213.227 165.5 213.627 167.3 213.927C169.1 214.227 170.6 214.427 171.9 214.527C173.1 214.627 174.1 214.727 174.9 214.827C175.6 215.027 176 215.027 176 215.027C176 215.027 175.7 215.027 174.9 215.027C174.2 215.027 173.2 215.027 171.9 214.927C170.6 214.827 169 214.727 167.3 214.427C165.5 214.127 163.5 213.727 161.4 212.827L161.3 212.727V212.527C161.3 208.127 161.3 203.027 161.3 197.627V197.427H161.5C167 196.927 172.1 198.427 176.1 199.927L176.2 200.027V200.227C176.2 204.727 176.1 208.427 176.1 211.127C176.1 212.327 176.1 213.427 176 214.127C176 214.727 176 215.027 176 215.027Z" fill="#E8505B"/>
<path d="M183 176.327C183 176.427 181.9 176.527 180.1 176.527C178.3 176.527 175.8 176.527 173 176.327C170.2 176.127 167.8 175.927 166 175.627C164.2 175.427 163.1 175.127 163.1 175.127C163.1 175.027 164.2 175.127 166 175.327C167.8 175.427 170.3 175.627 173 175.827C175.7 176.027 178.2 176.127 180 176.127C181.9 176.227 183 176.227 183 176.327Z" fill="#E8505B"/>
<path d="M180.8 179.527C180.8 179.627 179.8 179.627 178.2 179.527C176.6 179.427 174.4 179.327 172 179.127C169.6 178.927 167.4 178.727 165.8 178.627C164.2 178.427 163.3 178.327 163.3 178.227C163.3 178.127 164.3 178.127 165.9 178.227C167.5 178.327 169.7 178.427 172.1 178.627C174.5 178.827 176.7 179.027 178.3 179.127C179.8 179.327 180.8 179.527 180.8 179.527Z" fill="#E8505B"/>
<path d="M186.2 183.827C186.2 183.827 186.2 183.527 186.2 182.927C186.2 182.327 186.3 181.427 186.3 180.327C186.4 178.027 186.6 174.927 186.7 171.027L186.9 171.227C179.7 171.327 169.9 171.027 159.3 169.727C159 169.927 159.7 169.427 159.6 169.527V169.627V169.727V169.927V170.327V171.127C159.6 171.727 159.5 172.227 159.5 172.827C159.4 173.927 159.4 175.027 159.3 176.127C159.2 178.227 159 180.327 158.9 182.327L158.7 182.027C166.7 183.027 173.6 183.427 178.5 183.627C180.9 183.727 182.8 183.727 184.2 183.827C184.8 183.827 185.3 183.827 185.7 183.827C186 183.827 186.2 183.827 186.2 183.827C186.2 183.827 186 183.827 185.7 183.827C185.4 183.827 184.8 183.827 184.1 183.827C182.8 183.827 180.8 183.827 178.4 183.827C173.5 183.727 166.6 183.327 158.6 182.427H158.4V182.227C158.5 180.227 158.6 178.127 158.8 176.027C158.9 174.927 158.9 173.827 159 172.727C159 172.127 159.1 171.627 159.1 171.027V170.227V169.827V169.627V169.527V169.427C159 169.527 159.7 168.927 159.4 169.227C170 170.527 179.8 170.927 187 170.927H187.2V171.127C186.9 175.027 186.7 178.327 186.6 180.527C186.5 181.627 186.5 182.427 186.4 183.027C186.3 183.527 186.2 183.827 186.2 183.827Z" fill="#E8505B"/>
<path d="M189.6 189.427C189.5 189.527 188.6 188.327 187.7 186.727C186.7 185.227 186.1 183.827 186.2 183.827C186.3 183.727 187.2 184.927 188.1 186.527C189.1 188.027 189.8 189.427 189.6 189.427Z" fill="#E8505B"/>
<path d="M27.6001 92.5271L40.3001 169.227C40.3001 169.227 59.6001 205.427 111 213.627L102.7 145.227C102.8 145.127 55.2001 130.427 27.6001 92.5271Z" fill="#E8505B"/>
<g opacity="0.8">
<g opacity="0.8">
<path opacity="0.8" d="M27.6001 92.5271L40.3001 169.227C40.3001 169.227 59.6001 205.427 111 213.627L102.7 145.227C102.8 145.127 55.2001 130.427 27.6001 92.5271Z" fill="white"/>
</g>
</g>
<path d="M104.4 208.127C104.4 208.127 104.3 208.127 104.1 208.027C103.9 207.927 103.5 207.827 103.2 207.727C102.3 207.427 101.1 207.127 99.6001 206.627C98.0001 206.127 96.1 205.627 93.9 204.727C92.8 204.327 91.6 203.827 90.4 203.427C89.2 202.927 87.8 202.427 86.5 201.827C83.8 200.627 80.9 199.327 77.8 197.627C74.7001 196.027 71.6 194.127 68.3 192.027C61.8 187.727 55.1 182.227 49.2 175.427C46.6 172.327 44.2 169.227 42.3 165.827C40 150.927 38 137.727 36.5 128.327C35.8 123.627 35.2 119.927 34.8 117.227C34.6 115.927 34.5 114.927 34.4 114.227C34.4 113.927 34.3 113.627 34.3 113.427C34.3 113.227 34.3 113.127 34.3 113.127C34.3 113.127 34.3 113.227 34.4 113.427C34.4 113.627 34.5 113.827 34.5 114.227C34.6 114.927 34.8 115.927 35 117.227C35.4 119.827 36 123.627 36.8 128.227C38.3 137.627 40.4 150.727 42.8 165.727V165.627C44.6 168.927 47 172.127 49.6 175.127C55.5 181.827 62.1 187.327 68.6 191.627C71.9 193.727 75 195.727 78.1 197.227C81.1 198.927 84.1 200.227 86.7 201.427C88 202.027 89.3001 202.627 90.6001 203.027C91.8001 203.527 93.0001 203.927 94.1001 204.427C96.3001 205.327 98.2 205.927 99.7 206.427C101.2 206.927 102.4 207.327 103.3 207.627C103.7 207.727 104 207.827 104.2 207.927C104.3 208.027 104.4 208.127 104.4 208.127Z" fill="#E8505B"/>
<path d="M99.9001 185.827C99.9001 185.827 99.8001 185.927 99.7001 186.027C99.6001 186.127 99.4001 186.327 99.2001 186.427C98.7001 186.827 98.0001 187.427 97.1001 188.127C95.2001 189.627 92.5001 191.727 89.0001 194.327L88.9001 194.427L88.8001 194.327C86.1001 190.527 82.7001 185.927 78.9001 180.627L79.2001 180.727C76.8001 182.427 74.3001 184.227 71.6001 186.127L71.3001 186.327L71.2001 186.027C68.2001 178.027 64.9001 169.027 61.4001 159.527C60.9001 158.227 60.5001 156.927 60.0001 155.727H60.5001C58.4001 159.927 56.3001 164.027 54.3001 167.927L54.0001 168.427L53.8001 167.827C48.4001 152.327 43.9001 139.227 40.9001 130.727H41.2001C40.4001 134.127 39.8001 136.827 39.3001 138.727C39.1001 139.627 38.9001 140.327 38.8001 140.827C38.7001 141.027 38.7001 141.227 38.7001 141.327C38.7001 141.427 38.6001 141.527 38.6001 141.527C38.6001 141.527 38.6001 141.427 38.6001 141.327C38.6001 141.227 38.7001 141.027 38.7001 140.827C38.8001 140.327 39.0001 139.627 39.1001 138.727C39.5001 136.827 40.1001 134.127 40.9001 130.727L41.0001 130.227L41.2001 130.727C44.2001 139.227 48.8001 152.327 54.3001 167.827H53.8001C55.8001 163.927 57.8001 159.827 60.0001 155.627L60.3001 155.127L60.5001 155.727C61.0001 157.027 61.4001 158.227 61.9001 159.527C65.4001 169.027 68.7001 178.027 71.6001 186.027L71.2001 185.927C73.9001 184.027 76.4001 182.227 78.8001 180.527L79.0001 180.427L79.1001 180.627C82.9001 185.927 86.2001 190.627 88.9001 194.327H88.7001C92.2001 191.727 94.9001 189.727 96.9001 188.227C97.8001 187.527 98.6001 187.027 99.1001 186.627C99.3001 186.427 99.5001 186.327 99.7001 186.227C99.8001 185.927 99.9001 185.827 99.9001 185.827Z" fill="#E8505B"/>
<path d="M98.1001 149.027C98.1001 149.027 97.7001 148.927 97.0001 148.827C96.3001 148.627 95.3001 148.327 94.1001 147.927C91.7001 147.127 88.4001 145.927 84.9001 144.327C81.4001 142.727 78.3001 141.027 76.1001 139.827C75.0001 139.227 74.1001 138.627 73.5001 138.227C72.9001 137.827 72.6001 137.627 72.6001 137.627C72.6001 137.627 73.0001 137.727 73.6001 138.127C74.3001 138.527 75.2001 139.027 76.2001 139.527C78.4001 140.727 81.5001 142.327 85.1001 143.927C88.6001 145.527 91.9001 146.827 94.2001 147.627C95.3001 148.027 96.2001 148.427 97.0001 148.627C97.8001 148.927 98.2001 149.027 98.1001 149.027Z" fill="#E8505B"/>
<path d="M100.2 152.227C100.2 152.327 99.2001 152.127 97.7001 151.827C96.2001 151.427 94.1001 150.927 91.9001 150.127C89.7001 149.327 87.7001 148.427 86.3001 147.827C84.9001 147.127 84.1001 146.627 84.1001 146.627C84.1001 146.527 85.0001 146.927 86.4001 147.527C87.8001 148.127 89.8001 148.927 92.0001 149.727C94.2001 150.527 96.3001 151.127 97.7001 151.627C99.3001 151.927 100.2 152.227 100.2 152.227Z" fill="#E8505B"/>
<path d="M79.9001 180.627C79.9001 181.227 79.5001 181.727 79.0001 181.727C78.5001 181.727 78.1001 181.227 78.1001 180.627C78.1001 180.027 78.5001 179.527 79.0001 179.527C79.5001 179.527 79.9001 180.027 79.9001 180.627Z" fill="#E8505B"/>
<path d="M60.3001 157.527C60.7972 157.527 61.2001 157.035 61.2001 156.427C61.2001 155.82 60.7972 155.327 60.3001 155.327C59.8031 155.327 59.4001 155.82 59.4001 156.427C59.4001 157.035 59.8031 157.527 60.3001 157.527Z" fill="#E8505B"/>
<path d="M42.1 131.127C42.1 131.727 41.7 132.227 41.2 132.227C40.7 132.227 40.3 131.727 40.3 131.127C40.3 130.527 40.7 130.027 41.2 130.027C41.7 130.027 42.1 130.427 42.1 131.127Z" fill="#E8505B"/>
<path d="M363 106.127L356.6 184.027C356.6 184.027 338.1 217.327 287 218.627L293.3 140.227C293.3 140.227 337.9 138.427 363 106.127Z" fill="#E8505B"/>
<path d="M362 102.127C360.3 96.7271 356.3 89.0271 346.7 87.4271L335.3 192.227C335.3 192.227 356.6 187.927 357.2 176.327C357.2 175.327 361.5 123.227 362.6 110.327C362.9 107.427 362.9 104.827 362 102.127Z" fill="#E8505B"/>
<g opacity="0.8">
<g opacity="0.8">
<path opacity="0.8" d="M363 106.127L356.6 184.027C356.6 184.027 338.1 217.327 287 218.627L293.3 140.227C293.3 140.227 337.9 138.427 363 106.127Z" fill="white"/>
</g>
</g>
<path d="M361.5 126.027C356.4 133.427 353.5 142.227 353.4 151.227C353.3 153.827 353.5 156.527 352.5 158.927C351.5 161.327 349 163.327 346.5 162.627C343.9 161.927 342.7 158.827 340.4 157.427C338.4 156.127 335.6 156.327 333.6 157.527C331.5 158.727 330.1 160.827 329.1 163.027C327.2 167.327 327.1 172.127 325.8 176.527C324.4 181.027 321.1 185.427 316.4 185.627C314.7 185.727 313 185.227 311.3 185.227C307.7 185.327 304.6 188.027 302.9 191.227C301.2 194.427 300.7 198.027 300.2 201.627C300.2 201.627 327.4 204.227 358 168.127L361.5 126.027Z" fill="#E8505B"/>
<path d="M318.2 173.327C318.2 174.327 317.7 175.027 317.1 175.027C316.5 175.027 316 174.227 316 173.327C316 172.427 316.5 171.627 317.1 171.627C317.7 171.527 318.2 172.327 318.2 173.327Z" fill="#E8505B"/>
<path d="M331 140.927C331 141.927 330.5 142.627 329.9 142.627C329.3 142.627 328.8 141.827 328.8 140.927C328.8 140.027 329.3 139.227 329.9 139.227C330.5 139.227 331 139.927 331 140.927Z" fill="#E8505B"/>
<path d="M360.8 129.827C360.8 129.827 360.8 130.027 360.6 130.227C360.5 130.527 360.3 130.927 360 131.527C359.5 132.627 358.7 134.227 357.8 136.327C355.8 140.427 353 146.227 349.7 153.227L349.6 153.427L349.4 153.327C343.7 149.727 337.2 145.627 330.1 141.127L330.5 141.027C330.2 141.627 330 142.327 329.7 143.027C324.9 154.727 320.6 165.327 317.3 173.427L317.2 173.627L317 173.527C312.2 170.827 308.3 168.627 305.6 167.227C304.2 166.527 303.2 165.927 302.4 165.527C302.1 165.327 301.8 165.227 301.6 165.127C301.4 165.027 301.3 165.027 301.3 165.027C301.3 164.927 302.9 165.627 305.7 167.027C308.5 168.427 312.4 170.527 317.2 173.227L316.9 173.327C320.2 165.227 324.5 154.527 329.2 142.827C329.5 142.127 329.7 141.527 330 140.827L330.1 140.527L330.4 140.727C337.4 145.227 344 149.327 349.6 152.927L349.3 153.027C352.7 146.127 355.6 140.327 357.6 136.227C358.6 134.227 359.4 132.627 360 131.527C360.3 131.027 360.5 130.627 360.6 130.327C360.7 129.927 360.8 129.827 360.8 129.827Z" fill="#E8505B"/>
</g>
<defs>
<clipPath id="clip0_82_11192">
<rect width="417" height="414" fill="white" transform="translate(0 0.5271)"/>
</clipPath>
</defs>
</svg>
