<svg width="52" height="71" viewBox="0 0 52 71" fill="none" xmlns="http://www.w3.org/2000/svg">
<path d="M43.5525 1.66109C46.0971 4.56768 47.006 8.74591 46.6424 12.5608C46.2789 16.3757 44.643 20.009 42.4619 23.4605C38.4631 29.8187 31.3745 34.9053 24.6493 38.1752C21.3776 30.5454 24.104 21.2806 25.9216 16.5574C28.8298 9.47258 38.2814 -2.15382 43.5525 1.66109Z" fill="#E8505B"/>
<path d="M26.1033 52.7082C27.0121 48.53 30.6473 45.0784 34.8278 43.8068C39.0083 42.5352 43.5523 43.4435 47.3693 45.6234C49.1869 46.7134 50.8228 48.1667 51.1863 50.165C51.5498 51.9816 50.4592 53.9799 49.0051 55.0699C47.5511 56.1599 45.5517 56.7048 43.7341 56.8865C37.1907 57.4315 30.8291 56.8865 26.1033 52.7082Z" fill="#E8505B"/>
<path d="M8.83618 69.7844C8.83618 69.7844 9.1997 69.2394 9.74498 68.5128C10.472 67.6045 11.1991 66.5145 12.2896 65.0612C14.4708 62.1546 17.379 58.158 21.923 54.8881C26.467 51.6182 31.3745 50.1649 34.828 49.8016C36.6456 49.6199 38.0997 49.8016 39.0085 49.9832C39.5537 49.9832 39.9173 50.1649 40.099 50.1649C40.2808 50.1649 40.4625 50.3466 40.4625 50.3466C40.4625 50.5282 38.2814 49.8016 34.6462 50.1649C31.1928 50.5282 26.2852 52.1632 21.923 55.2514C17.5607 58.3397 14.4708 62.3362 12.2896 65.2428C11.1991 66.6961 10.2903 67.7861 9.74498 68.5128C9.1997 69.4211 8.83618 69.7844 8.83618 69.7844Z" fill="white"/>
<path d="M37.1908 11.1074C37.1908 11.1074 37.1908 11.2891 37.009 11.8341C36.8273 12.379 36.6455 12.924 36.282 13.6507C35.5549 15.2856 34.6461 17.4656 33.3738 20.1905C31.0109 25.6404 27.5575 33.2702 23.5587 41.445C19.56 49.6198 15.743 57.0679 13.0166 62.3361C11.5625 65.061 10.4719 67.0593 9.56307 68.5126C9.19954 69.2392 8.83602 69.7842 8.65426 70.1475C8.4725 70.5109 8.29077 70.6925 8.29077 70.6925C8.29077 70.6925 8.29078 70.5109 8.47254 70.1475C8.65431 69.7842 9.01783 69.0576 9.38135 68.3309C10.1084 66.696 11.1989 64.6977 12.653 61.9728C15.3794 56.7046 19.1964 49.2564 23.1952 40.9C27.1939 32.7252 30.6474 25.0954 33.192 19.6456C34.4644 16.9206 35.3732 14.7407 36.1002 13.1057C36.4637 12.3791 36.6455 11.8341 37.009 11.2891C37.1908 11.2891 37.1908 11.1074 37.1908 11.1074Z" fill="white"/>
<path d="M14.2889 51.9814C16.8335 43.2616 15.0159 33.0886 9.19958 26.0038C7.74549 24.1871 5.56433 22.3705 3.3832 23.0972C1.20206 23.8238 0.293279 26.5488 0.111518 28.7287C-0.615526 38.3568 5.20084 48.3482 13.9254 52.3448" fill="#E8505B"/>
<path d="M7.01837 32.907C7.01837 32.907 7.38189 33.2703 7.92717 33.997C8.29069 34.3603 8.65422 34.7236 9.01775 35.4502C9.38127 35.9952 9.92657 36.5402 10.2901 37.4485C10.6536 38.1752 11.1989 38.9018 11.5624 39.8101C11.9259 40.7184 12.2894 41.6267 12.8347 42.7167C13.5618 44.8967 14.107 47.2582 14.2888 49.8015C14.4705 52.3448 14.4705 54.888 14.107 57.068C13.9253 58.158 13.7435 59.2479 13.38 60.1563C13.1982 61.0646 12.8347 61.9729 12.4712 62.6995C12.2894 63.4262 11.9259 64.1528 11.5624 64.8795C11.3806 65.4245 11.0171 65.9694 10.8353 66.3327C10.2901 67.0594 10.1083 67.6044 10.1083 67.6044C9.92656 67.6044 11.0171 65.7878 12.1077 62.6995C12.2895 61.9729 12.653 61.0646 12.8347 60.1563C13.0165 59.2479 13.1982 58.158 13.38 57.068C13.7435 54.888 13.7435 52.5264 13.5618 49.9832C13.38 47.4399 12.8347 45.0783 12.1077 43.0801C11.7442 41.9901 11.3806 41.0818 11.0171 40.1735C10.6536 39.2651 10.2901 38.5385 9.74478 37.8119C8.29069 34.542 6.83661 32.907 7.01837 32.907Z" fill="white"/>
</svg>
