<svg width="99" height="42" viewBox="0 0 99 42" fill="none" xmlns="http://www.w3.org/2000/svg">
<rect x="51.023" y="1.02314" width="47.2154" height="39.6" rx="1.68291" stroke="#E8505B" stroke-width="1.52308"/>
<path d="M7.40825 29.5976C6.20603 29.5976 5.10129 29.3945 4.09403 28.9883C3.10302 28.5822 2.30695 27.973 1.70585 27.1607C1.10474 26.3483 0.787938 25.3655 0.755446 24.212C0.755446 24.0658 0.804185 23.9439 0.901662 23.8464C0.999138 23.7327 1.12098 23.6759 1.2672 23.6759H3.58228C3.93969 23.6759 4.18338 23.8871 4.31335 24.3095C4.42708 25.1543 4.76012 25.7797 5.31249 26.1859C5.88111 26.592 6.60406 26.7951 7.48135 26.7951C8.50486 26.7951 9.28468 26.4621 9.8208 25.796C10.3732 25.1299 10.6494 24.2039 10.6494 23.0179V15.171H2.38818C2.22572 15.171 2.08763 15.1141 1.97391 15.0004C1.86018 14.8867 1.80332 14.7486 1.80332 14.5861V12.8803C1.80332 12.7016 1.86018 12.5635 1.97391 12.466C2.08763 12.3523 2.22572 12.2954 2.38818 12.2954H13.5249C13.7036 12.2954 13.8498 12.3523 13.9636 12.466C14.0773 12.5797 14.1342 12.7259 14.1342 12.9047V23.1154C14.1342 24.4638 13.858 25.6254 13.3056 26.6002C12.7532 27.5749 11.9653 28.3223 10.9418 28.8421C9.93452 29.3458 8.75668 29.5976 7.40825 29.5976ZM24.3532 29.5976C22.1438 29.5976 20.4217 29.0371 19.187 27.9161C17.9523 26.7951 17.3024 25.1299 17.2374 22.9204C17.2212 22.4493 17.2131 21.7588 17.2131 20.849C17.2131 19.923 17.2212 19.2244 17.2374 18.7533C17.3024 16.5925 17.9685 14.9354 19.2357 13.7819C20.5029 12.6285 22.2087 12.0517 24.3532 12.0517C26.4977 12.0517 28.2036 12.6285 29.4708 13.7819C30.7542 14.9354 31.4284 16.5925 31.4934 18.7533C31.5259 19.6955 31.5422 20.3941 31.5422 20.849C31.5422 21.2877 31.5259 21.9781 31.4934 22.9204C31.4122 25.1299 30.7542 26.7951 29.5195 27.9161C28.2848 29.0371 26.5627 29.5976 24.3532 29.5976ZM24.3532 26.7951C25.4417 26.7951 26.3109 26.4702 26.9607 25.8203C27.6106 25.1543 27.9599 24.147 28.0086 22.7986C28.0411 21.8238 28.0574 21.1658 28.0574 20.8247C28.0574 20.451 28.0411 19.793 28.0086 18.8507C27.9599 17.5023 27.6106 16.5032 26.9607 15.8533C26.3109 15.1872 25.4417 14.8542 24.3532 14.8542C23.281 14.8542 22.4199 15.1872 21.7701 15.8533C21.1203 16.5032 20.771 17.5023 20.7222 18.8507C20.706 19.3219 20.6979 19.9799 20.6979 20.8247C20.6979 21.6532 20.706 22.3112 20.7222 22.7986C20.771 24.147 21.1121 25.1543 21.7457 25.8203C22.3956 26.4702 23.2647 26.7951 24.3532 26.7951ZM35.327 29.3539C35.1645 29.3539 35.0265 29.297 34.9127 29.1833C34.799 29.0696 34.7421 28.9315 34.7421 28.769V12.9047C34.7421 12.7259 34.7909 12.5797 34.8884 12.466C35.0021 12.3523 35.1483 12.2954 35.327 12.2954H42.3941C44.2949 12.2954 45.7083 12.7178 46.6343 13.5626C47.5766 14.3912 48.0477 15.5284 48.0477 16.9743C48.0477 17.8191 47.8365 18.5421 47.4141 19.1432C47.008 19.728 46.5287 20.1504 45.9764 20.4104C46.6587 20.7191 47.2273 21.2227 47.6822 21.9213C48.1533 22.6199 48.3889 23.4159 48.3889 24.3095C48.3889 25.8203 47.8772 27.0388 46.8537 27.9648C45.8464 28.8909 44.4249 29.3539 42.589 29.3539H35.327ZM41.9554 19.2894C42.8002 19.2894 43.442 19.0863 43.8806 18.6802C44.3193 18.274 44.5386 17.7298 44.5386 17.0474C44.5386 16.3488 44.3193 15.8127 43.8806 15.4391C43.442 15.0491 42.8002 14.8542 41.9554 14.8542H38.1295V19.2894H41.9554ZM42.1991 26.7707C43.0439 26.7707 43.7019 26.5433 44.173 26.0884C44.6442 25.6173 44.8797 25.0243 44.8797 24.3095C44.8797 23.5784 44.6442 22.9854 44.173 22.5305C43.7019 22.0594 43.0439 21.8238 42.1991 21.8238H38.1295V26.7707H42.1991ZM52.0333 29.3539C51.8708 29.3539 51.7327 29.297 51.619 29.1833C51.5053 29.0696 51.4484 28.9315 51.4484 28.769V12.9047C51.4484 12.7259 51.4971 12.5797 51.5946 12.466C51.7083 12.3523 51.8545 12.2954 52.0333 12.2954H58.5642C60.5137 12.2954 62.049 12.7584 63.17 13.6845C64.291 14.5943 64.8515 15.9346 64.8515 17.7054C64.8515 19.4762 64.291 20.8165 63.17 21.7263C62.0653 22.6199 60.53 23.0666 58.5642 23.0666H54.9332V28.769C54.9332 28.9315 54.8763 29.0696 54.7626 29.1833C54.6651 29.297 54.527 29.3539 54.3483 29.3539H52.0333ZM58.4424 20.3616C59.3846 20.3616 60.1076 20.1423 60.6112 19.7037C61.1149 19.2488 61.3667 18.5827 61.3667 17.7054C61.3667 16.8606 61.123 16.2026 60.6356 15.7315C60.1482 15.2441 59.4171 15.0004 58.4424 15.0004H54.8845V20.3616H58.4424ZM68.097 29.3539C67.9345 29.3539 67.7964 29.297 67.6827 29.1833C67.569 29.0696 67.5121 28.9315 67.5121 28.769V12.9047C67.5121 12.7259 67.5608 12.5797 67.6583 12.466C67.772 12.3523 67.9183 12.2954 68.097 12.2954H74.4086C76.3906 12.2954 77.9421 12.7584 79.0631 13.6845C80.2003 14.6105 80.769 15.9264 80.769 17.6323C80.769 18.8183 80.4765 19.8174 79.8917 20.6297C79.3231 21.4258 78.527 22.0025 77.5035 22.3599L81.0614 28.5741C81.1101 28.6715 81.1345 28.7609 81.1345 28.8421C81.1345 28.9883 81.0776 29.1102 80.9639 29.2077C80.8664 29.3051 80.7527 29.3539 80.6227 29.3539H78.4051C78.1452 29.3539 77.9421 29.297 77.7959 29.1833C77.6659 29.0696 77.5441 28.9071 77.4304 28.6959L74.2867 22.9204H70.8994V28.769C70.8994 28.9315 70.8426 29.0696 70.7288 29.1833C70.6314 29.297 70.4933 29.3539 70.3146 29.3539H68.097ZM74.3355 20.1667C75.3103 20.1667 76.0413 19.9474 76.5287 19.5087C77.0323 19.0701 77.2842 18.4365 77.2842 17.6079C77.2842 16.7794 77.0323 16.1376 76.5287 15.6827C76.0413 15.2279 75.3103 15.0004 74.3355 15.0004H70.8994V20.1667H74.3355ZM90.4167 29.5976C88.2072 29.5976 86.4851 29.0371 85.2504 27.9161C84.0157 26.7951 83.3659 25.1299 83.3009 22.9204C83.2846 22.4493 83.2765 21.7588 83.2765 20.849C83.2765 19.923 83.2846 19.2244 83.3009 18.7533C83.3659 16.5925 84.032 14.9354 85.2992 13.7819C86.5664 12.6285 88.2722 12.0517 90.4167 12.0517C92.5612 12.0517 94.267 12.6285 95.5342 13.7819C96.8177 14.9354 97.4919 16.5925 97.5569 18.7533C97.5894 19.6955 97.6056 20.3941 97.6056 20.849C97.6056 21.2877 97.5894 21.9781 97.5569 22.9204C97.4757 25.1299 96.8177 26.7951 95.583 27.9161C94.3483 29.0371 92.6262 29.5976 90.4167 29.5976ZM90.4167 26.7951C91.5052 26.7951 92.3744 26.4702 93.0242 25.8203C93.6741 25.1543 94.0233 24.147 94.0721 22.7986C94.1046 21.8238 94.1208 21.1658 94.1208 20.8247C94.1208 20.451 94.1046 19.793 94.0721 18.8507C94.0233 17.5023 93.6741 16.5032 93.0242 15.8533C92.3744 15.1872 91.5052 14.8542 90.4167 14.8542C89.3445 14.8542 88.4834 15.1872 87.8336 15.8533C87.1837 16.5032 86.8344 17.5023 86.7857 18.8507C86.7694 19.3219 86.7613 19.9799 86.7613 20.8247C86.7613 21.6532 86.7694 22.3112 86.7857 22.7986C86.8344 24.147 87.1756 25.1543 87.8092 25.8203C88.459 26.4702 89.3282 26.7951 90.4167 26.7951Z" fill="white"/>
</svg>
