<svg width="1280" height="744" viewBox="0 0 1280 744" fill="none" xmlns="http://www.w3.org/2000/svg">
<path d="M1123.8 1.39974C1122.4 1.99974 1120.2 3.69974 1119.1 5.19974C1117.9 6.69974 1115.6 8.09974 1114 8.49974C1111 9.19974 1105 15.2997 1105 17.6997C1105 18.3997 1104.7 18.9997 1104.2 18.9997C1103.8 18.9997 1102.9 21.2997 1102.2 24.1997C1100.7 30.7997 1102.1 31.7997 1112 31.1997L1114.5 31.0997L1112 32.9997C1109.2 35.1997 1107.4 35.4997 1106.4 33.8997C1106.1 33.2997 1104.6 32.9997 1103.1 33.2997C1101.5 33.5997 1099.8 33.1997 1098.8 32.2997C1097.2 30.8997 1096.7 30.8997 1093.3 32.4997C1091.2 33.4997 1088.4 35.2997 1087 36.4997C1085.6 37.6997 1083.2 39.1997 1081.7 39.6997C1080.1 40.1997 1077.2 41.9997 1075.2 43.7997C1073.1 45.5997 1069 49.1997 1066 51.8997C1063 54.5997 1058 57.9997 1055 59.4997C1049.5 62.1997 1033 77.2997 1033 79.5997C1033 80.1997 1031.7 83.1997 1030 86.2997C1028.4 89.3997 1027 92.7997 1027 93.7997C1027 94.7997 1025.9 96.1997 1024.5 96.7997C1023.1 97.3997 1022 98.7997 1022 99.7997C1022 100.8 1020.9 102.6 1019.5 103.8C1017.7 105.4 1017 107 1017 109.5C1017 112.5 1017.3 113 1019.4 113C1020.7 113 1022 113.6 1022.3 114.4C1022.6 115.2 1023.8 115.6 1025.4 115.3C1029.4 114.5 1037 118 1037 120.6C1037 122 1036.2 123 1034.8 123.3C1033.5 123.6 1030.4 124.6 1027.9 125.6C1023.9 127.1 1023 127.2 1021.6 126.1C1020.1 124.9 1020.1 124.5 1021.5 123C1022.8 121.5 1022.7 121.1 1020.1 118.6L1017.3 115.9L1014.6 119C1012 122.2 1011.2 125.4 1012.9 126.4C1013.4 126.7 1014.1 129.1 1014.5 131.6C1015.1 135.9 1014.9 136.4 1012.1 138.9C1010.5 140.3 1009 142.6 1008.8 144C1008.6 145.6 1007.8 146.6 1006.5 146.8C1003.6 147.3 1002 149.9 1002 154C1002 156.4 1001.3 158.3 1000 159.5C998.9 160.5 998 162.3 998 163.4C998 165.4 996.5 166.8 991 169.7C988.7 170.9 988.2 170.7 984.3 166.8L980.1 162.7L973.4 163.3C967.1 163.8 966.6 164 962.9 168.1C956.1 175.8 953 180.7 953 184C953 186.3 951.9 188.3 948.7 191.7C944.4 196.2 944.3 196.2 940.9 195C937.9 193.9 936.9 194 933.9 195.6C932.1 196.6 930 197.3 929.4 197.2C928.8 197.1 927.5 197.9 926.5 199C924.7 201 922 201.7 922 200.2C922 199.8 922.7 198.7 923.5 197.6C924.8 195.9 924.7 195.5 922.4 193.7L919.9 191.7L914.2 194.2C907.8 196.9 905.6 199.9 905.6 206.3C905.5 209.8 905.3 210.1 903 209.6C901.5 209.4 899.7 209.8 898.5 210.8C896.9 212.1 897 211.9 898.8 209.9C903.6 204.4 901 203.1 891.9 206.7C886.7 208.7 884.4 210.2 883.4 212.2C881.8 215.4 879.2 217 875.7 217C874.4 217 872.5 217.9 871.4 219.1C869.8 220.9 869.7 221.3 871 222.1C875.6 224.8 875.6 224.8 873.2 227.3C870.4 230.3 870.2 235.5 872.9 237C874.1 237.6 875.1 237.6 875.4 237.1C876 236.1 883 241.8 883 243.2C883 243.6 882 244 880.7 244C878.6 244 873 248.6 873 250.2C873 250.6 873.8 251.1 874.8 251.3C876.2 251.7 876.2 251.8 874.5 251.9C873.4 252 870.8 252.5 868.8 253.1C864.9 254.1 862 257.9 862 261.8C862 264.6 855.8 265.7 852.8 263.5C851.5 262.7 849.3 262 847.8 262C845.4 262 845 262.4 845 264.8C845 266.3 845.5 268.1 846.2 268.8C847.3 269.9 851 280.3 851 282.5C851 283 848.9 283.6 846.2 283.7C842.3 283.9 840.9 283.4 837.8 280.9C835.8 279.3 833.4 278 832.6 278C831.8 278 831 277 830.8 275.7C830.6 273.9 829.9 273.5 827.5 273.7C824.5 273.9 824.5 273.9 826.7 272.2C830.2 269.4 828.7 261.9 824.8 263.2C822.9 263.9 818.7 258.4 819.5 256.1C820.1 254.2 818.1 253.2 812.2 252.5C810.9 252.3 809.3 251.7 808.5 251C807.5 250.2 806.7 250.3 805.1 251.7C803.9 252.6 803 254.1 803 254.8C803 255.6 802.4 256 801.8 255.7C801.1 255.5 799.7 255.7 798.7 256.2C797.3 256.9 796.3 256.7 795 255.5C794 254.6 792.5 254 791.8 254.3C791.1 254.5 789.7 254.1 788.8 253.3C787.3 252 787 252.2 786.1 255.7C784.6 260.8 784.7 261.4 787 265.7C789.7 270.9 789.6 272.8 786.3 273.6C784.7 274 782.2 275.4 780.7 276.7C777.1 279.6 776.2 279.6 774.8 276.5C773.6 273.8 772 274.1 772 277.1C772 278.8 771.4 279.1 768.8 278.8C766.7 278.6 765.5 278 765.5 277C765.4 276.2 765 274.7 764.4 273.7C763.5 272.1 763 272 757.4 273.4C754.2 274.2 750.2 275.1 748.7 275.4C747.1 275.8 743.9 277.9 741.4 280.2C737.3 284 737 284.1 737 282C737 280.7 736.2 278.8 735.3 277.8C733.6 275.9 733.5 275.9 731 279C728.7 281.8 728.2 282 725.7 281.1C724.1 280.5 721.2 280 719.1 280C715.5 280 715.4 279.9 715.8 277.1C716 275.5 718 272.1 720.2 269.4C724.6 264 727 259.9 727 257.5C727 256.7 727.5 255.1 728.2 254C729.2 252.4 729.1 251.6 727.2 249.1C726 247.4 725 244.8 725 243.2C725 240.3 720.3 234.6 718.2 235.2C717.7 235.4 716.1 233.9 714.8 232C713 229.5 711.7 228.6 710 228.8C708.8 228.9 707.2 228.6 706.5 228C705.7 227.4 704.7 227.5 703.4 228.5C702.4 229.3 700.5 230 699.3 230C698.1 230 695.9 230.5 694.5 231.2C692.3 232.2 691.6 232 689.6 230.1C687.5 228.1 686.5 227.9 682.8 228.5L678.5 229.2L680.8 226.8C682.5 224.9 682.9 223.7 682.4 221.1C681.9 219 681.2 218 680.1 218.1C679.2 218.2 677.3 218 675.8 217.6C673.6 217 672.4 217.4 669.1 220.1C663 225 658.9 237.5 662.2 240.8C664 242.6 661.5 244 656.3 244C652.8 244 652.1 244.3 652.3 246C652.4 247.1 653.1 248.2 654 248.5C655.1 249 654.6 249.5 652.3 250.5C650.5 251.3 649 252.4 649 253C649 253.5 647.8 254 646.4 254C644.3 254 644 253.6 644.5 252C645 250.3 644.7 250 642 250C640.3 250 638.7 250.6 638.4 251.4C638.1 252.2 635.9 253.1 633.5 253.5C628.7 254.2 623.5 257.7 625.8 258.7C627.8 259.5 622.2 262.6 617.2 263.5C614.9 263.9 612.8 264.6 612.4 265.1C612.1 265.6 610.4 266.7 608.5 267.4C606.7 268.2 604.7 269.8 604 270.9C603.3 272.3 601.9 273 600.1 273C597.1 273 596.8 273.8 595.8 283.5C595.7 284.6 594.4 286.5 593 287.7L590.5 290L593.8 292.8C595.5 294.4 597 295.9 597 296.2C597 297.7 579 299.6 571.1 299C565.8 298.6 564.2 298.8 562.3 300.3C559.9 302.2 559.3 305.8 560.9 308.9C561.6 310.1 561.4 312 560.5 314.8C559.1 318.7 559.2 319.1 561.7 322.9C563.2 325.2 564.7 327 565.2 327C566 327 569 332.3 569 334C569 335.8 565.4 335.1 563.4 332.9C562.4 331.7 561.6 329.8 561.7 328.7C562 325.5 554.2 320 550.6 320.7C548.3 321.2 547.9 320.9 548.2 319.4C548.4 318.3 547.5 317 545.8 316.1C543.1 314.6 542.9 314.6 539.8 317.8C536.8 320.8 536.7 321.2 538.2 322.1C539.2 322.6 540.3 323.1 540.7 323.1C541.6 323 543.2 328.2 542.5 328.9C542.2 329.1 540.7 328.2 539.2 326.7C536.6 324.2 536.3 324.1 534.2 325.6C532.1 327 532 327 532.5 324.3C532.7 322.8 533.2 318.5 533.5 314.7L534.1 308H531.4C529.1 308 528.9 307.8 530.1 306.4C531.2 305 531 304.5 529 303C526.5 301.1 526.5 301.1 525.8 303.8C525.3 305.5 525.5 307 526.4 308C528.1 309.9 527.8 319.3 526.1 321.4C525.3 322.3 523.8 323 522.6 323C521.3 323 518.4 325 515.7 327.8C511.5 332.1 511.1 332.8 512.4 334C513.3 334.7 514 336.4 514 337.8C514 339.1 514.5 342 515.2 344.1C516.1 347.3 516.1 348.3 514.8 349.7C512.1 352.9 508 362.1 508 365.1C508 366.7 507.5 368.9 506.9 369.9C505 372.8 506.6 377 509.4 377C510.8 377 512 377.5 512.2 378.2C512.5 379 513.5 378.9 515.8 377.8C518.7 376.3 519.2 376.3 523 378.2C527.5 380.5 531 384.3 531 387.1C531 390.7 529.2 389.8 526.9 385C524.5 380.1 524.5 380.1 519.4 380C515 380 514 380.4 511.1 383.4C507.9 386.7 507.8 387.1 508.4 392.4L509.1 397.9L504.6 402.8C502.1 405.5 500 408.6 500 409.7C500 411.1 498.9 412.2 496.8 413C495 413.7 492.6 414.6 491.5 415C490.4 415.5 488.5 416.2 487.3 416.5C485.9 416.9 485 417.9 485 419.1C485 421.4 482.8 421.6 481 419.5C480.3 418.7 478.9 418 477.9 418C475.4 418 470.2 414.8 468.3 412.1C466.1 408.9 467.4 408.5 471 411.1C473.6 413 474.4 413.2 476 412.2C477.1 411.6 478.6 411.3 479.5 411.6C482.4 412.8 485.6 411 488.7 406.6C490.5 404 493.6 401.3 495.7 400.3C499 398.8 499.5 398 499.8 394.8C500 392.3 500.8 390.7 502.4 389.6C505.8 387.4 506.2 383.6 503.4 380.9C500.5 378.2 500.4 375.4 503 367.2C504.1 363.7 505 359.6 505 358.1C505 356.7 506.1 353.9 507.4 351.9C508.8 349.9 510.4 345.5 511 342.1C512 336.6 511.9 335.6 510.5 334C508.4 331.7 509.2 328.6 513 324.5C514.5 322.8 516.1 319.9 516.5 318C516.9 316.1 517.7 313.9 518.2 313.2C518.9 312.4 518.9 310.6 518 307.5C516.9 303.5 516.4 303 513.9 303C512.4 303 510.8 302.5 510.5 302C510.2 301.4 508.9 301 507.6 301C506.3 301 504.5 300.1 503.5 299C501.9 297.2 501.6 297.2 499.2 298.8C497.8 299.7 495.2 303.7 493 308.5C489 317.1 485.4 321 479.3 323.2C476.6 324.2 475.2 325.5 473.9 328.5C472.3 331.9 472.3 332.7 473.5 333.6C474.7 334.5 474.7 335.2 473.5 338.6C472.7 340.7 472.1 343.1 472 343.9C472 344.7 470.6 346.5 468.9 348C465.8 350.5 465.8 350.6 467.3 353.7C468.2 355.4 469.7 357 470.6 357.4C471.8 357.9 472.1 358.8 471.6 361.3C471.2 363.6 471.6 365.5 473.1 367.9C474.9 371 475 371.4 473.6 372.2C472.7 372.7 472 374.2 472 375.5C472 376.8 471.5 378.2 470.9 378.6C469.5 379.4 468 377.2 468 374.4C468 373.2 465.8 369.4 463 365.9C460.3 362.4 457.2 358.2 456.3 356.6C453.4 351.8 439.9 337.5 438.5 337.8C437.8 337.9 436.7 337.3 436 336.5C435.2 335.5 433.9 335.2 432.3 335.6C430.1 336.2 429.9 336.1 430.8 334.3C431.5 333.1 431.5 331.8 430.9 330.9C430.4 330.2 430 328.5 430 327.3C430 324.2 427.9 320 426.4 320C425.7 320 423.9 320.5 422.5 321.2C420 322.3 419.9 322.7 420.5 326.9C420.9 329.3 421.8 331.9 422.6 332.7C423.4 333.5 424 334.6 424 335.1C424 335.6 424.9 336 426 336C427.1 336 428 336.4 428 337C428 337.5 427.6 338 427 338C426.5 338 426 340.5 426 343.5C426 348.3 425.8 349 424 349C422.9 349 422 349.7 422 350.5C422 351.4 421.1 352 419.5 352C418.1 352 416.7 352.7 416.4 353.5C416 354.3 415.4 355 414.9 355C413.3 355 413.9 352.5 416 350.7C417.1 349.8 418 348.4 418 347.7C418 345.8 414.4 342.7 413.1 343.4C412.6 343.8 410 344.4 407.3 344.9C402.9 345.8 402.4 345.6 399.1 342.8C395.6 339.7 393.8 339.5 384.4 341.5C380.8 342.3 379.8 341.4 380.7 338.2C381.1 336.7 382 336 383.7 336C386 336 386.1 335.7 385.5 332.8C384.5 328.3 384.3 328 381.1 328C376.8 328 372 330 372 331.8C371.9 333.2 371.7 333.2 370.4 331.5C369.5 330.3 367.6 329.5 365.2 329.3C349.1 328.4 343 328.3 343 329.1C343 329.5 342.3 329.7 341.5 329.4C340.7 329 338.4 329.1 336.5 329.4C333.9 329.9 333 330.6 333 332C333 335.2 329.8 336.2 325.2 334.4C321.6 332.9 321.2 332.4 320.6 328.3C319.6 320.5 319.7 320.2 323.6 319.4C326.5 318.9 327.6 319.2 329.6 321.1L332 323.4L334.2 321.3C335.6 319.9 336.4 317.4 336.8 314.2C337.2 310 336.8 308.6 334.9 305.8C329.3 297.8 326.5 295 323.9 295C321.4 295 321.3 295.1 321.8 300.3C322.2 305.2 322 305.8 319.6 307.3C318.2 308.3 317 309.7 317 310.5C317 311.4 315.9 312.5 314.6 313.1C312 314.3 310 317.8 310 321.1C310 327.5 302 332.4 299 327.8C298.2 326.6 296.5 324.4 295.4 323C293.3 320.6 293 320.6 288.6 321.8C284.7 322.8 283.5 322.8 281.2 321.6C279.2 320.5 277.9 320.5 276.5 321.2C275.5 321.8 272.5 322.2 269.8 322.1L265 322V325.9C265 328.1 264.4 330.3 263.5 331C262.6 331.7 262.1 333.2 262.2 334.4C262.4 336 262 336.4 260.5 336.2C259.4 336 258.1 335.2 257.5 334.3C257 333.4 255.5 331.5 254.3 330C252.8 328.1 251.6 324.7 250.8 319.6C249.7 312.3 249.5 312 247 312C242.9 312 240 315.8 240 321.3C240 323.8 240.4 326.2 241 326.5C242.8 327.6 242.1 331.5 239.9 332.9C237.9 334.1 237.4 333.9 234.2 330.6C230.9 327.4 230.7 326.9 231.9 324.6C233 322.6 233 321.4 231.7 317.7C230.3 313.5 230.3 313 232 311.5C233 310.6 234.1 308.2 234.5 306.2C235.3 302 238.5 298 241.2 298C244.7 298 249.5 286.6 247.2 283.7C245.9 282.1 246.9 276 248.5 276C249.2 276 250.1 277.6 250.4 279.5C251.3 284.1 257.3 297.2 259.4 298.9C260.3 299.6 261 301.7 261 303.6C261 307.3 264.3 310.4 272 313.9C277.9 316.6 289.2 315.9 292.8 312.6C299.3 306.8 303.4 292.3 299.7 288.2C297.7 285.9 296.8 281 296.6 270.3C296.5 262.8 296.2 261 294.2 258.6C293 257 292 254.7 292 253.3C292 252 291.3 250.7 290.5 250.4C289.7 250 289 248.8 289 247.6C289 246.5 287.7 244.4 286.1 243C284.5 241.6 283 239.1 282.6 237.2C282.1 234.2 283.2 232.8 284.5 235C284.8 235.5 286 236.5 287.1 237.1C289.1 238.1 289.1 237.9 288.4 233.3C287.6 228 286.8 227 282.6 227C280.1 227 279.8 226.8 280.4 224.3C281.1 221.7 281.1 221.7 278.6 223.4C276.8 224.5 275.5 224.7 274.3 224.1C273.3 223.6 270.2 222.7 267.4 222C262.4 220.9 262 221 254.6 224.7L247 228.4V233.8C247 236.7 246.3 240.4 245.5 242C244.1 244.8 243.5 245 238.6 245C233.6 245 233 245.3 229.6 249C227.6 251.2 226 253.7 226 254.7C226 255.6 224.4 259.1 222.5 262.6C220 267 218.5 268.7 217.5 268.4C216.7 268.1 214.1 269.2 211.8 270.9C209.5 272.6 206.8 274 205.8 274C204.4 274 204 274.8 204 277.5C204 279.7 203.4 281.3 202.5 281.6C201.7 282 201 283.4 201 285C201 288.6 198.1 291 193.8 291C190.3 291 190.3 291 189.6 296.2C189.3 299.1 189 303.4 189 305.8C189 312.3 187.4 312.7 157.8 313.1C144.1 313.3 133 313.7 133 313.9C133 314.2 134 315.4 135.2 316.7C137 318.6 137.3 320 137.1 324.2C136.9 328.5 137.2 329.6 139 331C140.5 332.1 141.1 333.4 140.8 335.1L140.4 337.5L139.2 334.7C138.5 333 136.6 331.3 134.5 330.4C132.6 329.6 131 328.6 131 328.1C131 327.7 129.8 326.8 128.3 326.1C125.8 325 125.3 325.1 123.5 327.2C122.4 328.5 120.2 329.6 118.5 329.7C111.3 330.2 108.1 331.3 105.6 334.1C104.1 335.7 102.4 337 101.6 337C100.8 337 99.7002 338.3 99.1002 340C98.4002 342.2 97.5002 343 95.7002 343C92.8002 343 90.0002 345.9 90.0002 348.7C90.0002 350.2 88.8002 351.4 86.0002 352.7C82.7002 354.2 82.0002 354.9 82.3002 356.8C82.6002 358.4 81.6002 360.4 79.4002 363.2C75.4002 367.9 75.3002 369 78.1002 374C79.9002 377.2 80.1002 378.3 79.2002 380.9C78.2002 383.6 78.4002 384 80.3002 384.6C83.8002 385.6 86.0002 388.1 86.0002 390.9C85.9002 393.7 81.3002 399.4 78.3002 400.4C77.0002 400.8 75.6002 403.6 73.6002 409.8C72.0002 414.6 70.4002 419.2 69.9002 420.2C69.4002 421.3 69.6002 422.3 70.6002 423.1C72.2002 424.4 71.8002 430.5 70.0002 432.4C68.5002 434 64.5002 432.1 62.8002 429C60.7002 425.3 57.2002 425.2 55.4002 428.8C54.8002 430.1 52.9002 432.6 51.2002 434.3C46.1002 439.7 45.6002 441.6 48.1002 445.1C49.7002 447.4 50.8002 448 52.4002 447.6C53.9002 447.2 55.0002 447.7 55.7002 449C56.4002 450 57.9002 451 59.2002 451.2C64.4002 451.9 65.2002 463.3 60.2002 465.5C59.0002 466 57.7002 467.2 57.5002 468.1C57.2002 469.1 56.2002 470.1 55.4002 470.4C54.1002 470.9 54.3002 471.7 56.5002 475.3C59.6002 480.7 59.7002 483.7 56.6002 487.9C54.0002 491.4 54.1002 494.3 57.0002 496.3C57.9002 497 59.0002 498.5 59.4002 499.7C59.8002 500.9 62.1002 503.5 64.6002 505.5C68.9002 509.1 69.1002 509.4 68.9002 514C68.7002 518.3 69.0002 519.3 72.3002 522.9C74.3002 525.2 76.0002 527.6 76.0002 528.4C76.0002 529.1 76.7002 530.3 77.5002 531C78.3002 531.7 79.0002 533.2 79.0002 534.4C79.0002 535.6 79.5002 537.1 80.1002 537.7C82.1002 539.7 80.1002 543 76.8002 543C73.0002 543 67.0002 548.4 66.9002 552C66.9002 553.5 65.8002 555.4 63.9002 556.9L60.9002 559.3L57.0002 555.5C53.9002 552.5 52.4002 551.8 48.7002 551.5C43.9002 551.2 38.5002 553.6 37.4002 556.5C36.8002 558 40.5002 561.9 42.6002 562C43.1002 562 44.5002 562.7 45.6002 563.6C47.5002 565.1 47.5002 565.1 45.4002 564.5C44.3002 564.2 41.3002 563.8 38.8002 563.6C36.3002 563.4 33.1002 562.5 31.7002 561.5C27.5002 558.8 25.6002 560.1 26.4002 565.5L27.1002 570H21.7002C17.6002 570 15.6002 570.5 13.5002 572.2L10.7002 574.4L8.9002 572.2C6.9002 569.6 3.8002 569.4 1.9002 571.6C-0.199796 574.2 -0.0997961 582.5 2.1002 585.4C3.1002 586.7 4.0002 589.1 4.0002 590.7C4.0002 592.3 4.9002 595.3 6.0002 597.5C7.5002 600.5 8.0002 603.4 8.0002 609.8C8.0002 618 9.0002 622 11.1002 622C13.7002 622 23.0002 635.1 23.0002 638.7C23.0002 639.4 24.7002 641.1 26.8002 642.5C31.0002 645.3 36.0002 652.1 36.0002 655C36.0002 656 36.7002 657.3 37.5002 658C38.3002 658.7 39.0002 660.7 39.0002 662.5C39.0002 666.1 41.1002 668.4 45.2002 669.4C46.7002 669.7 48.7002 671.1 49.6002 672.5C50.5002 673.9 51.9002 675 52.6002 675C53.4002 675 54.0002 675.5 54.0002 676.2C54.0002 676.8 54.7002 678.1 55.6002 679.1C56.9002 680.6 57.0002 681.4 56.0002 684.2C54.9002 687.1 55.0002 688 56.9002 691C58.0002 692.9 59.0002 695.5 59.0002 696.8C59.0002 698 59.6002 699.3 60.3002 699.6C61.1002 699.9 62.5002 703.7 63.6002 708.2C65.0002 714.3 66.0002 716.4 67.5002 717C70.3002 718.1 80.2002 717.5 82.8002 716.1C85.2002 714.8 85.7002 711.2 85.1002 697.3C84.8002 691.3 85.2002 689.4 87.1002 686.1C88.3002 683.8 89.7002 682 90.2002 682C90.6002 682 91.0002 681.5 91.0002 680.8C91.0002 680.2 91.7002 678.9 92.5002 678C93.4002 677 94.3002 674 94.7002 671.1C95.2002 667 94.9002 665.6 93.5002 664C90.7002 660.9 92.2002 659.3 98.8002 658.5C103.8 657.9 105.3 657.3 108.6 654.1L112.4 650.3L115.5 652.1C119.5 654.6 134 654.8 136.4 652.4C138.4 650.4 138.4 650.3 136 647.3C133.2 643.8 133.3 641.5 136.1 643.2C137.8 644.3 138.3 644.2 139.6 642.5C140.7 641 140.9 638.6 140.4 631.5C139.8 623.1 139.5 622.3 136.4 619C133.3 615.6 133.2 615.3 134.2 611.4C135.2 607.7 135.1 607 133.1 604.4L130.8 601.5L133.5 599.3C134.9 598 137 597 138.1 597C141.1 597 144 595.2 144 593.3C144 590.8 149 586 151.6 586C152.8 586 154.7 584.9 155.8 583.5C156.9 582.1 158.5 581 159.3 581C160.6 581 160.8 581.9 160.3 585.7C159.7 591.2 161.4 593.6 166.4 594.2C168.9 594.5 169.6 593.9 171.5 590.5C173.6 586.9 174.2 586.5 178.1 586.2C180.5 586 183.3 585.1 184.3 584.2C185.8 582.9 186.6 582.8 189.5 583.9C193.3 585.2 196.5 584.7 199.3 582.2C201.8 580 204.4 581.7 205 586.1C205.5 589.3 205.7 589.5 209.6 589.5C213.7 589.5 217 591.2 217 593.4C217 594 218.6 595.4 220.7 596.5C223.8 598.2 224.6 599.5 226.7 606C228.7 612.1 228.9 613.8 227.9 615.6C227.3 616.9 227 618.6 227.3 619.4C228.1 621.5 231.6 621.4 233 619.2C233.9 617.6 234.1 617.6 235.7 619.6C236.7 620.8 238 622.6 238.6 623.6C239.8 625.7 246.4 625.9 250 624C251.7 623.1 252.7 623.3 255.3 624.9C257.1 626 259 627.8 259.7 628.9C260.8 630.6 261.3 630.7 264.4 629.8C268.6 628.5 271 629.9 271 633.6C271 634.9 272.6 638.2 274.6 641C277.6 645.2 278.7 646 281.4 646C283.2 646 285.1 645.5 285.6 645C286.3 644.3 287.3 645 288.8 647C290.8 649.6 291.7 650 296.1 650C300.7 650 301.6 649.6 304.6 646.3C308.5 642.1 308.6 641.7 306.5 640C305.7 639.3 305 638.2 305 637.5C305 636.8 303.4 634.3 301.5 632.1C297.6 627.3 297.8 625.1 302.1 625.2C306.1 625.3 308.2 623.1 308.3 618.4C308.5 614.8 308.8 614.5 311.6 614.2C313.6 614 315.2 614.6 316.5 616C318.8 618.5 321.2 618.6 323.5 616C325.3 614 325.3 613.9 322.4 610.7C319.5 607.6 319.2 606.2 319.9 599.2C320.1 597.3 323.4 597.8 327.3 600.4C330.2 602.4 332.4 602.9 340.1 603.3C345.3 603.6 351.5 604.3 354 605C359.8 606.5 362.7 606.5 365.6 604.9C367.4 604 368.6 603.9 370.5 604.8C371.9 605.5 375.7 606 378.8 606C381.9 606 385.1 606.4 385.8 606.8C387.4 607.8 397.5 605.9 399.2 604.2C400.8 602.6 403.2 602.7 405.6 604.5C406.6 605.3 408.7 606 410.1 606C411.6 606 413 606.6 413.3 607.4C413.6 608.1 415.4 609 417.3 609.4C419.6 609.8 421 610.7 421.3 612.1C422 614.7 421 621.1 419.7 622.7C419.2 623.4 419.1 625.1 419.4 626.4C420.1 629.3 424.8 630.7 427.9 629.1C430.4 627.7 431.3 629 430.4 632.4C429.9 634.6 430.2 635.1 432.5 636C434.4 636.7 435.6 636.7 436.5 636C437.3 635.3 438.7 635.4 440.9 636.3L444.1 637.6L441.7 638.7C439.4 639.8 437.5 644.5 438.7 646.3C439 646.8 440.9 647 442.9 646.8C444.9 646.5 447.3 646.8 448.2 647.4C449.5 648.1 450.8 648 453.5 646.7C455.5 645.8 457.7 645 458.4 645C459.1 645 460.5 644.1 461.5 643C462.7 641.7 464.6 641 467 641C469.2 641 471.8 640.2 473.2 639C475.6 637.2 477 637.2 477 639.2C477 639.7 475.9 640.5 474.5 641C471 642.3 471 646.7 474.5 648C475.9 648.5 477.9 650.4 478.8 652.2C479.7 653.9 481.9 656.9 483.6 658.9C487.2 663.1 489 667.8 489 673C489 675.1 489.7 677.3 490.5 678C491.3 678.7 492 680.4 492 681.9C492 683.3 492.9 686 494 687.8C495.1 689.6 496 691.7 496 692.5C496 694.9 499.1 703.4 500.6 705.1C502.6 707.3 506.9 706.3 508.2 703.4C509.7 700.2 513 700.2 513 703.4C513 706.5 518.2 711 521 710.3C522.1 710 523.6 710.3 524.4 710.9C526 712.3 531.5 711.3 533.1 709.4C533.7 708.6 535 708 535.9 708.1C538.6 708.2 546.5 714.5 546.8 716.8C547 718 549.3 721.2 552 724C554.7 726.8 557 730.1 557.2 731.3C557.4 733 558.7 733.9 563 735.3C568 736.9 568.8 736.9 572.4 735.5C574.5 734.6 576.3 734 576.5 734.2C576.6 734.4 577.7 736.4 579 738.7C582.1 744.3 586.5 745.3 591.4 741.5C593.7 739.8 595.9 739 598.7 739C601.2 739 603.3 738.4 604 737.4C604.8 736.6 606.8 735.3 608.7 734.5C610.5 733.7 612 732.4 612 731.6C612 730.7 612.8 730 613.9 730C614.9 730 616.4 729.2 617.1 728.3C619.5 725.4 627.3 721 630.1 721C631.9 721 632.9 720.4 633.3 719C633.6 717.7 634.7 717 636.3 717C637.6 717 639.3 716.3 640 715.5C641.7 713.5 642.4 713.6 646 716.6C648.7 718.9 649.4 719.1 651.6 718.1C655.5 716.4 656.6 716.7 662 721.5C668 726.9 671.7 727.9 686.5 728.6L697.9 729.2L703 724.8C707 721.3 708 719.9 708 717.4C708 715.7 707.3 713.7 706.5 713C705.7 712.3 705 710.5 705 709C705 707.5 704.3 705.7 703.5 705C701.7 703.5 702.5 699.4 705.1 696.4C706.2 695.3 707 693.9 707 693.4C707 692.8 708.3 691.1 709.9 689.6C712.7 686.9 713 686.9 715.1 688.4C716.4 689.3 719.3 690 721.6 690C724.3 690 726.3 690.6 727.4 691.9C728.8 693.5 729.7 693.6 733 692.8C740.9 690.8 746.3 693.7 751.2 702.9C753.2 706.5 759.7 709.9 764.7 710C770.4 710 778.4 707.8 780.8 705.6C784 702.8 796 701 801 702.7C802.9 703.4 807.1 703.9 810.2 703.9C815.4 704 816.2 704.3 818.1 707C821.4 711.3 824.9 712.1 836 711C854.4 709 854.2 709.1 858.5 704.9C860.7 702.8 864.1 700.4 866 699.6C870.9 697.6 878 691.2 878 688.9C878 686.6 884.3 679.4 888 677.5C890.3 676.3 891.1 676.4 894.7 678L898.7 679.8L903.8 677C908.5 674.4 909.5 674.3 915.2 675C925.1 676.1 931.6 673.2 934.5 666.3C935.3 664.4 937 662.6 938.5 662C941.9 660.7 941.9 656.2 938.4 651C936.1 647.6 935.9 646.6 936.8 644.3C937.4 642.7 938.1 638.5 938.5 634.7C938.8 631 939.5 626.9 940.1 625.7C941.6 622.3 939.7 616 936 612.5C933.4 610 932.7 609.7 931 610.8C928.6 612.3 928.6 612.1 930.7 605.2C932.2 600.7 933.2 599.2 936.5 597.1C938.8 595.7 942.7 592.8 945.3 590.6C950.2 586.6 954.6 585.2 964.5 584.4C967.3 584.2 972.4 583.8 976 583.4C982 582.9 982.9 583.1 986.8 585.6C989.1 587.1 991 589 991 589.7C991 590.5 992.3 591.6 993.8 592.3C998.2 594.2 1004.8 600 1005.4 602.5C1005.8 604.1 1007 605.1 1009 605.5C1012 606.2 1020.4 613.6 1023.3 618.1C1025.4 621.5 1030.4 622.6 1035.3 620.5C1037.2 619.7 1039.1 618.6 1039.5 618C1040.3 616.7 1051.5 616.7 1056.4 618.1C1059.1 618.9 1060.5 618.9 1061.3 618.1C1061.9 617.5 1063.1 617 1064 617C1066.3 617 1071 622.2 1071 624.8C1071 626.3 1072.2 627.6 1075 629C1080.1 631.6 1084 631.6 1084.7 629C1085 627.9 1085.7 627 1086.4 627C1087 627 1089.9 625.4 1092.7 623.5C1097.3 620.4 1097.9 619.7 1097.4 617.2C1097 615.2 1097.8 612.9 1100.4 608.5C1107.2 596.8 1107.8 596.6 1113.4 602.8C1116.7 606.5 1117.2 607.4 1116.2 608.8C1113.9 612 1113.8 613.1 1115.6 615.1C1117.8 617.5 1120.2 623.6 1120.4 627.1C1120.4 628.5 1121 630.3 1121.6 631.1C1123 632.8 1124.1 638 1124.4 643.5C1124.5 645.7 1125.1 648.4 1125.7 649.6C1127.4 652.5 1124.9 656 1121.1 656C1117.4 656 1113 659.5 1113 662.4C1113 663.6 1111.9 665.7 1110.5 667C1107 670.3 1107.1 674.5 1110.7 676.2C1112.2 676.9 1114.4 679 1115.5 680.8C1116.6 682.7 1119.4 686.4 1121.8 689.1C1126.4 694.6 1127 697.4 1124.5 703.3C1122.3 708.6 1122.6 710.9 1125.6 712C1130.2 713.8 1131.6 711.1 1132.7 698.7C1133.1 694 1133.4 693.1 1134.5 694C1136.2 695.4 1138 694.5 1138 692.2C1138 691 1138.3 690.9 1139.2 691.8C1140.9 693.5 1143 693.3 1147.8 691C1150 689.9 1152.8 689 1153.8 689C1155.1 689 1156.6 687 1159 682.3C1160.8 678.5 1163.1 674.3 1164.1 672.9C1165.7 670.6 1165.9 668 1165.9 647.4C1165.9 633.1 1166.3 622.6 1167.1 619.7C1168.4 614.2 1167.2 603.5 1163.9 592.3C1161.2 583.1 1159.8 572.4 1160 561.2C1160.2 552.2 1160.1 551.9 1157.1 548.4C1155.4 546.5 1153.3 543.3 1152.5 541.3C1150.7 536.9 1146.5 531.1 1139.1 522.7C1132.8 515.5 1131.3 512.2 1130.2 504C1129.2 496.9 1129.3 496.9 1138 500.7C1142.3 502.5 1144.6 504.2 1145.6 506.2C1146.5 507.8 1150.4 512.6 1154.4 516.8C1162.2 525.1 1165.9 530 1167.7 534.2C1168.4 535.7 1171 538 1173.9 539.5C1177.5 541.5 1179.8 543.8 1182.4 547.9C1184.3 551 1187.2 554.8 1188.9 556.4C1190.6 558.1 1192 560.1 1192 561C1192 561.8 1194.7 565.2 1198 568.5C1203 573.5 1204.3 574.3 1205.8 573.4C1208.4 571.7 1208.3 569.8 1205.5 565.6C1204.1 563.5 1203 560.8 1203.2 559.7C1203.6 557.1 1208.4 555.6 1212.2 556.9C1217.1 558.6 1217.6 554.5 1212.9 550.6C1209.5 547.7 1207.1 547.3 1205.1 549.2C1204.1 550.3 1203.5 550.1 1202.3 548.2C1201.4 547 1199.9 546 1198.9 546C1197.9 546 1196.8 545.5 1196.5 545C1196.2 544.4 1194.6 544 1193.1 544C1191.4 544 1188.8 542.7 1186.2 540.4C1182.9 537.6 1182 536.2 1182 533.7C1182 531.9 1180.9 528.8 1179.5 526.8C1176.7 522.7 1176 516 1178.4 516C1180.5 516 1185 512 1185 510.2C1185 509.2 1183.4 507.7 1181.2 506.7C1175.6 504 1168.5 499.7 1166.6 497.7C1165.6 496.7 1163.2 495 1161.1 493.9C1159.1 492.8 1155.9 490.8 1154 489.4C1152.1 488 1149.3 486.6 1147.9 486.3C1144.5 485.7 1138.8 479.9 1135.7 474C1134 470.7 1132.6 469.4 1130.2 468.8C1128.4 468.3 1126.3 466.8 1125.4 465.5C1124.5 464.1 1122.9 463 1121.9 463C1120.9 463 1119.1 461.6 1117.8 460C1115.7 457.1 1108.7 454 1107.4 455.3C1107 455.6 1107.1 457.5 1107.4 459.5C1108 462.3 1108.5 463 1110.4 463C1111.9 463 1113.7 464.3 1115.4 466.5L1118.1 470H1115.7C1113.6 470 1113.2 470.6 1112.6 474C1112.1 477.1 1111.4 478.3 1109.4 479C1106 480.3 1101.7 480.3 1100.3 478.9C1099.6 478.2 1096.7 477.9 1092.8 478.2C1088 478.5 1085.5 479.3 1082.2 481.4L1078 484.3L1081 489.8C1084.6 496.5 1084.6 496.8 1081.8 497.2C1080.5 497.4 1079.1 498.5 1078.5 499.8C1077.3 502.5 1076 502.7 1076 500.1C1076 499 1074.6 496.8 1072.9 495C1070.4 492.6 1069.5 492.2 1068.4 493.1C1066.8 494.4 1066.5 498.6 1068 499.5C1068.6 499.8 1069 500.9 1069 501.8C1068.9 503.9 1064.7 499.1 1062.4 494.2C1061.5 492.5 1060.5 491 1060.1 491C1059.7 491 1058.1 492.4 1056.5 494C1054.9 495.6 1053 497 1052.1 497C1051.3 497 1049.9 497.7 1048.9 498.6C1047.9 499.5 1046.6 499.9 1046.1 499.5C1044.7 498.7 1045.8 488.3 1047.5 485.5C1049.8 481.7 1051.9 459.8 1050.1 457.6C1048.6 455.8 1049.8 433.5 1051.6 429.9C1052.7 427.6 1052.6 427.1 1050.7 425.2C1047.9 422.4 1047.8 416 1050.4 413.1C1052.3 411.1 1052.3 410.8 1050.7 407.4C1047.7 401.1 1048.8 395.9 1054.9 388.2C1061.4 380 1066.4 375 1068.2 375C1069.2 375 1071.4 374.3 1073.1 373.5C1075.9 372 1075.9 371.8 1074.5 369.6C1072.9 367.2 1073.4 366 1076 366C1078.3 366 1084.4 359.5 1083.5 358C1083 357.2 1083.2 356.9 1084.1 357.2C1084.9 357.5 1086.5 356.8 1087.7 355.8L1089.9 353.8L1087.8 351C1085.2 347.4 1086.2 344.3 1090.6 342.4C1092.5 341.6 1094 340.6 1094 340.1C1094 339.3 1102.4 334 1103.6 334C1103.8 334 1104 335.2 1104 336.6C1104 339.8 1106.1 342 1109.4 342C1111.5 342 1112.1 341.3 1113.1 337.7C1113.8 335.4 1115.2 332.8 1116.3 331.9C1118 330.5 1118.2 329.5 1117.7 325.7C1117.1 321.3 1117.2 321.1 1119.8 320.8C1121.8 320.6 1122.6 319.9 1122.8 318C1123 316.6 1123.7 315 1124.4 314.5C1125.1 313.9 1125.9 312.3 1126.2 310.7C1126.7 308.3 1126.4 308 1124.1 308C1122.7 308 1120.4 308.9 1119 310C1116.3 312 1114 311.2 1114 308.2C1114 307.3 1113.1 305.7 1112 304.5C1110.6 303 1109.9 300.4 1109.4 295C1109 290.9 1108.1 286.6 1107.4 285.5C1106.6 284.4 1106 282 1106 280C1106 277.6 1105.4 276.1 1104 275.2C1101.6 273.8 1101.2 267.6 1103.3 265.1C1104.1 264.2 1105.3 261.4 1105.9 258.9C1107 255 1107.5 254.3 1109.1 254.7C1110.6 255.1 1111.4 254.5 1112.3 252.1C1113.4 249.1 1115 247.9 1115 250C1115 251.3 1122.9 260 1124.1 260C1124.6 260 1125 258.8 1125.1 257.2C1125.1 254.7 1125.3 254.8 1126.9 258.5L1128.7 262.5L1130 258.4C1130.7 256.1 1131 252.2 1130.6 249.4C1129.1 236.7 1128.7 234.4 1127.9 233.6C1126.5 232.1 1126.8 231 1128.5 231C1129.5 231 1130 230 1130 228C1130 225.6 1129.6 225 1127.8 225C1126.5 225 1123.6 223.2 1121.4 221C1117.7 217.6 1117.3 216.8 1117.9 213.9C1118.6 210.2 1121 208.7 1121 212C1121 214.6 1129.9 223.7 1133.3 224.5C1134.7 224.9 1137 227 1138.5 229.3C1140.7 232.7 1141.1 234.1 1140.5 237C1140.1 238.9 1139.6 241.8 1139.3 243.3C1139 245 1139.3 246.7 1140.3 247.8C1141.9 249.6 1149 269.2 1149 271.9C1149 272.8 1150.2 275.3 1151.7 277.4C1153.1 279.6 1155.3 285.4 1156.6 290.4C1158.5 298.3 1158.6 299.7 1157.4 301.1C1156.5 302.1 1156.2 303.8 1156.6 305.7C1156.9 307.5 1156.7 309 1156.1 309.4C1155.5 309.8 1155 311.2 1155 312.6C1155 314.3 1155.6 315 1156.9 315C1159 315 1162 319 1162 321.8C1162 322.9 1162.7 324.3 1163.5 325C1164.3 325.7 1165 327.3 1165 328.6C1165 330.1 1167.3 333.5 1171.5 338.1C1175.1 342 1178 345.5 1178 346C1178 347.7 1188.3 353.3 1196.7 356C1201.5 357.6 1206.2 359.7 1207 360.7C1209.3 363.4 1213.3 365.8 1222.3 369.6C1226.8 371.6 1231.4 374 1232.6 375.1C1233.7 376.1 1235.4 377 1236.4 377C1237.3 377 1239.6 378.1 1241.4 379.5C1243.3 380.9 1246 382 1247.8 382C1249.9 382 1251.5 382.8 1252.9 384.6L1255 387.3V381.9C1255 378.9 1254.3 373.8 1253.5 370.5C1252.7 367.2 1252.1 363.3 1252 361.9C1252 359.9 1250.2 357.5 1245.2 352.8C1237.4 345.5 1236.8 344.3 1237.6 339C1238.1 336 1238.7 335 1240.4 334.8C1243.6 334.3 1243.3 329.9 1240 329C1232.4 326.9 1227.9 322.1 1226.5 314.7C1225.9 311.1 1226.2 310.5 1230 307C1233.6 303.7 1233.9 303 1233.1 300.7C1231.7 297 1227.6 294.6 1224.1 295.3C1222.2 295.7 1220.8 295.4 1220 294.6C1219.4 293.8 1217.9 292.9 1216.6 292.6C1214.2 292 1210 286.1 1210 283.4C1210 282.6 1210.7 281.7 1211.6 281.3C1212.4 281 1213.6 279.6 1214.1 278.2C1214.9 276.2 1214.6 275.3 1212.9 273.3C1210.7 271 1205.7 270.1 1204.6 271.9C1203 274.5 1194 268.9 1194 265.3C1194 263.7 1187.2 256.3 1186.6 257.2C1184.2 260.7 1182.2 265.3 1182.6 266.5C1183.5 268.8 1181.5 268.3 1176.7 265C1171.8 261.7 1171 260.4 1171 255.8C1171 253.3 1169.7 251.3 1165 246.4C1159.5 240.7 1159.1 239.9 1159.7 236.8C1160 234.8 1161.6 232.4 1163.6 230.7C1167.5 227.4 1167.8 226.4 1165 225.5C1163.9 225.1 1163 224 1163 222.9C1163 221.8 1162.5 219.9 1161.9 218.7C1160.8 216.6 1160.8 216.6 1162.6 218.1C1163.6 218.9 1165.7 220.1 1167.3 220.8C1169.8 221.9 1170 221.8 1170 219.3C1170 217.9 1169.1 215.2 1167.9 213.4C1166.2 210.6 1166 209.5 1166.9 206.4C1167.6 203.9 1167.6 202.2 1166.9 201.4C1166.2 200.6 1166.7 199.1 1168.4 196.5C1169.8 194.5 1171.2 192 1171.5 190.9C1172.3 188.6 1176.1 187.5 1178.8 188.9C1180.4 189.7 1181.2 189.5 1183 187.4L1185.4 185L1182.3 181.7C1179.1 178.4 1177 172.8 1177 167.6C1177 166.1 1175.9 163.5 1174.5 161.9C1173.2 160.3 1171.8 157.3 1171.5 155.2C1171.1 153.2 1170 148.6 1168.9 145.1C1167.9 141.6 1167 136.4 1167 133.6C1166.9 130.8 1166.2 126.7 1165.4 124.5C1164.5 122.3 1163.7 119.5 1163.6 118.2C1163.4 117 1162.5 115.3 1161.4 114.5C1159.6 113.1 1159.6 113.1 1161.8 113C1163.4 113 1164.4 112.1 1165.2 110C1165.8 108.1 1167.1 106.8 1168.6 106.4C1170.5 105.9 1171 105.1 1171 102.5C1171 100.7 1170.3 98.5997 1169.4 97.8997C1168.5 97.1997 1167.4 95.4997 1166.9 94.2997C1166.2 92.3997 1165.7 92.0997 1164.2 92.8997C1163.2 93.4997 1161.4 93.5997 1160.2 93.2997C1158.9 92.9997 1156.9 93.4997 1155.4 94.4997C1154 95.3997 1152.6 95.8997 1152.3 95.5997C1151.9 95.2997 1151 95.5997 1150.2 96.2997C1149 97.1997 1148.6 97.1997 1148.3 96.1997C1148 95.3997 1145.7 94.9997 1141.8 94.9997C1136.6 94.9997 1135.5 95.2997 1133.8 97.4997C1132.7 98.8997 1131 99.9997 1129.8 99.9997C1127.9 99.9997 1127.9 99.9997 1130 96.4997C1131.9 93.3997 1132 92.4997 1131 87.7997C1130.2 83.5997 1128.9 81.3997 1124.8 77.0997C1119.9 72.0997 1119.5 71.7997 1115.8 72.3997C1112.3 72.9997 1111.9 72.7997 1111 70.3997C1110.4 68.8997 1110.1 67.5997 1110.2 67.4997C1111.2 66.6997 1119 66.3997 1120.3 67.0997C1121.4 67.7997 1122.4 67.2997 1124 65.2997C1125.8 62.9997 1126.1 61.6997 1125.6 57.8997C1124.8 52.0997 1125.9 51.0997 1132.4 51.2997C1136.2 51.4997 1137.5 51.0997 1138.4 49.5997C1142 43.5997 1143.9 41.5997 1147 40.5997C1149.8 39.6997 1150.6 38.7997 1151.7 35.1997C1152.4 32.5997 1152.6 29.9997 1152.1 28.6997C1151.6 27.4997 1151.4 25.3997 1151.7 23.9997L1152.1 21.4997L1149.4 24.1997L1146.7 26.8997L1142.4 22.1997C1139.3 18.7997 1138.1 17.9997 1138 19.2997C1138 20.6997 1137.6 20.8997 1136.3 20.1997C1135.2 19.4997 1134.6 17.8997 1134.6 15.3997C1134.5 12.0997 1134.2 11.5997 1132.6 11.7997C1131 12.0997 1130.8 11.8997 1131.8 10.7997C1132.7 9.59974 1132.5 8.89974 1130.5 6.99974C1129.1 5.69974 1128 3.59974 1128 2.29974C1128 -0.300255 1127.7 -0.300255 1123.8 1.39974ZM1127 99.9997C1127 100.5 1126.1 101 1124.9 101C1123.8 101 1123.2 100.5 1123.5 99.9997C1123.8 99.3997 1124.8 98.9997 1125.6 98.9997C1126.4 98.9997 1127 99.3997 1127 99.9997ZM1125 105C1125 105.5 1124.5 106 1123.9 106C1123.4 106 1123.2 105.5 1123.5 105C1123.8 104.4 1124.3 104 1124.6 104C1124.8 104 1125 104.4 1125 105ZM691.6 236.8C689.4 237.3 688.6 236.5 689.5 235C690 234.2 690.6 234.3 691.7 235.2C693.2 236.4 693.1 236.5 691.6 236.8ZM715.6 285.6C715.1 287.5 715.4 288 717 288C720.1 288 719.4 289.7 715.1 292.4C712.9 293.8 710.9 295.8 710.5 296.9C710.2 297.9 708.7 299 707.2 299.2C705.7 299.5 703.6 300.1 702.5 300.6C700.7 301.3 700.7 301.2 702.8 298.6C704 297 705 295.2 705 294.4C705 293.7 706.4 292.9 708 292.5C710.1 292 711 291.3 711 289.8C711 287.2 714.1 282 715.3 282.7C715.8 283 715.9 284.3 715.6 285.6ZM533.6 335.1C534.4 335.9 535 337.1 535 337.7C535 338.3 535.6 339 536.3 339.3C537.1 339.6 537 340 535.8 340.5C534.9 340.9 533.1 340.4 531.6 339.5C529.5 338.1 529 337 529 333.6C529 328.3 530.2 326.9 531.4 330.7C531.9 332.2 532.9 334.2 533.6 335.1ZM1116.9 480.2C1117.5 480.9 1119.3 483.1 1121 485.1C1124.5 489.3 1124.9 492 1122 492C1120.8 492 1119.4 490.8 1118.5 489C1117.5 487.1 1116.2 486 1114.9 486C1113.1 486 1112.9 485.8 1114.1 484.4C1115.1 483.2 1115.1 482.4 1114.2 480.9C1113.2 479.4 1113.3 479 1114.5 479C1115.3 479 1116.4 479.6 1116.9 480.2Z" fill="white"/>
<path d="M1015.9 35.4995C1012.7 37.5995 1012.2 38.4995 1011.6 43.1995C1011 47.8995 1011.3 49.1995 1013.5 53.1995C1016.4 58.4995 1019.3 59.6995 1022.1 56.8995C1023.1 55.8995 1024.1 54.6995 1024.1 54.1995C1025.8 44.5995 1025.4 35.9995 1023.2 34.3995C1020.9 32.5995 1020.1 32.6995 1015.9 35.4995Z" fill="white"/>
<path d="M470 117.2C469.1 119 469.2 120.2 470.4 122.5C471.7 124.9 471.7 125.6 470.6 126.2C468.2 127.6 470 132 473.6 133.8C476.8 135.3 478.3 137.6 478.4 141C478.5 142.3 484.9 145.3 485.9 144.4C486.1 144.2 485.2 143.1 483.9 142C481.9 140.4 481.7 139.9 483 139.1C484.2 138.3 484.2 137.8 482.6 136.1C481.5 134.9 480.1 134 479.3 134C478.5 134 478.2 133.5 478.5 133C478.8 132.4 481.3 132 483.9 132C489.4 132 493.2 129.2 491.1 126.6C490.2 125.5 490.7 124.7 493.7 122.4C497.4 119.6 497.4 119.6 495 118.9C491 117.8 490 117.9 490 119.5C490 120.4 489.1 121 487.6 121C486.2 121 484.8 121.5 484.5 122C484.1 122.6 483 122 481.8 120.5C480.6 119 478.8 118 477.3 118C475.8 118 473.9 117.3 472.9 116.4C471.2 114.9 471 114.9 470 117.2ZM477 125C477 125.5 476.3 126 475.5 126C474.7 126 474 125.5 474 125C474 124.4 474.7 124 475.5 124C476.3 124 477 124.4 477 125Z" fill="white"/>
<path d="M513.2 124.999C513.5 126.899 513.2 127.999 512.4 127.999C511.7 127.999 511.4 127.199 511.7 125.999C512.1 124.399 511.7 123.999 509.6 123.999C506.9 123.999 506.8 124.599 509.4 127.899C510 128.599 510.5 129.999 510.5 130.899C510.5 131.799 511.5 132.599 512.7 132.799C514.3 132.999 515 132.499 515.3 130.799C515.7 128.499 515.7 128.499 515.9 130.699C516 132.699 516.2 132.799 518.5 131.799C520.3 130.999 520.9 130.099 520.4 129.099C520.1 128.199 519.3 126.299 518.8 124.699C518.1 122.699 517.1 121.999 515.3 121.999C513.1 121.999 512.8 122.299 513.2 124.999Z" fill="white"/>
<path d="M529.4 127.2C529.7 127.9 530.3 129.3 530.6 130.2C531 131.2 532.1 132 533.1 132C534.5 132 535 131.3 535 129C535 126.3 534.7 126 531.9 126C529.8 126 529 126.4 529.4 127.2Z" fill="white"/>
<path d="M504 128.5C504 129.4 503.1 130 501.6 130C498.4 130 497.4 131.7 499.3 133.8C500 134.7 501 136.3 501.3 137.2C501.7 138.3 503 139 504.5 139C507 139 507 139 505.5 136C504.6 134.3 503.5 133.2 503 133.5C502.4 133.8 502.3 133.5 502.6 132.7C503.4 130.4 507 131.9 507 134.5C507 136.8 510.2 140.5 511.3 139.3C512.6 138.1 512 135.3 510 133.5C508.9 132.5 508 130.6 508 129.3C508 127.7 507.4 127 506 127C504.9 127 504 127.7 504 128.5Z" fill="white"/>
<path d="M488.2 134.6C488.6 134.9 488.5 136.1 487.9 137.2C486.6 139.7 488.3 142 491.6 142C493.3 142 493.8 141.6 493.4 140.5C492.9 139.4 493.5 139 495.5 139C497.7 139 498.1 138.6 497.8 136.7C497.5 134.8 496.8 134.5 492.5 134.2C489.8 134 487.9 134.2 488.2 134.6Z" fill="white"/>
<path d="M518.1 136.399C517.5 137.099 517.3 138.599 517.7 139.599C518.3 141.399 518.3 141.399 516.3 139.699C514.3 137.899 514.2 137.999 511.6 141.199C509.7 143.599 509 143.999 509 142.699C509 141.599 508.2 140.999 506.5 140.999C505.1 140.999 504 141.399 504 141.899C504 142.399 502.6 142.699 500.9 142.599C497.7 142.499 497.4 142.899 496.8 147.399C496.4 149.999 503 151.599 506.3 149.799C508.9 148.399 512.9 148.099 513.6 149.199C514.6 150.799 517.9 149.999 520.9 147.399C523.1 145.499 524 145.199 524 146.299C524 147.899 526 148.999 528.8 148.999C529.7 148.999 531.7 147.799 533.2 146.299C537.7 141.999 536.5 136.199 531.7 139.299C528.5 141.299 524.7 142.099 523 140.999C522 140.299 521.9 139.999 522.8 139.999C523.4 139.999 524 138.899 524 137.499C524 135.499 523.5 134.999 521.6 134.999C520.3 134.999 518.7 135.599 518.1 136.399Z" fill="white"/>
<path d="M847.1 136.9C845.7 139.5 847.2 142.2 849.6 141.3C851.4 140.6 851.4 138.9 849.6 136.5C848.3 134.7 848.2 134.7 847.1 136.9Z" fill="white"/>
<path d="M628.4 151.7C628.1 152.8 626.3 154.4 624.4 155.5C621.6 157 621 157.9 621 160.6C621 162.4 620.5 165.1 619.8 166.5C618.9 168.5 619 169.6 620 171.8C620.8 173.3 621.6 174.9 621.9 175.4C622.1 175.9 620.9 176 619 175.7C616 175.1 615.8 175.2 616.4 177.3C616.7 178.5 617 180.3 617 181.2C617 183.5 622.9 186.4 624.6 184.9C625.5 184.2 626 184.1 626 184.8C626 185.3 625.3 186.3 624.5 187C622.8 188.4 624.2 191 626.6 191C627.4 191 628.5 192.1 629 193.5C629.5 194.8 631.3 196.6 633 197.5C634.6 198.3 636 199.5 636 200.1C636 200.9 636.4 200.9 637.4 200.1C638.6 199.1 639.4 199.2 641.4 200.5C644.5 202.6 648.1 201.9 651 198.8C653 196.7 653 196.6 651 193.3C649.9 191.4 649.5 189.8 650.1 189.5C650.6 189.1 650.9 186.4 650.7 183.3C650.4 178.4 650 177.6 647.7 176.3C646.2 175.5 644.5 175.2 644 175.5C643.4 175.8 643 175.2 643 174.1C643 172.9 642.4 172 641.6 172C640.8 172 639.9 171.3 639.6 170.4C638.6 167.9 638.9 163 640 163C641.9 163 641 160.7 637.6 157C635.8 155 634.1 152.8 633.9 152.3C633.7 151.7 632.5 150.9 631.2 150.5C629.4 150 628.7 150.2 628.4 151.7ZM628.4 179.5C628 180.3 627.6 181 627.4 181C627.2 181 627 180.3 627 179.5C627 178.7 627.4 178 628 178C628.5 178 628.7 178.7 628.4 179.5Z" fill="white"/>
<path d="M506.1 152.3C504 154.4 504.8 157 507.5 157C508.9 157 510 156.6 510 156.1C510 155.6 510.3 154.5 510.6 153.7C511.2 151.9 507.6 150.8 506.1 152.3Z" fill="white"/>
<path d="M613 153.5C612 154.8 612.1 155.4 613.5 157C615.2 158.9 615.4 158.9 617.2 157.4C619.8 154.9 619.5 152 616.6 152C615.3 152 613.7 152.7 613 153.5Z" fill="white"/>
<path d="M872.7 155C870.1 157.2 869 157.6 868.2 156.8C867.3 155.9 866.2 156.4 863.6 158.9C860.6 161.8 859.9 162 858 161C856 159.9 855.9 160 856.5 162.2C858.5 168.7 863.8 172.4 867 169.5C867.9 168.7 869.8 168 871.2 168C875.7 168 880.3 164 881.3 159.2C882.8 151.7 878.7 149.7 872.7 155Z" fill="white"/>
<path d="M576.8 156.099C574.5 157.399 574.5 158.699 576.9 159.999C578.4 160.699 579.4 160.499 581.2 159.099C582.4 157.999 583.3 156.999 583 156.699C581.7 155.499 578.3 155.199 576.8 156.099Z" fill="white"/>
<path d="M848 166.699C846.1 166.999 843.7 167.899 842.8 168.699C841.4 169.899 840.7 169.999 839.6 169.099C838.5 168.199 837.4 168.199 834.5 169.399C830.8 170.999 830.7 171.299 832.7 176.499C833.1 177.699 825.1 177.899 823.2 176.699C822.4 176.099 821.8 176.799 821.4 178.999C821 180.699 820.3 182.299 819.9 182.599C818.7 183.299 818.8 187.699 820 188.499C820.6 188.799 821 189.899 821 190.899C821 191.899 821.9 192.999 822.9 193.299C824 193.499 825 194.799 825.2 195.999C825.5 198.499 826.6 199.199 832.5 200.999C838.7 202.799 843.2 201.999 844 198.999C845.2 194.599 849.9 187.999 851.4 188.599C853.4 189.399 857.2 183.999 856.7 181.199C856.5 179.999 856.7 178.699 857.1 178.399C858.5 177.599 858.1 174.299 856.5 172.599C855.7 171.799 855 169.999 855 168.599C855 165.899 855.1 165.899 848 166.699Z" fill="white"/>
<path d="M562.5 180.4C560.6 181.8 560.6 181.9 563 183.9C564.4 185 565.8 185.9 566.1 186C567.5 186 567.8 181.7 566.5 180.4C564.8 178.7 564.8 178.7 562.5 180.4Z" fill="white"/>
<path d="M656.7 186.8C655.8 187.8 654.8 191.2 654.4 194.3C654 197.5 653.3 200.3 652.9 200.6C652.4 200.9 652 202.8 652 204.8C652 206.8 651.6 210.2 651.1 212.2C650.4 215.4 650.5 216 652 216.5C653.1 216.8 655.4 216 657.6 214.5C659.7 213.1 662.5 211.7 663.9 211.3C668.1 210.4 672.9 207 674.5 204.1C675.8 201.6 675.7 200.9 673.8 197.2C672.7 194.9 671.4 193.3 670.9 193.6C670.3 193.9 669 193 667.8 191.5C666.7 190.1 665.2 189.1 664.5 189.4C663.7 189.7 662.9 188.9 662.6 187.4C661.8 184.5 659 184.2 656.7 186.8Z" fill="white"/>
<path d="M815.5 194C815.2 194.5 815.4 195.7 815.9 196.7C816.4 197.7 817.1 199.3 817.4 200.2C817.7 201.2 818.9 202 820 202C822.3 202 822.8 198.3 821 194.9C819.9 192.9 816.5 192.3 815.5 194Z" fill="white"/>
<path d="M863.4 201.1C860.1 204.6 859.2 204.7 858.8 201.8C858.5 199.2 855.6 198.3 853.5 200C851.4 201.7 851.6 204.3 854.1 207.4C856.1 209.9 856.3 210 857.5 208.4C858.6 206.8 858.8 206.8 860.1 209.1C860.8 210.4 861.3 212.2 861.2 213.1C861 214 861.6 215.2 862.4 215.9C863.6 216.9 864 216.7 864.5 215.1C864.9 213.9 866.9 212.5 869.8 211.5C872.4 210.7 875.6 209.1 876.9 208.1C879.1 206.4 879.2 206.2 877.6 203.2C876.4 200.9 875.2 200 873.5 200C872.2 200 870 199.6 868.7 199.1C866.6 198.3 865.8 198.6 863.4 201.1Z" fill="white"/>
<path d="M676.4 205.6C676.7 207.4 680.6 209.9 683.2 210C685.5 210 686.3 208.4 685 206C683.6 203.4 676 203 676.4 205.6Z" fill="white"/>
<path d="M832.5 218.099C832.1 218.699 832 219.199 832.1 219.399C837 222.599 838.2 223.099 839.5 221.999C841.8 220.099 839.6 216.999 836 216.999C834.4 216.999 832.8 217.499 832.5 218.099Z" fill="white"/>
<path d="M508 222.8C505.5 224.1 502.7 225.9 501.8 226.7C499.6 228.6 489.5 227.8 487 225.5C484.8 223.6 482.6 223.6 480.9 225.6C479.9 226.8 478.4 227.1 475.3 226.7C470.5 226.2 465.1 227.7 462.1 230.4C460.7 231.7 459.3 232 457.5 231.6C455.7 231.1 455 231.4 455 232.5C455 234.3 453.8 234.4 452.3 232.9C450.6 231.2 449 232.8 449.2 235.8C449.5 239.5 448.4 241 445.3 241C443.8 241 443 241.3 443.3 241.6C444.4 242.7 436.2 247.9 431.4 249.2C426.2 250.6 424.8 252.6 427.5 254.6C428.5 255.4 428.8 256 428.2 256C427.5 256 427 256.6 427 257.4C427 258.4 425.9 258.6 422.5 258.2C418.2 257.8 418 257.9 418 260.3C418 262.2 417.6 262.8 416.6 262.4C415.8 262.1 414 262.6 412.5 263.6C410.1 265.2 410 265.5 411.4 266.5C412.8 267.6 412.8 267.9 411.1 269.4C410.1 270.3 407 271.3 404.2 271.7C398.8 272.3 397 273.9 395.7 278.9C395.2 280.8 395.8 282.1 398.7 284.7C403.1 288.9 404.6 294.1 401.9 296.4C400.8 297.3 400 298.8 400 299.8C400 301.8 406.9 309 408.8 309C409.5 309 410 309.4 410 309.9C410 310.4 411 311 412.3 311.2C413.7 311.4 414.6 312.3 414.8 313.7C415.1 315.9 415.2 315.9 418.6 314.3C422.3 312.5 422.7 310.9 420.6 307C419.6 305.4 419.5 303.8 420.1 302.2C420.6 300.8 420.6 299.2 420.1 298.2C418.9 295.9 419.9 287.3 421.6 285.9C422.4 285.3 423 284.2 423 283.4C423 282.7 423.9 281.9 424.9 281.5C426.1 281.2 427 279.8 427.2 278.2C427.4 276 428.1 275.4 430.5 275.2C432.6 275 434.1 273.9 435.8 271.5C437 269.6 438.6 268 439.4 268C440.1 268 441.3 267.3 442 266.5C442.9 265.4 443.6 265.2 444.4 266C446 267.6 447 267.2 447 265C447 263.9 447.7 263 448.5 263C449.3 263 450 262.6 450 262C450 261.5 451.8 259.8 454 258.4C456.2 256.9 458 255.1 458 254.3C458 253.4 458.6 253 459.5 253.4C460.3 253.7 461 253.5 461 253C461 252.4 462.6 252 464.6 252C469.2 252 472.1 250.4 471.3 248.4C470.5 246.4 472.6 245 476.6 245C478.3 245 480.3 244.3 481 243.5C481.9 242.4 484.3 242 489.6 242C493.6 242 497.1 241.6 497.5 241C497.9 240.4 498.9 240.5 500.4 241.1C502.2 241.9 503.4 241.8 505.8 240.6C507.5 239.7 510 239 511.2 239C512.6 239 515.1 237.5 517.3 235.2C520.1 232.3 521 230.6 521 228C520.9 220.9 515.6 218.8 508 222.8Z" fill="white"/>
<path d="M686.6 221.7C685.8 223.8 687.4 225.5 689.4 224.7C691.6 223.9 691.4 222.3 689.1 221.1C687.6 220.3 687.1 220.4 686.6 221.7Z" fill="white"/>
<path d="M608.6 232.6C608.2 233.5 608.5 234.9 609.2 235.7C610.3 237 610.7 236.9 612.2 235C613.2 233.8 614 232.4 614 231.9C614 230.3 609.2 231 608.6 232.6Z" fill="white"/>
<path d="M639.5 233C638.5 234.1 637 235 636.1 235C634.9 235 635 235.5 636.7 237.2C638.9 239.3 639 239.3 641 237.5C643 235.7 643.8 231 642.2 231C641.7 231 640.5 231.9 639.5 233Z" fill="white"/>
<path d="M1172.7 237.2C1170.5 238.4 1170.4 246.2 1172.5 248C1173.3 248.7 1174 250.1 1174 251.1C1174 252.2 1175.3 253.6 1177.1 254.6L1180.3 256.2L1179.6 252.4C1179.2 250.2 1178.8 246.1 1178.7 243.1C1178.5 238.7 1178.1 237.6 1176.4 237C1175.3 236.5 1173.6 236.6 1172.7 237.2Z" fill="white"/>
<path d="M1256.4 247.099C1253.4 248.199 1252.5 249.899 1254.2 251.599C1255.4 252.799 1256 252.599 1258.4 250.099C1261.3 246.999 1260.4 245.599 1256.4 247.099Z" fill="white"/>
<path d="M577.1 255.4C575.4 257.4 578.3 259.4 581.7 258.5L584.5 257.8L582 255.9C579 253.7 578.6 253.6 577.1 255.4Z" fill="white"/>
<path d="M1239 257C1238.3 257.4 1238.1 258.6 1238.5 259.9C1239 261.7 1239.9 262 1244.4 262C1248.4 262 1250.1 261.5 1251.5 260C1252.5 258.9 1253 257.7 1252.7 257.3C1251.7 256.4 1240.5 256.1 1239 257Z" fill="white"/>
<path d="M573.6 266.3C571.5 267.9 572.2 272 574.6 272C576.6 272 577.5 269.4 576.4 266.9C575.6 265.2 575.3 265.1 573.6 266.3Z" fill="white"/>
<path d="M724.2 269.3C721.8 271.8 721.3 275 723.2 275C723.8 275 725.1 275.7 726 276.5C727.6 277.9 728 277.8 730.9 275.5C733.1 273.6 734 271.9 734 269.9C734 267.2 733.7 267 730.2 267C727.5 267 725.7 267.7 724.2 269.3Z" fill="white"/>
<path d="M588.8 282.9C587.3 284.4 587.6 286.4 589.6 288.9C590.3 289.7 593 286.7 593 285C593 282.1 590.8 281 588.8 282.9Z" fill="white"/>
<path d="M509 288.8C509 289.3 507.8 290.2 506.4 290.9C504.9 291.6 504 292.6 504.3 293.4C504.6 294.1 504.4 295.2 503.9 295.7C502.1 297.5 505.9 300.3 509.3 299.6C510.9 299.3 512.9 299 513.6 299C515.7 299 515.3 296.4 512.5 292C510 288.1 509 287.2 509 288.8Z" fill="white"/>
<path d="M573.7 290.7C572.4 291.9 573 294 574.7 294C575.6 294 577.2 294.7 578.2 295.7C579.9 297.2 580 297.2 580 294.3C580 292.4 579.4 291 578.4 290.6C576.4 289.8 574.5 289.8 573.7 290.7Z" fill="white"/>
<path d="M534 296.5C532.4 298.4 534.6 301.6 536.4 300.1C537.1 299.5 538.6 299.3 539.8 299.7C542.3 300.3 542.5 299.8 541 296.9C539.7 294.6 535.8 294.4 534 296.5Z" fill="white"/>
<path d="M353.6 307.5C348.7 313.8 353.1 318.8 362.2 317.4C367.5 316.5 368.6 313.7 365.8 308.1C364 304.4 363.4 304 360 304C356.9 304 355.8 304.6 353.6 307.5Z" fill="white"/>
<path d="M238.4 307.5C238 308.3 238.3 309.7 239 310.5C240.1 311.9 240.5 311.9 242.2 310.3C244 308.7 244 308.5 242.4 307.3C240.1 305.6 239.1 305.7 238.4 307.5Z" fill="white"/>
<path d="M550.4 311.5C549.8 313.9 551.3 317 553.1 317C553.6 317 554.7 315.9 555.6 314.5C556.9 312.5 557 311.7 556 310.5C554 308.1 551.1 308.7 550.4 311.5Z" fill="white"/>
<path d="M8.40004 314.4C7.30004 315.3 5.40004 315.6 3.70004 315.3C1.10004 314.8 1.00004 314.9 1.90004 317.1C5.50004 326.4 8.90004 332.3 13.7 337.8L19.2 344L23.3 341.8C28.9 338.7 30.2 335.1 27.2 331C25.8 329.2 25 326.6 25 324.2C25 321.1 24.5 319.9 22.6 318.7C20.5 317.3 20.1 317.3 18.7 318.7C17.2 320.2 17 320.2 16.4 318.4C15.4 315.8 12.9 313 11.5 313C10.9 313 9.50004 313.6 8.40004 314.4Z" fill="white"/>
<path d="M1251.6 390.5C1250.1 392.8 1250.1 393.2 1251.6 395.5C1252.7 397.2 1253.1 399.2 1252.7 401.4C1252 405.7 1254.9 409.1 1257.5 407C1258.3 406.3 1259 404.8 1259 403.6C1259 402.4 1259.5 400.9 1260.1 400.3C1260.9 399.5 1260.6 398.1 1259.1 395.4C1258 393.2 1256.9 390.7 1256.6 389.7C1255.8 387.2 1253.5 387.6 1251.6 390.5Z" fill="white"/>
<path d="M1260 416.4C1260 417.7 1260.7 419.3 1261.6 420C1262.8 421.1 1263.4 421 1264.8 419.6C1266.4 418 1266.4 417.8 1264 416C1260.7 413.4 1260 413.5 1260 416.4Z" fill="white"/>
<path d="M1275 471.5C1275 475.7 1275.2 476 1277.6 476C1279.6 476 1280.1 475.6 1279.6 474.4C1279.3 473.5 1279 471.5 1279 469.9C1279 467.7 1278.5 467 1277 467C1275.3 467 1275 467.7 1275 471.5Z" fill="white"/>
<path d="M1064 476.9C1064 477.5 1063.4 478 1062.6 478C1060.5 478 1059.2 480.1 1058.8 484C1058.5 487 1058.8 487.5 1060.7 487.5C1061.9 487.5 1063.2 487.9 1063.6 488.3C1064.8 489.5 1068 485.8 1068 483.3C1068 481.9 1067.1 479.7 1066 478.3C1064.9 476.9 1064 476.2 1064 476.9Z" fill="white"/>
<path d="M1273.8 495.7C1272.8 497.5 1272.3 500.4 1272.4 503.5C1272.6 508.1 1272.9 508.5 1275.1 508.5C1277.4 508.5 1277.5 508.1 1278 500.7C1278.4 494.2 1278.3 493 1277 493C1276.1 493 1274.7 494.2 1273.8 495.7Z" fill="white"/>
<path d="M1269.6 518.9C1268.7 520.3 1270 523 1271.5 523C1273 523 1274.3 520.3 1273.4 518.9C1273.1 518.4 1272.3 518 1271.5 518C1270.7 518 1269.9 518.4 1269.6 518.9Z" fill="white"/>
<path d="M1265.4 527.1C1264.2 529 1264.9 542.3 1266.3 543.2C1268.5 544.6 1269.5 543.4 1269.7 538.9C1269.9 536.5 1270.3 533.2 1270.6 531.6C1271.1 529.4 1270.8 528.4 1269.5 527.3C1267.2 525.7 1266.3 525.7 1265.4 527.1Z" fill="white"/>
<path d="M1261.7 552.7C1260.1 553.1 1260 553.8 1260.5 557.3C1261.8 565 1264.9 564.8 1265.3 557C1265.5 552.6 1264.9 551.9 1261.7 552.7Z" fill="white"/>
<path d="M1272.4 556.1C1271.4 557.8 1274.7 560.7 1276.1 559.3C1276.8 558.6 1277 557.4 1276.7 556.6C1276 554.8 1273.4 554.5 1272.4 556.1Z" fill="white"/>
</svg>
