<svg width="439" height="396" viewBox="0 0 439 396" fill="none" xmlns="http://www.w3.org/2000/svg">
<g clip-path="url(#clip0_82_9703)">
<path d="M435.6 390.627C435.6 390.727 339.1 390.927 220 390.927C100.9 390.927 4.3999 390.827 4.3999 390.627C4.3999 390.427 100.9 390.327 220 390.327C339.1 390.327 435.6 390.527 435.6 390.627Z" fill="#263238"/>
<path d="M342.1 11.6271H153.2V184.627H342.1V11.6271Z" fill="#FAFAFA"/>
<path d="M342.6 185.127H152.7V11.1271H342.6V185.127ZM153.7 184.127H341.6V12.1271H153.7V184.127Z" fill="#263238"/>
<path d="M345.5 1.22711H148.8V12.2271H345.5V1.22711Z" fill="#263238"/>
<path d="M153.6 12.2271L341.7 30.7271L341.6 12.2271H153.6Z" fill="#E0E0E0"/>
<path d="M188.9 69.9271H182.6V140.727H188.9V69.9271Z" fill="#E8505B"/>
<path d="M201.1 94.0271H194.8V140.727H201.1V94.0271Z" fill="#E8505B"/>
<path d="M213.3 78.7271H207V141.027H213.3V78.7271Z" fill="#E8505B"/>
<path d="M225.6 72.6271H219.3V140.727H225.6V72.6271Z" fill="#E8505B"/>
<path d="M237.8 95.4271H231.5V140.727H237.8V95.4271Z" fill="#E8505B"/>
<path d="M250.1 104.327H243.8V140.727H250.1V104.327Z" fill="#E8505B"/>
<path d="M262.3 77.2271H256V140.727H262.3V77.2271Z" fill="#E8505B"/>
<path d="M274.5 88.6271H268.2V140.727H274.5V88.6271Z" fill="#E8505B"/>
<path d="M286.8 79.5271H280.5V140.727H286.8V79.5271Z" fill="#E8505B"/>
<path d="M299 99.0271H292.7V140.727H299V99.0271Z" fill="#E8505B"/>
<path d="M311.2 91.1271H304.9V140.727H311.2V91.1271Z" fill="#E8505B"/>
<path d="M307.4 86.0271C307.4 86.0271 307.3 86.0271 307 85.9271C306.7 85.8271 306.3 85.8271 305.8 85.7271C305.3 85.6271 304.6 85.5271 303.9 85.4271C303.1 85.3271 302.2 85.2271 301.2 85.2271C299.2 85.1271 296.7 85.2271 293.9 85.8271C291.1 86.4271 288 87.5271 284.9 89.2271C281.8 91.0271 278.6 93.4271 275.7 96.5271C272.8 99.6271 270.4 103.527 268 107.627C265.5 111.727 263 116.127 259.3 119.927C257.5 121.827 255.4 123.527 252.9 124.727C251.7 125.327 250.3 125.727 249 125.927C247.6 126.127 246.2 126.027 244.8 125.827C242 125.227 239.6 123.727 237.5 122.027C235.4 120.327 233.7 118.227 232.1 116.127C229 111.927 226.8 107.427 224.4 103.227C222.1 99.1271 219.6 95.2271 216.7 92.2271C215.2 90.7271 213.6 89.4271 211.9 88.4271C211.1 87.9271 210.2 87.5271 209.3 87.1271C208.4 86.8271 207.6 86.5271 206.7 86.3271C203.2 85.5271 199.9 85.8271 197.1 86.6271C194.4 87.4271 192.2 88.6271 190.5 89.8271C188.9 91.0271 187.8 92.1271 187.1 92.9271C186.8 93.3271 186.5 93.6271 186.3 93.8271C186.1 94.0271 186 94.1271 186 94.1271C186 94.1271 186.1 94.0271 186.2 93.8271C186.4 93.6271 186.6 93.3271 187 92.9271C187.7 92.1271 188.8 91.0271 190.4 89.7271C192 88.5271 194.2 87.2271 197 86.4271C199.8 85.6271 203.1 85.2271 206.7 86.1271C210.3 86.8271 213.9 88.9271 216.9 91.9271C219.9 95.0271 222.4 98.9271 224.7 103.027C227.1 107.127 229.3 111.727 232.4 115.827C233.9 117.927 235.7 119.927 237.7 121.627C239.7 123.327 242.1 124.727 244.7 125.327C246 125.627 247.4 125.627 248.7 125.427C250 125.227 251.3 124.827 252.5 124.227C254.9 123.127 257 121.427 258.7 119.527C262.3 115.827 264.8 111.427 267.3 107.427C269.8 103.327 272.2 99.4271 275.1 96.3271C278 93.2271 281.2 90.7271 284.4 89.0271C287.6 87.2271 290.7 86.2271 293.6 85.6271C296.4 85.0271 298.9 85.0271 301 85.1271C302 85.2271 302.9 85.2271 303.7 85.4271C304.5 85.5271 305.1 85.6271 305.6 85.8271C306.1 85.9271 306.5 86.0271 306.8 86.1271C307.2 85.9271 307.4 86.0271 307.4 86.0271Z" fill="#263238"/>
<path d="M175.6 145.627C175.5 145.627 175.3 125.427 175.3 100.527C175.3 75.6271 175.4 55.4271 175.6 55.4271C175.8 55.4271 175.9 75.6271 175.9 100.527C175.9 125.427 175.7 145.627 175.6 145.627Z" fill="#263238"/>
<path d="M313.9 145.627C313.9 145.727 283.8 145.927 246.8 145.927C209.7 145.927 179.6 145.827 179.6 145.627C179.6 145.527 209.7 145.327 246.8 145.327C283.8 145.427 313.9 145.527 313.9 145.627Z" fill="#263238"/>
<path d="M191.6 151.227C191.6 151.327 189.5 151.527 186.9 151.527C184.3 151.527 182.2 151.427 182.2 151.227C182.2 151.127 184.3 150.927 186.9 150.927C189.5 150.927 191.6 151.127 191.6 151.227Z" fill="#263238"/>
<path d="M207.2 151.527C207.2 151.627 204.7 151.827 201.6 151.827C198.5 151.827 196 151.727 196 151.527C196 151.327 198.5 151.227 201.6 151.227C204.7 151.227 207.2 151.327 207.2 151.527Z" fill="#263238"/>
<path d="M220.5 151.527C220.5 151.627 218 151.827 214.9 151.827C211.8 151.827 209.3 151.727 209.3 151.527C209.3 151.327 211.8 151.227 214.9 151.227C218 151.227 220.5 151.327 220.5 151.527Z" fill="#263238"/>
<path d="M233.8 151.527C233.8 151.627 231.3 151.827 228.2 151.827C225.1 151.827 222.6 151.727 222.6 151.527C222.6 151.327 225.1 151.227 228.2 151.227C231.3 151.227 233.8 151.327 233.8 151.527Z" fill="#263238"/>
<path d="M247.1 151.527C247.1 151.627 244.6 151.827 241.5 151.827C238.4 151.827 235.9 151.727 235.9 151.527C235.9 151.327 238.4 151.227 241.5 151.227C244.6 151.227 247.1 151.327 247.1 151.527Z" fill="#263238"/>
<path d="M260.4 151.527C260.4 151.627 257.9 151.827 254.8 151.827C251.7 151.827 249.2 151.727 249.2 151.527C249.2 151.327 251.7 151.227 254.8 151.227C257.9 151.227 260.4 151.327 260.4 151.527Z" fill="#263238"/>
<path d="M273.8 151.527C273.8 151.627 271.3 151.827 268.2 151.827C265.1 151.827 262.6 151.727 262.6 151.527C262.6 151.327 265.1 151.227 268.2 151.227C271.2 151.227 273.8 151.327 273.8 151.527Z" fill="#263238"/>
<path d="M287.1 151.527C287.1 151.627 284.6 151.827 281.5 151.827C278.4 151.827 275.9 151.727 275.9 151.527C275.9 151.327 278.4 151.227 281.5 151.227C284.5 151.227 287.1 151.327 287.1 151.527Z" fill="#263238"/>
<path d="M300.4 151.527C300.4 151.627 297.9 151.827 294.8 151.827C291.7 151.827 289.2 151.727 289.2 151.527C289.2 151.327 291.7 151.227 294.8 151.227C297.9 151.227 300.4 151.327 300.4 151.527Z" fill="#263238"/>
<path d="M313.7 151.527C313.7 151.627 311.2 151.827 308.1 151.827C305 151.827 302.5 151.727 302.5 151.527C302.5 151.327 305 151.227 308.1 151.227C311.2 151.227 313.7 151.327 313.7 151.527Z" fill="#263238"/>
<path d="M225.9 103.527C225.9 103.427 226.5 103.627 226.7 104.427C226.8 104.827 226.8 105.227 226.6 105.727C226.5 105.927 226.2 106.227 225.9 106.327C225.6 106.427 225.2 106.327 225 106.227C224.4 105.927 224.1 105.327 224.2 104.727C224.2 104.227 224.5 103.727 224.8 103.527C225.1 103.327 225.5 103.227 225.7 103.327C225.8 103.427 225.9 103.527 225.9 103.527C225.9 103.627 225.4 103.427 225 103.827C224.8 104.027 224.6 104.327 224.6 104.727C224.6 105.127 224.8 105.527 225.2 105.727C225.6 105.927 226 105.827 226.2 105.527C226.4 105.227 226.4 104.827 226.4 104.527C226.2 103.827 225.9 103.627 225.9 103.527Z" fill="#263238"/>
<path d="M287.2 86.4271C287.2 86.4271 287.3 86.3271 287.6 86.4271C287.9 86.5271 288.2 86.7272 288.4 87.1272C288.6 87.5272 288.8 88.1272 288.6 88.7272C288.4 89.3272 287.9 90.0272 287 90.0272C286.6 90.0272 286.2 89.7272 286 89.5272C285.8 89.2272 285.6 88.9272 285.6 88.6272C285.5 88.0272 285.6 87.4272 285.9 87.0272C286.5 86.2272 287.2 86.2272 287.2 86.3272C287.2 86.4272 286.6 86.5272 286.3 87.2272C286.1 87.5272 286.1 88.0272 286.2 88.5272C286.3 89.0272 286.7 89.5272 287.2 89.5272C287.7 89.5272 288.2 89.1272 288.3 88.6272C288.5 88.1272 288.4 87.6272 288.2 87.3272C287.7 86.6272 287.1 86.5271 287.2 86.4271Z" fill="#263238"/>
<path d="M288.1 53.0271C288 53.0271 287.8 52.7271 287.8 52.2271C287.8 51.8271 287.9 51.4271 288.1 51.4271C288.2 51.4271 288.4 51.7271 288.4 52.2271C288.4 52.7271 288.3 53.0271 288.1 53.0271Z" fill="#263238"/>
<path d="M288.1 59.6271C288 59.6271 287.8 58.9271 287.8 58.0271C287.8 57.1271 287.9 56.4271 288.1 56.4271C288.2 56.4271 288.4 57.1271 288.4 58.0271C288.4 58.8271 288.3 59.6271 288.1 59.6271Z" fill="#263238"/>
<path d="M288.1 66.2271C288 66.2271 287.8 65.5271 287.8 64.6271C287.8 63.7271 287.9 63.0271 288.1 63.0271C288.2 63.0271 288.4 63.7271 288.4 64.6271C288.4 65.4271 288.3 66.2271 288.1 66.2271Z" fill="#263238"/>
<path d="M288.1 72.7271C288 72.7271 287.8 72.0271 287.8 71.1271C287.8 70.2271 287.9 69.5271 288.1 69.5271C288.2 69.5271 288.4 70.2271 288.4 71.1271C288.4 72.0271 288.3 72.7271 288.1 72.7271Z" fill="#263238"/>
<path d="M288.1 79.3271C288 79.3271 287.8 78.6271 287.8 77.7271C287.8 76.8271 287.9 76.1271 288.1 76.1271C288.2 76.1271 288.4 76.8271 288.4 77.7271C288.4 78.6271 288.3 79.3271 288.1 79.3271Z" fill="#263238"/>
<path d="M288.1 84.1271C288 84.1271 287.8 83.8271 287.8 83.3271C287.8 82.9271 287.9 82.5271 288.1 82.5271C288.2 82.5271 288.4 82.8271 288.4 83.3271C288.4 83.8271 288.3 84.1271 288.1 84.1271Z" fill="#263238"/>
<path d="M333.2 40.3271C333.2 40.4271 322.8 40.6271 310 40.6271C297.2 40.6271 286.8 40.5271 286.8 40.3271C286.8 40.2271 297.2 40.0271 310 40.0271C322.8 40.1271 333.2 40.2271 333.2 40.3271Z" fill="#263238"/>
<path d="M317.4 33.8271C317.4 33.9271 310.7 34.1271 302.5 34.1271C294.2 34.1271 287.6 34.0271 287.6 33.8271C287.6 33.7271 294.3 33.5271 302.5 33.5271C310.7 33.6271 317.4 33.7271 317.4 33.8271Z" fill="#263238"/>
<g opacity="0.3">
<path opacity="0.3" d="M188.9 69.9271H182.6V140.727H188.9V69.9271Z" fill="white"/>
</g>
<g opacity="0.3">
<path opacity="0.3" d="M201.1 94.0271H194.8V140.727H201.1V94.0271Z" fill="white"/>
</g>
<g opacity="0.3">
<path opacity="0.3" d="M213.3 78.7271H207V141.027H213.3V78.7271Z" fill="white"/>
</g>
<g opacity="0.3">
<path opacity="0.3" d="M225.6 72.6271H219.3V140.727H225.6V72.6271Z" fill="white"/>
</g>
<g opacity="0.3">
<path opacity="0.3" d="M237.8 95.4271H231.5V140.727H237.8V95.4271Z" fill="white"/>
</g>
<g opacity="0.3">
<path opacity="0.3" d="M250.1 104.327H243.8V140.727H250.1V104.327Z" fill="white"/>
</g>
<g opacity="0.3">
<path opacity="0.3" d="M262.3 77.2271H256V140.727H262.3V77.2271Z" fill="white"/>
</g>
<g opacity="0.3">
<path opacity="0.3" d="M274.5 88.6271H268.2V140.727H274.5V88.6271Z" fill="white"/>
</g>
<g opacity="0.3">
<path opacity="0.3" d="M286.8 79.5271H280.5V140.727H286.8V79.5271Z" fill="white"/>
</g>
<g opacity="0.3">
<path opacity="0.3" d="M299 99.0271H292.7V140.727H299V99.0271Z" fill="white"/>
</g>
<g opacity="0.3">
<path opacity="0.3" d="M311.2 91.1271H304.9V140.727H311.2V91.1271Z" fill="white"/>
</g>
<path d="M382.057 377.84H388.957V294.94H382.057V377.84Z" fill="#455A64"/>
<path d="M336.5 298.727H435.5C435.5 292.827 430.7 288.027 424.8 288.027H347.3C341.3 287.927 336.5 292.727 336.5 298.727Z" fill="#455A64"/>
<path d="M378.8 298.927C378.8 299.027 381.5 299.227 384.9 299.227C388.3 299.227 391 299.127 391 298.927C391 298.827 388.3 298.627 384.9 298.627C381.5 298.627 378.8 298.727 378.8 298.927Z" fill="#263238"/>
<path d="M355.2 385.327H356.2C356.2 369.127 369.4 355.927 385.6 355.927C401.8 355.927 415 369.127 415 385.327H416C416 368.527 402.4 354.927 385.6 354.927C368.9 354.927 355.2 368.527 355.2 385.327Z" fill="#455A64"/>
<path d="M411 386.827C411 389.327 413 391.427 415.6 391.427C418.1 391.427 420.2 389.427 420.2 386.827C420.2 384.327 418.2 382.227 415.6 382.227C413 382.327 411 384.327 411 386.827Z" fill="#263238"/>
<path d="M350.9 386.227C350.9 388.727 352.9 390.827 355.5 390.827C358 390.827 360.1 388.827 360.1 386.227C360.1 383.727 358.1 381.627 355.5 381.627C353 381.627 350.9 383.727 350.9 386.227Z" fill="#455A64"/>
<path d="M355.5 377.827C355.5 377.927 368.7 378.127 385.1 378.127C401.4 378.127 414.7 378.027 414.7 377.827C414.7 377.627 401.5 377.527 385.1 377.527C368.7 377.627 355.5 377.727 355.5 377.827Z" fill="#455A64"/>
<path d="M438.4 212.827V273.827C438.4 281.827 431.9 288.327 423.9 288.327H376.9L383.3 212.827C383.3 209.227 386.2 206.327 389.8 206.327H432C435.5 206.427 438.4 209.327 438.4 212.827Z" fill="#455A64"/>
<path d="M421.8 287.927C421.8 287.927 421.8 287.827 421.9 287.727C422 287.627 422.1 287.427 422.2 287.227C422.5 286.827 423 286.127 423.5 285.327C424.6 283.627 426 281.027 427 277.527C427.5 275.827 427.9 273.827 428.2 271.727C428.4 269.627 428.4 267.327 428.4 264.927C428.4 260.127 428.4 254.827 428.4 249.327C428.4 238.227 428.5 228.227 428.5 221.027C428.5 217.427 428.6 214.527 428.6 212.427C428.6 211.427 428.6 210.627 428.6 210.127C428.6 209.627 428.6 209.327 428.6 209.327C428.6 209.327 428.6 209.627 428.6 210.127C428.6 210.727 428.6 211.527 428.6 212.427C428.6 214.527 428.6 217.427 428.7 221.027C428.7 228.327 428.7 238.327 428.8 249.327C428.8 254.827 428.8 260.127 428.8 264.927C428.8 267.327 428.8 269.627 428.6 271.727C428.4 273.827 427.9 275.827 427.4 277.527C426.3 281.027 424.8 283.627 423.7 285.327C423.1 286.127 422.7 286.827 422.3 287.227C422 287.727 421.8 287.927 421.8 287.927Z" fill="#263238"/>
<path d="M396.2 287.927C396.2 287.927 396.7 287.827 397.7 287.827C398.7 287.827 400.1 287.827 401.8 287.827C405.2 287.827 410 287.827 415.2 287.827C417.8 287.827 420.3 287.827 422.6 287.927C424.9 287.927 427 288.127 428.6 288.627C430.3 289.127 431.5 289.927 432.2 290.527C432.6 290.827 432.8 291.127 433 291.327C433.2 291.527 433.2 291.627 433.2 291.627C433.2 291.627 432.8 291.227 432.1 290.627C431.3 290.027 430.2 289.327 428.5 288.927C426.9 288.527 424.8 288.427 422.5 288.427C420.2 288.427 417.7 288.427 415.1 288.427C409.9 288.427 405.1 288.327 401.7 288.227C400 288.227 398.7 288.127 397.6 288.127C396.7 288.027 396.2 288.027 396.2 287.927Z" fill="#263238"/>
<path d="M352.9 148.227C351.5 152.527 350.1 156.827 350.2 161.327C350.2 163.427 350.6 165.627 349.6 167.427C348.9 168.727 347.6 169.527 346.6 170.527C344.2 173.127 343.5 177.227 345 180.527C345.5 181.627 346.3 182.727 347.4 183.327C348.6 184.027 350.1 184.227 351.5 184.327C356.3 184.627 361.1 184.427 365.8 183.727C368.1 183.427 370.5 182.827 371.9 181.027C373.1 179.427 373.2 177.227 373.2 175.127C372.9 167.427 371 159.727 367.6 152.727" fill="#263238"/>
<path d="M384.9 143.627C387.1 142.927 389.7 144.927 389.5 147.227C389.3 149.527 386.5 151.127 384.4 150.127C386.7 149.727 388.9 151.427 390 153.527C391.1 155.627 391.3 157.927 391.9 160.227C392.4 162.527 393.4 164.827 395.4 166.027C397.3 167.227 400 167.227 401.2 169.027C402.5 170.927 401.4 173.527 401.9 175.827C402.4 178.027 404.5 179.527 406.3 180.927C408.1 182.327 410 184.227 409.9 186.527C409.8 188.327 408.4 189.927 406.8 190.727C405.1 191.527 403.3 191.727 401.4 191.727C392.3 192.127 383.2 190.927 374.6 188.227C373.2 187.827 371.8 187.327 370.9 186.127C369.5 184.427 369.9 181.927 370.2 179.827C371.5 173.027 372.7 166.127 375 159.527C377.2 152.927 380.5 146.627 385.3 141.627" fill="#263238"/>
<path d="M398.4 209.427H409.1L405.3 190.427C402.5 174.827 380.7 173.727 380.7 173.727L363.6 173.427C363.6 173.427 350.9 171.727 343 180.527C341.4 182.327 339.7 184.227 338 186.027L319.4 205.527L317.4 181.127L301.5 183.627L303.7 214.327C304.2 219.227 307.4 223.727 312.1 225.227C315.5 226.327 319 225.327 322.5 223.627C331.8 219.027 349.2 204.327 350.5 203.127C349.7 204.827 348.1 208.527 348.1 212.027C348.1 217.127 353.3 220.927 353.3 220.927L354.9 236.427L349.5 261.327L405.5 259.127C404.4 250.127 401.5 242.327 397.2 235.627L398.4 209.427ZM350.6 203.027C350.6 203.027 350.5 202.827 350.4 202.627L351 202.227C351 202.227 350.9 202.527 350.6 203.027Z" fill="#E8505B"/>
<path d="M373.3 252.727C370.2 254.827 366.4 257.227 364.2 258.227C360.2 260.127 360 259.727 359.9 259.227C359.5 257.927 366.8 255.627 364.9 255.227C363 254.827 356.4 259.027 356 257.627C355.5 255.827 363.2 253.527 363.8 253.327C364.4 253.127 364.1 252.227 363.5 252.427C362.7 252.727 354.2 256.227 353.7 254.427C353.4 253.427 355.3 253.127 355.3 253.127C355.3 253.127 363.5 250.427 363.3 249.627C363 248.727 358.1 250.127 356.5 250.727C354.9 251.327 354 250.827 354.3 249.927C354.5 249.327 359.4 247.427 361 246.827C362.6 246.327 367.1 244.827 364.3 243.827C361.5 242.727 359.7 240.927 359.6 240.127C359.5 239.327 360.6 238.827 361.2 239.527C361.7 240.027 362.9 240.727 363.8 241.127C364.5 241.527 365.3 241.727 366.1 241.827C366.8 241.927 367.4 241.927 368 242.027L374 242.427L377 250.327L373.3 252.727Z" fill="#FFBE9D"/>
<path d="M399.4 180.827C399.4 180.827 404.3 184.227 406.4 191.327C407.7 195.627 411.5 210.327 414.3 221.227C416.1 228.327 412.1 235.627 405.2 237.927L373.7 254.927L368.6 241.627L396.2 223.427L389.5 198.727C388.4 194.927 387.9 191.127 389.3 187.427C390.8 183.727 393.6 180.127 399.4 180.827Z" fill="#E8505B"/>
<path d="M302.5 184.627L300.6 178.527C299.7 174.127 303.2 173.427 303.8 172.827C305.6 170.827 306.9 170.327 306.9 170.327L306.6 168.527C306.6 168.527 305.6 164.027 305.6 162.827C305.6 161.727 307.5 161.727 307.8 162.727C308.4 165.027 309.5 168.927 310.1 170.427C310.9 172.327 312.6 177.327 314.4 174.227C316.2 171.127 316 169.327 316.3 168.327C316.6 167.327 318.9 167.127 318.4 169.227C318.2 170.127 318.1 171.627 317.6 173.727C317.4 174.627 316.8 175.827 316.6 176.727C316.3 177.827 316.2 181.927 316 182.627L302.5 184.627Z" fill="#FFBE9D"/>
<path d="M303.5 173.927C303.6 173.927 303.7 174.627 304 175.727C304.2 176.227 304.4 176.927 304.7 177.627C304.9 177.927 305.1 178.327 305.1 178.827C305.1 179.327 305 179.927 304.4 180.127C303.8 180.327 303.3 180.127 302.9 179.827C302.5 179.527 302.2 179.227 302 178.927C301.6 178.227 301.4 177.527 301.2 176.927C301 175.727 301 175.027 301.1 175.027C301.2 175.027 301.3 175.727 301.6 176.827C301.8 177.327 302 178.027 302.4 178.627C302.6 178.927 302.9 179.227 303.2 179.427C303.5 179.627 303.9 179.727 304.2 179.627C304.5 179.527 304.6 179.127 304.6 178.827C304.6 178.527 304.4 178.127 304.3 177.727C304 177.027 303.8 176.327 303.7 175.727C303.4 174.627 303.5 173.927 303.5 173.927Z" fill="#EB996E"/>
<path d="M306.3 171.927C306.4 171.927 306.7 172.827 307.2 174.227C307.5 175.027 307.7 175.827 308 176.827C308.1 177.327 308.3 177.827 308.5 178.427C308.6 178.727 308.6 179.027 308.5 179.427C308.4 179.727 308.1 180.027 307.8 180.227C307.2 180.527 306.4 180.427 305.9 180.127C305.4 179.827 305 179.327 304.8 178.827C304.4 177.827 304.2 176.927 304 176.227C303.6 174.727 303.4 173.827 303.5 173.827C303.6 173.827 303.9 174.727 304.4 176.127C304.7 176.827 304.9 177.727 305.3 178.627C305.5 179.027 305.8 179.427 306.2 179.727C306.6 180.027 307.1 180.027 307.6 179.827C308 179.627 308.2 179.127 308.1 178.627C308 178.127 307.8 177.627 307.7 177.127C307.4 176.227 307.2 175.327 307 174.527C306.4 172.827 306.2 171.927 306.3 171.927Z" fill="#EB996E"/>
<path d="M317 211.327C316.9 211.227 317.3 209.927 318 208.327C318.7 206.727 319.3 205.427 319.5 205.527C319.6 205.627 319.2 206.927 318.5 208.527C317.8 210.127 317.1 211.327 317 211.327Z" fill="#263238"/>
<path d="M342 207.627C342 207.727 340.9 207.427 339.2 206.927C338.3 206.627 337.3 206.427 336.2 206.127C335.1 205.827 333.8 205.327 332.6 204.727C331.4 204.027 330.4 203.127 329.7 202.027C329 201.027 328.8 199.827 328.9 198.927C328.9 198.027 328.9 197.327 328.8 196.827C328.7 196.327 328.6 196.127 328.7 196.027C328.7 196.027 328.9 196.227 329 196.727C329.1 197.227 329.2 197.927 329.2 198.827C329.2 199.727 329.5 200.727 330.1 201.627C330.7 202.527 331.7 203.427 332.8 204.127C334 204.827 335.2 205.227 336.3 205.527C337.4 205.827 338.4 206.227 339.3 206.527C341 207.127 342.1 207.527 342 207.627Z" fill="#E0E0E0"/>
<path d="M388.9 246.427C388.8 246.427 388.9 245.527 388.6 244.127C388.3 242.727 387.6 240.927 386.4 239.127C385.8 238.227 385.2 237.427 384.6 236.627C384 235.927 383.5 235.127 383 234.727C382.5 234.227 381.9 234.127 381.6 234.127C381.2 234.127 381 234.227 381 234.127C381 234.127 381.2 233.927 381.6 233.927C382 233.927 382.7 234.027 383.3 234.527C383.9 235.027 384.4 235.727 385 236.427C385.6 237.127 386.2 238.027 386.9 238.927C388.1 240.727 388.9 242.727 389 244.127C389.2 245.527 388.9 246.427 388.9 246.427Z" fill="#E0E0E0"/>
<path d="M406 192.027C406 192.027 405.7 191.927 405.2 191.827C404.7 191.627 403.9 191.427 403 191.127C401.1 190.527 398.3 189.627 394.7 189.627C392.9 189.627 391 190.027 389.1 190.927C387.2 191.827 385.4 193.127 383.6 194.727C381.8 196.227 379.9 197.927 377.8 199.327C375.6 200.727 373.1 201.927 370.2 202.027C368.8 202.127 367.4 201.827 366.1 201.227C364.8 200.627 363.8 199.827 362.9 198.827C361.1 196.927 359.8 194.727 358.4 192.827C355.6 189.027 351.6 187.027 348.1 186.227C344.6 185.427 341.7 185.827 339.8 186.327C337.9 186.827 336.9 187.427 336.9 187.327C336.9 187.327 337.8 186.727 339.8 186.127C341.7 185.527 344.7 185.127 348.3 185.827C350.1 186.227 352 186.827 353.8 187.927C355.6 189.027 357.4 190.527 358.8 192.427C360.3 194.327 361.5 196.427 363.3 198.327C365 200.227 367.5 201.527 370.2 201.327C372.9 201.227 375.4 200.027 377.5 198.727C379.6 197.327 381.5 195.627 383.3 194.127C385.1 192.627 387 191.227 388.9 190.327C390.8 189.427 392.9 189.027 394.7 189.027C398.3 189.027 401.2 190.027 403 190.627C404 190.927 404.7 191.227 405.2 191.427C405.7 191.927 406 192.027 406 192.027Z" fill="#E0E0E0"/>
<path d="M393.5 218.227C393.5 218.327 392.9 217.927 391.7 217.827C390.5 217.727 388.8 218.027 386.8 218.927C384.8 219.827 382.6 221.127 379.8 221.927C377.1 222.827 373.9 223.327 370.6 223.227C367.3 223.127 364.1 222.527 361.4 221.527C358.7 220.527 356.4 219.227 354.7 217.927C352.9 216.627 351.7 215.427 350.9 214.527C350.5 214.127 350.2 213.727 350 213.427C349.8 213.227 349.7 213.027 349.7 213.027C349.7 213.027 350.2 213.527 351 214.327C351.9 215.127 353.2 216.327 354.9 217.527C356.7 218.727 358.9 220.027 361.6 220.927C364.3 221.927 367.3 222.527 370.6 222.627C373.9 222.727 377 222.227 379.7 221.327C382.4 220.527 384.6 219.227 386.7 218.427C388.7 217.527 390.5 217.227 391.7 217.427C393 217.827 393.5 218.227 393.5 218.227Z" fill="#E0E0E0"/>
<path d="M412.5 214.027C412.5 214.027 412.5 214.327 412.3 214.827C412.1 215.327 411.7 215.927 411.2 216.727C410.1 218.227 408.1 219.927 405.3 220.527C402.5 221.127 400 220.727 398.2 220.327C396.4 219.927 395.4 219.627 395.4 219.527C395.4 219.427 396.5 219.627 398.3 219.927C400.1 220.127 402.6 220.527 405.2 219.927C407.9 219.327 409.8 217.727 411 216.427C412 215.027 412.4 214.027 412.5 214.027Z" fill="#E0E0E0"/>
<path d="M389 196.627C389 196.627 389.1 196.827 389.1 197.127C389.2 197.527 389.3 197.927 389.4 198.527C389.7 199.827 390.2 201.627 390.7 203.927C391.8 208.527 393.5 215.127 395.7 223.027V223.227L395.6 223.327C388.8 228.027 380.8 233.527 372.3 239.427C371.1 240.327 369.8 241.127 368.6 241.927L368.7 241.627C370.5 246.227 372.3 250.627 373.9 254.827L373.6 254.727C383.3 249.927 391.4 245.627 397.1 242.427C399.9 240.827 402.2 239.627 403.8 238.727C404.6 238.327 405.1 238.027 405.6 237.727C406 237.527 406.2 237.427 406.2 237.427C406.2 237.427 406 237.527 405.6 237.827C405.2 238.127 404.6 238.427 403.9 238.927C402.4 239.827 400.1 241.127 397.3 242.727C391.6 245.927 383.5 250.327 373.8 255.227L373.6 255.327L373.5 255.127C371.8 251.027 370.1 246.627 368.2 242.027L368.1 241.827L368.3 241.727C369.5 240.927 370.7 240.027 372 239.227C380.6 233.327 388.6 227.827 395.3 223.227L395.2 223.427C393.1 215.527 391.5 208.927 390.4 204.227C389.9 201.927 389.5 200.027 389.2 198.827C389.1 198.227 389 197.727 388.9 197.427C389.1 196.827 389 196.627 389 196.627Z" fill="#263238"/>
<path d="M403.2 225.427C403.1 225.527 401.7 224.327 399.6 223.727C398.5 223.427 397.6 223.227 396.8 223.227C396.1 223.227 395.6 223.227 395.6 223.127C395.6 223.027 396 222.927 396.8 222.827C397.6 222.727 398.6 222.927 399.7 223.227C401.9 223.927 403.3 225.327 403.2 225.427Z" fill="#263238"/>
<path d="M286.4 333.227L290.5 324.627L306.6 332.227L300.7 344.827L299.7 344.427C295.1 342.527 276.6 334.627 274 332.327C271.3 329.827 286.4 333.227 286.4 333.227Z" fill="#E8505B"/>
<g opacity="0.5">
<g opacity="0.5">
<g opacity="0.5">
<path opacity="0.5" d="M295 342.027C295.9 340.827 297.2 339.927 298.7 339.527C300.2 339.227 301.7 339.427 303 340.127L300.9 344.627L295 342.027Z" fill="white"/>
</g>
</g>
</g>
<g opacity="0.4">
<g opacity="0.4">
<g opacity="0.4">
<path opacity="0.4" d="M278.9 331.827C278.9 331.827 273.4 330.927 273.7 332.027C273.9 333.127 292.4 341.827 300.8 344.927L300.9 344.527L279.3 334.527C279.3 334.527 279.8 332.327 278.9 331.827Z" fill="white"/>
</g>
</g>
</g>
<path d="M301.2 344.627C301.2 344.627 301.1 344.627 300.9 344.527C300.7 344.427 300.4 344.327 300.1 344.227C299.3 343.927 298.3 343.427 297.1 342.927C294.6 341.827 291.1 340.327 287.3 338.527C283.5 336.727 280.1 335.027 277.7 333.827C276.6 333.227 275.6 332.727 274.8 332.327C274.5 332.127 274.3 332.027 274 331.927C273.8 331.827 273.7 331.727 273.7 331.727C273.7 331.727 273.8 331.727 274 331.827C274.2 331.927 274.5 332.027 274.8 332.227C275.6 332.627 276.6 333.127 277.7 333.627C280.2 334.827 283.6 336.527 287.3 338.327C291.1 340.127 294.5 341.727 297 342.827C298.2 343.327 299.2 343.827 300 344.127C300.3 344.227 300.6 344.427 300.8 344.527C301.1 344.627 301.2 344.627 301.2 344.627Z" fill="#263238"/>
<path d="M279.2 334.827C279.1 334.827 279.4 334.127 279.3 333.127C279.2 332.227 278.8 331.527 278.8 331.527C278.8 331.527 279.4 332.127 279.5 333.127C279.7 334.127 279.3 334.827 279.2 334.827Z" fill="#263238"/>
<path d="M285.1 334.627C285 334.627 284.9 334.227 284.9 333.727C284.8 333.227 284.8 332.827 284.9 332.827C285 332.827 285.1 333.227 285.1 333.727C285.2 334.227 285.2 334.627 285.1 334.627Z" fill="#263238"/>
<path d="M286.8 334.527C286.7 334.527 286.6 334.227 286.4 333.927C286.2 333.527 286.2 333.227 286.2 333.227C286.3 333.227 286.4 333.527 286.6 333.827C286.7 334.227 286.8 334.527 286.8 334.527Z" fill="#263238"/>
<path d="M288.3 333.427C288.3 333.527 287.9 333.327 287.4 333.127C286.9 332.927 286.6 332.727 286.6 332.627C286.6 332.527 287 332.727 287.5 332.927C288 333.127 288.3 333.427 288.3 333.427Z" fill="#263238"/>
<path d="M289.1 332.527C289.1 332.627 288.6 332.527 288 332.327C287.4 332.127 287.1 331.827 287.1 331.727C287.1 331.627 287.5 331.927 288.1 332.127C288.7 332.327 289.1 332.427 289.1 332.527Z" fill="#263238"/>
<path d="M285.3 332.927C285.3 332.927 284.9 332.827 284.3 332.427C284 332.227 283.7 332.027 283.3 331.627C283.1 331.427 282.9 331.327 282.8 331.027C282.7 330.927 282.7 330.727 282.7 330.627C282.7 330.427 282.9 330.327 283.1 330.327C284.3 330.327 285.1 331.327 285.2 332.027C285.3 332.427 285.3 332.727 285.2 332.927C285.2 333.127 285.1 333.227 285.1 333.227C285.1 333.227 285.2 332.827 285 332.127C284.9 331.827 284.7 331.427 284.4 331.127C284.1 330.827 283.6 330.527 283.1 330.627C282.9 330.627 282.8 330.927 283 331.127C283.1 331.327 283.3 331.527 283.5 331.627C283.8 331.927 284.2 332.227 284.4 332.427C284.9 332.727 285.3 332.927 285.3 332.927Z" fill="#263238"/>
<path d="M285 332.927C285 332.927 285 332.627 285.2 332.127C285.3 331.927 285.5 331.727 285.8 331.527C286.1 331.427 286.5 331.227 286.9 331.427C287.1 331.527 287.1 331.927 287 332.027C286.9 332.227 286.7 332.327 286.6 332.427C286.3 332.627 286 332.727 285.8 332.827C285.4 332.927 285.1 332.927 285 332.927C285.1 332.927 285.4 332.827 285.8 332.627C286 332.527 286.3 332.427 286.5 332.227C286.7 332.027 287 331.727 286.8 331.527C286.6 331.427 286.2 331.527 285.9 331.627C285.6 331.727 285.4 331.927 285.3 332.127C285 332.627 285 332.927 285 332.927Z" fill="#263238"/>
<path d="M302.9 340.027C302.9 340.027 302.5 339.727 301.7 339.527C300.9 339.227 299.8 339.127 298.6 339.327C297.4 339.627 296.5 340.327 295.9 340.827C295.3 341.427 295.1 341.827 295 341.827C295 341.827 295 341.727 295.2 341.527C295.3 341.327 295.5 341.027 295.8 340.727C296.4 340.127 297.3 339.427 298.6 339.127C299.9 338.827 301 339.027 301.8 339.327C302.2 339.527 302.5 339.627 302.7 339.727C302.9 340.027 303 340.027 302.9 340.027Z" fill="#263238"/>
<path d="M304.5 332.527C304.6 332.527 303.9 334.027 303.1 335.927C302.3 337.727 301.5 339.227 301.5 339.227C301.4 339.227 302.1 337.727 302.9 335.827C303.7 334.027 304.4 332.527 304.5 332.527Z" fill="#263238"/>
<path d="M293.7 339.427C293.7 339.527 292.5 339.127 291.2 338.527C289.9 337.927 288.9 337.227 288.9 337.227C288.9 337.127 290 337.727 291.3 338.327C292.6 339.027 293.7 339.427 293.7 339.427Z" fill="#263238"/>
<path d="M296.9 340.927C296.9 341.027 296.7 341.127 296.5 341.327C296.3 341.527 296.1 341.727 296.1 341.627C296 341.627 296.1 341.327 296.4 341.127C296.6 340.927 296.9 340.927 296.9 340.927Z" fill="#263238"/>
<path d="M298.8 340.027C298.8 340.127 298.6 340.227 298.4 340.327C298.2 340.427 297.9 340.427 297.9 340.427C297.9 340.327 298.1 340.227 298.3 340.127C298.5 340.027 298.7 340.027 298.8 340.027Z" fill="#263238"/>
<path d="M300.8 340.227C300.8 340.227 300.5 340.127 300.3 340.127C300 340.127 299.8 340.127 299.8 340.127C299.8 340.027 300 339.927 300.4 339.927C300.6 339.927 300.8 340.127 300.8 340.227Z" fill="#263238"/>
<path d="M302.2 340.427C302.2 340.527 302.1 340.527 301.9 340.527C301.7 340.527 301.6 340.427 301.6 340.427C301.6 340.327 301.7 340.327 301.9 340.327C302 340.327 302.2 340.327 302.2 340.427Z" fill="#263238"/>
<path d="M334.5 385.227L334.3 375.727L352.2 375.227L352.6 389.127L351.5 389.227C346.6 389.627 326.5 390.927 323.1 390.027C319.4 389.027 334.5 385.227 334.5 385.227Z" fill="#E8505B"/>
<g opacity="0.5">
<g opacity="0.5">
<g opacity="0.5">
<path opacity="0.5" d="M346.1 389.227C346.3 387.727 347.1 386.327 348.3 385.327C349.5 384.327 350.9 383.827 352.4 383.927L352.5 388.927L346.1 389.227Z" fill="white"/>
</g>
</g>
</g>
<g opacity="0.4">
<g opacity="0.4">
<g opacity="0.4">
<path opacity="0.4" d="M327.1 387.327C327.1 387.327 321.8 389.027 322.5 389.827C323.2 390.727 343.6 390.127 352.5 389.127V388.727L328.7 389.627C328.8 389.627 328.2 387.427 327.1 387.327Z" fill="white"/>
</g>
</g>
</g>
<path d="M352.8 388.727C352.8 388.727 352.7 388.727 352.5 388.727C352.2 388.727 351.9 388.727 351.6 388.827C350.7 388.927 349.6 388.927 348.4 389.027C345.7 389.227 341.9 389.427 337.7 389.527C333.5 389.627 329.7 389.627 327 389.627C325.7 389.627 324.6 389.627 323.8 389.627C323.5 389.627 323.2 389.627 322.9 389.627C322.7 389.627 322.6 389.627 322.6 389.627C322.6 389.627 322.7 389.627 322.9 389.627C323.2 389.627 323.5 389.627 323.8 389.627C324.7 389.627 325.8 389.627 327 389.627C329.7 389.627 333.5 389.527 337.7 389.427C341.9 389.327 345.7 389.127 348.4 389.027C349.7 388.927 350.8 388.927 351.6 388.827C351.9 388.827 352.2 388.827 352.5 388.827C352.7 388.727 352.8 388.727 352.8 388.727Z" fill="#263238"/>
<path d="M328.8 389.927C328.7 389.927 328.7 389.127 328.2 388.427C327.7 387.627 327 387.227 327.1 387.227C327.1 387.127 327.9 387.527 328.4 388.327C328.8 389.027 328.8 389.927 328.8 389.927Z" fill="#263238"/>
<path d="M334 387.127C334 387.127 333.7 386.827 333.4 386.427C333.1 386.027 332.9 385.627 333 385.627C333 385.627 333.3 385.927 333.6 386.327C333.8 386.727 334 387.027 334 387.127Z" fill="#263238"/>
<path d="M335.4 386.227C335.4 386.227 335.1 386.127 334.8 385.827C334.5 385.527 334.3 385.327 334.3 385.227C334.3 385.227 334.6 385.327 334.9 385.627C335.2 385.927 335.4 386.227 335.4 386.227Z" fill="#263238"/>
<path d="M336.3 384.527C336.3 384.627 335.9 384.627 335.4 384.627C334.9 384.627 334.5 384.627 334.5 384.527C334.5 384.427 334.9 384.427 335.4 384.427C335.8 384.427 336.2 384.527 336.3 384.527Z" fill="#263238"/>
<path d="M336.5 383.327C336.5 383.427 336.1 383.627 335.5 383.627C334.9 383.727 334.4 383.527 334.4 383.527C334.4 383.427 334.9 383.527 335.5 383.427C336.1 383.427 336.5 383.327 336.5 383.327Z" fill="#263238"/>
<path d="M333.3 385.527C333.3 385.527 332.9 385.627 332.2 385.527C331.8 385.527 331.4 385.427 331 385.327C330.8 385.227 330.5 385.227 330.3 385.027C330.2 384.927 330.1 384.827 330 384.727C329.9 384.527 330 384.327 330.2 384.227C331.3 383.627 332.4 384.227 332.8 384.727C333 385.027 333.1 385.327 333.2 385.527C333.3 385.727 333.3 385.827 333.2 385.827C333.2 385.827 333.1 385.427 332.7 384.827C332.5 384.527 332.1 384.327 331.7 384.227C331.3 384.127 330.7 384.127 330.3 384.327C330.1 384.427 330.2 384.727 330.4 384.827C330.6 384.927 330.8 385.027 331.1 385.127C331.5 385.227 331.9 385.327 332.3 385.427C332.9 385.527 333.3 385.527 333.3 385.527Z" fill="#263238"/>
<path d="M333 385.627C333 385.627 332.8 385.327 332.8 384.827C332.8 384.527 332.9 384.227 333.1 384.027C333.3 383.727 333.5 383.427 334 383.427C334.3 383.427 334.4 383.727 334.4 383.927C334.4 384.127 334.3 384.327 334.2 384.427C334 384.727 333.9 384.927 333.7 385.127C333.4 385.427 333.1 385.627 333 385.627C333.1 385.627 333.3 385.427 333.6 385.027C333.8 384.827 333.9 384.627 334.1 384.327C334.3 384.127 334.3 383.627 334.1 383.627C333.8 383.627 333.5 383.927 333.4 384.127C333.2 384.427 333.1 384.627 333.1 384.927C332.9 385.327 333.1 385.627 333 385.627Z" fill="#263238"/>
<path d="M352.3 383.827C352.3 383.827 351.8 383.827 351 383.927C350.2 384.027 349.1 384.427 348.2 385.227C347.3 386.027 346.7 387.027 346.5 387.827C346.2 388.627 346.2 389.127 346.2 389.127C346.2 389.127 346.2 389.027 346.2 388.727C346.2 388.527 346.3 388.127 346.4 387.727C346.6 386.927 347.2 385.827 348.1 385.027C349.1 384.227 350.2 383.827 351.1 383.727C351.5 383.727 351.9 383.727 352.1 383.727C352.2 383.827 352.3 383.827 352.3 383.827Z" fill="#263238"/>
<path d="M350.3 376.527C350.4 376.527 350.5 378.127 350.6 380.227C350.7 382.227 350.7 383.927 350.6 383.927C350.5 383.927 350.4 382.327 350.3 380.227C350.2 378.127 350.2 376.527 350.3 376.527Z" fill="#263238"/>
<path d="M343.8 387.527C343.8 387.627 342.7 387.827 341.2 387.827C339.7 387.927 338.6 387.727 338.6 387.727C338.6 387.627 339.8 387.727 341.2 387.627C342.6 387.627 343.8 387.427 343.8 387.527Z" fill="#263238"/>
<path d="M347.3 387.427C347.3 387.427 347.2 387.627 347.1 387.927C347 388.227 346.9 388.427 346.9 388.427C346.8 388.427 346.8 388.127 346.9 387.827C347 387.527 347.3 387.327 347.3 387.427Z" fill="#263238"/>
<path d="M348.6 385.727C348.6 385.727 348.5 385.927 348.4 386.127C348.2 386.327 348 386.427 348 386.427C348 386.427 348.1 386.227 348.2 386.027C348.3 385.827 348.5 385.727 348.6 385.727Z" fill="#263238"/>
<path d="M350.4 384.927C350.4 385.027 350.2 385.027 349.9 385.127C349.6 385.227 349.5 385.327 349.4 385.327C349.4 385.327 349.5 385.027 349.8 384.927C350.2 384.727 350.4 384.927 350.4 384.927Z" fill="#263238"/>
<path d="M351.8 384.527C351.8 384.627 351.7 384.627 351.6 384.727C351.5 384.827 351.3 384.827 351.3 384.727C351.3 384.627 351.4 384.627 351.5 384.527C351.6 384.527 351.7 384.527 351.8 384.527Z" fill="#263238"/>
<path d="M348.5 210.027C348.4 210.027 348.7 209.027 349.2 207.427C349.4 206.627 349.7 205.727 350.1 204.727C350.3 204.227 350.5 203.627 350.7 203.127C350.8 202.827 351 202.527 351.1 202.327C351.2 202.127 351.2 201.827 351.2 201.527C351.2 200.927 351 200.327 350.9 199.727C350.8 199.127 350.7 198.627 350.6 198.027C350.4 197.027 350.3 196.027 350.1 195.227C349.8 193.627 349.7 192.627 349.8 192.627C349.9 192.627 350.1 193.627 350.5 195.227C350.7 196.127 350.9 197.027 351.1 198.027C351.2 198.527 351.3 199.127 351.4 199.727C351.5 200.327 351.7 200.927 351.7 201.527C351.7 201.827 351.7 202.227 351.6 202.527C351.5 202.827 351.3 203.127 351.2 203.327C351 203.827 350.8 204.427 350.6 204.927C350.2 205.927 349.9 206.827 349.6 207.627C349 209.127 348.6 210.027 348.5 210.027Z" fill="#263238"/>
<g opacity="0.3">
<g opacity="0.3">
<path opacity="0.3" d="M388.1 193.827C388.8 204.427 389.9 216.427 390.1 227.027C391.7 226.327 395.6 223.527 395.6 223.127C395.6 223.127 390.5 205.327 388.1 193.827Z" fill="black"/>
</g>
</g>
<path d="M405.8 256.627C405.8 256.627 332.6 241.327 325.5 244.627C318.4 248.027 285.7 328.827 285.7 328.827L307.7 336.927L337.6 269.927C337.6 269.927 391.5 290.227 400.5 288.427C409.5 286.427 405.8 256.627 405.8 256.627Z" fill="#263238"/>
<path d="M373.1 260.927C372 261.327 329.6 278.727 326.6 284.327C323.6 289.927 330.9 382.827 330.9 382.827H355L353.5 300.227L400.5 288.327L373.1 260.927Z" fill="#263238"/>
<path d="M400.8 288.527C400.8 288.527 400.6 288.527 400.1 288.427C399.6 288.327 398.9 288.227 398.1 288.127C396.4 287.827 393.9 287.327 390.9 286.727C384.8 285.427 376.5 283.527 367.3 280.927C362.7 279.627 358.4 278.227 354.5 276.927C350.6 275.527 347.2 274.227 344.3 273.027C342.9 272.427 341.6 271.827 340.5 271.327C339.4 270.827 338.4 270.327 337.6 270.027C336.9 269.627 336.3 269.327 335.8 269.127C335.4 268.927 335.2 268.827 335.2 268.827C335.2 268.827 335.4 268.927 335.9 269.027C336.4 269.227 337 269.527 337.7 269.827C338.5 270.227 339.5 270.627 340.6 271.127C341.7 271.627 343 272.127 344.5 272.727C347.4 273.927 350.9 275.127 354.7 276.527C358.6 277.827 362.9 279.227 367.4 280.527C376.5 283.127 384.8 285.127 390.9 286.527C393.9 287.227 396.3 287.727 398.1 288.127C398.9 288.327 399.5 288.427 400 288.627C400.6 288.427 400.8 288.427 400.8 288.527Z" fill="#455A64"/>
<path d="M326.6 305.627C326.6 305.627 326.5 305.127 326.4 304.227C326.3 303.227 326.2 301.927 326 300.427C325.8 298.827 325.7 296.827 325.5 294.727C325.3 292.627 325 290.227 325.5 287.727C325.9 285.227 327.4 283.127 329 281.627C330.6 280.127 332.3 279.227 333.8 278.527C335.3 277.827 336.5 277.427 337.4 277.127C338.3 276.827 338.7 276.727 338.8 276.727C338.8 276.827 336.9 277.527 334 278.927C332.6 279.627 330.9 280.627 329.4 282.027C327.9 283.427 326.5 285.427 326.1 287.827C325.7 290.227 325.9 292.527 326.1 294.727C326.3 296.827 326.4 298.727 326.5 300.427C326.6 301.927 326.7 303.227 326.7 304.227C326.7 305.127 326.7 305.627 326.6 305.627Z" fill="#455A64"/>
<path d="M347.7 297.627C347.8 297.527 349.1 297.927 350.7 298.627C352.3 299.327 353.5 300.027 353.4 300.127C353.3 300.227 352 299.827 350.4 299.127C348.9 298.427 347.7 297.827 347.7 297.627Z" fill="#263238"/>
<path d="M349.9 295.127C350 295.027 350.7 296.427 351.8 297.827C352.9 299.327 354 300.327 353.9 300.427C353.8 300.527 352.5 299.727 351.4 298.127C350.2 296.627 349.7 295.127 349.9 295.127Z" fill="#263238"/>
<path d="M359.1 298.927C359.1 298.927 359 299.127 358.7 299.327C358.4 299.527 357.9 299.627 357.3 299.627C356.7 299.627 356 299.527 355.3 299.727C354.6 299.827 354.1 300.427 354.1 301.227C354.1 304.727 354 307.627 353.8 307.627C353.7 307.627 353.5 304.727 353.5 301.127C353.5 300.627 353.6 300.127 354 299.727C354.3 299.327 354.8 299.127 355.2 299.127C356 299.027 356.7 299.127 357.3 299.227C358.5 299.327 359.1 298.827 359.1 298.927Z" fill="#263238"/>
<path d="M354.6 128.827C350.9 130.027 346.7 132.427 348.8 143.927C349.7 148.927 350.9 154.127 354.3 157.927C354.8 158.527 355.5 159.127 356.3 159.027C356.9 158.927 357.3 158.527 357.7 158.127C361.5 153.927 364.8 149.027 365.8 143.427C366.8 137.827 365.3 131.527 360.9 127.927" fill="#263238"/>
<path d="M361.7 178.627C361.6 173.327 361.4 167.727 361.4 167.727C361.4 167.727 353.4 166.727 353 158.527C352.7 150.327 352.6 136.027 352.6 136.027L368.3 124.427L379.3 139.527L379.6 178.327C379.6 183.227 375.6 187.327 370.7 187.327C365.7 187.327 361.8 183.427 361.7 178.627Z" fill="#FFBE9D"/>
<path d="M361.3 167.627C361.3 167.627 366.7 167.827 371.9 164.127C371.9 164.127 369.4 170.127 361.4 169.627L361.3 167.627Z" fill="#EB996E"/>
<path d="M362 158.127C361.9 157.827 361.9 157.427 362.1 157.127C362.3 156.827 362.6 156.727 363 156.727C363 156.027 363.8 155.327 364.5 155.427C365.3 155.427 365.9 156.127 366.1 156.827C366.3 157.527 365.9 158.327 365.2 158.727C364.6 159.127 363.7 159.227 363 158.927C362.5 158.727 362 158.227 361.9 157.627" fill="#EB996E"/>
<path d="M354.2 145.927C354.2 146.527 354.7 147.027 355.3 147.027C355.9 147.027 356.4 146.627 356.5 146.027C356.5 145.427 356 144.927 355.4 144.927C354.7 144.827 354.2 145.327 354.2 145.927Z" fill="#263238"/>
<path d="M354.2 144.927C354.3 145.027 355.2 144.427 356.4 144.427C357.6 144.427 358.5 145.027 358.6 144.927C358.7 144.827 358.5 144.627 358.1 144.327C357.7 144.027 357.1 143.727 356.3 143.827C355.5 143.827 354.9 144.127 354.5 144.427C354.3 144.627 354.1 144.927 354.2 144.927Z" fill="#263238"/>
<path d="M366.3 146.027C366.3 146.627 366.8 147.127 367.4 147.127C368 147.127 368.5 146.727 368.6 146.127C368.6 145.527 368.1 145.027 367.5 145.027C366.8 144.927 366.3 145.427 366.3 146.027Z" fill="#263238"/>
<path d="M366.1 145.227C366.2 145.327 367.1 144.727 368.3 144.727C369.5 144.727 370.4 145.327 370.5 145.227C370.6 145.127 370.4 144.927 370 144.627C369.6 144.327 369 144.027 368.2 144.127C367.4 144.127 366.8 144.427 366.4 144.727C366.2 144.827 366 145.127 366.1 145.227Z" fill="#263238"/>
<path d="M361.7 154.127C361.7 154.027 361 153.927 359.7 153.727C359.4 153.727 359.1 153.627 359 153.427C358.9 153.227 359.1 152.827 359.2 152.527C359.5 151.827 359.8 151.027 360.1 150.127C361.4 146.827 362.3 144.027 362.1 144.027C362 144.027 360.8 146.627 359.6 150.027C359.3 150.827 359 151.627 358.7 152.427C358.6 152.827 358.4 153.127 358.5 153.627C358.6 153.827 358.8 154.027 359 154.127C359.2 154.227 359.4 154.227 359.5 154.227C360.9 154.227 361.7 154.227 361.7 154.127Z" fill="#263238"/>
<path d="M365.3 155.027C365.1 155.027 365.1 156.327 364 157.227C362.9 158.127 361.5 158.027 361.5 158.227C361.5 158.327 361.8 158.527 362.4 158.527C363 158.527 363.8 158.327 364.5 157.827C365.2 157.227 365.5 156.527 365.5 155.927C365.5 155.327 365.4 155.027 365.3 155.027Z" fill="#263238"/>
<path d="M365.6 142.527C365.7 142.827 366.9 142.727 368.3 142.827C369.7 142.927 370.9 143.427 371.1 143.127C371.2 143.027 371 142.627 370.5 142.327C370 142.027 369.3 141.727 368.5 141.627C367.6 141.527 366.9 141.627 366.4 141.927C365.8 142.027 365.5 142.327 365.6 142.527Z" fill="#263238"/>
<path d="M354.7 141.427C354.9 141.727 355.7 141.427 356.7 141.427C357.7 141.427 358.5 141.627 358.7 141.327C358.8 141.227 358.7 140.927 358.3 140.627C357.9 140.327 357.3 140.127 356.6 140.227C355.9 140.227 355.3 140.527 355 140.827C354.7 141.027 354.6 141.327 354.7 141.427Z" fill="#263238"/>
<path d="M371.9 141.827C373.4 141.827 374.8 141.327 375.9 140.427C376.6 142.327 376.6 144.527 377.3 146.427C378 148.427 378.6 167.227 380.7 166.927C382.6 166.627 384.8 147.727 385.3 145.927C386.6 140.827 385 135.327 381.6 131.327C377.6 126.527 370.9 122.527 364.7 122.927C362 123.127 359.2 123.927 357 125.627C357 125.627 353.7 128.227 353.9 131.527C354.3 136.127 361 139.027 365.6 138.927L366.3 139.527C367.7 140.927 369.8 141.927 371.9 141.827Z" fill="#263238"/>
<path d="M352.5 140.327C353.7 139.427 354.4 138.027 354.8 136.627C355.2 135.227 355.3 133.727 355.3 132.227C355.3 131.827 355.3 131.227 354.8 131.127C354.4 131.027 354.1 131.427 353.9 131.827C352.5 134.527 352 137.727 352.5 140.727C352.6 140.627 352.2 140.927 352.3 140.827" fill="#263238"/>
<path d="M239 386.627L239.1 376.827L220.7 376.627L220.5 390.927L221.6 391.027C226.7 391.327 247.4 392.427 250.8 391.427C254.6 390.327 239 386.627 239 386.627Z" fill="#E8505B"/>
<g opacity="0.4">
<g opacity="0.4">
<g opacity="0.4">
<g opacity="0.4">
<path opacity="0.4" d="M227.1 390.927C226.9 389.427 226 387.927 224.8 387.027C223.6 386.027 222.1 385.527 220.5 385.627L220.4 390.727L227.1 390.927Z" fill="black"/>
</g>
</g>
</g>
</g>
<g opacity="0.4">
<g opacity="0.4">
<path opacity="0.4" d="M246.6 388.727C246.6 388.727 252 390.327 251.4 391.227C250.7 392.127 229.7 391.827 220.5 390.927V390.527L245 391.027C244.9 391.127 245.5 388.827 246.6 388.727Z" fill="black"/>
</g>
</g>
<path d="M220.2 390.527C220.2 390.527 220.3 390.527 220.5 390.527C220.8 390.527 221.1 390.527 221.4 390.627C222.3 390.727 223.4 390.727 224.7 390.827C227.5 390.927 231.4 391.127 235.7 391.127C240 391.227 243.9 391.127 246.7 391.127C248 391.127 249.1 391.027 250 391.027C250.3 391.027 250.6 391.027 250.9 391.027C251.1 391.027 251.2 391.027 251.2 391.027C251.2 391.027 251.1 391.027 250.9 391.027C250.6 391.027 250.3 391.027 250 391.027C249.1 391.027 248 391.027 246.7 391.027C243.9 391.027 240 391.027 235.7 391.027C231.4 390.927 227.5 390.827 224.7 390.727C223.4 390.727 222.3 390.627 221.4 390.627C221.1 390.627 220.8 390.627 220.5 390.627C220.3 390.527 220.2 390.527 220.2 390.527Z" fill="#263238"/>
<path d="M244.9 391.427C245 391.427 245 390.627 245.5 389.827C246 389.027 246.7 388.627 246.7 388.527C246.7 388.427 245.9 388.827 245.4 389.627C244.8 390.527 244.9 391.427 244.9 391.427Z" fill="#263238"/>
<path d="M239.5 388.527C239.6 388.527 239.8 388.227 240.1 387.827C240.4 387.427 240.6 387.027 240.5 387.027C240.4 387.027 240.2 387.327 239.9 387.727C239.7 388.127 239.5 388.527 239.5 388.527Z" fill="#263238"/>
<path d="M238.1 387.727C238.1 387.727 238.4 387.627 238.8 387.327C239.1 387.027 239.3 386.827 239.3 386.727C239.3 386.727 239 386.827 238.6 387.127C238.3 387.427 238 387.727 238.1 387.727Z" fill="#263238"/>
<path d="M237.2 386.027C237.2 386.127 237.6 386.127 238.2 386.127C238.7 386.127 239.2 386.127 239.2 386.027C239.2 385.927 238.8 385.927 238.2 385.927C237.6 385.927 237.2 385.927 237.2 386.027Z" fill="#263238"/>
<path d="M236.8 384.827C236.8 384.927 237.2 385.127 237.9 385.127C238.5 385.227 239 385.027 239 385.027C239 384.927 238.5 385.027 237.9 384.927C237.3 384.827 236.9 384.727 236.8 384.827Z" fill="#263238"/>
<path d="M240.2 386.927C240.2 386.927 240.7 387.027 241.4 386.927C241.8 386.927 242.2 386.827 242.7 386.627C242.9 386.527 243.2 386.527 243.4 386.327C243.5 386.227 243.6 386.127 243.7 385.927C243.8 385.727 243.7 385.527 243.5 385.427C242.4 384.827 241.2 385.427 240.8 386.027C240.6 386.327 240.5 386.627 240.4 386.827C240.4 387.027 240.4 387.127 240.4 387.127C240.4 387.127 240.5 386.627 241 386.127C241.2 385.827 241.6 385.627 242 385.527C242.4 385.427 243 385.427 243.4 385.627C243.6 385.727 243.5 386.027 243.3 386.127C243.1 386.227 242.9 386.327 242.6 386.427C242.2 386.527 241.7 386.627 241.4 386.727C240.6 386.927 240.2 386.927 240.2 386.927Z" fill="#263238"/>
<path d="M240.5 387.027C240.5 387.027 240.7 386.727 240.6 386.227C240.6 385.927 240.5 385.627 240.3 385.327C240.1 385.027 239.8 384.727 239.3 384.727C239 384.727 238.9 385.027 238.9 385.227C238.9 385.427 239 385.627 239.1 385.727C239.3 386.027 239.5 386.227 239.6 386.427C240.1 386.927 240.4 387.027 240.5 387.027C240.4 387.027 240.2 386.827 239.8 386.427C239.6 386.227 239.5 386.027 239.3 385.727C239.1 385.427 239 385.027 239.3 384.927C239.6 384.927 239.9 385.227 240.1 385.427C240.3 385.727 240.4 385.927 240.4 386.227C240.6 386.727 240.5 387.027 240.5 387.027Z" fill="#263238"/>
<path d="M220.6 385.527C220.6 385.527 221.1 385.527 222 385.627C222.8 385.727 224 386.127 224.9 386.927C225.9 387.727 226.5 388.827 226.7 389.527C227 390.327 227 390.827 227 390.827C227 390.827 227 390.727 227 390.427C227 390.227 226.9 389.827 226.8 389.427C226.6 388.627 226 387.527 225 386.627C224 385.827 222.8 385.427 221.9 385.427C221.5 385.427 221.1 385.427 220.9 385.427C220.8 385.527 220.6 385.527 220.6 385.527Z" fill="#263238"/>
<path d="M222.6 377.927C222.5 377.927 222.4 379.627 222.4 381.727C222.3 383.827 222.4 385.527 222.4 385.527C222.5 385.527 222.6 383.827 222.6 381.727C222.7 379.627 222.7 377.927 222.6 377.927Z" fill="#263238"/>
<path d="M229.4 389.127C229.4 389.227 230.6 389.427 232.1 389.427C233.6 389.427 234.8 389.327 234.8 389.227C234.8 389.127 233.6 389.227 232.1 389.227C230.7 389.227 229.5 389.127 229.4 389.127Z" fill="#263238"/>
<path d="M225.8 389.127C225.8 389.127 225.9 389.427 226 389.627C226.1 389.927 226.2 390.127 226.2 390.127C226.3 390.127 226.3 389.827 226.2 389.527C226.1 389.227 225.9 389.027 225.8 389.127Z" fill="#263238"/>
<path d="M224.5 387.427C224.5 387.427 224.6 387.627 224.8 387.827C225 388.027 225.2 388.127 225.2 388.127C225.2 388.127 225.1 387.927 224.9 387.727C224.7 387.527 224.6 387.327 224.5 387.427Z" fill="#263238"/>
<path d="M222.6 386.627C222.6 386.727 222.9 386.727 223.1 386.827C223.4 386.927 223.6 387.027 223.6 387.027C223.6 387.027 223.5 386.727 223.2 386.627C222.8 386.427 222.6 386.527 222.6 386.627Z" fill="#263238"/>
<path d="M221.2 386.227C221.2 386.327 221.3 386.427 221.4 386.427C221.6 386.527 221.7 386.527 221.7 386.427C221.7 386.327 221.6 386.227 221.5 386.227C221.4 386.127 221.2 386.127 221.2 386.227Z" fill="#263238"/>
<path d="M167.7 386.627L167.6 376.827L186 376.627L186.2 390.927L185.1 391.027C180 391.327 159.3 392.427 155.9 391.427C152.1 390.327 167.7 386.627 167.7 386.627Z" fill="#E8505B"/>
<g opacity="0.4">
<g opacity="0.4">
<g opacity="0.4">
<g opacity="0.4">
<path opacity="0.4" d="M179.6 390.927C179.8 389.427 180.7 387.927 181.9 387.027C183.1 386.027 184.6 385.527 186.2 385.627L186.3 390.727L179.6 390.927Z" fill="black"/>
</g>
</g>
</g>
</g>
<g opacity="0.4">
<g opacity="0.4">
<path opacity="0.4" d="M160.1 388.727C160.1 388.727 154.7 390.327 155.3 391.227C156 392.127 177 391.827 186.2 390.927V390.527L161.7 391.027C161.7 391.127 161.1 388.827 160.1 388.727Z" fill="black"/>
</g>
</g>
<path d="M186.5 390.527C186.5 390.527 186.4 390.527 186.2 390.527C185.9 390.527 185.6 390.527 185.3 390.627C184.4 390.727 183.3 390.727 182 390.827C179.2 390.927 175.3 391.127 171 391.127C166.7 391.227 162.8 391.127 160 391.127C158.7 391.127 157.6 391.027 156.7 391.027C156.4 391.027 156.1 391.027 155.8 391.027C155.6 391.027 155.5 391.027 155.5 391.027C155.5 391.027 155.6 391.027 155.8 391.027C156.1 391.027 156.4 391.027 156.7 391.027C157.6 391.027 158.7 391.027 160 391.027C162.8 391.027 166.7 391.027 171 391.027C175.3 390.927 179.2 390.827 182 390.727C183.3 390.727 184.4 390.627 185.3 390.627C185.6 390.627 185.9 390.627 186.2 390.627C186.4 390.527 186.5 390.527 186.5 390.527Z" fill="#263238"/>
<path d="M161.7 391.427C161.6 391.427 161.6 390.627 161.1 389.827C160.6 389.027 159.9 388.627 159.9 388.527C159.9 388.427 160.7 388.827 161.2 389.627C161.8 390.527 161.8 391.427 161.7 391.427Z" fill="#263238"/>
<path d="M167.1 388.527C167 388.527 166.8 388.227 166.5 387.827C166.2 387.427 166 387.027 166.1 387.027C166.2 387.027 166.4 387.327 166.7 387.727C167 388.127 167.2 388.527 167.1 388.527Z" fill="#263238"/>
<path d="M168.6 387.727C168.6 387.727 168.3 387.627 167.9 387.327C167.6 387.027 167.4 386.827 167.4 386.727C167.4 386.727 167.7 386.827 168.1 387.127C168.4 387.427 168.6 387.727 168.6 387.727Z" fill="#263238"/>
<path d="M169.5 386.027C169.5 386.127 169.1 386.127 168.5 386.127C168 386.127 167.5 386.127 167.5 386.027C167.5 385.927 167.9 385.927 168.5 385.927C169.1 385.927 169.5 385.927 169.5 386.027Z" fill="#263238"/>
<path d="M169.8 384.827C169.8 384.927 169.4 385.127 168.7 385.127C168.1 385.227 167.6 385.027 167.6 385.027C167.6 384.927 168.1 385.027 168.7 384.927C169.3 384.827 169.8 384.727 169.8 384.827Z" fill="#263238"/>
<path d="M166.5 386.927C166.5 386.927 166 387.027 165.3 386.927C164.9 386.927 164.5 386.827 164 386.627C163.8 386.527 163.5 386.527 163.3 386.327C163.2 386.227 163.1 386.127 163 385.927C162.9 385.727 163 385.527 163.2 385.427C164.3 384.827 165.5 385.427 165.9 386.027C166.1 386.327 166.2 386.627 166.3 386.827C166.3 387.027 166.3 387.127 166.3 387.127C166.3 387.127 166.2 386.627 165.7 386.127C165.5 385.827 165.1 385.627 164.7 385.527C164.3 385.427 163.7 385.427 163.3 385.627C163.1 385.727 163.2 386.027 163.4 386.127C163.6 386.227 163.8 386.327 164.1 386.427C164.5 386.527 165 386.627 165.3 386.727C166 386.927 166.5 386.927 166.5 386.927Z" fill="#263238"/>
<path d="M166.2 387.027C166.2 387.027 166 386.727 166.1 386.227C166.1 385.927 166.2 385.627 166.4 385.327C166.6 385.027 166.9 384.727 167.4 384.727C167.7 384.727 167.8 385.027 167.8 385.227C167.8 385.427 167.7 385.627 167.6 385.727C167.4 386.027 167.2 386.227 167.1 386.427C166.6 386.927 166.3 387.027 166.2 387.027C166.3 387.027 166.5 386.827 166.9 386.427C167.1 386.227 167.2 386.027 167.4 385.727C167.6 385.427 167.7 385.027 167.4 384.927C167.1 384.927 166.8 385.227 166.6 385.427C166.4 385.727 166.3 385.927 166.3 386.227C166.1 386.727 166.2 387.027 166.2 387.027Z" fill="#263238"/>
<path d="M186 385.527C186 385.527 185.5 385.527 184.6 385.627C183.8 385.727 182.6 386.127 181.7 386.927C180.7 387.727 180.1 388.827 179.9 389.527C179.6 390.327 179.6 390.827 179.6 390.827C179.6 390.827 179.6 390.727 179.6 390.427C179.6 390.227 179.7 389.827 179.8 389.427C180 388.627 180.6 387.527 181.6 386.627C182.6 385.827 183.8 385.427 184.7 385.427C185.1 385.427 185.5 385.427 185.7 385.427C185.9 385.527 186 385.527 186 385.527Z" fill="#263238"/>
<path d="M184 377.927C184.1 377.927 184.2 379.627 184.2 381.727C184.3 383.827 184.2 385.527 184.2 385.527C184.1 385.527 184 383.827 184 381.727C184 379.627 184 377.927 184 377.927Z" fill="#263238"/>
<path d="M177.2 389.127C177.2 389.227 176 389.427 174.5 389.427C173 389.427 171.8 389.327 171.8 389.227C171.8 389.127 173 389.227 174.5 389.227C176 389.227 177.2 389.127 177.2 389.127Z" fill="#263238"/>
<path d="M180.8 389.127C180.8 389.127 180.7 389.427 180.6 389.627C180.5 389.927 180.4 390.127 180.4 390.127C180.3 390.127 180.3 389.827 180.4 389.527C180.5 389.227 180.8 389.027 180.8 389.127Z" fill="#263238"/>
<path d="M182.2 387.427C182.2 387.427 182.1 387.627 181.9 387.827C181.7 388.027 181.5 388.127 181.5 388.127C181.5 388.127 181.6 387.927 181.8 387.727C181.9 387.527 182.1 387.327 182.2 387.427Z" fill="#263238"/>
<path d="M184.1 386.627C184.1 386.727 183.8 386.727 183.6 386.827C183.3 386.927 183.1 387.027 183.1 387.027C183.1 387.027 183.2 386.727 183.5 386.627C183.8 386.427 184.1 386.527 184.1 386.627Z" fill="#263238"/>
<path d="M185.5 386.227C185.5 386.327 185.4 386.427 185.3 386.427C185.1 386.527 185 386.527 185 386.427C185 386.327 185.1 386.227 185.2 386.227C185.3 386.127 185.4 386.127 185.5 386.227Z" fill="#263238"/>
<path d="M251.4 198.927L244.3 382.927L215.7 383.527L220.5 224.127L188.3 384.727H161.1L196.2 199.327L251.4 198.927Z" fill="#263238"/>
<path d="M227.1 205.627C227.2 205.627 227 206.827 226.8 208.627C226.5 210.527 226.1 213.027 225.7 215.927C225.4 217.327 225.3 218.727 224.9 219.927C224.5 221.127 223.8 222.127 223 222.727C222.2 223.327 221.5 223.627 220.9 223.627C220.4 223.727 220.1 223.627 220.1 223.627C220.1 223.527 221.4 223.627 222.8 222.427C223.5 221.827 224.1 220.927 224.5 219.727C224.9 218.527 225 217.227 225.3 215.827C225.8 213.027 226.2 210.427 226.6 208.627C226.8 206.727 227 205.627 227.1 205.627Z" fill="#263238"/>
<path d="M221.1 206.527C221.2 206.527 220.9 206.827 221.1 207.327C221.2 207.527 221.3 207.827 221.6 207.927C221.8 208.027 222.2 208.027 222.5 207.727C222.8 207.527 222.9 207.127 222.8 206.927C222.7 206.627 222.5 206.427 222.3 206.327C221.8 206.127 221.5 206.327 221.5 206.227C221.4 206.227 221.8 205.827 222.4 205.927C222.7 206.027 223.1 206.227 223.3 206.627C223.5 207.027 223.3 207.627 222.9 208.027C222.5 208.327 221.9 208.527 221.5 208.227C221.1 208.027 220.9 207.627 220.9 207.227C220.7 206.727 221.1 206.427 221.1 206.527Z" fill="#263238"/>
<path d="M205.8 209.127C205.7 209.127 205.3 208.027 205.4 206.527C205.6 205.027 206.2 203.927 206.3 204.027C206.4 204.127 206 205.127 205.9 206.527C205.7 207.927 205.9 209.127 205.8 209.127Z" fill="#263238"/>
<path d="M209.2 208.927C209.1 208.927 208.7 207.727 208.8 206.227C208.9 204.727 209.5 203.527 209.6 203.627C209.7 203.627 209.4 204.827 209.3 206.327C209.2 207.727 209.4 208.827 209.2 208.927Z" fill="#263238"/>
<path d="M238.8 209.627C238.7 209.627 238.9 208.327 239 206.827C239.1 205.327 239 204.127 239.1 204.027C239.2 204.027 239.6 205.227 239.5 206.827C239.4 208.527 238.9 209.727 238.8 209.627Z" fill="#263238"/>
<path d="M242.5 209.427C242.4 209.327 242.8 208.127 242.9 206.627C243 205.127 242.7 203.827 242.9 203.827C243 203.827 243.5 205.027 243.4 206.727C243.3 208.327 242.6 209.527 242.5 209.427Z" fill="#263238"/>
<path d="M211.5 122.327L229.2 120.927C229.3 118.827 229.2 110.927 229.2 110.927C229.2 110.927 236.5 109.827 236.6 102.427C236.7 95.1271 235.4 78.2271 235.4 78.2271C226.9 74.5271 217.1 75.8271 209.8 81.4271L208.7 82.2271L211.5 122.327Z" fill="#FFBE9D"/>
<path d="M229.2 110.827C229.2 110.827 224.6 111.227 219.6 108.127C219.6 108.127 221.9 113.427 229.2 112.727V110.827Z" fill="#EB996E"/>
<path d="M209.6 89.8272C209.5 89.7272 204.6 88.3272 204.7 93.3272C204.9 98.3272 209.9 97.1272 209.9 97.0272C209.9 96.9272 209.6 89.8272 209.6 89.8272Z" fill="#FFBE9D"/>
<path d="M208.3 95.2272C208.3 95.2272 208.2 95.3272 208.1 95.3272C208 95.4272 207.7 95.4272 207.4 95.3272C206.9 95.1272 206.4 94.3272 206.3 93.4272C206.3 92.9272 206.4 92.5272 206.5 92.1272C206.6 91.7272 206.9 91.5272 207.1 91.4272C207.4 91.3272 207.6 91.5272 207.6 91.6272C207.7 91.7272 207.6 91.8272 207.7 91.8272C207.7 91.8272 207.8 91.7272 207.8 91.5272C207.8 91.4272 207.7 91.3272 207.6 91.2272C207.5 91.1272 207.3 91.1272 207.1 91.1272C206.7 91.1272 206.4 91.5272 206.2 91.9272C206 92.3272 205.9 92.8272 205.9 93.3272C206 94.3272 206.5 95.2272 207.2 95.4272C207.6 95.5272 207.8 95.4272 208 95.2272C208.3 95.3272 208.3 95.2272 208.3 95.2272Z" fill="#EB996E"/>
<path d="M233.8 89.7271C233.8 90.3271 233.4 90.7271 232.8 90.8271C232.2 90.8271 231.7 90.4271 231.7 89.9271C231.7 89.3271 232.1 88.9271 232.7 88.8271C233.3 88.7271 233.8 89.1271 233.8 89.7271Z" fill="#263238"/>
<path d="M234 88.5271C233.9 88.6271 233.1 88.0271 231.9 88.1271C230.8 88.1271 229.9 88.7271 229.8 88.5271C229.7 88.4271 229.9 88.2271 230.2 87.9271C230.6 87.6271 231.2 87.4271 231.9 87.4271C232.6 87.4271 233.2 87.7271 233.5 87.9271C234 88.2271 234.1 88.4271 234 88.5271Z" fill="#263238"/>
<path d="M222.7 90.0271C222.7 90.6271 222.3 91.0271 221.7 91.1271C221.1 91.1271 220.6 90.7271 220.6 90.2271C220.6 89.6271 221 89.2271 221.6 89.1271C222.2 89.0271 222.7 89.4271 222.7 90.0271Z" fill="#263238"/>
<path d="M222.9 88.7272C222.8 88.8272 222 88.2272 220.8 88.3272C219.7 88.3272 218.8 88.9272 218.7 88.7272C218.6 88.6272 218.8 88.4272 219.1 88.1272C219.5 87.8272 220.1 87.6272 220.8 87.6272C221.5 87.6272 222.1 87.9272 222.4 88.1272C222.9 88.4272 223 88.7272 222.9 88.7272Z" fill="#263238"/>
<path d="M227 97.1272C227 97.0272 227.7 96.9272 228.8 96.8272C229.1 96.8272 229.4 96.7272 229.4 96.5272C229.5 96.3272 229.3 96.0272 229.2 95.6272C228.9 94.9272 228.6 94.2272 228.3 93.4272C227.1 90.3272 226.3 87.7272 226.4 87.7272C226.5 87.7272 227.6 90.1272 228.8 93.3272C229.1 94.1272 229.4 94.8272 229.6 95.5272C229.7 95.8272 229.9 96.2272 229.7 96.6272C229.6 96.8272 229.4 97.0272 229.2 97.0272C229 97.1272 228.9 97.1272 228.7 97.1272C227.7 97.1272 227 97.2272 227 97.1272Z" fill="#263238"/>
<path d="M223.7 97.9271C223.9 97.9271 223.9 99.1271 224.9 100.027C225.9 100.927 227.3 100.727 227.3 100.927C227.3 101.027 227 101.127 226.5 101.227C226 101.227 225.2 101.027 224.5 100.527C223.9 100.027 223.6 99.3271 223.5 98.8271C223.5 98.2271 223.6 97.9271 223.7 97.9271Z" fill="#263238"/>
<path d="M223.2 84.3272C223.1 84.6272 222 84.5272 220.6 84.6272C219.3 84.7272 218.2 85.1272 218 84.8272C217.9 84.7272 218.1 84.4272 218.5 84.1272C218.9 83.8272 219.6 83.5272 220.4 83.4272C221.2 83.3272 221.9 83.4272 222.4 83.6272C223 83.9272 223.3 84.2272 223.2 84.3272Z" fill="#263238"/>
<path d="M233.6 85.2272C233.4 85.5272 232.6 85.2272 231.7 85.2272C230.8 85.2272 230 85.4272 229.8 85.1272C229.7 85.0272 229.8 84.7272 230.2 84.5272C230.5 84.3272 231.1 84.1272 231.8 84.1272C232.4 84.1272 233 84.4272 233.3 84.6272C233.6 84.9272 233.7 85.1272 233.6 85.2272Z" fill="#263238"/>
<path d="M239 73.5271C239.1 72.6271 238.7 71.6271 238 71.1271C237.3 70.6271 236.1 70.6271 235.5 71.3271C235.8 70.1271 234.8 68.7271 233.6 68.6271C232.4 68.5271 231.4 69.4271 230.2 69.7271C229.1 70.0271 227.9 69.7271 226.8 69.3271C225.7 68.9271 224.7 68.3271 223.6 67.9271C221.3 67.1271 218.7 67.2271 216.5 68.2271C214.3 69.2271 212.5 71.1271 211.6 73.4271C210 72.9271 208.2 73.7271 207.2 75.1271C206.2 76.5271 206 78.2271 206.2 79.9271C206.3 81.0271 206.7 82.1271 207 83.2271C207 83.3271 207 83.4271 207 83.5271C207.1 87.5271 207.5 92.3271 209.3 92.3271C212.3 92.3271 211.6 86.7271 211.6 86.7271C215.3 85.3271 213.9 79.8271 214.8 78.9271C215.7 78.1271 217.6 76.1271 225.4 80.1271C228.4 81.6271 232.4 81.6271 234.6 81.1271C234.7 81.1271 234.7 81.1271 234.8 81.1271C234.8 81.1271 234.8 81.1271 234.9 81.1271C235.6 80.9271 236.3 80.7271 236.9 80.3271C237.6 79.9271 238.2 79.3271 238.5 78.5271C238.8 77.7271 238.7 76.8271 238.1 76.2271C238.5 75.3271 238.9 74.5271 239 73.5271Z" fill="#263238"/>
<path d="M203 119.627C205.5 119.127 207.9 118.227 210.8 118.127C217.1 120.027 223.3 120.027 229.6 118.127C230.4 118.227 231.4 118.327 232.8 118.527C241 119.527 244.1 121.227 250 127.027L249.4 160.127C249.4 160.127 251.4 197.827 251.2 203.827H195.3V178.327V171.327L176.9 178.027L178.6 168.327C178.6 168.327 186.8 136.327 188.1 132.027C189.6 126.727 195.3 121.027 203 119.627Z" fill="#E8505B"/>
<path d="M185.3 168.827L212.8 164.927L218 174.327L192.4 185.827C191 186.427 189.4 186.827 187.9 186.827C183.4 186.827 179.4 184.127 177.7 179.927L176.9 177.927L185.3 168.827Z" fill="#E8505B"/>
<path d="M237.7 160.427L237.1 160.027C234 157.727 230.1 156.827 226.3 157.527C223.2 158.127 220.3 159.527 217.9 161.527L213.2 165.427L218.2 174.427L221.6 169.627C221.6 169.627 224.8 173.927 225.4 173.527C226 173.027 226.7 171.727 226.7 171.727L224.4 168.527L229.9 169.627L237.9 166.027L234.5 161.727L237.9 162.827V160.427H237.7Z" fill="#FFBE9D"/>
<path d="M241.6 120.527C241.6 120.527 249.4 123.227 252.7 130.627C254.8 135.527 258 159.027 258 159.027L262 166.627C262.9 168.427 263.4 170.527 263.4 172.527V173.727C263.4 176.727 262.4 179.527 260.5 181.827C258.3 184.527 255.1 186.227 251.7 186.527C247.8 186.927 243 187.027 242 185.827C240.2 183.727 237.5 178.227 237.5 178.227L249 172.127L244 162.927L241.6 120.527Z" fill="#E8505B"/>
<path d="M194.4 185.027C194.4 185.027 194.5 184.927 194.8 184.827C195.1 184.627 195.6 184.427 196.1 184.227C197.3 183.627 199 182.927 201 181.927C205.3 179.927 211.2 177.327 217.9 174.227L217.8 174.527C216.8 172.627 215.7 170.727 214.6 168.727C213.9 167.527 213.2 166.327 212.6 165.127L212.8 165.227C204.8 166.027 197.8 166.727 192.6 167.227C190.1 167.427 188.1 167.627 186.6 167.727C185.9 167.727 185.4 167.827 185 167.827C184.6 167.827 184.4 167.827 184.4 167.827C184.4 167.827 184.6 167.727 185 167.727C185.4 167.627 185.9 167.627 186.6 167.527C188.1 167.327 190.1 167.127 192.6 166.827C197.7 166.327 204.8 165.527 212.8 164.727H213L213.1 164.827C213.7 166.027 214.4 167.227 215.1 168.427C216.2 170.427 217.3 172.327 218.3 174.227L218.4 174.427L218.2 174.527C211.5 177.527 205.5 180.127 201.3 182.027C199.2 182.927 197.5 183.627 196.3 184.227C195.7 184.427 195.3 184.627 194.9 184.827C194.6 184.927 194.4 185.027 194.4 185.027Z" fill="#263238"/>
<path d="M199.3 166.127C199.2 166.127 199 161.227 199 155.127C199 149.027 199.1 144.127 199.3 144.127C199.4 144.127 199.6 149.027 199.6 155.127C199.5 161.227 199.4 166.127 199.3 166.127Z" fill="#263238"/>
<path d="M246.7 173.427C246.7 173.427 247 173.327 247.5 173.327C248 173.327 248.8 173.227 249.8 173.427C250.3 173.527 250.8 173.727 251.3 174.227C251.7 174.727 251.9 175.327 252.1 176.027C252.2 176.727 252.2 177.427 251.9 178.127C251.6 178.827 251.1 179.427 250.5 179.927C249.2 180.827 247.8 181.127 246.5 181.327C245.2 181.527 244.1 181.627 243.1 181.627C241.1 181.627 240 181.127 240 181.127C240 181.027 241.2 181.427 243.1 181.327C244.1 181.327 245.2 181.127 246.4 180.927C247.6 180.627 249 180.327 250.2 179.527C251.4 178.727 251.8 177.327 251.6 176.127C251.5 175.527 251.3 174.927 251 174.527C250.7 174.127 250.2 173.927 249.8 173.827C248.9 173.527 248.1 173.527 247.6 173.527C247 173.527 246.7 173.527 246.7 173.427Z" fill="#263238"/>
<path d="M251.3 186.827C251.3 186.927 250.6 187.027 249.3 187.027C248.1 187.027 246.3 186.927 244.5 186.227C243.6 185.827 242.8 185.427 242.1 184.927C241.4 184.427 241 183.827 240.6 183.227C240 182.127 239.8 181.327 239.9 181.327C240 181.327 240.2 182.027 240.9 183.027C241.2 183.527 241.7 184.027 242.3 184.527C242.9 184.927 243.7 185.327 244.6 185.727C246.3 186.427 248 186.527 249.2 186.627C250.5 186.727 251.3 186.727 251.3 186.827Z" fill="#263238"/>
<path d="M256.8 162.927C256.9 162.927 256.3 163.627 255.4 164.527C254.5 165.527 253.3 166.827 251.9 168.227C250.5 169.627 249.2 170.927 248.3 171.827C247.4 172.727 246.7 173.227 246.7 173.227C246.7 173.227 247.2 172.527 248.1 171.627C249 170.627 250.2 169.327 251.6 167.927C254.3 165.027 256.7 162.827 256.8 162.927Z" fill="#263238"/>
<path d="M244.2 157.827C244.1 157.827 243.9 155.027 243.9 151.527C243.9 148.027 244 145.227 244.2 145.227C244.3 145.227 244.5 148.027 244.5 151.527C244.5 155.027 244.4 157.827 244.2 157.827Z" fill="#263238"/>
<path d="M251.8 130.827C251.8 130.927 237.7 131.127 220.3 131.127C202.9 131.127 188.8 131.027 188.8 130.827C188.8 130.727 202.9 130.527 220.3 130.527C237.7 130.527 251.8 130.627 251.8 130.827Z" fill="#E0E0E0"/>
<path d="M253.4 135.827C253.4 135.927 238.5 136.127 220.2 136.127C201.9 136.127 187 136.027 187 135.827C187 135.727 201.9 135.527 220.2 135.527C238.6 135.627 253.4 135.727 253.4 135.827Z" fill="#E0E0E0"/>
<path d="M249.3 126.227C249.3 126.327 236.4 126.527 220.4 126.527C204.4 126.527 191.5 126.427 191.5 126.227C191.5 126.127 204.4 125.927 220.4 125.927C236.4 126.027 249.3 126.127 249.3 126.227Z" fill="#E0E0E0"/>
<path d="M251.9 201.927C251.9 202.027 239.2 202.227 223.6 202.227C208 202.227 195.3 202.127 195.3 201.927C195.3 201.827 208 201.627 223.6 201.627C239.3 201.727 251.9 201.827 251.9 201.927Z" fill="#E0E0E0"/>
<path d="M251.6 198.727C251.6 198.827 239.1 199.027 223.7 199.027C208.3 199.027 195.8 198.927 195.8 198.727C195.8 198.627 208.3 198.427 223.7 198.427C239.1 198.527 251.6 198.627 251.6 198.727Z" fill="#E0E0E0"/>
<path d="M251 194.627C251 194.727 238.5 194.927 223.2 194.927C207.8 194.927 195.4 194.827 195.4 194.627C195.4 194.527 207.9 194.327 223.2 194.327C238.5 194.327 251 194.427 251 194.627Z" fill="#E0E0E0"/>
<path d="M210.4 177.327C210.4 177.327 209.8 176.927 209 176.027C208.2 175.127 207.3 173.727 206.7 171.927C206.1 170.227 205.9 168.527 205.9 167.327C205.9 166.127 206.1 165.427 206.2 165.427C206.4 165.427 205.9 168.427 207.2 171.727C208.3 175.227 210.5 177.227 210.4 177.327Z" fill="#E0E0E0"/>
<path d="M207.8 178.927C207.8 178.927 207.1 178.527 206.3 177.427C205.5 176.427 204.5 174.927 203.8 173.027C203.1 171.127 203 169.327 203 168.027C203 166.727 203.2 165.927 203.3 165.927C203.5 165.927 203 169.127 204.3 172.827C205.5 176.527 207.9 178.827 207.8 178.927Z" fill="#E0E0E0"/>
<path d="M205.3 180.127C205.3 180.127 204.5 179.727 203.6 178.627C202.7 177.627 201.6 175.927 200.9 173.927C200.2 171.927 200.1 169.927 200.3 168.527C200.5 167.127 200.8 166.327 200.8 166.327C200.9 166.327 200.7 167.227 200.6 168.527C200.5 169.927 200.7 171.727 201.3 173.727C201.9 175.727 202.9 177.327 203.8 178.327C204.7 179.527 205.4 180.127 205.3 180.127Z" fill="#E0E0E0"/>
<path d="M240.8 182.127C240.8 182.127 241.1 182.327 241.6 182.627C242.2 182.927 243 183.227 244.2 183.227C245.3 183.327 246.7 183.127 248.2 182.927C249.7 182.727 251.4 182.227 252.4 180.827C253.5 179.527 253.9 177.827 253.7 176.327C253.5 174.827 252.7 173.627 252 172.827C250.4 171.227 248.9 170.927 248.9 170.827C248.9 170.827 249.3 170.827 249.9 171.027C250.5 171.227 251.4 171.727 252.2 172.527C253.1 173.327 253.9 174.627 254.2 176.227C254.4 177.827 254.1 179.627 252.9 181.127C252.3 181.827 251.6 182.427 250.7 182.727C249.9 183.027 249.1 183.227 248.3 183.327C246.8 183.527 245.4 183.627 244.2 183.527C243 183.427 242.1 183.027 241.5 182.727C241 182.527 240.8 182.127 240.8 182.127Z" fill="#E0E0E0"/>
<path d="M250.8 169.427C250.8 169.427 250.9 169.427 251.1 169.427C251.3 169.427 251.6 169.427 252 169.527C252.7 169.727 253.7 170.427 254.6 171.427C255.5 172.527 256.2 173.927 256.8 175.727C257 176.627 257.2 177.527 257.1 178.627C257 179.627 256.7 180.627 256.1 181.527C254.9 183.327 253.1 184.427 251.3 185.027C249.5 185.527 247.9 185.627 246.5 185.527C245.1 185.427 244 185.327 243.3 185.227C242.6 185.127 242.1 185.027 242.1 184.927C242.1 184.827 243.8 185.127 246.5 185.127C247.8 185.127 249.4 185.027 251.1 184.527C252.7 184.027 254.5 182.927 255.6 181.227C256.2 180.427 256.5 179.427 256.6 178.527C256.7 177.627 256.6 176.727 256.3 175.827C255.8 174.127 255.1 172.727 254.3 171.627C253.5 170.527 252.6 169.927 251.9 169.627C251.3 169.527 250.8 169.527 250.8 169.427Z" fill="#E0E0E0"/>
<path d="M229.3 159.627L211.7 180.827L213.1 182.327L241.5 177.927L255.6 156.727L254.3 155.527L229.3 159.627Z" fill="#263238"/>
<path d="M247.8 165.227C246.7 165.227 245.7 165.927 245.3 166.927C244.9 168.027 244.3 169.327 243.6 169.727C242.3 170.427 240.2 170.927 239 170.427C237.9 169.827 233.3 165.727 232.4 166.227C231.6 166.727 230.9 167.727 231.7 168.627C232.5 169.527 236.8 172.327 236 173.227C235.2 174.127 226.2 170.127 224.9 170.427C223.5 170.827 222.7 171.627 223.5 172.227C224.3 172.827 230.4 175.127 230.7 175.927C230.7 175.927 221.5 173.527 221.2 174.127C220.9 174.727 220.3 175.627 221.2 175.927C222.1 176.227 230 178.327 230.7 178.727C231.4 179.027 233.8 179.727 234.2 179.727C234.5 179.727 236.3 180.327 237.9 180.927C239.8 181.527 241.8 181.527 243.6 180.727L244.5 180.327C245.9 179.727 246.9 178.327 246.8 176.727L246.6 173.627L247.6 171.027L247.8 165.227Z" fill="#FFBE9D"/>
<path d="M255.7 156.827C255.7 156.827 255.5 156.927 255.2 156.927C254.8 157.027 254.3 157.127 253.7 157.227C252.3 157.427 250.4 157.727 248.1 158.127C245.7 158.527 242.9 158.927 239.8 159.427C238.2 159.627 236.6 159.927 234.9 160.127C233.2 160.427 231.5 160.927 230.1 162.027C228.8 163.227 227.7 164.727 226.6 166.027C225.5 167.327 224.5 168.627 223.5 169.927C221.5 172.427 219.7 174.627 218.2 176.527C216.7 178.327 215.5 179.827 214.6 180.927C214.2 181.427 213.9 181.827 213.6 182.127C213.4 182.427 213.2 182.527 213.2 182.527C213.2 182.527 213.3 182.327 213.5 182.027C213.7 181.727 214.1 181.327 214.4 180.827C215.3 179.727 216.4 178.227 217.9 176.327C219.4 174.427 221.2 172.227 223.1 169.727C224.1 168.527 225.1 167.227 226.2 165.827C227.3 164.527 228.3 163.027 229.7 161.727C231.1 160.427 233 159.927 234.7 159.727C236.4 159.527 238.1 159.227 239.6 159.027C242.7 158.627 245.5 158.227 247.9 157.827C250.2 157.527 252.1 157.227 253.5 157.127C254.1 157.027 254.6 157.027 255 156.927C255.5 156.827 255.7 156.827 255.7 156.827Z" fill="#455A64"/>
<path d="M242.4 161.427C242.1 161.627 241.8 161.827 241.6 162.027C241.4 162.327 241.4 162.727 241.6 163.027C241.9 163.327 242.4 163.327 242.8 163.027C243 162.827 243.2 162.627 243.3 162.327C243.4 162.027 243.3 161.727 243.1 161.527C242.9 161.327 242.5 161.327 242.3 161.527" fill="#FAFAFA"/>
<path d="M54.5999 185.627H8.69995V278.227H54.5999V185.627Z" fill="#455A64"/>
<path d="M10.8001 278.027C6.8001 278.027 3.6001 274.827 3.6001 270.827V192.727C3.6001 188.727 6.8001 185.527 10.8001 185.527C14.8001 185.527 18.0001 188.727 18.0001 192.727V270.827C17.9001 274.827 14.7001 278.027 10.8001 278.027Z" fill="#455A64"/>
<path d="M14.5 189.327C14.5 189.327 14.5 189.427 14.5 189.527C14.5 189.727 14.5 189.927 14.6 190.227C14.7 190.827 14.7 191.727 14.8 192.827C15 195.127 15.2 198.427 15.5 202.427C16 210.627 16.8 221.727 17.6 234.127C18.4 246.527 19.1 257.727 19.5 265.827C19.7 269.927 19.2 273.227 18.3 275.327C17.9 276.427 17.5 277.127 17.1 277.727C16.9 277.927 16.8 278.127 16.7 278.327C16.6 278.427 16.6 278.527 16.6 278.527C16.5 278.527 17.4 277.527 18.1 275.327C18.9 273.227 19.3 269.927 19.1 265.827C18.6 257.627 17.9 246.527 17.1 234.127C16.3 221.727 15.7 210.527 15.2 202.427C15 198.427 14.8 195.127 14.7 192.827C14.7 191.727 14.6 190.827 14.6 190.227C14.6 189.927 14.6 189.727 14.6 189.527C14.5 189.427 14.5 189.327 14.5 189.327Z" fill="#263238"/>
<path d="M57.9 289.727H50.5V378.427H57.9V289.727Z" fill="#455A64"/>
<path d="M105.8 289.727H0C0 283.427 5.1 278.227 11.5 278.227H94.4C100.7 278.227 105.8 283.427 105.8 289.727Z" fill="#455A64"/>
<path d="M60.7 289.927C60.7 290.127 57.8 290.227 54.2 290.227C50.6 290.227 47.7 290.127 47.7 289.927C47.7 289.727 50.6 289.627 54.2 289.627C57.7 289.727 60.7 289.827 60.7 289.927Z" fill="#263238"/>
<path d="M86.5 386.427H85.5C85.5 369.027 71.4 354.927 54 354.927C36.6 354.927 22.5 369.027 22.5 386.427H21.5C21.5 368.527 36.1 353.927 54 353.927C71.9 353.927 86.5 368.527 86.5 386.427Z" fill="#455A64"/>
<path d="M22.0001 390.727C24.7063 390.727 26.9001 388.533 26.9001 385.827C26.9001 383.121 24.7063 380.927 22.0001 380.927C19.2939 380.927 17.1001 383.121 17.1001 385.827C17.1001 388.533 19.2939 390.727 22.0001 390.727Z" fill="#263238"/>
<path d="M91.1 386.127C91.1 388.827 88.9 391.027 86.2 391.027C83.5 391.027 81.3 388.827 81.3 386.127C81.3 383.427 83.5 381.227 86.2 381.227C88.9 381.227 91.1 383.427 91.1 386.127Z" fill="#455A64"/>
<path d="M86.2 378.427C86.2 378.627 72 378.727 54.6 378.727C37.1 378.727 23 378.627 23 378.427C23 378.227 37.2 378.127 54.6 378.127C72.1 378.127 86.2 378.227 86.2 378.427Z" fill="#455A64"/>
<path d="M42.6999 278.027C42.6999 278.027 42.0999 278.127 41.0999 278.127C39.9999 278.127 38.4999 278.227 36.6999 278.227C32.9999 278.327 27.8999 278.327 22.2999 278.427C19.4999 278.427 16.7999 278.427 14.3999 278.527C11.9999 278.527 9.7999 278.627 7.9999 279.127C6.1999 279.527 4.9999 280.327 4.0999 280.927C3.2999 281.527 2.8999 282.027 2.8999 281.927C2.8999 281.927 2.9999 281.827 3.1999 281.627C3.3999 281.427 3.5999 281.127 3.9999 280.827C4.7999 280.127 6.0999 279.327 7.8999 278.827C9.6999 278.327 11.8999 278.127 14.3999 278.127C16.7999 278.027 19.4999 278.027 22.2999 278.027C27.8999 278.027 32.9999 278.027 36.6999 278.027C38.4999 278.027 39.8999 278.027 41.0999 278.127C42.1999 278.027 42.6999 278.027 42.6999 278.027Z" fill="#263238"/>
<path d="M39.5999 181.227C45.0999 181.227 49.6999 177.627 49.7999 160.927C49.7999 157.527 49.6999 154.627 49.6999 154.627C49.6999 154.627 57.6999 153.927 58.1999 146.227C58.7999 138.527 58.2999 120.627 58.2999 120.627C49.3999 116.227 38.9999 117.027 30.7999 122.427L29.5999 123.227L29.9999 161.127C29.9999 166.327 34.1999 181.227 39.5999 181.227Z" fill="#B78876"/>
<path d="M49.6999 154.427C49.6999 154.427 44.6999 154.527 39.5999 150.927C39.5999 150.927 41.6999 156.627 49.5999 156.427L49.6999 154.427Z" fill="#AA6550"/>
<path d="M56.4996 132.927C56.4996 133.527 55.9996 134.027 55.3996 134.027C54.7996 134.027 54.2996 133.627 54.2996 133.027C54.2996 132.427 54.7996 131.927 55.3996 131.927C55.8996 131.927 56.3996 132.427 56.4996 132.927Z" fill="#263238"/>
<path d="M56.6996 131.727C56.5996 131.827 55.6997 131.227 54.4997 131.227C53.2997 131.227 52.3997 131.827 52.2997 131.627C52.1997 131.527 52.3997 131.327 52.7997 131.027C53.1997 130.727 53.7996 130.527 54.5996 130.527C55.2996 130.527 55.9997 130.827 56.2997 131.027C56.5997 131.427 56.7996 131.727 56.6996 131.727Z" fill="#263238"/>
<path d="M44.7996 133.227C44.7996 133.827 44.2996 134.327 43.6996 134.327C43.0996 134.327 42.5996 133.927 42.5996 133.327C42.5996 132.727 43.0996 132.227 43.6996 132.227C44.2996 132.227 44.7996 132.627 44.7996 133.227Z" fill="#263238"/>
<path d="M44.9997 131.927C44.8997 132.027 43.9997 131.427 42.7997 131.427C41.5997 131.427 40.6997 132.027 40.5997 131.827C40.4997 131.727 40.6997 131.527 41.0997 131.227C41.4997 130.927 42.0997 130.727 42.8997 130.727C43.5997 130.727 44.2997 131.027 44.5997 131.227C44.9997 131.627 45.0997 131.927 44.9997 131.927Z" fill="#263238"/>
<path d="M49.2997 140.627C49.2997 140.527 49.9997 140.427 51.1997 140.327C51.4997 140.327 51.7997 140.227 51.7997 140.027C51.8997 139.827 51.6997 139.527 51.5997 139.127C51.2997 138.427 50.9997 137.627 50.6997 136.827C49.4997 133.627 48.5997 130.927 48.6997 130.927C48.7997 130.927 49.9997 133.427 51.1997 136.627C51.4997 137.427 51.7997 138.227 52.0997 138.927C52.1997 139.227 52.3997 139.627 52.2997 140.127C52.1997 140.327 51.9997 140.527 51.7997 140.527C51.5997 140.627 51.3997 140.627 51.2997 140.627C50.0997 140.627 49.2997 140.627 49.2997 140.627Z" fill="#263238"/>
<path d="M45.7996 141.427C45.9996 141.427 45.9996 142.727 47.0996 143.527C48.1996 144.427 49.5996 144.327 49.5996 144.427C49.5996 144.527 49.2996 144.627 48.6996 144.727C48.0996 144.727 47.2996 144.527 46.5996 144.027C45.8996 143.527 45.5996 142.727 45.5996 142.227C45.5996 141.727 45.7996 141.427 45.7996 141.427Z" fill="#263238"/>
<path d="M45.2998 127.427C45.1998 127.727 43.9998 127.627 42.5998 127.727C41.1998 127.827 40.0998 128.227 39.8998 128.027C39.7998 127.927 39.9998 127.627 40.4998 127.327C40.9998 127.027 41.6998 126.727 42.4998 126.627C43.2998 126.527 44.0998 126.627 44.5998 126.827C45.0998 127.027 45.3998 127.227 45.2998 127.427Z" fill="#263238"/>
<path d="M56.2997 128.427C56.0997 128.727 55.2997 128.427 54.2997 128.427C53.2997 128.427 52.4997 128.627 52.2997 128.327C52.1997 128.227 52.2997 127.927 52.6997 127.727C53.0997 127.527 53.6997 127.227 54.2997 127.327C54.9997 127.327 55.5997 127.627 55.8997 127.827C56.1997 128.027 56.3997 128.227 56.2997 128.427Z" fill="#263238"/>
<path d="M58.6 119.027C58.5 117.827 58 116.627 57.4 115.627C57.9 114.527 57.8 113.127 57 112.127C55.9 110.827 53.6 110.727 52.3 111.827C52.3 111.827 52.2999 111.827 52.1999 111.827C52.5999 111.127 52.3 110.127 51.6 109.627C50.8 109.027 49.8 108.927 48.9 109.027C47.1 109.027 42.9 110.427 39.7 111.627C39.5 111.627 39.3 111.727 39.1 111.727C36.6 112.227 33.7 113.227 31.8 114.927C29.4 117.027 28 119.927 27.2 123.027C26.4 126.127 26.4 129.327 27 134.527C28 133.627 31.3 131.527 31.8 132.727C32.1 133.427 32 134.127 32.1 134.927C32.2 135.627 32.5 136.427 33.2 136.627C33.8 136.827 34.4 136.427 34.7 135.927C35 135.427 35.0999 134.827 35.2 134.227C35.4 131.827 34.8 129.427 35.2 127.027C35.5999 124.727 36.9 122.527 38.9 121.127C40.9 119.727 43.4 119.227 45.6999 119.727C47.0999 120.027 48.5 120.627 50 120.627C52.1 120.527 54.2999 119.027 56.1999 119.927C56.5999 120.127 57 120.327 57.3 120.527C58 120.927 58.4 121.327 58.6 121.027C58.7 120.827 58.7 119.727 58.6 119.027Z" fill="#263238"/>
<path d="M31.6 131.727C31.5 131.627 26.6 131.027 27.1 136.627C27.6 142.227 33.2 139.927 33.2 139.727C33.2 139.627 31.6 131.727 31.6 131.727Z" fill="#B78876"/>
<path d="M31.3 137.927C31.3 137.927 31.2 138.027 31 138.127C30.8 138.227 30.6 138.327 30.3 138.227C29.7 138.027 29.1 137.127 29 136.127C28.9 135.627 29 135.127 29.2 134.727C29.3 134.327 29.6 134.027 29.9 133.927C30.2 133.827 30.4 134.027 30.5 134.127C30.6 134.327 30.6 134.427 30.6 134.427C30.6 134.427 30.7 134.327 30.7 134.127C30.7 134.027 30.6 133.927 30.4 133.827C30.3 133.727 30 133.727 29.8 133.727C29.4 133.827 29 134.227 28.8 134.627C28.6 135.127 28.5 135.627 28.6 136.227C28.7 137.327 29.4 138.327 30.2 138.527C30.6 138.627 30.9 138.427 31.1 138.327C31.3 138.027 31.3 137.927 31.3 137.927Z" fill="#AA6550"/>
<path d="M84.8 367.427L89.2 361.327L72.4 349.627L65.5 359.027L66.5 359.827C70.8 363.427 88.7 378.027 92.3 379.427C96.4 380.927 84.8 367.427 84.8 367.427Z" fill="#E8505B"/>
<g opacity="0.5">
<g opacity="0.5">
<g opacity="0.5">
<g opacity="0.5">
<path opacity="0.5" d="M71.5 363.327C72.3 361.827 72.6 360.027 72.2 358.327C71.7 356.627 71.1 355.427 69 354.227L65.7 358.727L71.5 363.327Z" fill="white"/>
</g>
</g>
</g>
</g>
<g opacity="0.5">
<path opacity="0.5" d="M90.3 374.327C90.3 374.327 94.1 379.327 92.9 379.727C91.7 380.027 73.1 366.027 65.5 359.127L65.8 358.827L87.3 375.427C87.3 375.227 89.3 373.627 90.3 374.327Z" fill="white"/>
</g>
<path d="M65.5 358.527C65.5 358.527 65.6 358.627 65.8 358.727C66 358.927 66.3 359.127 66.6 359.427C67.4 360.027 68.3 360.827 69.5 361.827C71.9 363.827 75.3 366.527 79.1 369.327C82.9 372.227 86.4 374.727 89 376.527C90.2 377.327 91.2 378.027 92 378.627C92.3 378.827 92.6 379.027 92.8 379.227C93 379.327 93.1 379.427 93.1 379.427C93.1 379.427 93 379.327 92.8 379.227C92.6 379.027 92.3 378.827 92 378.627C91.2 378.027 90.2 377.327 89 376.427C86.5 374.627 83 372.027 79.2 369.127C75.4 366.227 72 363.627 69.5 361.627C68.4 360.727 67.4 359.927 66.6 359.327C66.3 359.127 66 358.927 65.8 358.727C65.6 358.527 65.5 358.527 65.5 358.527Z" fill="#263238"/>
<path d="M87.0999 375.527C87.1999 375.627 87.6999 374.927 88.6999 374.527C89.6999 374.127 90.4999 374.227 90.4999 374.227C90.4999 374.127 89.5999 373.927 88.5999 374.327C87.5999 374.727 86.9999 375.527 87.0999 375.527Z" fill="#263238"/>
<path d="M84.1001 369.527C84.1001 369.627 84.6001 369.527 85.1001 369.327C85.6001 369.127 86.0001 368.927 86.0001 368.827C86.0001 368.727 85.5001 368.827 85.0001 369.027C84.5001 369.227 84.1001 369.427 84.1001 369.527Z" fill="#263238"/>
<path d="M83.3 367.827C83.3 367.927 83.7 367.927 84.2 367.927C84.7 367.927 85 367.827 85 367.727C85 367.627 84.6 367.627 84.1 367.627C83.7 367.627 83.3 367.727 83.3 367.827Z" fill="#263238"/>
<path d="M83.6001 365.727C83.6001 365.827 83.9001 366.127 84.4001 366.427C84.9001 366.827 85.3001 367.027 85.3001 367.027C85.3001 366.927 85.0001 366.627 84.5001 366.327C84.1001 365.927 83.6001 365.627 83.6001 365.727Z" fill="#263238"/>
<path d="M84.1 364.427C84 364.427 84.3 364.927 84.8 365.427C85.3 365.927 85.8 366.127 85.9 366.027C85.9 365.927 85.5 365.627 85 365.227C84.5 364.827 84.2 364.327 84.1 364.427Z" fill="#263238"/>
<path d="M85.7 368.527C85.7 368.527 86 368.927 86.8 369.327C87.2 369.527 87.6 369.727 88.1 369.927C88.4 370.027 88.6 370.127 88.9 370.127C89.1 370.127 89.2 370.127 89.4 370.027C89.6 369.927 89.6 369.627 89.6 369.527C89 368.227 87.6 368.027 86.8 368.327C86.4 368.427 86.1 368.627 85.9 368.727C85.7 368.827 85.7 368.927 85.7 369.027C85.7 369.027 86.1 368.727 86.8 368.527C87.2 368.427 87.6 368.427 88.1 368.627C88.6 368.827 89.1 369.127 89.3 369.627C89.4 369.827 89.2 370.027 88.9 370.027C88.6 370.027 88.4 369.927 88.1 369.827C87.6 369.627 87.2 369.427 86.8 369.327C86.1 368.827 85.7 368.527 85.7 368.527Z" fill="#263238"/>
<path d="M85.9 368.827C85.9 368.827 86.3 368.727 86.6 368.227C86.7 368.027 86.9 367.627 86.9 367.227C86.9 366.827 86.9 366.327 86.4 366.027C86.1 365.827 85.8 366.027 85.7 366.227C85.6 366.427 85.5 366.627 85.5 366.827C85.5 367.227 85.5 367.527 85.5 367.827C85.7 368.427 85.8 368.727 85.9 368.827C85.9 368.727 85.8 368.427 85.7 367.827C85.7 367.527 85.7 367.227 85.7 366.927C85.7 366.627 85.9 366.127 86.2 366.327C86.5 366.527 86.6 366.927 86.6 367.327C86.6 367.627 86.5 368.027 86.4 368.227C86.2 368.527 85.9 368.727 85.9 368.827Z" fill="#263238"/>
<path d="M69.1001 354.427C69.1001 354.427 69.6001 354.727 70.3001 355.327C71.0001 355.927 71.8001 357.027 72.1001 358.327C72.5001 359.727 72.3001 360.927 72.0001 361.827C71.7001 362.727 71.4001 363.127 71.4001 363.227C71.4001 363.227 71.5001 363.127 71.6001 362.927C71.7001 362.727 71.9001 362.327 72.1001 361.927C72.4001 361.027 72.6001 359.727 72.2001 358.327C71.8001 356.927 71.0001 355.827 70.3001 355.227C69.9001 354.927 69.6001 354.727 69.4001 354.527C69.3001 354.427 69.1001 354.427 69.1001 354.427Z" fill="#263238"/>
<path d="M74.7 363.327C74.7 363.327 75.6 364.327 76.9 365.327C78.2 366.327 79.4 367.027 79.4 366.927C79.4 366.827 78.3 366.127 77 365.127C75.7 364.227 74.7 363.327 74.7 363.327Z" fill="#263238"/>
<path d="M71.5001 360.927C71.4001 360.927 71.4001 361.227 71.3001 361.527C71.2001 361.827 71.1001 362.127 71.2001 362.127C71.3001 362.127 71.5001 361.927 71.6001 361.527C71.7001 361.227 71.6001 360.927 71.5001 360.927Z" fill="#263238"/>
<path d="M71.4 358.627C71.3 358.627 71.3 358.927 71.4 359.127C71.4 359.427 71.4999 359.627 71.5999 359.627C71.6999 359.627 71.6999 359.327 71.5999 359.127C71.5999 358.827 71.5 358.527 71.4 358.627Z" fill="#263238"/>
<path d="M70.2 356.627C70.2 356.727 70.4 356.827 70.6 357.127C70.8 357.427 70.9 357.627 70.9 357.627C71 357.627 71 357.327 70.8 357.027C70.5 356.627 70.2 356.527 70.2 356.627Z" fill="#263238"/>
<path d="M69.2001 355.327C69.1001 355.327 69.2001 355.527 69.3001 355.627C69.4001 355.827 69.5001 355.827 69.6001 355.827C69.7001 355.827 69.6001 355.627 69.5001 355.527C69.4001 355.427 69.3001 355.327 69.2001 355.327Z" fill="#263238"/>
<g opacity="0.3">
<path opacity="0.3" d="M69.6001 353.427L86.6001 365.127L87.1001 364.427L70.6001 352.027L69.6001 353.427Z" fill="black"/>
</g>
<path d="M166.3 386.827L164.7 379.627L145.2 384.127L147.5 395.327L148.7 395.127C154.2 394.427 176.4 391.027 179.8 389.227C183.6 387.327 166.3 386.827 166.3 386.827Z" fill="#E8505B"/>
<g opacity="0.5">
<g opacity="0.5">
<g opacity="0.5">
<g opacity="0.5">
<path opacity="0.5" d="M154.5 393.827C153.9 392.327 152.8 390.827 151.3 390.027C149.8 389.327 148.5 388.927 146.3 389.627L147.4 395.027L154.5 393.827Z" fill="white"/>
</g>
</g>
</g>
</g>
<g opacity="0.5">
<path opacity="0.5" d="M174.8 387.327C174.8 387.327 180.9 387.827 180.4 388.927C179.9 390.027 157.5 394.227 147.5 395.327L147.4 394.927L173.5 390.127C173.5 390.127 173.6 387.627 174.8 387.327Z" fill="white"/>
</g>
<path d="M147.1 394.927C147.1 394.927 147.2 394.927 147.4 394.927C147.7 394.927 148 394.827 148.4 394.827C149.4 394.727 150.6 394.527 152 394.327C155 393.827 159.2 393.127 163.8 392.327C168.4 391.427 172.5 390.627 175.5 389.927C176.9 389.627 178.1 389.327 179 389.127C179.4 389.027 179.7 388.927 180 388.927C180.2 388.827 180.3 388.827 180.3 388.827C180.3 388.827 180.2 388.827 180 388.927C179.7 389.027 179.4 389.027 179 389.127C178 389.327 176.9 389.627 175.5 389.827C172.5 390.427 168.4 391.327 163.8 392.227C159.2 393.127 155.1 393.827 152 394.327C150.6 394.527 149.4 394.727 148.4 394.927C148 395.027 147.7 395.027 147.4 395.127C147.2 394.927 147.1 394.927 147.1 394.927Z" fill="#263238"/>
<path d="M173.6 390.427C173.7 390.427 173.6 389.627 173.9 388.627C174.3 387.727 174.9 387.127 174.9 387.027C174.9 386.927 174.1 387.527 173.7 388.527C173.3 389.627 173.5 390.427 173.6 390.427Z" fill="#263238"/>
<path d="M167.3 388.627C167.4 388.627 167.6 388.227 167.8 387.727C168 387.227 168.1 386.827 168.1 386.827C168 386.827 167.8 387.227 167.6 387.727C167.3 388.227 167.2 388.627 167.3 388.627Z" fill="#263238"/>
<path d="M165.5 388.127C165.6 388.127 165.8 387.927 166.1 387.527C166.4 387.127 166.6 386.827 166.5 386.827C166.4 386.827 166.2 387.027 165.9 387.427C165.6 387.827 165.5 388.127 165.5 388.127Z" fill="#263238"/>
<path d="M164.2 386.527C164.2 386.627 164.7 386.527 165.2 386.427C165.8 386.327 166.2 386.227 166.2 386.127C166.2 386.027 165.7 386.127 165.2 386.227C164.6 386.327 164.2 386.427 164.2 386.527Z" fill="#263238"/>
<path d="M163.6 385.327C163.6 385.427 164.1 385.527 164.8 385.427C165.5 385.327 166 385.127 165.9 385.027C165.9 384.927 165.4 385.127 164.7 385.127C164.1 385.227 163.6 385.227 163.6 385.327Z" fill="#263238"/>
<path d="M167.6 386.827C167.6 386.827 168.1 386.827 168.9 386.627C169.3 386.527 169.7 386.327 170.2 386.127C170.4 386.027 170.7 385.927 170.9 385.627C171 385.527 171.1 385.427 171.1 385.227C171.1 385.027 171 384.827 170.8 384.727C169.5 384.327 168.4 385.227 168.1 385.927C167.9 386.327 167.9 386.627 167.8 386.827C167.8 387.027 167.8 387.127 167.8 387.127C167.8 387.127 167.8 386.627 168.2 385.927C168.4 385.627 168.7 385.227 169.1 385.027C169.5 384.827 170.1 384.627 170.6 384.827C170.8 384.927 170.8 385.227 170.6 385.327C170.4 385.527 170.2 385.627 169.9 385.727C169.5 386.027 169 386.127 168.7 386.327C168.1 386.727 167.6 386.827 167.6 386.827Z" fill="#263238"/>
<path d="M167.9 386.827C167.9 386.827 168 386.527 167.9 385.927C167.8 385.627 167.7 385.327 167.4 385.127C167.1 384.927 166.8 384.527 166.2 384.727C165.9 384.827 165.8 385.127 165.9 385.327C166 385.527 166.1 385.727 166.2 385.827C166.4 386.127 166.7 386.327 166.9 386.427C167.4 386.727 167.7 386.827 167.7 386.827C167.7 386.827 167.4 386.627 167 386.327C166.8 386.127 166.6 385.927 166.3 385.727C166.1 385.527 165.9 385.027 166.2 384.927C166.5 384.827 166.9 385.127 167.1 385.327C167.3 385.527 167.5 385.827 167.6 386.027C167.9 386.527 167.9 386.827 167.9 386.827Z" fill="#263238"/>
<path d="M146.5 389.627C146.5 389.627 147.1 389.427 148 389.427C148.9 389.327 150.2 389.427 151.4 390.127C152.6 390.727 153.4 391.727 153.9 392.527C154.4 393.327 154.5 393.827 154.5 393.827C154.5 393.827 154.5 393.727 154.4 393.427C154.3 393.227 154.2 392.827 154 392.427C153.6 391.627 152.7 390.627 151.5 389.927C150.2 389.227 148.9 389.227 148 389.327C147.5 389.427 147.2 389.427 146.9 389.527C146.6 389.527 146.5 389.627 146.5 389.627Z" fill="#263238"/>
<path d="M156.6 391.527C156.6 391.627 157.9 391.527 159.5 391.227C161.1 390.927 162.3 390.527 162.3 390.427C162.3 390.327 161 390.727 159.4 390.927C157.9 391.227 156.6 391.427 156.6 391.527Z" fill="#263238"/>
<path d="M152.8 392.227C152.8 392.327 153 392.427 153.1 392.727C153.3 393.027 153.4 393.227 153.5 393.227C153.6 393.227 153.5 392.927 153.3 392.627C153.1 392.327 152.8 392.127 152.8 392.227Z" fill="#263238"/>
<path d="M151 390.727C151 390.827 151.1 390.927 151.4 391.127C151.6 391.327 151.9 391.427 151.9 391.327C151.9 391.227 151.8 391.127 151.5 390.927C151.3 390.727 151.1 390.627 151 390.727Z" fill="#263238"/>
<path d="M148.8 390.327C148.8 390.427 149.1 390.327 149.4 390.427C149.7 390.427 149.9 390.627 150 390.527C150 390.527 149.8 390.227 149.4 390.227C149.1 390.127 148.8 390.227 148.8 390.327Z" fill="#263238"/>
<path d="M147.3 390.227C147.3 390.327 147.4 390.327 147.6 390.427C147.8 390.427 147.9 390.427 147.9 390.327C147.9 390.227 147.8 390.227 147.6 390.127C147.4 390.127 147.3 390.127 147.3 390.227Z" fill="#263238"/>
<g opacity="0.3">
<path opacity="0.3" d="M146.1 388.627L165.7 384.027L165.5 383.227L145.8 387.027L146.1 388.627Z" fill="black"/>
</g>
<path d="M115.5 213.227C115.5 212.827 118.9 209.727 119.4 209.527C119.9 209.327 129.7 205.227 129.9 205.727C130.1 206.227 131.3 208.427 129.3 209.427L127.8 209.927L133.4 210.427C133.4 210.427 139.7 215.027 139.6 216.027C139.5 217.027 138.7 217.627 138.1 217.227C137.6 216.727 139.6 220.427 139.6 220.427C139.6 220.427 139.6 221.927 138.8 221.727C138 221.427 136.7 220.027 136.7 220.027C136.7 220.027 137.9 221.927 137.5 222.327C137.1 222.727 135.3 222.827 135.1 222.327C134.9 221.827 134.6 221.027 134.6 221.027L133.5 221.127V222.627L116.9 223.127L115.5 213.227Z" fill="#AA6550"/>
<path d="M51.2 167.427L56.3 173.427L76.5 208.827L116 212.827L116.9 224.227L71.4 228.527L46 182.527L51.2 167.427Z" fill="#E0E0E0"/>
<path d="M55.2 184.727L51.3 169.927L51.2 165.127L29.2 155.127L25 160.427L25.5 160.727C23.8 162.527 11 176.427 11.7 186.627C12.4 195.827 31.8 253.727 31.8 253.727L75.9 240.827L55.2 184.727Z" fill="#EBEBEB"/>
<path d="M50.8001 170.127L49.6001 176.227L52.8001 182.327V186.827L75.9001 240.827L82.7001 243.127L83.9001 238.527C83.9001 238.527 64.7001 205.627 61.3001 196.427C58.0001 187.127 53.1001 173.827 53.1001 173.827L50.8001 170.127Z" fill="#E8505B"/>
<path d="M15.7 197.327C15.7 197.927 55.5999 236.427 55.5999 236.427L109.4 225.927L107.7 214.427L70.9 215.427C66.9 215.627 63.6999 214.227 61.1999 211.027C53.2999 200.827 36.2 178.527 35.8 178.027C35.3 177.227 15.7 197.327 15.7 197.327Z" fill="#EBEBEB"/>
<path d="M107.7 214.427C107.7 214.427 107.8 214.627 107.8 215.127C107.9 215.627 108 216.327 108.2 217.327C108.5 219.327 109 222.127 109.5 225.927V226.027H109.4C100 227.827 85.0001 230.727 66.4001 234.327C65.2001 234.527 64.1001 234.827 62.9001 235.027C61.7001 235.227 60.4 235.427 59.2 235.327C56.7 235.227 54.1001 234.527 51.9001 233.127C50.8001 232.427 49.7001 231.627 48.8001 230.627C47.9001 229.627 47 228.627 46.2 227.627C44.4 225.627 42.6001 223.527 40.8001 221.427C33.5001 213.027 25.8 204.127 17.8 194.927C17.7 194.827 17.7 194.627 17.6 194.527C16.8 192.527 16.3 190.427 16.3 188.327C16.3 186.227 16.7 184.027 17.8 182.227C18.9 180.427 20.5001 179.027 22.2001 177.927C24.0001 176.927 25.9 176.227 28 176.027C30 175.827 32.1001 176.227 33.9001 177.027C35.7001 177.927 37.2001 179.227 38.5 180.627C39.8 182.027 40.9 183.627 42 185.127C43.1 186.627 44.2 188.127 45.2 189.627C49.5 195.527 53.7001 201.027 57.8001 206.027C58.8001 207.327 59.8001 208.527 60.8001 209.727C61.8001 210.927 62.7001 212.127 63.9001 213.127C65 214.127 66.4001 214.527 67.8001 214.727C69.2001 214.927 70.6 214.827 72 214.827C83 214.627 92 214.527 98.2 214.427C101.3 214.427 103.6 214.327 105.3 214.327C106.1 214.327 106.7 214.327 107.1 214.327C107.5 214.327 107.7 214.427 107.7 214.427C107.7 214.427 107.5 214.427 107.1 214.427C106.7 214.427 106 214.427 105.2 214.527C103.6 214.527 101.2 214.627 98.1001 214.727C91.9001 214.827 83 215.027 72 215.327C70.6 215.327 69.2 215.427 67.7 215.227C66.3 215.027 64.7 214.527 63.6 213.527C62.4 212.527 61.5 211.227 60.5 210.127C59.5 208.927 58.5 207.727 57.4001 206.427C53.3001 201.427 49 195.927 44.7 190.027C43.6 188.527 42.6 187.027 41.5 185.527C40.4 184.027 39.3 182.427 38.1 181.027C36.8 179.627 35.4001 178.327 33.7001 177.527C32.0001 176.727 30 176.327 28.1 176.527C24.3 176.927 20.4 179.127 18.3 182.527C17.3 184.227 16.8 186.327 16.8 188.327C16.8 190.327 17.3 192.427 18.1 194.327C18.2 194.427 18.2 194.627 18.3 194.727V194.627C26.3 203.827 34.0001 212.727 41.3001 221.127C43.1001 223.227 44.9 225.327 46.7 227.327C47.6 228.327 48.4001 229.327 49.3001 230.327C50.2001 231.227 51.2001 232.127 52.3001 232.727C54.5001 234.027 57 234.827 59.4001 234.827C60.6001 234.827 61.8 234.727 63 234.527C64.2001 234.327 65.4001 234.127 66.5 233.827C85.1001 230.327 100.1 227.527 109.5 225.727L109.4 225.827C108.9 222.127 108.5 219.227 108.2 217.327C108.1 216.327 108 215.627 107.9 215.127C107.7 214.627 107.7 214.427 107.7 214.427Z" fill="#455A64"/>
<path d="M51.2001 165.127C51.3001 165.127 51.0001 166.127 50.9001 167.827C50.7001 169.527 50.6001 172.027 50.0001 174.927L49.9001 175.227L49.6001 175.027C47.3001 173.727 44.6001 172.127 41.7001 170.527C37.2001 167.927 33.1001 165.527 30.1001 163.727C28.7001 162.827 27.5001 162.127 26.6001 161.627C25.8001 161.127 25.3001 160.827 25.4001 160.827C25.4001 160.827 25.9001 161.027 26.7001 161.527C27.6001 162.027 28.8001 162.727 30.3001 163.527C33.3001 165.227 37.4001 167.527 41.9001 170.227C44.7001 171.927 47.4001 173.427 49.7001 174.827L49.4001 174.927C50.0001 172.027 50.2001 169.527 50.5001 167.827C50.6001 166.927 50.8001 166.327 50.9001 165.827C51.1001 165.327 51.2001 165.127 51.2001 165.127Z" fill="#455A64"/>
<path d="M130.8 214.427L121.2 211.827L113.2 215.827H108.7L108 216.127L109.3 224.727L110.4 224.927C110.4 224.927 111.7 225.827 114.2 226.427C116.7 226.927 120.5 225.327 120.5 225.327L125.6 222.527L129.2 221.527L131.9 223.127C131.9 223.127 132.2 224.227 132.2 224.627C132.2 225.027 133.2 225.427 133.7 225.427C134.2 225.427 134.4 224.127 134.4 224.127L133.8 221.427L135.1 222.627H138.3V220.627L130.8 214.427Z" fill="#B78876"/>
<path d="M109.4 277.527L68 351.227L90.1 366.227L126.7 301.327L120.6 277.527H109.4Z" fill="#263238"/>
<path d="M31.8001 253.627C31.8001 253.627 27.0001 273.627 39.9001 277.727C52.8001 281.827 119.9 283.927 119.9 283.927L144.8 386.927L166.2 383.927L147.8 273.527C146.4 265.827 140.4 259.727 132.7 258.327C112.8 254.727 76.8001 248.227 76.3001 247.527C75.6001 246.527 72.9001 240.727 72.9001 240.727L31.8001 253.627Z" fill="#263238"/>
<path d="M128 315.427C128 315.427 127.9 315.227 127.8 314.927C127.7 314.527 127.5 314.027 127.3 313.327C126.9 311.927 126.4 309.927 125.9 307.427C125.4 304.927 124.8 301.927 124.1 298.727C123.4 295.427 122.6 291.827 121 288.327C120.2 286.627 119 285.027 117.3 284.527C115.6 283.927 113.9 283.627 112.2 283.427C108.9 282.927 105.9 282.727 103.3 282.627C100.8 282.427 98.7001 282.427 97.3001 282.327C96.6001 282.327 96.1001 282.327 95.7001 282.227C95.3001 282.227 95.1001 282.227 95.1001 282.127C95.1001 282.027 95.3001 282.127 95.7001 282.127C96.1001 282.127 96.6001 282.127 97.3001 282.127C98.7001 282.127 100.8 282.127 103.3 282.227C105.8 282.327 108.9 282.527 112.2 282.927C113.9 283.127 115.6 283.427 117.4 284.027C117.8 284.227 118.3 284.427 118.7 284.627C119.1 284.927 119.5 285.227 119.8 285.627C120.4 286.327 120.9 287.227 121.4 288.127C123.1 291.727 123.8 295.327 124.5 298.627C125.2 301.927 125.7 304.927 126.2 307.427C126.7 309.927 127.1 311.927 127.4 313.327C127.8 314.627 128 315.427 128 315.427Z" fill="#455A64"/>
<path d="M371.7 229.027L105.2 228.127L105.1 236.027L121 236.127L120.4 390.227H126L126.6 236.127L346.8 236.927L346.2 391.027H351.8L352.3 236.927L371.7 237.027V229.027Z" fill="#455A64"/>
<path d="M280.1 185.327L294.9 228.527H361.9L361.4 226.327L334.3 225.527L321.8 185.327H280.1Z" fill="#E0E0E0"/>
<path d="M309.8 205.627C310.2 207.427 309.5 209.127 308.1 209.527C306.7 209.927 305.2 208.727 304.8 207.027C304.4 205.227 305.1 203.527 306.5 203.127C307.9 202.727 309.4 203.827 309.8 205.627Z" fill="white"/>
<path d="M214.3 184.127L199.5 227.327H132.6L133 225.127L160.1 224.227L172.6 184.127H214.3Z" fill="#E0E0E0"/>
<path d="M184.6 204.427C184.2 206.227 184.9 207.927 186.3 208.327C187.7 208.727 189.2 207.527 189.6 205.827C190 204.027 189.3 202.327 187.9 201.927C186.5 201.527 185.1 202.627 184.6 204.427Z" fill="white"/>
<path d="M249.529 213.584C250.256 209.114 247.222 204.901 242.752 204.174C238.282 203.446 234.069 206.48 233.342 210.95C232.615 215.42 235.648 219.633 240.118 220.36C244.588 221.088 248.801 218.054 249.529 213.584Z" fill="#455A64"/>
<path d="M268.2 209.027H214.7V228.627H268.2V209.027Z" fill="#E0E0E0"/>
<path d="M235.3 214.427C235.3 214.527 231.4 214.727 226.6 214.727C221.8 214.727 217.9 214.627 217.9 214.427C217.9 214.327 221.8 214.127 226.6 214.127C231.3 214.127 235.3 214.227 235.3 214.427Z" fill="#263238"/>
<path d="M235.3 217.227C235.3 217.327 231.4 217.527 226.6 217.527C221.8 217.527 217.9 217.427 217.9 217.227C217.9 217.027 221.8 216.927 226.6 216.927C231.3 216.927 235.3 217.027 235.3 217.227Z" fill="#263238"/>
<path d="M235.3 220.027C235.3 220.127 231.4 220.327 226.6 220.327C221.8 220.327 217.9 220.227 217.9 220.027C217.9 219.827 221.8 219.727 226.6 219.727C231.3 219.727 235.3 219.827 235.3 220.027Z" fill="#263238"/>
<path d="M235.3 222.827C235.3 222.927 231.4 223.127 226.6 223.127C221.8 223.127 217.9 223.027 217.9 222.827C217.9 222.727 221.8 222.527 226.6 222.527C231.3 222.527 235.3 222.627 235.3 222.827Z" fill="#263238"/>
<path d="M245 228.127C244.9 228.127 244.7 223.927 244.7 218.727C244.7 213.527 244.8 209.327 245 209.327C245.1 209.327 245.3 213.527 245.3 218.727C245.3 223.927 245.2 228.127 245 228.127Z" fill="#263238"/>
</g>
<defs>
<clipPath id="clip0_82_9703">
<rect width="439" height="395" fill="white" transform="translate(0 0.5271)"/>
</clipPath>
</defs>
</svg>
