<svg width="466" height="410" viewBox="0 0 466 410" fill="none" xmlns="http://www.w3.org/2000/svg">
<g clip-path="url(#clip0_91_8238)">
<path d="M431.725 98.3879L342.123 118.143C338.423 118.941 334.823 116.647 334.023 112.955L315.323 28.8454C314.523 25.1537 316.823 21.5619 320.523 20.7637L410.124 1.00844C413.824 0.210247 417.424 2.50505 418.224 6.19669L436.925 90.3062C437.625 93.9978 435.325 97.5897 431.725 98.3879Z" fill="#EBEBEB"/>
<path d="M396.524 70.4511C396.524 70.4511 396.324 70.5509 395.824 70.6507C395.324 70.7504 394.624 70.95 393.824 71.1495C392.024 71.5486 389.524 72.1473 386.424 72.8457C380.124 74.2425 371.424 76.238 361.723 78.433H361.523L361.423 78.2335C360.923 76.9364 360.423 75.6394 359.923 74.2425C355.623 62.6687 351.723 52.2922 349.223 45.5076L349.423 45.6074C346.623 46.206 344.423 46.7049 342.823 47.0042C342.123 47.104 341.523 47.3035 341.023 47.4033C340.623 47.5031 340.423 47.5031 340.423 47.5031C340.423 47.5031 340.623 47.4033 341.023 47.3035C341.423 47.2038 342.023 47.0042 342.723 46.9044C344.323 46.5054 346.523 46.0065 349.323 45.4078H349.423V45.5076C352.023 52.2922 355.923 62.569 360.323 74.1427C360.823 75.5396 361.323 76.8366 361.823 78.1337L361.523 78.0339C371.324 75.8389 380.024 73.9432 386.324 72.5464C389.424 71.8479 391.924 71.3491 393.724 70.95C394.524 70.7504 395.224 70.6507 395.724 70.5509C396.324 70.4511 396.524 70.4511 396.524 70.4511Z" fill="#FAFAFA"/>
<path d="M359.123 71.2493C359.123 71.2493 359.223 71.2493 359.323 71.1495C359.423 71.1495 359.623 71.0498 359.823 71.0498C360.323 70.95 360.923 70.7505 361.823 70.5509C363.623 70.1518 366.123 69.5532 369.223 68.8547C375.624 67.3581 384.524 65.3627 394.924 63.0679L394.724 63.2674C394.524 58.7776 394.324 53.9884 394.024 48.8999C393.924 46.3058 393.824 43.8115 393.724 41.4169L394.024 41.6164C382.024 44.3103 371.424 46.6051 363.723 48.3013C359.923 49.0995 356.923 49.7979 354.723 50.197C353.723 50.3965 352.923 50.5961 352.323 50.6959C352.023 50.6959 351.823 50.7956 351.723 50.7956C351.623 50.7956 351.523 50.7956 351.523 50.7956C351.523 50.7956 351.623 50.7956 351.723 50.6959C351.923 50.6959 352.123 50.5961 352.323 50.4963C352.923 50.3965 353.723 50.197 354.723 49.8977C356.823 49.3988 359.923 48.7004 363.623 47.8024C371.224 46.1063 381.824 43.7117 393.824 40.918L394.124 40.8182V41.1176C394.224 43.5121 394.324 46.1063 394.424 48.6006C394.624 53.5893 394.824 58.4782 395.024 62.9681V63.1676H394.824C384.424 65.4624 375.524 67.4579 369.123 68.8547C365.923 69.5532 363.423 70.052 361.623 70.4511C360.823 70.6507 360.123 70.7504 359.623 70.8502C359.423 70.8502 359.223 70.95 359.123 70.95C359.223 71.2493 359.123 71.2493 359.123 71.2493Z" fill="#FAFAFA"/>
<path d="M372.624 85.7166C372.624 85.7166 372.524 85.4172 372.224 84.9184C371.924 84.4195 371.424 83.8209 370.524 83.4218C369.624 83.0227 368.424 83.0227 367.324 83.7211C366.224 84.4195 365.524 85.8163 365.924 87.2132C366.224 88.61 367.524 89.6078 368.724 89.8073C370.024 90.0069 371.124 89.4082 371.724 88.7098C372.324 88.0114 372.524 87.1134 372.624 86.6145C372.624 86.0159 372.524 85.7166 372.624 85.7166C372.624 85.7166 372.824 86.0159 372.824 86.6145C372.824 87.2132 372.724 88.1111 372.024 88.9093C371.424 89.7075 370.124 90.4059 368.724 90.2064C367.324 90.1066 365.824 88.9093 365.524 87.313C365.124 85.7166 366.024 84.0204 367.224 83.322C368.424 82.5238 369.924 82.6236 370.824 83.1225C371.824 83.6213 372.324 84.3197 372.524 84.8186C372.624 85.4173 372.624 85.7166 372.624 85.7166Z" fill="#FAFAFA"/>
<path d="M394.924 80.7278C394.924 80.7278 394.824 80.4285 394.524 79.9296C394.224 79.4307 393.724 78.8321 392.824 78.433C391.924 78.0339 390.724 78.0339 389.624 78.7323C388.524 79.4307 387.824 80.8276 388.224 82.2244C388.524 83.6213 389.824 84.619 391.024 84.8186C392.324 85.0181 393.424 84.4195 394.024 83.721C394.624 83.0226 394.824 82.1247 394.924 81.6258C395.024 81.0271 394.924 80.7278 394.924 80.7278C394.924 80.7278 395.124 81.0271 395.124 81.6258C395.124 82.2244 395.024 83.1224 394.324 83.9206C393.724 84.7188 392.424 85.4172 391.024 85.2176C389.624 85.1179 388.124 83.9206 387.824 82.3242C387.424 80.7278 388.324 79.0317 389.524 78.3332C390.724 77.535 392.224 77.6348 393.124 78.1337C394.124 78.6326 394.624 79.331 394.824 79.8298C395.024 80.3287 395.024 80.7278 394.924 80.7278Z" fill="#FAFAFA"/>
<path d="M401.224 36.1289C402.424 41.6164 399.024 47.0042 393.524 48.3013C388.024 49.4986 382.624 46.1063 381.324 40.6187C380.124 35.1311 383.524 29.7433 389.024 28.4463C394.524 27.1492 399.924 30.6413 401.224 36.1289Z" fill="#FAFAFA"/>
<path d="M395.824 33.435C395.924 33.435 395.524 34.2332 394.924 35.3307C394.324 36.4282 393.424 38.0246 392.424 39.7207C392.024 40.3194 391.724 40.918 391.324 41.5166L391.224 41.7162L391.024 41.6164C388.424 40.2196 386.624 39.1221 386.724 39.0223C386.824 38.9225 388.724 39.8205 391.324 41.2173L391.024 41.3171C391.324 40.7185 391.724 40.1198 392.124 39.5212C393.124 37.825 394.124 36.3284 394.824 35.2309C395.324 34.0336 395.724 33.3352 395.824 33.435Z" fill="#E0E0E0"/>
<path d="M53.9186 150.47C52.1185 143.985 43.6184 144.583 43.6184 144.583L43.8184 149.073C48.7185 148.275 51.8185 153.962 51.8185 153.962L53.9186 150.47Z" fill="#E0E0E0"/>
<path d="M178.621 75.1405C188.421 78.1337 194.621 66.7595 194.621 66.7595L188.621 63.3672C185.721 70.3514 175.821 69.5532 175.821 69.5532L178.621 75.1405Z" fill="#E0E0E0"/>
<path d="M260.322 136.003C258.422 130.615 251.222 131.613 251.222 131.613L251.622 135.404C255.722 134.406 258.622 139.096 258.622 139.096L260.322 136.003Z" fill="#E0E0E0"/>
<path d="M147.42 9.09013C145.52 3.70234 138.32 4.70008 138.32 4.70008L138.72 8.49149C142.82 7.49375 145.72 12.1831 145.72 12.1831L147.42 9.09013Z" fill="#E0E0E0"/>
<path d="M62.0186 78.433C60.1186 73.0452 52.9185 74.043 52.9185 74.043L53.3185 77.8344C57.4185 76.8366 60.3186 81.526 60.3186 81.526L62.0186 78.433Z" fill="#EBEBEB"/>
<path d="M44.1185 27.7479C38.4184 28.6459 38.1184 35.8296 38.1184 35.8296L42.0185 36.0292C41.8185 31.8387 46.9185 29.8432 46.9185 29.8432L44.1185 27.7479Z" fill="#EBEBEB"/>
<path d="M3.21777 196.366C13.1179 199.359 19.218 187.985 19.218 187.985L13.2179 184.593C10.3179 191.577 0.417725 190.779 0.417725 190.779L3.21777 196.366Z" fill="#EBEBEB"/>
<path d="M283.822 75.839C284.522 71.2493 279.022 69.3536 279.022 69.3536L277.922 72.2471C281.222 73.0453 281.522 77.4354 281.522 77.4354L283.822 75.839Z" fill="#E0E0E0"/>
<path d="M251.122 25.8522C247.322 28.3465 249.422 33.7343 249.422 33.7343L252.322 32.6368C250.722 29.6436 253.822 26.4508 253.822 26.4508L251.122 25.8522Z" fill="#EBEBEB"/>
<path d="M417.724 127.721L404.424 166.733L443.725 174.515L446.025 133.309L417.724 127.721Z" fill="#F5F5F5"/>
<path d="M441.625 138.497C441.625 138.497 441.525 138.896 441.225 139.595C440.825 140.293 440.225 141.191 439.225 142.189C438.225 143.186 436.825 144.184 435.025 144.783C433.225 145.381 431.125 145.481 429.025 145.082C426.925 144.683 425.024 143.885 423.524 142.588C422.024 141.391 421.224 139.894 420.724 138.597C420.224 137.3 420.124 136.102 420.024 135.404C420.024 134.606 420.024 134.207 420.124 134.207C420.224 134.207 420.124 135.903 421.224 138.397C421.724 139.595 422.624 140.991 424.024 142.089C425.424 143.186 427.225 143.985 429.225 144.384C431.225 144.783 433.225 144.683 434.925 144.184C436.625 143.685 437.925 142.787 438.925 141.889C440.825 139.994 441.525 138.397 441.625 138.497Z" fill="white"/>
<path d="M455.725 409.683C455.725 409.782 353.123 409.982 226.621 409.982C100.119 409.982 -2.48242 409.882 -2.48242 409.683C-2.48242 409.483 100.019 409.383 226.621 409.383C353.123 409.383 455.725 409.483 455.725 409.683Z" fill="#263238"/>
<path d="M258.322 101.98H14.418V292.448H258.322V101.98Z" fill="#FAFAFA"/>
<path d="M258.222 292.448C258.222 290.652 258.122 216.919 258.022 101.98L258.222 102.179C188.721 102.179 104.819 102.179 14.4179 102.179L14.7179 101.88C14.7179 170.524 14.7179 235.477 14.7179 292.348L14.5179 292.149C159.12 292.348 256.222 292.448 258.222 292.448C256.222 292.448 159.12 292.548 14.3179 292.648H14.1179V292.448C14.1179 235.577 14.1179 170.624 14.1179 101.98V101.68H14.4179C104.819 101.68 188.721 101.68 258.222 101.68H258.422V101.88C258.322 216.919 258.222 290.652 258.222 292.448Z" fill="#263238"/>
<path d="M172.501 266.932H100C91.7001 266.932 85 260.247 85 251.966C85 243.685 91.7001 237 100 237H172.501C180.801 237 187.502 243.685 187.502 251.966C187.602 260.247 180.801 266.932 172.501 266.932Z" fill="#E8505B"/>
<path d="M138.32 175.014C127.62 175.014 118.92 166.334 118.92 155.658C118.92 144.982 127.62 136.302 138.32 136.302C149.02 136.302 157.72 144.982 157.72 155.658C157.72 166.334 149.02 175.014 138.32 175.014ZM138.32 138.297C128.72 138.297 120.92 146.08 120.92 155.658C120.92 165.236 128.72 173.019 138.32 173.019C147.92 173.019 155.72 165.236 155.72 155.658C155.72 146.08 147.92 138.297 138.32 138.297Z" fill="#E8505B"/>
<path d="M136.92 161.645C136.72 161.645 136.42 161.545 136.22 161.445C134.52 159.948 131.62 157.354 131.22 156.855C130.92 156.357 131.02 155.758 131.52 155.459C132.02 155.159 132.62 155.259 132.92 155.758C133.22 156.057 135.02 157.753 136.92 159.45L146.72 150.171C147.12 149.771 147.72 149.771 148.12 150.171C148.52 150.57 148.52 151.168 148.12 151.567L137.62 161.445C137.42 161.545 137.12 161.645 136.92 161.645Z" fill="#E8505B"/>
<path d="M258.222 120.637C258.222 120.737 203.721 120.937 136.62 120.937C69.4187 120.937 15.0178 120.837 15.0178 120.637C15.0178 120.438 69.4187 120.338 136.62 120.338C203.821 120.338 258.222 120.438 258.222 120.637Z" fill="#263238"/>
<path d="M23.0179 112.456C23.7912 112.456 24.418 111.831 24.418 111.059C24.418 110.288 23.7912 109.662 23.0179 109.662C22.2447 109.662 21.6179 110.288 21.6179 111.059C21.6179 111.831 22.2447 112.456 23.0179 112.456Z" fill="#263238"/>
<path d="M28.318 112.456C29.0912 112.456 29.718 111.831 29.718 111.059C29.718 110.288 29.0912 109.662 28.318 109.662C27.5448 109.662 26.918 110.288 26.918 111.059C26.918 111.831 27.5448 112.456 28.318 112.456Z" fill="#263238"/>
<path d="M34.9182 111.059C34.9182 111.857 34.3182 112.456 33.5182 112.456C32.7182 112.456 32.1182 111.857 32.1182 111.059C32.1182 110.261 32.7182 109.662 33.5182 109.662C34.2182 109.662 34.9182 110.261 34.9182 111.059Z" fill="#263238"/>
<path d="M418.524 229.99C418.524 229.99 430.624 222.607 433.425 224.802C437.325 227.895 438.725 233.183 438.725 233.183C438.725 233.183 445.125 208.838 451.225 209.736C454.725 210.235 453.025 213.028 451.425 216.421C449.925 219.613 447.425 231.287 447.425 231.287C447.425 231.287 459.025 217.518 462.425 217.817C465.025 218.017 465.425 220.312 461.625 224.003C457.825 227.695 451.525 239.369 451.525 239.369C451.525 239.369 459.625 231.786 463.025 231.786C465.725 231.786 467.425 233.582 463.925 236.575C460.425 239.568 455.225 241.863 452.425 247.251C449.025 253.936 441.625 270.598 441.625 270.598L415.924 261.518C415.924 261.518 411.724 244.457 411.524 240.366C411.524 240.366 411.924 231.586 411.824 230.09C411.824 228.493 415.924 228.094 417.124 231.087C418.424 234.081 417.824 237.173 418.324 239.169C418.824 241.164 419.724 242.96 421.224 243.858C422.724 244.756 426.424 244.856 427.324 243.759C428.224 242.661 429.424 239.468 429.624 237.473C429.824 235.477 429.524 232.384 429.524 232.384C429.524 232.384 419.024 236.774 418.524 229.99Z" fill="#FFBE9D"/>
<path d="M129.52 309.41L111.619 302.725C111.619 302.725 93.4192 292.049 90.0192 295.841C90.0192 295.841 86.4191 294.144 84.8191 297.936C83.9191 300.131 86.9191 303.423 86.9191 303.423C86.9191 303.423 85.9191 304.421 87.5191 307.614C89.0191 310.906 106.319 321.183 106.319 321.183C106.319 321.183 128.82 333.356 137.82 339.242L153.52 317.99L151.32 317.192C151.32 317.192 150.02 306.616 145.72 303.723C141.02 300.63 135.32 292.348 134.02 289.056C132.72 285.763 126.72 287.26 127.72 294.045C128.72 300.829 134.02 302.525 133.52 307.115C133.02 311.705 129.52 309.41 129.52 309.41Z" fill="#FFBE9D"/>
<path d="M102.119 311.904C102.019 312.004 98.5192 310.208 94.3192 307.813C90.1191 305.419 86.719 303.423 86.819 303.324C86.919 303.224 90.4191 305.02 94.6192 307.414C98.8192 309.709 102.119 311.804 102.119 311.904Z" fill="#EB996E"/>
<path d="M110.819 306.915C110.819 307.015 109.519 306.516 107.619 305.618C105.619 304.72 103.019 303.523 100.119 302.027C97.2193 300.53 94.6192 299.033 92.9192 297.936C92.0192 297.337 91.3192 296.838 90.8191 296.539C90.3191 296.14 90.1191 295.94 90.1191 295.94C90.1191 295.841 91.2192 296.639 93.1192 297.636C94.9192 298.734 97.5193 300.131 100.419 301.627C103.319 303.124 105.919 304.321 107.919 305.319C109.719 306.217 110.819 306.816 110.819 306.915Z" fill="#EB996E"/>
<path d="M114.62 316.693C114.62 316.693 114.02 316.394 113.019 315.795C111.919 315.197 110.519 314.299 108.819 313.301V313.201C108.019 311.505 107.019 309.51 105.819 307.414C105.219 306.417 104.519 305.319 103.519 304.421C102.619 303.523 101.119 303.423 100.019 304.122C99.8193 304.222 99.5193 304.521 99.4193 304.621V304.72L99.5193 304.92C99.5193 305.02 99.6193 305.219 99.7193 305.319C99.9193 305.918 100.219 306.516 100.419 307.115C100.919 308.312 101.319 309.41 101.819 310.408C102.719 312.503 103.519 314.498 104.219 316.194V316.095C105.719 317.791 106.919 319.188 107.819 320.285C108.219 320.784 108.519 321.183 108.819 321.482C109.019 321.782 109.119 321.882 109.119 321.882C109.119 321.882 108.919 321.782 108.719 321.482C108.419 321.183 108.119 320.784 107.719 320.385C106.819 319.387 105.519 317.99 104.019 316.294C103.319 314.598 102.419 312.702 101.519 310.607C101.119 309.51 100.619 308.412 100.119 307.315C99.9193 306.716 99.6193 306.117 99.4193 305.519C99.3193 305.319 99.3193 305.219 99.2193 305.02L99.1193 304.82C99.1193 304.72 99.1193 304.621 99.0193 304.421C99.1193 304.122 99.2193 304.022 99.4193 303.922C99.5193 303.823 99.7193 303.723 99.8193 303.623C100.419 303.224 101.219 303.024 102.019 303.024C102.819 303.024 103.419 303.423 104.019 303.922C105.019 304.92 105.719 306.018 106.419 307.015C107.719 309.11 108.619 311.206 109.419 312.902L109.319 312.802C111.019 313.9 112.419 314.798 113.42 315.496C114.12 316.294 114.62 316.693 114.62 316.693Z" fill="#EB996E"/>
<path d="M132.52 316.893C132.52 316.993 131.62 316.693 130.32 316.394C129.02 315.995 127.12 315.496 125.02 315.496C122.92 315.496 121.12 315.995 119.92 316.693C118.72 317.392 118.22 318.09 118.12 318.09C118.12 318.09 118.52 317.292 119.72 316.394C120.92 315.596 122.82 314.897 125.02 314.897C127.22 314.997 129.12 315.496 130.42 315.995C131.72 316.494 132.52 316.793 132.52 316.893Z" fill="#EB996E"/>
<path d="M131.12 312.203C131.22 312.303 130.82 313.101 130.32 314.099C129.92 315.097 129.62 315.895 129.42 315.895C129.32 315.895 129.32 314.897 129.82 313.9C130.42 312.802 131.02 312.104 131.12 312.203Z" fill="#EB996E"/>
<path d="M234.221 227.396C235.421 219.015 245.221 206.942 253.922 206.942C248.922 199.758 248.822 189.581 253.722 182.398C257.022 177.409 262.522 173.717 264.722 168.13C267.322 161.844 265.322 154.76 265.622 147.976C266.022 138.098 271.122 129.018 276.122 120.438C280.722 112.556 286.322 103.975 295.422 101.98C301.122 100.782 307.122 102.578 312.523 104.873C338.223 115.848 358.323 138.896 365.123 165.536C366.723 171.921 367.823 178.806 372.324 183.695C377.024 188.883 385.324 191.776 386.724 198.561C387.724 203.45 384.624 208.339 385.024 213.327C385.424 217.518 393.224 229.591 395.024 233.382C398.124 239.867 397.024 246.951 393.824 253.437C390.624 259.922 382.624 266.307 375.524 268.103L295.722 241.564C288.222 245.854 280.722 262.317 272.122 263.314C263.522 264.312 253.022 268.103 244.721 259.024C236.021 249.645 232.921 235.777 234.221 227.396Z" fill="#263238"/>
<path d="M366.524 148.175C365.623 154.86 367.424 165.835 371.124 171.522C373.524 175.314 377.624 177.808 381.724 180.003C385.724 182.198 390.024 184.293 393.024 187.686C396.124 191.078 397.724 196.166 395.724 200.157C402.924 202.851 406.124 211.931 403.524 219.015C400.924 226.099 393.624 230.788 386.124 232.285L353.223 222.407L346.023 180.502L365.023 148.175" fill="#263238"/>
<path d="M370.523 190.878C370.523 190.878 370.723 190.978 371.123 191.178C371.523 191.377 372.223 191.677 372.923 192.076C374.423 192.974 376.524 194.47 378.724 196.865C379.824 198.062 380.824 199.459 381.824 201.155C382.724 202.851 383.624 204.647 384.224 206.742C385.524 210.833 385.824 215.822 384.324 220.711L384.224 220.411C386.124 221.509 387.924 222.806 389.624 224.502C393.824 228.693 396.224 234.08 396.824 239.169C397.424 244.257 396.124 248.847 394.424 252.339C392.724 255.831 390.624 258.126 389.024 259.623C388.224 260.321 387.624 260.82 387.124 261.219C386.624 261.518 386.424 261.718 386.424 261.718C386.424 261.718 386.624 261.518 387.124 261.119C387.524 260.82 388.224 260.221 388.924 259.523C390.424 258.026 392.524 255.731 394.124 252.239C395.724 248.847 396.924 244.257 396.324 239.269C395.724 234.28 393.324 228.992 389.224 225.001C387.624 223.405 385.824 222.008 384.024 221.01L383.824 220.91L383.924 220.711C385.324 215.922 385.124 211.033 383.924 207.042C383.324 204.946 382.524 203.151 381.624 201.554C380.724 199.958 379.724 198.461 378.624 197.364C376.524 194.969 374.523 193.373 373.023 192.475C372.323 191.976 371.623 191.676 371.323 191.477C370.723 191.078 370.523 190.878 370.523 190.878Z" fill="#455A64"/>
<path d="M273.222 234.28C273.222 234.28 258.522 238.77 253.322 246.253C249.722 251.541 212.321 332.258 212.321 332.258L155.62 315.296L135.32 342.036L198.421 376.957C210.121 383.442 224.321 383.342 235.921 376.757C242.422 373.066 247.622 367.678 251.022 361.093L267.022 330.462L273.222 234.28Z" fill="#E8505B"/>
<path d="M258.122 409.982L267.022 371.968L260.322 344.331C256.022 330.063 252.322 306.915 257.022 288.258L272.722 234.579L289.922 226.697L329.323 219.912C330.823 220.411 370.524 231.586 370.524 231.586C376.024 232.883 378.224 233.781 378.224 233.781L382.824 263.214L369.124 311.705L363.123 359.995L376.224 410.182H258.122V409.982Z" fill="#E8505B"/>
<path d="M280.922 230.788L292.322 225.699L343.823 226.398L356.023 233.482C356.023 233.482 313.423 280.375 302.723 281.972C275.922 285.763 280.922 230.788 280.922 230.788Z" fill="#FFBE9D"/>
<path d="M377.124 233.282C377.124 233.282 384.824 234.978 391.424 249.146C398.024 263.214 408.724 302.426 408.724 302.426L413.324 260.92L450.625 265.01L443.425 364.286C443.425 364.286 430.225 383.342 408.124 381.646C386.024 379.85 358.023 310.308 358.023 310.308L377.124 233.282Z" fill="#E8505B"/>
<path d="M403.024 353.211C403.024 353.211 403.024 353.111 403.024 353.011C403.024 352.811 403.024 352.612 403.024 352.313C403.024 351.614 403.124 350.716 403.224 349.619C403.324 347.224 403.624 343.832 404.024 339.741C404.824 331.36 406.224 319.886 407.924 307.115C409.624 294.444 411.124 282.87 412.024 274.489C412.424 270.298 412.824 266.906 413.024 264.611C413.124 263.514 413.224 262.616 413.324 261.917C413.324 261.618 413.424 261.418 413.424 261.219C413.424 261.019 413.424 261.019 413.424 261.019C413.424 261.019 413.424 261.119 413.424 261.219C413.424 261.418 413.424 261.618 413.424 261.917C413.424 262.616 413.324 263.514 413.224 264.611C413.124 267.006 412.824 270.398 412.424 274.489C411.624 282.87 410.224 294.344 408.524 307.115C406.824 319.786 405.324 331.36 404.424 339.641C404.024 343.832 403.624 347.224 403.424 349.519C403.324 350.616 403.224 351.514 403.124 352.213C403.124 352.512 403.024 352.712 403.024 352.911C403.024 353.111 403.024 353.211 403.024 353.211Z" fill="#263238"/>
<path d="M213.021 353.61C213.021 353.61 212.821 353.31 212.621 352.911C212.421 352.412 212.121 351.714 211.721 350.816C211.021 349.02 210.421 346.326 210.121 343.333C209.821 340.34 210.021 337.646 210.321 335.75C210.421 334.752 210.621 334.054 210.721 333.455C210.821 332.956 210.921 332.657 211.021 332.657C211.121 332.657 210.921 333.854 210.721 335.75C210.521 337.646 210.421 340.34 210.721 343.233C211.021 346.127 211.621 348.721 212.221 350.616C212.621 352.512 213.021 353.61 213.021 353.61Z" fill="#263238"/>
<path d="M219.221 354.607C219.221 354.607 218.921 354.408 218.521 353.909C218.121 353.41 217.621 352.712 216.921 351.714C215.721 349.818 214.221 347.025 213.021 343.732C211.921 340.439 211.321 337.346 211.121 335.052C211.021 333.954 210.921 332.956 210.921 332.358C210.921 331.759 210.921 331.36 211.021 331.36C211.121 331.36 211.221 332.757 211.521 334.952C211.821 337.147 212.421 340.24 213.621 343.532C214.721 346.825 216.221 349.519 217.321 351.514C218.521 353.41 219.321 354.508 219.221 354.607Z" fill="#263238"/>
<path d="M263.322 265.808C263.322 265.808 263.322 266.108 263.122 266.607C262.922 267.205 262.722 267.904 262.522 268.901C261.922 270.897 261.122 273.79 260.122 277.282C258.222 284.366 255.522 294.144 254.222 305.319C253.622 310.906 253.422 316.194 254.022 321.083C254.522 325.872 255.622 330.163 256.622 333.655C257.722 337.147 258.722 339.941 259.322 341.936C259.622 342.834 259.922 343.632 260.122 344.131C260.322 344.63 260.422 344.929 260.322 344.929C260.322 344.929 260.222 344.63 260.022 344.131C259.822 343.632 259.522 342.834 259.122 341.936C258.422 340.04 257.322 337.247 256.222 333.755C255.122 330.262 254.022 325.972 253.422 321.083C252.822 316.194 252.922 310.807 253.622 305.219C254.922 294.045 257.722 284.167 259.722 277.183C260.722 273.691 261.622 270.797 262.222 268.901C262.522 268.004 262.722 267.205 262.922 266.607C263.222 266.108 263.322 265.808 263.322 265.808Z" fill="#263238"/>
<path d="M367.624 331.26C367.624 331.26 367.524 331.16 367.524 331.061C367.424 330.861 367.324 330.662 367.224 330.362C366.924 329.664 366.524 328.766 365.924 327.469C365.324 326.272 364.624 324.675 363.923 322.879C363.223 321.083 362.423 318.988 361.523 316.793C360.623 314.498 359.823 312.004 358.823 309.31C358.423 307.913 357.923 306.516 357.523 305.02C357.323 304.321 357.023 303.523 356.823 302.825C356.623 302.027 356.423 301.328 356.223 300.53C354.523 294.344 353.123 287.36 352.723 279.877C352.223 272.394 353.023 265.21 354.923 259.024C356.723 252.738 359.823 247.65 363.224 244.058C366.524 240.466 370.024 238.371 372.524 237.273C373.824 236.774 374.824 236.375 375.524 236.176C375.824 236.076 376.124 235.976 376.324 235.976C376.524 235.976 376.624 235.876 376.624 235.876C376.624 235.876 376.524 235.876 376.324 235.976C376.124 236.076 375.824 236.176 375.524 236.275C374.824 236.475 373.824 236.874 372.624 237.473C370.224 238.67 366.724 240.765 363.523 244.357C360.223 247.949 357.223 253.037 355.423 259.124C353.523 265.31 352.923 272.394 353.323 279.777C353.723 287.16 355.123 294.144 356.823 300.33C357.023 301.129 357.223 301.827 357.423 302.625C357.623 303.423 357.823 304.122 358.123 304.82C358.523 306.317 359.023 307.714 359.423 309.11C360.423 311.804 361.223 314.299 362.023 316.593C362.923 318.888 363.723 320.884 364.424 322.68C365.124 324.476 365.824 325.972 366.324 327.269C366.824 328.467 367.224 329.464 367.524 330.163C367.624 330.462 367.724 330.761 367.824 330.961C367.524 331.16 367.624 331.26 367.624 331.26Z" fill="#263238"/>
<g opacity="0.3">
<g opacity="0.3">
<path opacity="0.3" d="M353.423 286.262C348.523 309.21 348.523 332.956 356.923 354.907C357.423 356.204 359.323 360.694 360.723 360.793C362.423 360.893 363.323 358.698 363.623 357.002C364.223 353.51 364.624 347.723 365.224 344.231C366.024 339.841 367.024 329.664 367.024 329.664C367.024 329.664 363.023 320.485 361.223 315.496C357.923 306.317 355.123 297.636 353.623 286.961" fill="black"/>
</g>
</g>
<path d="M349.423 375.36C349.423 375.36 349.323 375.56 349.023 375.959C348.723 376.358 348.323 376.957 347.823 377.655C347.523 378.054 347.223 378.453 346.923 378.852C346.623 379.252 346.223 379.75 345.823 380.15C345.023 381.047 344.123 382.245 342.923 383.342C342.323 383.941 341.723 384.44 341.123 385.138C340.523 385.737 339.723 386.335 339.023 386.934C337.623 388.231 335.923 389.329 334.223 390.526C330.723 392.821 326.623 395.116 322.023 396.912C317.423 398.608 312.923 399.805 308.723 400.404C306.622 400.603 304.622 400.902 302.722 401.002C301.822 401.002 300.922 401.102 300.022 401.102C299.122 401.102 298.322 401.002 297.522 401.002C295.922 401.002 294.522 400.803 293.222 400.603C292.622 400.503 292.022 400.503 291.422 400.404C290.922 400.304 290.422 400.204 289.922 400.104C289.122 399.905 288.422 399.805 287.922 399.705C287.422 399.605 287.222 399.506 287.222 399.506C287.222 399.506 287.522 399.506 287.922 399.605C288.422 399.705 289.122 399.805 289.922 399.905C290.322 400.005 290.822 400.104 291.422 400.104C291.922 400.204 292.522 400.204 293.222 400.304C294.522 400.404 295.922 400.603 297.522 400.603C298.322 400.603 299.122 400.603 300.022 400.603C300.922 400.603 301.822 400.503 302.722 400.503C304.622 400.503 306.522 400.204 308.622 399.905C312.723 399.206 317.223 398.109 321.823 396.413C326.323 394.617 330.423 392.422 333.923 390.127C335.623 388.93 337.323 387.832 338.723 386.535C339.423 385.936 340.123 385.438 340.823 384.839C341.423 384.24 342.023 383.642 342.623 383.143C343.823 382.045 344.723 380.948 345.623 380.05C346.023 379.551 346.423 379.152 346.823 378.753C347.123 378.354 347.423 377.954 347.723 377.555C348.223 376.857 348.623 376.358 349.023 375.959C349.223 375.56 349.423 375.36 349.423 375.36Z" fill="#263238"/>
<path d="M341.323 360.195C341.323 360.195 341.323 360.594 341.223 361.292C341.123 361.991 340.923 362.988 340.523 364.186C339.823 366.58 338.523 369.873 336.423 373.165C334.323 376.458 331.823 378.952 329.923 380.549C328.923 381.347 328.123 381.945 327.523 382.345C326.923 382.744 326.623 382.943 326.623 382.943C326.523 382.843 327.823 381.945 329.723 380.249C331.623 378.553 333.923 376.059 336.023 372.766C338.123 369.573 339.423 366.381 340.223 363.986C340.923 361.691 341.223 360.195 341.323 360.195Z" fill="#263238"/>
<path d="M323.123 95.5941C337.123 95.6939 350.723 103.576 357.824 115.549C364.924 127.522 365.124 143.286 358.424 155.459C356.123 159.649 352.823 163.54 348.323 165.037C349.823 141.191 340.323 116.846 323.023 100.284" fill="#E8505B"/>
<path d="M339.423 99.2858C337.323 94.9955 339.523 89.6077 343.223 86.6145C346.923 83.6213 351.723 82.3242 356.423 81.2267C361.024 80.1292 365.924 78.9319 369.624 76.0385C369.124 83.5215 367.224 91.2041 362.324 96.8912C357.524 102.578 349.123 105.771 342.123 102.878" fill="#E8505B"/>
<path d="M344.223 104.175C341.023 105.472 337.223 104.674 334.423 102.778C331.623 100.782 329.523 97.8889 327.823 94.8957C325.723 91.204 324.123 87.2131 323.623 83.0226C323.123 78.8321 323.623 74.442 325.723 70.7504C331.223 76.5373 337.223 81.4262 340.323 88.8095C342.123 93.0997 341.923 100.084 339.923 104.274" fill="#E8505B"/>
<path d="M359.724 128.32C359.724 128.32 359.824 128.819 360.024 129.717C360.124 130.216 360.224 130.715 360.224 131.313C360.324 131.912 360.324 132.71 360.424 133.508C360.524 135.105 360.524 137.1 360.324 139.195C360.124 141.39 359.824 143.685 359.224 146.08C358.624 148.474 357.923 150.769 357.123 152.765C356.323 154.76 355.423 156.556 354.623 157.953C354.223 158.651 353.823 159.25 353.523 159.849C353.223 160.447 352.823 160.846 352.623 161.245C352.123 161.944 351.823 162.343 351.723 162.343C351.723 162.343 351.923 161.844 352.423 161.146C352.623 160.746 352.923 160.248 353.223 159.749C353.523 159.15 353.923 158.551 354.323 157.853C355.123 156.456 355.923 154.66 356.723 152.665C357.523 150.669 358.224 148.474 358.824 146.08C359.424 143.685 359.724 141.39 359.924 139.195C360.124 137.1 360.224 135.105 360.124 133.508C360.124 132.71 360.024 132.012 360.024 131.313C360.024 130.715 359.924 130.116 359.924 129.717C359.724 128.919 359.724 128.32 359.724 128.32Z" fill="#263238"/>
<path d="M356.624 101.581C356.624 101.581 356.224 101.88 355.524 102.479C354.724 102.878 353.523 103.576 351.923 103.875C348.723 104.574 344.023 104.474 339.123 103.177H339.023V103.077C338.923 102.778 338.923 102.479 338.823 102.179C338.323 99.5851 338.223 96.9909 338.523 94.7959C338.823 92.5011 339.623 90.5056 340.623 89.1088C341.623 87.6122 342.823 86.814 343.623 86.3151C344.523 85.8163 344.923 85.6167 344.923 85.6167C344.923 85.6167 344.523 85.916 343.723 86.4149C343.023 87.0135 341.823 87.8117 340.923 89.3083C340.023 90.7052 339.223 92.6009 339.023 94.8957C338.723 97.0907 338.823 99.5851 339.423 102.179C339.523 102.479 339.523 102.778 339.623 103.077L339.423 102.878C344.223 104.175 348.823 104.374 351.923 103.776C353.523 103.476 354.724 102.977 355.524 102.578C356.224 101.88 356.624 101.581 356.624 101.581Z" fill="#263238"/>
<path d="M360.724 88.7098C360.724 88.8096 359.223 89.0091 356.923 89.7075C355.823 90.0068 354.423 90.5057 353.023 91.2041C351.623 91.9025 350.023 92.7007 348.523 93.6985C347.023 94.6962 345.623 95.7937 344.523 96.7915C343.323 97.889 342.423 98.8867 341.623 99.7847C340.123 101.581 339.323 102.878 339.223 102.878C339.223 102.878 339.323 102.578 339.723 101.98C340.023 101.381 340.623 100.583 341.323 99.5851C342.023 98.5874 343.023 97.5897 344.223 96.4921C345.423 95.3946 346.723 94.2971 348.323 93.2994C349.923 92.3016 351.423 91.5035 352.923 90.805C354.423 90.2064 355.723 89.7075 356.923 89.4082C358.123 89.1089 359.023 88.9093 359.723 88.8096C360.324 88.7098 360.724 88.61 360.724 88.7098Z" fill="#263238"/>
<path d="M344.023 104.075C344.023 104.075 344.023 104.175 344.023 104.374C344.023 104.574 343.923 104.873 343.723 105.172C343.423 105.871 342.823 106.869 341.723 107.667C340.623 108.465 339.123 109.163 337.223 109.163C335.423 109.064 333.423 107.966 332.323 106.27C331.123 104.574 330.823 102.379 331.423 100.583C332.023 98.7868 333.223 97.5895 334.423 96.8911C335.623 96.1927 336.723 95.9932 337.423 95.9932C337.823 95.9932 338.123 95.9932 338.323 95.9932C338.523 95.9932 338.623 96.0929 338.623 96.0929C338.623 96.1927 338.223 96.0929 337.523 96.1927C336.823 96.2925 335.723 96.5918 334.623 97.2902C333.523 97.9886 332.423 99.1859 331.923 100.782C331.423 102.379 331.723 104.374 332.823 105.971C333.923 107.567 335.723 108.565 337.323 108.664C339.023 108.764 340.523 108.166 341.523 107.367C342.523 106.569 343.223 105.771 343.523 105.073C343.923 104.474 344.023 104.075 344.023 104.075Z" fill="#263238"/>
<path d="M331.923 104.274C331.923 104.274 331.623 103.776 332.023 102.977C332.223 102.578 332.623 102.279 333.223 102.079C333.723 101.88 334.423 101.88 335.023 101.88C337.523 102.079 339.323 103.077 339.223 103.177C339.123 103.277 337.323 102.578 334.923 102.479C333.723 102.379 332.723 102.678 332.323 103.277C331.923 103.776 332.023 104.274 331.923 104.274Z" fill="#263238"/>
<path d="M325.723 70.6506C325.823 70.6506 324.623 72.1472 324.223 74.9409C324.023 76.3377 323.923 78.0339 324.023 79.9296C324.023 81.8253 324.123 83.8208 324.523 86.0158C325.423 90.2063 327.223 93.7982 328.823 96.093C329.623 97.2903 330.323 98.1882 330.823 98.7869C331.323 99.3855 331.623 99.6849 331.623 99.6849C331.523 99.7846 330.223 98.5873 328.523 96.2925C326.823 93.9977 325.023 90.4059 324.023 86.1156C323.623 83.9206 323.523 81.8253 323.523 79.9296C323.523 78.0339 323.623 76.3377 323.923 74.9409C324.223 73.5441 324.623 72.4466 325.023 71.7481C325.423 70.95 325.723 70.6506 325.723 70.6506Z" fill="#263238"/>
<path d="M330.923 82.5238C331.023 82.5238 331.523 83.1224 332.323 84.22C333.123 85.3175 334.123 86.9139 335.023 88.8096C335.923 90.7053 336.423 92.5012 336.823 93.7982C337.123 95.0953 337.223 95.9933 337.123 95.9933C336.923 95.9933 336.323 92.7007 334.523 89.0091C332.823 85.3175 330.823 82.6236 330.923 82.5238Z" fill="#263238"/>
<path d="M329.223 88.7098C329.323 88.61 331.023 90.3061 333.223 92.3016C335.423 94.2971 337.223 95.8935 337.123 96.093C337.023 96.1928 335.123 94.6962 332.923 92.7007C330.723 90.7052 329.123 88.8095 329.223 88.7098Z" fill="#263238"/>
<path d="M355.423 112.157C355.423 112.157 355.423 112.256 355.323 112.256C355.223 112.356 355.023 112.456 354.923 112.655C354.523 112.955 353.923 113.454 353.223 113.952C351.723 114.95 349.523 116.148 346.923 117.045C344.323 117.943 341.823 118.243 340.023 118.343C339.123 118.343 338.423 118.343 337.923 118.343C337.723 118.343 337.523 118.343 337.323 118.343C337.223 118.343 337.123 118.343 337.123 118.343C337.123 118.343 337.223 118.343 337.323 118.343C337.523 118.343 337.723 118.343 337.923 118.343C338.423 118.343 339.123 118.343 340.023 118.243C341.823 118.143 344.223 117.744 346.823 116.946C349.423 116.048 351.623 114.95 353.123 113.952C353.823 113.454 354.423 113.055 354.823 112.755C355.023 112.655 355.123 112.556 355.323 112.456C355.323 112.157 355.423 112.057 355.423 112.157Z" fill="#FAFAFA"/>
<path d="M361.324 124.229C361.324 124.229 361.324 124.329 361.224 124.329C361.124 124.429 360.924 124.529 360.824 124.728C360.424 125.028 359.824 125.526 359.124 126.025C357.624 127.023 355.423 128.22 352.823 129.218C350.223 130.116 347.723 130.615 346.023 130.814C345.123 130.914 344.423 130.914 343.923 130.914C343.723 130.914 343.523 130.914 343.323 130.914C343.223 130.914 343.123 130.914 343.123 130.914C343.123 130.914 343.223 130.914 343.323 130.914C343.523 130.914 343.723 130.914 343.923 130.914C344.423 130.914 345.123 130.814 346.023 130.715C347.823 130.515 350.223 130.016 352.823 129.118C355.423 128.22 357.524 127.023 359.024 126.025C359.824 125.526 360.324 125.127 360.724 124.828C360.924 124.728 361.024 124.628 361.224 124.529C361.224 124.229 361.324 124.13 361.324 124.229Z" fill="#FAFAFA"/>
<path d="M359.724 141.789C359.724 141.789 359.624 141.889 359.324 142.089C359.024 142.288 358.623 142.488 358.123 142.787C357.023 143.386 355.523 144.084 353.723 144.483C351.923 144.982 350.223 145.082 349.023 145.082C348.423 145.082 347.923 145.082 347.623 145.082C347.323 145.082 347.123 144.982 347.123 144.982C347.123 144.982 347.323 144.982 347.623 144.982C347.923 144.982 348.423 144.982 349.023 144.982C350.223 144.982 351.923 144.783 353.623 144.284C355.423 143.785 356.923 143.186 358.023 142.588C358.523 142.288 359.024 142.089 359.324 141.889C359.524 141.889 359.724 141.789 359.724 141.789Z" fill="#FAFAFA"/>
<path d="M363.124 139.096C363.124 139.195 362.524 139.295 361.724 139.495C360.923 139.594 360.323 139.694 360.323 139.694C360.323 139.694 360.923 139.495 361.724 139.295C362.424 139.096 363.024 138.996 363.124 139.096Z" fill="#FAFAFA"/>
<path d="M353.123 159.849C353.123 159.948 352.123 160.048 350.823 159.948C349.523 159.849 348.523 159.549 348.623 159.549C348.623 159.45 349.623 159.749 350.923 159.749C352.123 159.849 353.123 159.749 353.123 159.849Z" fill="#FAFAFA"/>
<path d="M334.223 107.667C334.223 107.767 333.623 108.066 332.923 108.565C332.123 108.964 331.523 109.263 331.523 109.263C331.523 109.263 332.123 108.864 332.823 108.365C333.523 107.866 334.123 107.567 334.223 107.667Z" fill="#FAFAFA"/>
<path d="M329.223 97.1905C329.223 97.2903 327.823 97.6894 326.323 98.7869C324.823 99.8844 323.923 101.082 323.823 101.082C323.823 101.082 324.023 100.782 324.423 100.284C324.823 99.7847 325.423 99.186 326.223 98.6871C327.023 98.1883 327.723 97.7892 328.323 97.5896C328.823 97.1905 329.223 97.0908 329.223 97.1905Z" fill="#FAFAFA"/>
<path d="M338.223 108.764C338.123 108.764 338.523 107.368 338.323 105.771C338.123 104.075 337.423 102.878 337.523 102.878C337.523 102.878 337.723 103.177 337.923 103.676C338.123 104.175 338.423 104.973 338.523 105.771C338.623 106.669 338.623 107.368 338.523 107.966C338.323 108.465 338.223 108.764 338.223 108.764Z" fill="#FAFAFA"/>
<path d="M369.124 76.2379C369.124 76.2379 368.724 76.7368 368.024 77.4352C367.324 78.1336 366.124 79.1314 364.524 80.1291C362.924 81.1268 361.024 82.1246 358.724 83.1223C356.524 84.1201 354.023 85.1178 351.523 86.3151C349.023 87.5124 346.723 88.9092 344.923 90.5056C343.123 92.102 341.823 93.8979 341.023 95.5941C340.223 97.2902 339.923 98.6871 339.823 99.6848C339.723 100.683 339.823 101.281 339.823 101.281C339.823 101.281 339.823 101.181 339.823 100.882C339.823 100.583 339.823 100.184 339.823 99.6848C339.923 98.6871 340.223 97.1905 340.923 95.4943C341.723 93.7982 343.023 92.0022 344.823 90.4058C346.623 88.8094 348.923 87.3128 351.523 86.1155C354.023 84.9183 356.524 83.9205 358.824 82.9228C361.024 81.925 363.024 80.9273 364.524 80.0293C366.124 79.0316 367.224 78.1336 368.024 77.4352C368.424 77.1359 368.724 76.8366 368.924 76.637C369.024 76.3377 369.124 76.2379 369.124 76.2379Z" fill="#FAFAFA"/>
<path d="M366.424 88.111C366.424 88.111 366.424 88.2108 366.324 88.3106C366.224 88.5101 366.024 88.7097 365.924 88.9092C365.524 89.4081 365.024 90.2063 364.224 91.1042C362.723 92.9002 360.523 95.2948 357.723 97.4898C354.923 99.6848 352.023 101.281 349.923 102.179C348.823 102.678 348.023 102.977 347.323 103.277C347.023 103.376 346.823 103.476 346.623 103.476C346.423 103.576 346.323 103.576 346.323 103.576C346.323 103.576 346.423 103.576 346.523 103.476C346.723 103.376 346.923 103.277 347.223 103.177C347.823 102.977 348.723 102.578 349.723 102.079C351.823 101.082 354.623 99.4853 357.423 97.2902C360.223 95.0952 362.423 92.8004 363.923 91.0045C364.623 90.1065 365.224 89.4081 365.624 88.8095C365.824 88.6099 365.924 88.4104 366.024 88.2108C366.424 88.111 366.424 88.0113 366.424 88.111Z" fill="#FAFAFA"/>
<path d="M324.723 74.043C324.723 74.043 325.923 74.5418 327.723 75.6394C329.523 76.7369 331.823 78.6326 333.823 81.1269C335.823 83.721 337.123 86.3152 337.823 88.3107C338.523 90.3061 338.723 91.6032 338.723 91.6032C338.723 91.6032 338.723 91.5034 338.623 91.4036C338.523 91.2041 338.523 91.0045 338.423 90.7052C338.323 90.1066 338.023 89.3084 337.623 88.3107C336.923 86.3152 335.623 83.721 333.623 81.1269C331.623 78.6326 329.323 76.7369 327.623 75.6394C326.723 75.0407 326.023 74.6416 325.523 74.3423C325.323 74.2425 325.123 74.1427 324.923 74.043C324.823 74.043 324.723 74.043 324.723 74.043Z" fill="#FAFAFA"/>
<path d="M274.522 111.558C274.922 116.846 271.422 121.535 267.922 125.526C264.422 129.517 260.422 133.608 259.722 138.896C258.322 148.175 267.522 156.855 265.622 166.035C264.622 170.924 260.522 174.914 259.822 179.903C259.122 184.692 261.722 189.482 264.922 193.073C268.122 196.765 271.822 196.166 274.722 200.157C277.722 204.348 282.522 208.638 287.022 211.033C297.222 216.62 309.523 208.538 314.423 207.042" fill="#263238"/>
<path d="M351.923 133.209C356.623 131.114 357.023 114.352 345.223 112.356C340.523 111.558 336.523 109.263 332.523 106.569C329.023 104.175 327.923 98.1883 324.923 95.1951C317.623 87.8118 306.123 84.7188 296.022 87.4127C285.922 90.1066 277.622 98.5874 275.122 108.764C273.422 115.549 274.622 123.631 280.022 128.22C286.322 133.508 295.522 132.311 303.623 130.715C311.623 129.118 320.723 127.422 327.423 132.211C331.423 135.005 333.823 139.694 336.223 143.885C338.723 148.175 341.823 152.465 346.423 154.162C346.423 154.162 350.023 162.543 347.123 168.329C344.223 174.116 350.523 164.239 350.523 164.239C350.523 164.239 362.023 143.685 351.923 133.209Z" fill="#263238"/>
<path d="M292.022 251.541C291.922 240.566 292.022 209.636 292.022 209.736C292.022 209.736 274.522 206.842 270.922 183.994C269.122 172.62 269.722 154.062 270.722 138.796C271.622 125.127 280.722 108.365 294.422 109.762L337.123 120.637C341.323 121.037 344.423 124.628 344.323 128.819L341.723 234.579L292.022 251.541Z" fill="#FFBE9D"/>
<path d="M278.022 151.767C277.922 153.264 279.222 154.66 280.822 154.76C282.422 154.86 283.822 153.663 283.822 152.166C283.922 150.669 282.622 149.273 281.022 149.173C279.422 149.073 278.022 150.27 278.022 151.767Z" fill="#263238"/>
<path d="M274.722 148.474C275.122 148.874 277.322 147.177 280.422 147.277C283.622 147.277 285.922 148.874 286.222 148.474C286.422 148.275 286.022 147.576 285.022 146.878C284.022 146.18 282.322 145.481 280.422 145.481C278.422 145.481 276.822 146.18 275.822 146.978C274.922 147.576 274.522 148.275 274.722 148.474Z" fill="#263238"/>
<path d="M305.722 153.463C306.122 153.862 308.322 152.166 311.423 152.266C314.623 152.266 316.923 153.862 317.223 153.463C317.423 153.264 317.023 152.565 316.023 151.867C315.023 151.168 313.323 150.47 311.423 150.47C309.423 150.47 307.823 151.168 306.823 151.967C305.922 152.565 305.622 153.264 305.722 153.463Z" fill="#263238"/>
<path d="M294.222 172.42C294.222 172.221 292.322 171.921 289.122 171.522C288.322 171.422 287.522 171.323 287.422 170.724C287.222 170.125 287.622 169.227 287.922 168.329C288.722 166.434 289.522 164.338 290.322 162.243C293.622 153.563 296.022 146.379 295.722 146.279C295.322 146.18 292.422 153.064 289.022 161.844C288.222 164.039 287.422 166.035 286.722 168.03C286.422 168.928 285.922 170.026 286.322 171.223C286.522 171.822 287.122 172.221 287.622 172.42C288.122 172.62 288.622 172.62 289.022 172.62C292.222 172.62 294.222 172.62 294.222 172.42Z" fill="#263238"/>
<path d="M292.022 209.736C292.022 209.736 307.422 210.733 322.623 201.654C322.323 201.754 314.223 217.518 292.322 215.123L292.022 209.736Z" fill="#EB996E"/>
<path d="M295.122 181.5C294.722 179.604 297.022 178.906 298.722 177.908C300.422 176.91 301.322 175.513 302.922 176.71C303.822 177.409 304.422 178.407 304.822 179.404C305.122 180.103 305.222 180.901 305.122 181.599C304.922 182.497 304.422 183.296 303.722 183.894C302.822 184.792 301.622 185.491 300.322 185.69C299.022 185.89 297.622 185.59 296.622 184.792C295.622 183.994 295.022 182.597 295.222 181.3" fill="#EB996E"/>
<path d="M303.523 174.615C303.023 174.615 303.023 178.008 300.022 180.402C297.122 182.797 293.422 182.398 293.422 182.896C293.422 183.096 294.222 183.595 295.822 183.595C297.322 183.695 299.522 183.196 301.323 181.699C303.123 180.203 303.923 178.207 304.023 176.81C304.123 175.413 303.823 174.615 303.523 174.615Z" fill="#263238"/>
<path d="M305.323 146.479C305.623 147.377 308.823 146.978 312.523 147.377C316.223 147.776 319.223 148.874 319.723 148.075C319.923 147.676 319.423 146.878 318.223 146.08C317.023 145.282 315.123 144.484 312.923 144.184C310.723 143.985 308.623 144.284 307.323 144.783C305.823 145.381 305.123 145.98 305.323 146.479Z" fill="#263238"/>
<path d="M275.222 137.599C275.822 138.297 277.922 137.599 280.522 137.499C283.122 137.4 285.322 137.998 285.822 137.2C286.022 136.801 285.722 136.102 284.722 135.404C283.722 134.706 282.222 134.207 280.422 134.207C278.622 134.307 277.022 134.905 276.122 135.604C275.222 136.502 274.922 137.2 275.222 137.599Z" fill="#263238"/>
<path d="M346.723 196.965C340.423 198.262 339.823 195.069 335.223 190.679C330.523 186.289 328.123 179.604 328.923 173.318C329.623 167.731 332.623 162.044 330.723 156.756C328.123 149.771 318.323 147.576 315.723 140.592C314.223 136.502 315.523 131.812 313.823 127.821C312.223 124.03 308.223 121.935 304.423 120.538C300.623 119.141 296.423 118.143 293.223 115.649C290.022 113.154 288.022 108.465 290.022 104.873C307.123 106.869 323.923 110.959 340.023 116.946C343.723 118.343 347.723 120.039 349.923 123.331C352.223 126.823 352.123 131.313 351.923 135.604C350.923 156.057 350.023 176.611 349.023 197.064" fill="#263238"/>
<path d="M361.323 189.282C361.323 189.282 361.423 189.182 361.623 188.983C361.723 188.783 362.023 188.484 362.223 188.085C362.723 187.286 363.323 185.89 363.723 184.094C364.124 182.298 364.124 179.903 363.323 177.309C362.623 174.715 360.823 172.021 358.023 170.125C355.323 168.23 351.823 166.933 349.523 163.84C348.423 162.343 347.923 160.447 348.323 158.452C348.623 156.456 349.523 154.561 350.323 152.565C352.023 148.474 352.123 143.386 350.023 138.896C349.023 136.701 347.423 134.606 345.423 133.109C343.423 131.613 340.923 130.814 338.423 130.216C335.923 129.617 333.523 129.318 331.223 128.619C328.923 127.921 326.723 126.923 325.123 125.327C323.523 123.73 322.823 121.535 322.523 119.34C322.223 117.145 322.023 114.851 321.423 112.755C320.323 108.465 318.123 104.674 315.223 101.98C312.323 99.2858 308.823 97.6895 305.523 97.1906C302.223 96.6917 299.022 97.2904 296.722 98.4877C294.322 99.6849 292.722 101.381 291.622 102.878C290.522 104.374 290.022 105.771 289.822 106.769C289.622 107.767 289.622 108.266 289.622 108.266C289.722 108.365 289.822 106.17 291.922 103.177C293.022 101.78 294.622 100.184 296.922 98.9865C299.222 97.889 302.223 97.2904 305.423 97.889C308.623 98.3879 311.923 99.9843 314.623 102.578C317.323 105.173 319.423 108.864 320.523 113.055C321.123 115.15 321.223 117.345 321.523 119.64C321.823 121.935 322.623 124.429 324.423 126.125C326.223 127.921 328.523 129.018 330.923 129.717C333.323 130.415 335.823 130.814 338.223 131.313C340.623 131.812 343.023 132.61 344.823 134.007C346.723 135.404 348.223 137.3 349.123 139.395C351.023 143.585 351.123 148.375 349.423 152.266C348.623 154.261 347.723 156.257 347.423 158.352C347.023 160.447 347.623 162.742 348.823 164.338C351.323 167.631 354.923 168.928 357.623 170.724C360.323 172.52 362.023 175.014 362.823 177.409C363.623 179.803 363.623 182.098 363.323 183.894C362.723 187.686 361.223 189.282 361.323 189.282Z" fill="#455A64"/>
<path d="M331.523 166.633C326.323 178.506 325.423 192.175 328.823 204.647C329.823 208.339 331.323 212.23 330.423 216.021C329.423 220.112 326.023 223.105 323.523 226.398C319.223 232.185 317.523 239.867 319.023 246.951C320.523 254.035 325.123 260.321 331.423 263.913C332.123 260.121 335.623 257.627 339.023 255.931C342.523 254.335 346.323 253.137 348.923 250.344C351.523 247.55 352.323 242.561 349.223 240.266C358.024 237.972 363.024 227.495 361.124 218.615C359.224 209.736 352.023 202.751 343.823 198.86" fill="#263238"/>
<path d="M340.923 255.232C339.323 256.13 337.823 256.829 337.623 258.625C337.423 260.72 339.423 264.412 340.123 266.407C341.523 270.298 340.423 274.888 337.523 277.781C334.523 280.675 329.923 281.573 326.023 280.076C328.823 280.276 331.223 277.582 331.523 274.788C331.823 271.994 330.423 269.301 328.723 267.006C327.023 264.711 325.023 262.715 323.623 260.321C320.723 255.332 316.423 241.863 319.723 234.28" fill="#263238"/>
<path d="M348.923 240.765C348.923 240.765 349.123 240.566 349.423 240.266C349.823 239.967 350.323 239.568 351.023 238.969C352.323 237.872 354.223 236.176 356.124 233.681C358.024 231.187 360.024 227.994 361.024 224.003C362.024 220.012 362.124 215.323 360.424 210.933C359.524 208.738 358.324 206.742 356.824 205.146C355.324 203.45 353.723 201.953 352.223 200.556C350.723 199.159 349.323 197.763 348.123 196.266C346.923 194.869 346.023 193.273 345.423 191.876C344.123 188.983 344.123 186.289 344.523 184.592C344.723 183.695 345.023 183.096 345.223 182.697C345.423 182.298 345.623 182.098 345.623 182.098C345.723 182.098 345.123 182.896 344.723 184.592C344.323 186.289 344.423 188.883 345.723 191.776C346.323 193.173 347.223 194.67 348.423 196.067C349.623 197.463 351.023 198.86 352.523 200.257C354.023 201.654 355.624 203.15 357.124 204.847C358.624 206.543 359.924 208.538 360.824 210.833C362.624 215.423 362.524 220.212 361.424 224.203C360.324 228.293 358.324 231.586 356.424 233.981C354.423 236.475 352.523 238.171 351.123 239.169C350.423 239.668 349.923 240.067 349.523 240.366C349.223 240.566 348.923 240.765 348.923 240.765Z" fill="#455A64"/>
<path d="M61.5185 359.895C64.0185 363.088 68.5186 361.691 70.4186 359.496C72.4187 357.301 73.1187 354.408 73.7187 351.514C75.1187 345.029 76.6187 338.244 74.8187 331.859C74.3187 329.963 73.4187 328.067 72.0187 326.671C70.5186 325.274 68.4186 324.575 66.5186 325.174C64.3185 325.872 63.0185 328.267 62.1185 330.362C59.5185 336.748 58.3185 343.732 58.7185 350.616C59.0185 354.009 59.6185 357.301 61.5185 359.895Z" fill="#E8505B"/>
<g opacity="0.2">
<g opacity="0.2">
<path opacity="0.2" d="M61.5185 359.895C64.0185 363.088 68.5186 361.691 70.4186 359.496C72.4187 357.301 73.1187 354.408 73.7187 351.514C75.1187 345.029 76.6187 338.244 74.8187 331.859C74.3187 329.963 73.4187 328.067 72.0187 326.671C70.5186 325.274 68.4186 324.575 66.5186 325.174C64.3185 325.872 63.0185 328.267 62.1185 330.362C59.5185 336.748 58.3185 343.732 58.7185 350.616C59.0185 354.009 59.6185 357.301 61.5185 359.895Z" fill="black"/>
</g>
</g>
<path d="M71.3187 376.059C75.0187 373.864 79.4188 373.365 83.7189 373.764C86.0189 373.964 88.419 374.562 90.019 376.159C91.619 377.755 92.119 380.748 90.519 382.245C89.519 383.143 88.0189 383.442 86.7189 383.442C83.4189 383.642 79.7188 383.243 77.2188 385.438C75.8187 386.635 74.9187 388.63 73.1187 389.229C71.4187 389.927 69.3186 388.93 68.3186 387.433C67.3186 385.936 67.1186 383.941 67.4186 382.145C67.4186 382.245 67.6186 378.254 71.3187 376.059Z" fill="#E8505B"/>
<path d="M55.5185 364.984C57.8186 361.891 58.0186 357.501 56.7185 353.809C55.3185 350.117 52.6185 347.124 49.5184 344.73C45.9184 341.936 41.7183 339.741 37.3182 338.544C35.6182 338.045 33.7182 337.646 32.0182 337.945C30.2181 338.244 28.5181 339.242 27.7181 340.938C26.6181 343.333 28.0181 346.127 29.4181 348.421C31.9182 352.412 34.8182 356.204 37.9182 359.696C40.4183 362.489 43.2183 365.283 46.9184 366.381C50.5185 367.478 54.2185 367.079 55.9185 364.585" fill="#E8505B"/>
<path d="M64.5188 409.782C64.5188 409.782 64.6188 409.283 64.6188 408.286C64.6188 407.188 64.7188 405.791 64.7188 404.195C64.8188 402.499 64.9188 400.404 65.2188 398.109C65.5188 395.814 66.1188 393.419 66.9188 390.825C67.7188 388.331 68.8188 386.036 70.1188 384.14C71.4189 382.245 73.0189 380.848 74.5189 380.05C76.0189 379.152 77.3189 378.753 78.319 378.653C79.319 378.453 79.819 378.354 79.819 378.354C79.819 378.354 79.319 378.354 78.319 378.453C77.3189 378.553 75.9189 378.952 74.3189 379.75C72.7189 380.549 71.1189 381.945 69.7188 383.941C68.3188 385.837 67.2188 388.231 66.3188 390.726C65.5188 393.32 64.9188 395.814 64.6188 398.109C64.3188 400.404 64.2188 402.499 64.2188 404.295C64.2188 406.091 64.2187 407.488 64.3187 408.385C64.4188 409.184 64.5188 409.782 64.5188 409.782Z" fill="#263238"/>
<path d="M64.6187 406.59C64.6187 406.59 64.6187 406.39 64.6187 405.891C64.6187 405.392 64.5187 404.694 64.5187 403.896C64.4187 402.2 64.2187 399.705 64.1187 396.612C63.9187 390.426 63.9187 381.846 64.3187 372.367C64.7187 362.889 65.6187 354.408 66.5188 348.222C66.7188 346.725 66.9188 345.328 67.1188 344.131C67.3188 342.934 67.5188 341.836 67.6188 341.038C67.7188 340.24 67.9188 339.542 67.9188 339.043C68.0188 338.544 68.0188 338.344 68.0188 338.344C68.0188 338.344 67.9188 338.544 67.8188 339.043C67.7188 339.542 67.5188 340.24 67.3188 341.038C67.1188 341.836 66.9188 342.934 66.7188 344.131C66.5187 345.328 66.2187 346.725 66.0187 348.222C65.0187 354.308 64.1187 362.889 63.7187 372.367C63.3187 381.846 63.3187 390.426 63.7187 396.612C63.9187 399.705 64.1187 402.2 64.3187 403.896C64.4187 404.694 64.5187 405.392 64.5187 405.891C64.6187 406.39 64.6187 406.59 64.6187 406.59Z" fill="#263238"/>
<path d="M63.6187 390.127C63.6187 390.127 63.6187 389.428 63.5187 388.032C63.3187 386.735 63.0187 384.739 62.5187 382.444C62.0187 380.15 61.2187 377.356 60.1187 374.363C59.1186 371.369 57.7186 368.077 56.0186 364.884C52.7185 358.299 48.5185 353.011 44.9184 349.818C44.1184 348.92 43.1184 348.322 42.4184 347.723C42.0184 347.424 41.7184 347.124 41.3184 346.925C41.0184 346.725 40.6183 346.526 40.3183 346.326C39.1183 345.628 38.5183 345.229 38.5183 345.328C38.4183 345.428 41.1184 346.825 44.6184 350.118C48.1185 353.41 52.2185 358.598 55.5186 365.183C57.2186 368.376 58.5186 371.669 59.6186 374.562C60.7187 377.555 61.5187 380.249 62.1187 382.544C62.7187 384.839 63.0187 386.735 63.3187 388.032C63.4187 389.329 63.6187 390.127 63.6187 390.127Z" fill="#263238"/>
<path d="M216.221 161.844C214.421 155.359 205.921 155.957 205.921 155.957L206.121 160.447C211.021 159.649 214.121 165.336 214.121 165.336L216.221 161.844Z" fill="#E8505B"/>
<path d="M132.62 85.916C128.02 86.4149 127.52 92.102 127.52 92.102L130.62 92.5011C130.62 89.1088 134.82 87.7119 134.82 87.7119L132.62 85.916Z" fill="#E8505B"/>
<path d="M175.32 25.1536C178.12 32.2376 187.62 30.6412 187.62 30.6412L186.82 25.5527C181.42 27.0493 177.32 20.9631 177.32 20.9631L175.32 25.1536Z" fill="#E8505B"/>
<path d="M68.7187 145.182C64.1187 145.681 63.6187 151.368 63.6187 151.368L66.7187 151.767C66.7187 148.375 70.9188 146.978 70.9188 146.978L68.7187 145.182Z" fill="#E8505B"/>
<path d="M87.6191 47.8023C88.3191 43.2127 82.819 41.317 82.819 41.317L81.719 44.2105C85.019 45.0087 85.319 49.3987 85.319 49.3987L87.6191 47.8023Z" fill="#E8505B"/>
<path d="M9.21775 117.644C8.41774 124.828 17.9179 126.524 17.9179 126.524L19.6179 121.835C13.9178 121.336 13.1178 114.651 13.1178 114.651L9.21775 117.644Z" fill="#E8505B"/>
<path d="M234.421 83.2221C239.021 83.5214 240.521 77.9341 240.521 77.9341L237.521 77.0361C237.021 80.3287 232.621 81.0271 232.621 81.0271L234.421 83.2221Z" fill="#E8505B"/>
<path d="M71.4743 194.034C72.0423 194.17 72.4703 194.414 72.7583 194.766C73.0543 195.11 73.2023 195.554 73.2023 196.098C73.2023 196.826 72.9343 197.39 72.3983 197.79C71.8703 198.19 71.0983 198.39 70.0823 198.39H66.2423V189.99H69.8543C70.7743 189.99 71.4903 190.178 72.0023 190.554C72.5223 190.922 72.7823 191.454 72.7823 192.15C72.7823 192.606 72.6663 192.994 72.4343 193.314C72.2103 193.634 71.8903 193.874 71.4743 194.034ZM67.4303 193.686H69.7703C70.3543 193.686 70.7983 193.57 71.1023 193.338C71.4143 193.106 71.5703 192.766 71.5703 192.318C71.5703 191.87 71.4143 191.53 71.1023 191.298C70.7903 191.058 70.3463 190.938 69.7703 190.938H67.4303V193.686ZM70.0583 197.442C71.3463 197.442 71.9903 196.962 71.9903 196.002C71.9903 195.522 71.8263 195.17 71.4983 194.946C71.1783 194.714 70.6983 194.598 70.0583 194.598H67.4303V197.442H70.0583ZM77.2832 191.97C78.1632 191.97 78.8352 192.186 79.2992 192.618C79.7712 193.05 80.0072 193.694 80.0072 194.55V198.39H78.9152V197.55C78.7232 197.846 78.4472 198.074 78.0872 198.234C77.7352 198.386 77.3152 198.462 76.8272 198.462C76.1152 198.462 75.5432 198.29 75.1112 197.946C74.6872 197.602 74.4752 197.15 74.4752 196.59C74.4752 196.03 74.6792 195.582 75.0872 195.246C75.4952 194.902 76.1432 194.73 77.0312 194.73H78.8552V194.502C78.8552 194.006 78.7112 193.626 78.4232 193.362C78.1352 193.098 77.7112 192.966 77.1512 192.966C76.7752 192.966 76.4072 193.03 76.0472 193.158C75.6872 193.278 75.3832 193.442 75.1352 193.65L74.6552 192.786C74.9832 192.522 75.3752 192.322 75.8312 192.186C76.2872 192.042 76.7712 191.97 77.2832 191.97ZM77.0192 197.574C77.4592 197.574 77.8392 197.478 78.1592 197.286C78.4792 197.086 78.7112 196.806 78.8552 196.446V195.558H77.0792C76.1032 195.558 75.6152 195.886 75.6152 196.542C75.6152 196.862 75.7392 197.114 75.9872 197.298C76.2352 197.482 76.5792 197.574 77.0192 197.574ZM91.1416 192.03V198.39H82.0816V192.03H83.2336V197.382H86.0416V192.03H87.1936V197.382H89.9896V192.03H91.1416ZM99.3731 198.462C98.7251 198.462 98.1451 198.322 97.6331 198.042C97.1291 197.762 96.7331 197.378 96.4451 196.89C96.1571 196.394 96.0131 195.834 96.0131 195.21C96.0131 194.586 96.1571 194.03 96.4451 193.542C96.7331 193.046 97.1291 192.662 97.6331 192.39C98.1451 192.11 98.7251 191.97 99.3731 191.97C99.9491 191.97 100.461 192.086 100.909 192.318C101.365 192.55 101.717 192.886 101.965 193.326L101.089 193.89C100.889 193.586 100.641 193.358 100.345 193.206C100.049 193.054 99.7211 192.978 99.3611 192.978C98.9451 192.978 98.5691 193.07 98.2331 193.254C97.9051 193.438 97.6451 193.702 97.4531 194.046C97.2691 194.382 97.1771 194.77 97.1771 195.21C97.1771 195.658 97.2691 196.054 97.4531 196.398C97.6451 196.734 97.9051 196.994 98.2331 197.178C98.5691 197.362 98.9451 197.454 99.3611 197.454C99.7211 197.454 100.049 197.378 100.345 197.226C100.641 197.074 100.889 196.846 101.089 196.542L101.965 197.094C101.717 197.534 101.365 197.874 100.909 198.114C100.461 198.346 99.9491 198.462 99.3731 198.462ZM106.087 198.462C105.455 198.462 104.887 198.322 104.383 198.042C103.879 197.762 103.483 197.378 103.195 196.89C102.915 196.394 102.775 195.834 102.775 195.21C102.775 194.586 102.915 194.03 103.195 193.542C103.483 193.046 103.879 192.662 104.383 192.39C104.887 192.11 105.455 191.97 106.087 191.97C106.719 191.97 107.283 192.11 107.779 192.39C108.283 192.662 108.675 193.046 108.955 193.542C109.243 194.03 109.387 194.586 109.387 195.21C109.387 195.834 109.243 196.394 108.955 196.89C108.675 197.378 108.283 197.762 107.779 198.042C107.283 198.322 106.719 198.462 106.087 198.462ZM106.087 197.454C106.495 197.454 106.859 197.362 107.179 197.178C107.507 196.986 107.763 196.722 107.947 196.386C108.131 196.042 108.223 195.65 108.223 195.21C108.223 194.77 108.131 194.382 107.947 194.046C107.763 193.702 107.507 193.438 107.179 193.254C106.859 193.07 106.495 192.978 106.087 192.978C105.679 192.978 105.311 193.07 104.983 193.254C104.663 193.438 104.407 193.702 104.215 194.046C104.031 194.382 103.939 194.77 103.939 195.21C103.939 195.65 104.031 196.042 104.215 196.386C104.407 196.722 104.663 196.986 104.983 197.178C105.311 197.362 105.679 197.454 106.087 197.454ZM115.556 193.038H113.228V198.39H112.076V193.038H109.748V192.03H115.556V193.038ZM120.106 191.97C120.722 191.97 121.274 192.106 121.762 192.378C122.25 192.65 122.63 193.03 122.902 193.518C123.182 194.006 123.322 194.57 123.322 195.21C123.322 195.85 123.182 196.418 122.902 196.914C122.63 197.402 122.25 197.782 121.762 198.054C121.274 198.326 120.722 198.462 120.106 198.462C119.65 198.462 119.23 198.374 118.846 198.198C118.47 198.022 118.15 197.766 117.886 197.43V200.718H116.734V192.03H117.838V193.038C118.094 192.686 118.418 192.422 118.81 192.246C119.202 192.062 119.634 191.97 120.106 191.97ZM120.01 197.454C120.418 197.454 120.782 197.362 121.102 197.178C121.43 196.986 121.686 196.722 121.87 196.386C122.062 196.042 122.158 195.65 122.158 195.21C122.158 194.77 122.062 194.382 121.87 194.046C121.686 193.702 121.43 193.438 121.102 193.254C120.782 193.07 120.418 192.978 120.01 192.978C119.61 192.978 119.246 193.074 118.918 193.266C118.598 193.45 118.342 193.71 118.15 194.046C117.966 194.382 117.874 194.77 117.874 195.21C117.874 195.65 117.966 196.042 118.15 196.386C118.334 196.722 118.59 196.986 118.918 197.178C119.246 197.362 119.61 197.454 120.01 197.454ZM130.496 192.03L127.412 199.026C127.14 199.674 126.82 200.13 126.452 200.394C126.092 200.658 125.656 200.79 125.144 200.79C124.832 200.79 124.528 200.738 124.232 200.634C123.944 200.538 123.704 200.394 123.512 200.202L124.004 199.338C124.332 199.65 124.712 199.806 125.144 199.806C125.424 199.806 125.656 199.73 125.84 199.578C126.032 199.434 126.204 199.182 126.356 198.822L126.56 198.378L123.752 192.03H124.952L127.172 197.118L129.368 192.03H130.496ZM137.803 197.382V199.866H136.723V198.39H131.407V199.866H130.315V197.382H130.651C131.059 197.358 131.339 197.07 131.491 196.518C131.643 195.966 131.747 195.186 131.803 194.178L131.899 192.03H136.831V197.382H137.803ZM132.859 194.262C132.827 195.062 132.759 195.726 132.655 196.254C132.559 196.774 132.379 197.15 132.115 197.382H135.679V193.038H132.919L132.859 194.262ZM139.304 192.03H140.456V194.73H144.08V192.03H145.232V198.39H144.08V195.726H140.456V198.39H139.304V192.03ZM147.472 192.03H148.624V196.662L152.524 192.03H153.568V198.39H152.416V193.758L148.528 198.39H147.472V192.03ZM158.276 195.702H156.956V198.39H155.804V192.03H156.956V194.718H158.3L160.364 192.03H161.6L159.188 195.09L161.768 198.39H160.412L158.276 195.702ZM166.199 192.03H167.351V194.73H170.975V192.03H172.127V198.39H170.975V195.726H167.351V198.39H166.199V192.03ZM176.635 191.97C177.515 191.97 178.187 192.186 178.651 192.618C179.123 193.05 179.359 193.694 179.359 194.55V198.39H178.267V197.55C178.075 197.846 177.799 198.074 177.439 198.234C177.087 198.386 176.667 198.462 176.179 198.462C175.467 198.462 174.895 198.29 174.463 197.946C174.039 197.602 173.827 197.15 173.827 196.59C173.827 196.03 174.031 195.582 174.439 195.246C174.847 194.902 175.495 194.73 176.383 194.73H178.207V194.502C178.207 194.006 178.063 193.626 177.775 193.362C177.487 193.098 177.063 192.966 176.503 192.966C176.127 192.966 175.759 193.03 175.399 193.158C175.039 193.278 174.735 193.442 174.487 193.65L174.007 192.786C174.335 192.522 174.727 192.322 175.183 192.186C175.639 192.042 176.123 191.97 176.635 191.97ZM176.371 197.574C176.811 197.574 177.191 197.478 177.511 197.286C177.831 197.086 178.063 196.806 178.207 196.446V195.558H176.431C175.455 195.558 174.967 195.886 174.967 196.542C174.967 196.862 175.091 197.114 175.339 197.298C175.587 197.482 175.931 197.574 176.371 197.574ZM181.433 192.03H182.585V196.662L186.485 192.03H187.529V198.39H186.377V193.758L182.489 198.39H181.433V192.03ZM184.409 191.202C183.817 191.202 183.357 191.062 183.029 190.782C182.701 190.494 182.533 190.082 182.525 189.546H183.305C183.313 189.842 183.413 190.082 183.605 190.266C183.805 190.442 184.069 190.53 184.397 190.53C184.725 190.53 184.989 190.442 185.189 190.266C185.389 190.082 185.493 189.842 185.501 189.546H186.305C186.297 190.082 186.125 190.494 185.789 190.782C185.453 191.062 184.993 191.202 184.409 191.202ZM196.233 197.382V199.866H195.153V198.39H189.837V199.866H188.745V197.382H189.081C189.489 197.358 189.769 197.07 189.921 196.518C190.073 195.966 190.177 195.186 190.233 194.178L190.329 192.03H195.261V197.382H196.233ZM191.289 194.262C191.257 195.062 191.189 195.726 191.085 196.254C190.989 196.774 190.809 197.15 190.545 197.382H194.109V193.038H191.349L191.289 194.262ZM203.482 195.246C203.482 195.334 203.474 195.45 203.458 195.594H198.298C198.37 196.154 198.614 196.606 199.03 196.95C199.454 197.286 199.978 197.454 200.602 197.454C201.362 197.454 201.974 197.198 202.438 196.686L203.074 197.43C202.786 197.766 202.426 198.022 201.994 198.198C201.57 198.374 201.094 198.462 200.566 198.462C199.894 198.462 199.298 198.326 198.778 198.054C198.258 197.774 197.854 197.386 197.566 196.89C197.286 196.394 197.146 195.834 197.146 195.21C197.146 194.594 197.282 194.038 197.554 193.542C197.834 193.046 198.214 192.662 198.694 192.39C199.182 192.11 199.73 191.97 200.338 191.97C200.946 191.97 201.486 192.11 201.958 192.39C202.438 192.662 202.81 193.046 203.074 193.542C203.346 194.038 203.482 194.606 203.482 195.246ZM200.338 192.942C199.786 192.942 199.322 193.11 198.946 193.446C198.578 193.782 198.362 194.222 198.298 194.766H202.378C202.314 194.23 202.094 193.794 201.718 193.458C201.35 193.114 200.89 192.942 200.338 192.942ZM205.269 192.03H206.421V194.73H210.045V192.03H211.197V198.39H210.045V195.726H206.421V198.39H205.269V192.03ZM213.257 189.99H214.613L214.385 195.738H213.473L213.257 189.99ZM213.941 198.462C213.717 198.462 213.529 198.39 213.377 198.246C213.225 198.094 213.149 197.91 213.149 197.694C213.149 197.478 213.225 197.298 213.377 197.154C213.529 197.002 213.717 196.926 213.941 196.926C214.165 196.926 214.349 197.002 214.493 197.154C214.637 197.298 214.709 197.478 214.709 197.694C214.709 197.91 214.633 198.094 214.481 198.246C214.337 198.39 214.157 198.462 213.941 198.462Z" fill="#12272F"/>
<path d="M79.12 211V218H78.14V211.87H74.08V218H73.09V211H79.12ZM84.4529 218.08C83.7462 218.08 83.1096 217.927 82.5429 217.62C81.9762 217.307 81.5296 216.877 81.2029 216.33C80.8829 215.783 80.7229 215.173 80.7229 214.5C80.7229 213.827 80.8829 213.217 81.2029 212.67C81.5296 212.123 81.9762 211.697 82.5429 211.39C83.1096 211.077 83.7462 210.92 84.4529 210.92C85.1529 210.92 85.7862 211.077 86.3529 211.39C86.9196 211.697 87.3629 212.123 87.6829 212.67C88.0029 213.21 88.1629 213.82 88.1629 214.5C88.1629 215.18 88.0029 215.793 87.6829 216.34C87.3629 216.88 86.9196 217.307 86.3529 217.62C85.7862 217.927 85.1529 218.08 84.4529 218.08ZM84.4529 217.19C84.9662 217.19 85.4262 217.073 85.8329 216.84C86.2462 216.607 86.5696 216.287 86.8029 215.88C87.0429 215.467 87.1629 215.007 87.1629 214.5C87.1629 213.993 87.0429 213.537 86.8029 213.13C86.5696 212.717 86.2462 212.393 85.8329 212.16C85.4262 211.927 84.9662 211.81 84.4529 211.81C83.9396 211.81 83.4729 211.927 83.0529 212.16C82.6396 212.393 82.3129 212.717 82.0729 213.13C81.8396 213.537 81.7229 213.993 81.7229 214.5C81.7229 215.007 81.8396 215.467 82.0729 215.88C82.3129 216.287 82.6396 216.607 83.0529 216.84C83.4729 217.073 83.9396 217.19 84.4529 217.19ZM92.9095 218.08C92.2095 218.08 91.5761 217.927 91.0095 217.62C90.4495 217.307 90.0095 216.88 89.6895 216.34C89.3695 215.793 89.2095 215.18 89.2095 214.5C89.2095 213.82 89.3695 213.21 89.6895 212.67C90.0095 212.123 90.4528 211.697 91.0195 211.39C91.5861 211.077 92.2195 210.92 92.9195 210.92C93.4661 210.92 93.9661 211.013 94.4195 211.2C94.8728 211.38 95.2595 211.65 95.5795 212.01L94.9295 212.64C94.4028 212.087 93.7461 211.81 92.9595 211.81C92.4395 211.81 91.9695 211.927 91.5495 212.16C91.1295 212.393 90.7995 212.717 90.5595 213.13C90.3261 213.537 90.2095 213.993 90.2095 214.5C90.2095 215.007 90.3261 215.467 90.5595 215.88C90.7995 216.287 91.1295 216.607 91.5495 216.84C91.9695 217.073 92.4395 217.19 92.9595 217.19C93.7395 217.19 94.3961 216.91 94.9295 216.35L95.5795 216.98C95.2595 217.34 94.8695 217.613 94.4095 217.8C93.9561 217.987 93.4561 218.08 92.9095 218.08ZM103.447 218L103.437 212.9L100.907 217.15H100.447L97.9172 212.93V218H96.9572V211H97.7772L100.697 215.92L103.577 211H104.397L104.407 218H103.447ZM109.736 218.08C109.029 218.08 108.393 217.927 107.826 217.62C107.259 217.307 106.813 216.877 106.486 216.33C106.166 215.783 106.006 215.173 106.006 214.5C106.006 213.827 106.166 213.217 106.486 212.67C106.813 212.123 107.259 211.697 107.826 211.39C108.393 211.077 109.029 210.92 109.736 210.92C110.436 210.92 111.069 211.077 111.636 211.39C112.203 211.697 112.646 212.123 112.966 212.67C113.286 213.21 113.446 213.82 113.446 214.5C113.446 215.18 113.286 215.793 112.966 216.34C112.646 216.88 112.203 217.307 111.636 217.62C111.069 217.927 110.436 218.08 109.736 218.08ZM109.736 217.19C110.249 217.19 110.709 217.073 111.116 216.84C111.529 216.607 111.853 216.287 112.086 215.88C112.326 215.467 112.446 215.007 112.446 214.5C112.446 213.993 112.326 213.537 112.086 213.13C111.853 212.717 111.529 212.393 111.116 212.16C110.709 211.927 110.249 211.81 109.736 211.81C109.223 211.81 108.756 211.927 108.336 212.16C107.923 212.393 107.596 212.717 107.356 213.13C107.123 213.537 107.006 213.993 107.006 214.5C107.006 215.007 107.123 215.467 107.356 215.88C107.596 216.287 107.923 216.607 108.336 216.84C108.756 217.073 109.223 217.19 109.736 217.19ZM119.775 211.87H117.375V218H116.395V211.87H114.005V211H119.775V211.87ZM123.72 211C124.627 211 125.34 211.217 125.86 211.65C126.38 212.083 126.64 212.68 126.64 213.44C126.64 214.2 126.38 214.797 125.86 215.23C125.34 215.663 124.627 215.88 123.72 215.88H121.99V218H120.99V211H123.72ZM123.69 215.01C124.324 215.01 124.807 214.877 125.14 214.61C125.474 214.337 125.64 213.947 125.64 213.44C125.64 212.933 125.474 212.547 125.14 212.28C124.807 212.007 124.324 211.87 123.69 211.87H121.99V215.01H123.69ZM133.111 217.13V218H128.031V211H132.971V211.87H129.031V214.02H132.541V214.87H129.031V217.13H133.111ZM139.492 211.87H137.092V218H136.112V211.87H133.722V211H139.492V211.87ZM143.777 213.44C144.611 213.44 145.247 213.627 145.687 214C146.134 214.373 146.357 214.923 146.357 215.65C146.357 216.417 146.117 217 145.637 217.4C145.164 217.8 144.484 218 143.597 218H140.707V211H141.697V213.44H143.777ZM143.557 217.21C144.137 217.21 144.581 217.08 144.887 216.82C145.201 216.553 145.357 216.17 145.357 215.67C145.357 214.71 144.757 214.23 143.557 214.23H141.697V217.21H143.557ZM153.252 211C154.158 211 154.872 211.217 155.392 211.65C155.912 212.083 156.172 212.68 156.172 213.44C156.172 214.2 155.912 214.797 155.392 215.23C154.872 215.663 154.158 215.88 153.252 215.88H151.522V218H150.522V211H153.252ZM153.222 215.01C153.855 215.01 154.338 214.877 154.672 214.61C155.005 214.337 155.172 213.947 155.172 213.44C155.172 212.933 155.005 212.547 154.672 212.28C154.338 212.007 153.855 211.87 153.222 211.87H151.522V215.01H153.222ZM162.643 217.13V218H157.563V211H162.503V211.87H158.563V214.02H162.073V214.87H158.563V217.13H162.643ZM167.563 214.35C168.003 214.47 168.346 214.68 168.593 214.98C168.84 215.273 168.963 215.627 168.963 216.04C168.963 216.453 168.83 216.817 168.563 217.13C168.303 217.437 167.953 217.673 167.513 217.84C167.08 218 166.606 218.08 166.093 218.08C165.626 218.08 165.163 218.01 164.703 217.87C164.243 217.73 163.823 217.52 163.443 217.24L163.793 216.5C164.1 216.74 164.443 216.92 164.823 217.04C165.203 217.16 165.586 217.22 165.973 217.22C166.533 217.22 167.003 217.103 167.383 216.87C167.763 216.63 167.953 216.303 167.953 215.89C167.953 215.537 167.81 215.267 167.523 215.08C167.236 214.887 166.833 214.79 166.313 214.79H164.753V213.98H166.243C166.69 213.98 167.036 213.89 167.283 213.71C167.536 213.523 167.663 213.267 167.663 212.94C167.663 212.573 167.5 212.283 167.173 212.07C166.846 211.857 166.433 211.75 165.933 211.75C165.606 211.75 165.273 211.797 164.933 211.89C164.6 211.983 164.283 212.123 163.983 212.31L163.663 211.49C164.016 211.29 164.39 211.14 164.783 211.04C165.176 210.94 165.57 210.89 165.963 210.89C166.456 210.89 166.91 210.967 167.323 211.12C167.736 211.273 168.063 211.497 168.303 211.79C168.55 212.083 168.673 212.427 168.673 212.82C168.673 213.173 168.573 213.483 168.373 213.75C168.18 214.017 167.91 214.217 167.563 214.35ZM176.429 210.92C177.102 210.92 177.709 211.077 178.249 211.39C178.789 211.697 179.212 212.123 179.519 212.67C179.832 213.21 179.989 213.82 179.989 214.5C179.989 215.18 179.832 215.793 179.519 216.34C179.212 216.88 178.789 217.307 178.249 217.62C177.709 217.927 177.102 218.08 176.429 218.08C175.802 218.08 175.232 217.943 174.719 217.67C174.206 217.397 173.789 217.02 173.469 216.54C173.149 216.06 172.959 215.513 172.899 214.9H171.619V218H170.629V211H171.619V214H172.909C172.982 213.407 173.179 212.877 173.499 212.41C173.826 211.943 174.242 211.58 174.749 211.32C175.256 211.053 175.816 210.92 176.429 210.92ZM176.429 217.18C176.909 217.18 177.342 217.067 177.729 216.84C178.122 216.607 178.429 216.287 178.649 215.88C178.876 215.473 178.989 215.013 178.989 214.5C178.989 213.987 178.876 213.527 178.649 213.12C178.429 212.713 178.122 212.397 177.729 212.17C177.342 211.937 176.909 211.82 176.429 211.82C175.956 211.82 175.526 211.937 175.139 212.17C174.752 212.397 174.446 212.713 174.219 213.12C173.999 213.527 173.889 213.987 173.889 214.5C173.889 215.013 173.999 215.473 174.219 215.88C174.446 216.287 174.752 216.607 175.139 216.84C175.526 217.067 175.956 217.18 176.429 217.18ZM188.105 218L188.095 212.9L185.565 217.15H185.105L182.575 212.93V218H181.615V211H182.435L185.355 215.92L188.235 211H189.055L189.065 218H188.105ZM196.324 217.13V218H191.244V211H196.184V211.87H192.244V214.02H195.754V214.87H192.244V217.13H196.324ZM198.968 215.79C198.968 215.523 199.011 215.29 199.098 215.09C199.191 214.883 199.301 214.71 199.428 214.57C199.561 214.43 199.734 214.263 199.948 214.07C200.214 213.837 200.411 213.637 200.538 213.47C200.664 213.297 200.728 213.09 200.728 212.85C200.728 212.523 200.601 212.263 200.348 212.07C200.094 211.87 199.744 211.77 199.298 211.77C198.518 211.77 197.921 212.033 197.508 212.56L196.778 212.04C197.058 211.68 197.414 211.403 197.848 211.21C198.288 211.017 198.794 210.92 199.368 210.92C200.094 210.92 200.671 211.08 201.098 211.4C201.524 211.713 201.737 212.147 201.737 212.7C201.737 212.973 201.691 213.217 201.598 213.43C201.511 213.637 201.404 213.81 201.278 213.95C201.151 214.09 200.981 214.257 200.768 214.45C200.494 214.697 200.291 214.913 200.158 215.1C200.031 215.287 199.968 215.517 199.968 215.79H198.968ZM199.478 218.06C199.291 218.06 199.134 218 199.008 217.88C198.888 217.753 198.828 217.6 198.828 217.42C198.828 217.24 198.888 217.09 199.008 216.97C199.134 216.843 199.291 216.78 199.478 216.78C199.664 216.78 199.818 216.843 199.938 216.97C200.058 217.09 200.118 217.24 200.118 217.42C200.118 217.6 200.054 217.753 199.928 217.88C199.808 218 199.658 218.06 199.478 218.06Z" fill="#E8505B"/>
<path d="M135.76 255.13V257.53H134.83V256H129.07L129.06 257.53H128.13L128.14 255.13H128.48C128.92 255.103 129.23 254.757 129.41 254.09C129.59 253.417 129.7 252.47 129.74 251.25L129.81 249H134.73V255.13H135.76ZM130.62 251.34C130.587 252.327 130.507 253.143 130.38 253.79C130.26 254.437 130.063 254.883 129.79 255.13H133.74V249.87H130.67L130.62 251.34ZM138.857 250.65C139.59 250.65 140.15 250.83 140.537 251.19C140.93 251.55 141.127 252.087 141.127 252.8V256H140.217V255.3C140.057 255.547 139.827 255.737 139.527 255.87C139.234 255.997 138.884 256.06 138.477 256.06C137.884 256.06 137.407 255.917 137.047 255.63C136.694 255.343 136.517 254.967 136.517 254.5C136.517 254.033 136.687 253.66 137.027 253.38C137.367 253.093 137.907 252.95 138.647 252.95H140.167V252.76C140.167 252.347 140.047 252.03 139.807 251.81C139.567 251.59 139.214 251.48 138.747 251.48C138.434 251.48 138.127 251.533 137.827 251.64C137.527 251.74 137.274 251.877 137.067 252.05L136.667 251.33C136.94 251.11 137.267 250.943 137.647 250.83C138.027 250.71 138.43 250.65 138.857 250.65ZM138.637 255.32C139.004 255.32 139.32 255.24 139.587 255.08C139.854 254.913 140.047 254.68 140.167 254.38V253.64H138.687C137.874 253.64 137.467 253.913 137.467 254.46C137.467 254.727 137.57 254.937 137.777 255.09C137.984 255.243 138.27 255.32 138.637 255.32ZM142.706 249H143.836L143.646 253.79H142.886L142.706 249ZM143.276 256.06C143.089 256.06 142.932 256 142.806 255.88C142.679 255.753 142.616 255.6 142.616 255.42C142.616 255.24 142.679 255.09 142.806 254.97C142.932 254.843 143.089 254.78 143.276 254.78C143.462 254.78 143.616 254.843 143.736 254.97C143.856 255.09 143.916 255.24 143.916 255.42C143.916 255.6 143.852 255.753 143.726 255.88C143.606 256 143.456 256.06 143.276 256.06Z" fill="white"/>
</g>
<defs>
<clipPath id="clip0_91_8238">
<rect width="466" height="409" fill="white" transform="translate(0 0.5271)"/>
</clipPath>
</defs>
</svg>
