<svg width="32" height="46" viewBox="0 0 32 46" fill="none" xmlns="http://www.w3.org/2000/svg">
<path d="M13.6132 43.7236C15.0788 46.1588 18.8093 46.0306 20.0084 43.4673L28.9349 25.6522C32.1324 18.6031 31.9992 14.7581 31.9992 14.7581C31.9992 3.99222 20.4081 -2.92872 8.41722 2.19791C6.01905 3.22324 4.02059 4.76121 2.55504 6.81187C-1.4419 12.7075 -0.24281 19.7566 2.68828 25.5241L13.6132 43.7236ZM21.0742 24.1143C12.2809 28.9846 3.62089 19.8848 8.41722 11.0413C9.08338 9.88785 10.016 8.86253 11.2151 8.2217C20.0084 3.3514 28.6684 12.4512 23.8721 21.2946C23.2059 22.4481 22.1401 23.4734 21.0742 24.1143Z" fill="#E8505B"/>
</svg>
